<?plantuml 1.2026.1?><svg xmlns="http://www.w3.org/2000/svg" xmlns:xlink="http://www.w3.org/1999/xlink" contentStyleType="text/css" data-diagram-type="DESCRIPTION" height="858px" preserveAspectRatio="none" style="width:882px;height:858px;background:#FEFEFE;" version="1.1" viewBox="0 0 882 858" width="882px" zoomAndPan="magnify"><title>**SaaS**\n&lt;size:13&gt;Arquitetura e Modulos Principais&lt;/size&gt;\n&lt;size:11&gt;Resumo para portifolio&lt;/size&gt;</title><defs/><g><rect fill="#FEFEFE" height="858" style="stroke:none;stroke-width:1;" width="882" x="0" y="0"/><g class="title" data-source-line="10"><text fill="#000000" font-family="'Segoe UI'" font-size="22" font-weight="bold" lengthAdjust="spacing" textLength="48.3398" x="228.6953" y="38.7402">SaaS</text><text fill="#000000" font-family="'Segoe UI'" font-size="22" font-weight="bold" lengthAdjust="spacing" textLength="22.9023" x="277.0352" y="38.7402">\n</text><text fill="#000000" font-family="'Segoe UI'" font-size="13" font-weight="bold" lengthAdjust="spacing" textLength="201.6841" x="299.9375" y="40.999">Arquitetura e Modulos Principais</text><text fill="#000000" font-family="'Segoe UI'" font-size="22" font-weight="bold" lengthAdjust="spacing" textLength="22.9023" x="501.6216" y="38.7402">\n</text><text fill="#000000" font-family="'Segoe UI'" font-size="11" font-weight="bold" lengthAdjust="spacing" textLength="119.7808" x="524.5239" y="41.501">Resumo para portifolio</text></g><!--cluster main--><g class="cluster" data-qualified-name="main" data-source-line="22" id="ent0002"><rect fill="#E3F2FD" height="125" rx="5" ry="5" style="stroke:#000000;stroke-width:1;" width="129" x="17" y="62.2617"/><text fill="#000000" font-family="'Segoe UI'" font-size="11" font-style="italic" lengthAdjust="spacing" textLength="57.7285" x="52.6357" y="76.1318">&#171;Rectangle&#187;</text><text fill="#000000" font-family="'Segoe UI'" font-size="11" font-weight="bold" lengthAdjust="spacing" textLength="98.4683" x="32.2659" y="90.7627">Modulos Principais</text></g><!--cluster code--><g class="cluster" data-qualified-name="code" data-source-line="26" id="ent0004"><rect fill="#E8F5E9" height="440" rx="5" ry="5" style="stroke:#000000;stroke-width:1;" width="859" x="17" y="227.2617"/><text fill="#000000" font-family="'Segoe UI'" font-size="11" font-style="italic" lengthAdjust="spacing" textLength="57.7285" x="417.6357" y="241.1318">&#171;Rectangle&#187;</text><text fill="#000000" font-family="'Segoe UI'" font-size="11" font-weight="bold" lengthAdjust="spacing" textLength="143.5156" x="374.7422" y="255.7627">Classes e Funcoes (amostra)</text></g><!--entity infra--><g class="entity" data-qualified-name="main.infra" data-source-line="23" id="ent0003"><rect fill="#FFFFFF" height="44.6309" rx="5" ry="5" style="stroke:#000000;stroke-width:1;" width="61.7529" x="60" y="118.2617"/><rect fill="#FFFFFF" height="10" style="stroke:#000000;stroke-width:1;" width="15" x="101.7529" y="123.2617"/><rect fill="#FFFFFF" height="2" style="stroke:#000000;stroke-width:1;" width="4" x="99.7529" y="125.2617"/><rect fill="#FFFFFF" height="2" style="stroke:#000000;stroke-width:1;" width="4" x="99.7529" y="129.2617"/><text fill="#000000" font-family="'Segoe UI'" font-size="11" lengthAdjust="spacing" textLength="21.7529" x="75" y="150.1318">infra</text></g><!--entity code_1--><g class="entity" data-qualified-name="code.code_1" data-source-line="27" id="ent0005"><rect fill="#FFFFFF" height="44.6309" rx="5" ry="5" style="stroke:#000000;stroke-width:1;" width="84.8755" x="75.5" y="283.2617"/><rect fill="#FFFFFF" height="10" style="stroke:#000000;stroke-width:1;" width="15" x="140.3755" y="288.2617"/><rect fill="#FFFFFF" height="2" style="stroke:#000000;stroke-width:1;" width="4" x="138.3755" y="290.2617"/><rect fill="#FFFFFF" height="2" style="stroke:#000000;stroke-width:1;" width="4" x="138.3755" y="294.2617"/><text fill="#000000" font-family="'Segoe UI'" font-size="11" lengthAdjust="spacing" textLength="44.8755" x="90.5" y="315.1318">LoginDto</text></g><!--entity code_2--><g class="entity" data-qualified-name="code.code_2" data-source-line="28" id="ent0006"><rect fill="#FFFFFF" height="44.6309" rx="5" ry="5" style="stroke:#000000;stroke-width:1;" width="123.7837" x="196" y="283.2617"/><rect fill="#FFFFFF" height="10" style="stroke:#000000;stroke-width:1;" width="15" x="299.7837" y="288.2617"/><rect fill="#FFFFFF" height="2" style="stroke:#000000;stroke-width:1;" width="4" x="297.7837" y="290.2617"/><rect fill="#FFFFFF" height="2" style="stroke:#000000;stroke-width:1;" width="4" x="297.7837" y="294.2617"/><text fill="#000000" font-family="'Segoe UI'" font-size="11" lengthAdjust="spacing" textLength="83.7837" x="211" y="315.1318">RefreshTokenDto</text></g><!--entity code_3--><g class="entity" data-qualified-name="code.code_3" data-source-line="29" id="ent0007"><rect fill="#FFFFFF" height="44.6309" rx="5" ry="5" style="stroke:#000000;stroke-width:1;" width="97.3311" x="355.5" y="283.2617"/><rect fill="#FFFFFF" height="10" style="stroke:#000000;stroke-width:1;" width="15" x="432.8311" y="288.2617"/><rect fill="#FFFFFF" height="2" style="stroke:#000000;stroke-width:1;" width="4" x="430.8311" y="290.2617"/><rect fill="#FFFFFF" height="2" style="stroke:#000000;stroke-width:1;" width="4" x="430.8311" y="294.2617"/><text fill="#000000" font-family="'Segoe UI'" font-size="11" lengthAdjust="spacing" textLength="57.3311" x="370.5" y="315.1318">RegisterDto</text></g><!--entity code_4--><g class="entity" data-qualified-name="code.code_4" data-source-line="30" id="ent0008"><rect fill="#FFFFFF" height="44.6309" rx="5" ry="5" style="stroke:#000000;stroke-width:1;" width="131.2603" x="487.5" y="283.2617"/><rect fill="#FFFFFF" height="10" style="stroke:#000000;stroke-width:1;" width="15" x="598.7603" y="288.2617"/><rect fill="#FFFFFF" height="2" style="stroke:#000000;stroke-width:1;" width="4" x="596.7603" y="290.2617"/><rect fill="#FFFFFF" height="2" style="stroke:#000000;stroke-width:1;" width="4" x="596.7603" y="294.2617"/><text fill="#000000" font-family="'Segoe UI'" font-size="11" lengthAdjust="spacing" textLength="91.2603" x="502.5" y="315.1318">CategoryQueryDto</text></g><!--entity code_5--><g class="entity" data-qualified-name="code.code_5" data-source-line="31" id="ent0009"><rect fill="#FFFFFF" height="44.6309" rx="5" ry="5" style="stroke:#000000;stroke-width:1;" width="133.3066" x="653.5" y="283.2617"/><rect fill="#FFFFFF" height="10" style="stroke:#000000;stroke-width:1;" width="15" x="766.8066" y="288.2617"/><rect fill="#FFFFFF" height="2" style="stroke:#000000;stroke-width:1;" width="4" x="764.8066" y="290.2617"/><rect fill="#FFFFFF" height="2" style="stroke:#000000;stroke-width:1;" width="4" x="764.8066" y="294.2617"/><text fill="#000000" font-family="'Segoe UI'" font-size="11" lengthAdjust="spacing" textLength="93.3066" x="668.5" y="315.1318">CreateCategoryDto</text></g><!--entity code_6--><g class="entity" data-qualified-name="code.code_6" data-source-line="32" id="ent0010"><rect fill="#FFFFFF" height="44.6309" rx="5" ry="5" style="stroke:#000000;stroke-width:1;" width="137.4209" x="49.5" y="388.2617"/><rect fill="#FFFFFF" height="10" style="stroke:#000000;stroke-width:1;" width="15" x="166.9209" y="393.2617"/><rect fill="#FFFFFF" height="2" style="stroke:#000000;stroke-width:1;" width="4" x="164.9209" y="395.2617"/><rect fill="#FFFFFF" height="2" style="stroke:#000000;stroke-width:1;" width="4" x="164.9209" y="399.2617"/><text fill="#000000" font-family="'Segoe UI'" font-size="11" lengthAdjust="spacing" textLength="97.4209" x="64.5" y="420.1318">UpdateCategoryDto</text></g><!--entity code_7--><g class="entity" data-qualified-name="code.code_7" data-source-line="33" id="ent0011"><rect fill="#FFFFFF" height="44.6309" rx="5" ry="5" style="stroke:#000000;stroke-width:1;" width="134.0532" x="222" y="388.2617"/><rect fill="#FFFFFF" height="10" style="stroke:#000000;stroke-width:1;" width="15" x="336.0532" y="393.2617"/><rect fill="#FFFFFF" height="2" style="stroke:#000000;stroke-width:1;" width="4" x="334.0532" y="395.2617"/><rect fill="#FFFFFF" height="2" style="stroke:#000000;stroke-width:1;" width="4" x="334.0532" y="399.2617"/><text fill="#000000" font-family="'Segoe UI'" font-size="11" lengthAdjust="spacing" textLength="94.0532" x="237" y="420.1318">CreateMicrositeDto</text></g><!--entity code_8--><g class="entity" data-qualified-name="code.code_8" data-source-line="34" id="ent0012"><rect fill="#FFFFFF" height="44.6309" rx="5" ry="5" style="stroke:#000000;stroke-width:1;" width="132.0068" x="391" y="388.2617"/><rect fill="#FFFFFF" height="10" style="stroke:#000000;stroke-width:1;" width="15" x="503.0068" y="393.2617"/><rect fill="#FFFFFF" height="2" style="stroke:#000000;stroke-width:1;" width="4" x="501.0068" y="395.2617"/><rect fill="#FFFFFF" height="2" style="stroke:#000000;stroke-width:1;" width="4" x="501.0068" y="399.2617"/><text fill="#000000" font-family="'Segoe UI'" font-size="11" lengthAdjust="spacing" textLength="92.0068" x="406" y="420.1318">MicrositeQueryDto</text></g><!--entity code_9--><g class="entity" data-qualified-name="code.code_9" data-source-line="35" id="ent0013"><rect fill="#FFFFFF" height="44.6309" rx="5" ry="5" style="stroke:#000000;stroke-width:1;" width="138.1675" x="558" y="388.2617"/><rect fill="#FFFFFF" height="10" style="stroke:#000000;stroke-width:1;" width="15" x="676.1675" y="393.2617"/><rect fill="#FFFFFF" height="2" style="stroke:#000000;stroke-width:1;" width="4" x="674.1675" y="395.2617"/><rect fill="#FFFFFF" height="2" style="stroke:#000000;stroke-width:1;" width="4" x="674.1675" y="399.2617"/><text fill="#000000" font-family="'Segoe UI'" font-size="11" lengthAdjust="spacing" textLength="98.1675" x="573" y="420.1318">UpdateMicrositeDto</text></g><!--entity code_10--><g class="entity" data-qualified-name="code.code_10" data-source-line="36" id="ent0014"><rect fill="#FFFFFF" height="44.6309" rx="5" ry="5" style="stroke:#000000;stroke-width:1;" width="113.3369" x="731.5" y="388.2617"/><rect fill="#FFFFFF" height="10" style="stroke:#000000;stroke-width:1;" width="15" x="824.8369" y="393.2617"/><rect fill="#FFFFFF" height="2" style="stroke:#000000;stroke-width:1;" width="4" x="822.8369" y="395.2617"/><rect fill="#FFFFFF" height="2" style="stroke:#000000;stroke-width:1;" width="4" x="822.8369" y="399.2617"/><text fill="#000000" font-family="'Segoe UI'" font-size="11" lengthAdjust="spacing" textLength="73.3369" x="746.5" y="420.1318">CreatePageDto</text></g><!--entity code_11--><g class="entity" data-qualified-name="code.code_11" data-source-line="37" id="ent0015"><rect fill="#FFFFFF" height="44.6309" rx="5" ry="5" style="stroke:#000000;stroke-width:1;" width="117.4512" x="57.5" y="493.2617"/><rect fill="#FFFFFF" height="10" style="stroke:#000000;stroke-width:1;" width="15" x="154.9512" y="498.2617"/><rect fill="#FFFFFF" height="2" style="stroke:#000000;stroke-width:1;" width="4" x="152.9512" y="500.2617"/><rect fill="#FFFFFF" height="2" style="stroke:#000000;stroke-width:1;" width="4" x="152.9512" y="504.2617"/><text fill="#000000" font-family="'Segoe UI'" font-size="11" lengthAdjust="spacing" textLength="77.4512" x="72.5" y="525.1318">UpdatePageDto</text></g><!--entity code_12--><g class="entity" data-qualified-name="code.code_12" data-source-line="38" id="ent0016"><rect fill="#FFFFFF" height="44.6309" rx="5" ry="5" style="stroke:#000000;stroke-width:1;" width="139.4028" x="209.5" y="493.2617"/><rect fill="#FFFFFF" height="10" style="stroke:#000000;stroke-width:1;" width="15" x="328.9028" y="498.2617"/><rect fill="#FFFFFF" height="2" style="stroke:#000000;stroke-width:1;" width="4" x="326.9028" y="500.2617"/><rect fill="#FFFFFF" height="2" style="stroke:#000000;stroke-width:1;" width="4" x="326.9028" y="504.2617"/><text fill="#000000" font-family="'Segoe UI'" font-size="11" lengthAdjust="spacing" textLength="99.4028" x="224.5" y="525.1318">CreateOrderItemDto</text></g><!--entity code_13--><g class="entity" data-qualified-name="code.code_13" data-source-line="39" id="ent0017"><rect fill="#FFFFFF" height="44.6309" rx="5" ry="5" style="stroke:#000000;stroke-width:1;" width="117.521" x="384" y="493.2617"/><rect fill="#FFFFFF" height="10" style="stroke:#000000;stroke-width:1;" width="15" x="481.521" y="498.2617"/><rect fill="#FFFFFF" height="2" style="stroke:#000000;stroke-width:1;" width="4" x="479.521" y="500.2617"/><rect fill="#FFFFFF" height="2" style="stroke:#000000;stroke-width:1;" width="4" x="479.521" y="504.2617"/><text fill="#000000" font-family="'Segoe UI'" font-size="11" lengthAdjust="spacing" textLength="77.521" x="399" y="525.1318">CreateOrderDto</text></g><!--entity code_14--><g class="entity" data-qualified-name="code.code_14" data-source-line="40" id="ent0018"><rect fill="#FFFFFF" height="44.6309" rx="5" ry="5" style="stroke:#000000;stroke-width:1;" width="115.4746" x="537.5" y="493.2617"/><rect fill="#FFFFFF" height="10" style="stroke:#000000;stroke-width:1;" width="15" x="632.9746" y="498.2617"/><rect fill="#FFFFFF" height="2" style="stroke:#000000;stroke-width:1;" width="4" x="630.9746" y="500.2617"/><rect fill="#FFFFFF" height="2" style="stroke:#000000;stroke-width:1;" width="4" x="630.9746" y="504.2617"/><text fill="#000000" font-family="'Segoe UI'" font-size="11" lengthAdjust="spacing" textLength="75.4746" x="552.5" y="525.1318">OrderQueryDto</text></g><!--entity code_15--><g class="entity" data-qualified-name="code.code_15" data-source-line="41" id="ent0019"><rect fill="#FFFFFF" height="44.6309" rx="5" ry="5" style="stroke:#000000;stroke-width:1;" width="121.6353" x="688" y="493.2617"/><rect fill="#FFFFFF" height="10" style="stroke:#000000;stroke-width:1;" width="15" x="789.6353" y="498.2617"/><rect fill="#FFFFFF" height="2" style="stroke:#000000;stroke-width:1;" width="4" x="787.6353" y="500.2617"/><rect fill="#FFFFFF" height="2" style="stroke:#000000;stroke-width:1;" width="4" x="787.6353" y="504.2617"/><text fill="#000000" font-family="'Segoe UI'" font-size="11" lengthAdjust="spacing" textLength="81.6353" x="703" y="525.1318">UpdateOrderDto</text></g><!--entity code_16--><g class="entity" data-qualified-name="code.code_16" data-source-line="42" id="ent0020"><rect fill="#FFFFFF" height="44.6309" rx="5" ry="5" style="stroke:#000000;stroke-width:1;" width="131.6094" x="49" y="598.2617"/><rect fill="#FFFFFF" height="10" style="stroke:#000000;stroke-width:1;" width="15" x="160.6094" y="603.2617"/><rect fill="#FFFFFF" height="2" style="stroke:#000000;stroke-width:1;" width="4" x="158.6094" y="605.2617"/><rect fill="#FFFFFF" height="2" style="stroke:#000000;stroke-width:1;" width="4" x="158.6094" y="609.2617"/><text fill="#000000" font-family="'Segoe UI'" font-size="11" lengthAdjust="spacing" textLength="91.6094" x="64" y="630.1318">CreatePaymentDto</text></g><!--entity code_17--><g class="entity" data-qualified-name="code.code_17" data-source-line="43" id="ent0021"><rect fill="#FFFFFF" height="44.6309" rx="5" ry="5" style="stroke:#000000;stroke-width:1;" width="147.2231" x="216.5" y="598.2617"/><rect fill="#FFFFFF" height="10" style="stroke:#000000;stroke-width:1;" width="15" x="343.7231" y="603.2617"/><rect fill="#FFFFFF" height="2" style="stroke:#000000;stroke-width:1;" width="4" x="341.7231" y="605.2617"/><rect fill="#FFFFFF" height="2" style="stroke:#000000;stroke-width:1;" width="4" x="341.7231" y="609.2617"/><text fill="#000000" font-family="'Segoe UI'" font-size="11" lengthAdjust="spacing" textLength="107.2231" x="231.5" y="630.1318">PaymentWebhookDto</text></g><!--entity code_18--><g class="entity" data-qualified-name="code.code_18" data-source-line="44" id="ent0022"><rect fill="#FFFFFF" height="44.6309" rx="5" ry="5" style="stroke:#000000;stroke-width:1;" width="127.291" x="398.5" y="598.2617"/><rect fill="#FFFFFF" height="10" style="stroke:#000000;stroke-width:1;" width="15" x="505.791" y="603.2617"/><rect fill="#FFFFFF" height="2" style="stroke:#000000;stroke-width:1;" width="4" x="503.791" y="605.2617"/><rect fill="#FFFFFF" height="2" style="stroke:#000000;stroke-width:1;" width="4" x="503.791" y="609.2617"/><text fill="#000000" font-family="'Segoe UI'" font-size="11" lengthAdjust="spacing" textLength="87.291" x="413.5" y="630.1318">CreateProductDto</text></g><!--entity code_19--><g class="entity" data-qualified-name="code.code_19" data-source-line="45" id="ent0023"><rect fill="#FFFFFF" height="44.6309" rx="5" ry="5" style="stroke:#000000;stroke-width:1;" width="125.2446" x="560.5" y="598.2617"/><rect fill="#FFFFFF" height="10" style="stroke:#000000;stroke-width:1;" width="15" x="665.7446" y="603.2617"/><rect fill="#FFFFFF" height="2" style="stroke:#000000;stroke-width:1;" width="4" x="663.7446" y="605.2617"/><rect fill="#FFFFFF" height="2" style="stroke:#000000;stroke-width:1;" width="4" x="663.7446" y="609.2617"/><text fill="#000000" font-family="'Segoe UI'" font-size="11" lengthAdjust="spacing" textLength="85.2446" x="575.5" y="630.1318">ProductQueryDto</text></g><!--entity code_20--><g class="entity" data-qualified-name="code.code_20" data-source-line="46" id="ent0024"><rect fill="#FFFFFF" height="44.6309" rx="5" ry="5" style="stroke:#000000;stroke-width:1;" width="131.4053" x="720.5" y="598.2617"/><rect fill="#FFFFFF" height="10" style="stroke:#000000;stroke-width:1;" width="15" x="831.9053" y="603.2617"/><rect fill="#FFFFFF" height="2" style="stroke:#000000;stroke-width:1;" width="4" x="829.9053" y="605.2617"/><rect fill="#FFFFFF" height="2" style="stroke:#000000;stroke-width:1;" width="4" x="829.9053" y="609.2617"/><text fill="#000000" font-family="'Segoe UI'" font-size="11" lengthAdjust="spacing" textLength="91.4053" x="735.5" y="630.1318">UpdateProductDto</text></g><g class="entity" data-qualified-name="secrets" data-source-line="50" id="ent0025"><path d="M170,107.2617 L170,173.7852 A5,5 0 0 0 175,178.7852 L317.189,178.7852 A5,5 0 0 0 322.189,173.7852 L322.189,112.2617 L312.189,102.2617 L175,102.2617 A5,5 0 0 0 170,107.2617" fill="#EEEEEE" style="stroke:#000000;stroke-width:1;"/><path d="M312.189,102.2617 L312.189,109.7617 A2.5,2.5 0 0 0 314.689,112.2617 L322.189,112.2617 L312.189,102.2617" fill="#EEEEEE" style="stroke:#000000;stroke-width:1;"/><text fill="#000000" font-family="'Segoe UI'" font-size="11" font-weight="bold" lengthAdjust="spacing" textLength="80.9209" x="176" y="119.1318">Dados Sigilosos</text><line style="stroke:#000000;stroke-width:1;" x1="171" x2="321.189" y1="121.8926" y2="121.8926"/><text fill="#000000" font-family="'Segoe UI'" font-size="11" lengthAdjust="spacing" textLength="131.189" x="176" y="137.7627">Credenciais, tokens, chaves</text><text fill="#000000" font-family="'Segoe UI'" font-size="11" lengthAdjust="spacing" textLength="106.7827" x="176" y="152.3936">Variaveis de ambiente</text><text fill="#000000" font-family="'Segoe UI'" font-size="11" lengthAdjust="spacing" textLength="82.0757" x="176" y="167.0244">Configs sensiveis</text></g><!--link main to code--><g class="link" data-entity-1="ent0002" data-entity-2="ent0004" data-link-type="dependency" data-source-line="59" id="lnk26"><path d="M25,187.2911 C25,187.5664 25,187.8423 25,188.1189 C25,190.3317 25,192.586 25,194.8735 C25,204.0233 25,213.7036 25,223.3817 C25,224.5915 25,219.8012 25,221.0099" fill="none" id="main-to-code" style="stroke:#000000;stroke-width:1;"/><polygon fill="#000000" points="25,227.0099,29,218.0099,25,222.0099,21,218.0099,25,227.0099" style="stroke:#000000;stroke-width:1;"/></g><g class="legend" data-source-line="12"><rect fill="none" height="144.3477" rx="5" ry="5" style="stroke:#000000;stroke-width:1;" width="202.6777" x="660.3223" y="677.2617"/><text fill="#000000" font-family="'Segoe UI'" font-size="14" font-weight="bold" lengthAdjust="spacing" textLength="22.8662" x="669.1846" y="699.3691">Cor</text><text fill="#000000" font-family="'Segoe UI'" font-size="14" font-weight="bold" lengthAdjust="spacing" textLength="52.8281" x="699.7754" y="699.3691">Camada</text><rect fill="#1565C0" height="18.6211" style="stroke:none;stroke-width:1;" width="30.5908" x="665.3223" y="702.8828"/><text fill="#000000" font-family="'Segoe UI'" font-size="14" lengthAdjust="spacing" textLength="3.835" x="665.3223" y="717.9902">&#160;</text><text fill="#000000" font-family="'Segoe UI'" font-size="14" lengthAdjust="spacing" textLength="84.2939" x="699.748" y="717.9902">Apresentacao</text><rect fill="#0277BD" height="18.6211" style="stroke:none;stroke-width:1;" width="30.5908" x="665.3223" y="721.5039"/><text fill="#000000" font-family="'Segoe UI'" font-size="14" lengthAdjust="spacing" textLength="3.835" x="665.3223" y="736.6113">&#160;</text><text fill="#000000" font-family="'Segoe UI'" font-size="14" lengthAdjust="spacing" textLength="59.4248" x="699.748" y="736.6113">Aplicacao</text><rect fill="#00838F" height="18.6211" style="stroke:none;stroke-width:1;" width="30.5908" x="665.3223" y="740.125"/><text fill="#000000" font-family="'Segoe UI'" font-size="14" lengthAdjust="spacing" textLength="3.835" x="665.3223" y="755.2324">&#160;</text><text fill="#000000" font-family="'Segoe UI'" font-size="14" lengthAdjust="spacing" textLength="52.9854" x="699.748" y="755.2324">Dominio</text><rect fill="#00695C" height="18.6211" style="stroke:none;stroke-width:1;" width="30.5908" x="665.3223" y="758.7461"/><text fill="#000000" font-family="'Segoe UI'" font-size="14" lengthAdjust="spacing" textLength="3.835" x="665.3223" y="773.8535">&#160;</text><text fill="#000000" font-family="'Segoe UI'" font-size="14" lengthAdjust="spacing" textLength="83.4736" x="699.748" y="773.8535">Infraestrutura</text><rect fill="#AD1457" height="18.6211" style="stroke:none;stroke-width:1;" width="30.5908" x="665.3223" y="777.3672"/><text fill="#000000" font-family="'Segoe UI'" font-size="14" lengthAdjust="spacing" textLength="3.835" x="665.3223" y="792.4746">&#160;</text><text fill="#000000" font-family="'Segoe UI'" font-size="14" lengthAdjust="spacing" textLength="100.0781" x="699.748" y="792.4746">Observabilidade</text><rect fill="#9E9E9E" height="18.6211" style="stroke:none;stroke-width:1;" width="30.5908" x="665.3223" y="795.9883"/><text fill="#000000" font-family="'Segoe UI'" font-size="14" lengthAdjust="spacing" textLength="3.835" x="665.3223" y="811.0957">&#160;</text><text fill="#000000" font-family="'Segoe UI'" font-size="14" lengthAdjust="spacing" textLength="154.417" x="699.748" y="811.0957">Dados Sigilosos (Isolado)</text><line style="stroke:#000000;stroke-width:1;" x1="665.3223" x2="858" y1="684.2617" y2="684.2617"/><line style="stroke:#000000;stroke-width:1;" x1="665.3223" x2="858" y1="702.8828" y2="702.8828"/><line style="stroke:#000000;stroke-width:1;" x1="665.3223" x2="858" y1="721.5039" y2="721.5039"/><line style="stroke:#000000;stroke-width:1;" x1="665.3223" x2="858" y1="740.125" y2="740.125"/><line style="stroke:#000000;stroke-width:1;" x1="665.3223" x2="858" y1="758.7461" y2="758.7461"/><line style="stroke:#000000;stroke-width:1;" x1="665.3223" x2="858" y1="777.3672" y2="777.3672"/><line style="stroke:#000000;stroke-width:1;" x1="665.3223" x2="858" y1="795.9883" y2="795.9883"/><line style="stroke:#000000;stroke-width:1;" x1="665.3223" x2="858" y1="814.6094" y2="814.6094"/><line style="stroke:#000000;stroke-width:1;" x1="665.3223" x2="665.3223" y1="684.2617" y2="814.6094"/><line style="stroke:#000000;stroke-width:1;" x1="695.9131" x2="695.9131" y1="684.2617" y2="814.6094"/><line style="stroke:#000000;stroke-width:1;" x1="858" x2="858" y1="684.2617" y2="814.6094"/></g><g class="footer" data-source-line="60"><text fill="#000000" font-family="'Segoe UI'" font-size="10" lengthAdjust="spacing" textLength="9.4482" x="313.541" y="843.4004">\n</text><text fill="#000000" font-family="'Segoe UI'" font-size="10" lengthAdjust="spacing" textLength="236.4697" x="322.9893" y="843.4004">SaaS - Diagrama para portifolio (sem dados sensiveis)</text></g><?plantuml-src TPLjRzem4CVVvrFSw8krqT08b08JYyHua93Qqa6xlLYhoIH7i9hOcUrqOkk--yufK1BIH2B6z_F_xdpnvPrPOuAGnemBHpzoaJB54bYou35ICXFXKCPImSbaREy38iGLos8paS9SCrAeBJ2I27VJMZMqu7yGFE_0c98F5k72R684XO5X8ehn0D1h5ihVN4ImOh4-j6mZKm8LU8q3Gym5casA89LPIySnt92uwouOMxZk_RteQuhZazVo1-fNnWsQJ350k99X5aiDDugBWAUCw_v7I_glIpn_ZZfB95XFa983lf8nbrlGSMACK8IWUBGs3i3pPw08ymTBMCZWsKv2_yHhNxI73P_6WrIXHc5OmEJUt6XsEbz6B-QO1qLRezlgJgnj91Ck-A7bejSUMijKh1H3RLIMvxO31YFllDsnm6ofKJsn9Ozvo4BS4xsnlNDnsdSD2nvnsXCQdKwrZ6dkZ5YRuakcZhEj8DIEjwy6J4D2BnNq-_DTRNqVJiQjINCoWh_aD919AWNb3p-u3Vh1hib7phy3yM7Cj4PDLPfa8f0qEcM9f0JPMUuba9H4sKjtqXxtobukPSJ5oCY7tRAVNX6OuuegihwLZrZaccKkujgWAZ2j8ZDaXaw4sdpDK6qAu7a9L4Ze3Y-GxI9vbuPlaHTLcbSyK5BJMrv0EqLq3nq7sgroNotQg_9_G_KhRdUZIl4OywhKPYf4DJMO5DdccsoHAvKd9uvJziwh8goGQrSdl4deRv4ibMRBVCVbMih78jgf55LqkeAIQAaqMwOYdrxbZbT8DXlsr0bfq4vf31GQJISflqZ4TKjjmNLfjbwlqoy56YATV3hu7y3OqqFFOCsUK9Fr6rESXbpJzm1OikGK2TfLKgnuP7q9pQqzRous0iTntiFd_8Bv-78mdCwk1rVZwzlPOZljvBsbNlVpu9sLf5KANhjrmxSj7-emuYoYBmChjsqurKWVg3obVG1d-sRkEFy1?></g></svg>