<?plantuml 1.2026.1?><svg xmlns="http://www.w3.org/2000/svg" xmlns:xlink="http://www.w3.org/1999/xlink" contentStyleType="text/css" data-diagram-type="DESCRIPTION" height="519px" preserveAspectRatio="none" style="width:741px;height:519px;background:#FEFEFE;" version="1.1" viewBox="0 0 741 519" width="741px" zoomAndPan="magnify"><title>**sistema_detec-o_de_Atividades_2**\n&lt;size:13&gt;Arquitetura e Modulos Principais&lt;/size&gt;\n&lt;size:11&gt;Resumo para portifolio&lt;/size&gt;</title><defs/><g><rect fill="#FEFEFE" height="519" style="stroke:none;stroke-width:1;" width="741" x="0" y="0"/><g class="title" data-source-line="10"><text fill="#000000" font-family="'Segoe UI'" font-size="22" font-weight="bold" lengthAdjust="spacing" textLength="340.7744" x="15" y="38.7402">sistema_detec-o_de_Atividades_2</text><text fill="#000000" font-family="'Segoe UI'" font-size="22" font-weight="bold" lengthAdjust="spacing" textLength="22.9023" x="355.7744" y="38.7402">\n</text><text fill="#000000" font-family="'Segoe UI'" font-size="13" font-weight="bold" lengthAdjust="spacing" textLength="201.6841" x="378.6768" y="40.999">Arquitetura e Modulos Principais</text><text fill="#000000" font-family="'Segoe UI'" font-size="22" font-weight="bold" lengthAdjust="spacing" textLength="22.9023" x="580.3608" y="38.7402">\n</text><text fill="#000000" font-family="'Segoe UI'" font-size="11" font-weight="bold" lengthAdjust="spacing" textLength="119.7808" x="603.2632" y="41.501">Resumo para portifolio</text></g><!--cluster main--><g class="cluster" data-qualified-name="main" data-source-line="22" id="ent0002"><rect fill="#E3F2FD" height="266" rx="5" ry="5" style="stroke:#000000;stroke-width:1;" width="348" x="51.022" y="62.2617"/><text fill="#000000" font-family="'Segoe UI'" font-size="11" font-style="italic" lengthAdjust="spacing" textLength="57.7285" x="196.1577" y="76.1318">&#171;Rectangle&#187;</text><text fill="#000000" font-family="'Segoe UI'" font-size="11" font-weight="bold" lengthAdjust="spacing" textLength="98.4683" x="175.7878" y="90.7627">Modulos Principais</text></g><!--cluster code--><g class="cluster" data-qualified-name="code" data-source-line="31" id="ent0009"><rect fill="#E8F5E9" height="125" rx="5" ry="5" style="stroke:#000000;stroke-width:1;" width="263" x="439.022" y="203.2617"/><text fill="#000000" font-family="'Segoe UI'" font-size="11" font-style="italic" lengthAdjust="spacing" textLength="57.7285" x="541.6577" y="217.1318">&#171;Rectangle&#187;</text><text fill="#000000" font-family="'Segoe UI'" font-size="11" font-weight="bold" lengthAdjust="spacing" textLength="143.5156" x="498.7642" y="231.7627">Classes e Funcoes (amostra)</text></g><!--entity models--><g class="entity" data-qualified-name="main.models" data-source-line="23" id="ent0003"><rect fill="#FFFFFF" height="44.6309" rx="5" ry="5" style="stroke:#000000;stroke-width:1;" width="75.4814" x="75.522" y="259.2617"/><rect fill="#FFFFFF" height="10" style="stroke:#000000;stroke-width:1;" width="15" x="131.0034" y="264.2617"/><rect fill="#FFFFFF" height="2" style="stroke:#000000;stroke-width:1;" width="4" x="129.0034" y="266.2617"/><rect fill="#FFFFFF" height="2" style="stroke:#000000;stroke-width:1;" width="4" x="129.0034" y="270.2617"/><text fill="#000000" font-family="'Segoe UI'" font-size="11" lengthAdjust="spacing" textLength="35.4814" x="90.522" y="291.1318">models</text></g><!--entity data--><g class="entity" data-qualified-name="main.data" data-source-line="24" id="ent0004"><rect fill="#FFFFFF" height="44.6309" rx="5" ry="5" style="stroke:#000000;stroke-width:1;" width="61.3984" x="82.522" y="118.2617"/><rect fill="#FFFFFF" height="10" style="stroke:#000000;stroke-width:1;" width="15" x="123.9204" y="123.2617"/><rect fill="#FFFFFF" height="2" style="stroke:#000000;stroke-width:1;" width="4" x="121.9204" y="125.2617"/><rect fill="#FFFFFF" height="2" style="stroke:#000000;stroke-width:1;" width="4" x="121.9204" y="129.2617"/><text fill="#000000" font-family="'Segoe UI'" font-size="11" lengthAdjust="spacing" textLength="21.3984" x="97.522" y="150.1318">data</text></g><!--entity scripts--><g class="entity" data-qualified-name="main.scripts" data-source-line="25" id="ent0005"><rect fill="#FFFFFF" height="44.6309" rx="5" ry="5" style="stroke:#000000;stroke-width:1;" width="71.0986" x="185.522" y="118.2617"/><rect fill="#FFFFFF" height="10" style="stroke:#000000;stroke-width:1;" width="15" x="236.6206" y="123.2617"/><rect fill="#FFFFFF" height="2" style="stroke:#000000;stroke-width:1;" width="4" x="234.6206" y="125.2617"/><rect fill="#FFFFFF" height="2" style="stroke:#000000;stroke-width:1;" width="4" x="234.6206" y="129.2617"/><text fill="#000000" font-family="'Segoe UI'" font-size="11" lengthAdjust="spacing" textLength="31.0986" x="200.522" y="150.1318">scripts</text></g><!--entity tests--><g class="entity" data-qualified-name="main.tests" data-source-line="26" id="ent0006"><rect fill="#FFFFFF" height="44.6309" rx="5" ry="5" style="stroke:#000000;stroke-width:1;" width="62.5425" x="291.522" y="118.2617"/><rect fill="#FFFFFF" height="10" style="stroke:#000000;stroke-width:1;" width="15" x="334.0645" y="123.2617"/><rect fill="#FFFFFF" height="2" style="stroke:#000000;stroke-width:1;" width="4" x="332.0645" y="125.2617"/><rect fill="#FFFFFF" height="2" style="stroke:#000000;stroke-width:1;" width="4" x="332.0645" y="129.2617"/><text fill="#000000" font-family="'Segoe UI'" font-size="11" lengthAdjust="spacing" textLength="22.5425" x="306.522" y="150.1318">tests</text></g><!--entity config--><g class="entity" data-qualified-name="main.config" data-source-line="27" id="ent0007"><rect fill="#FFFFFF" height="44.6309" rx="5" ry="5" style="stroke:#000000;stroke-width:1;" width="70.3359" x="186.022" y="259.2617"/><rect fill="#FFFFFF" height="10" style="stroke:#000000;stroke-width:1;" width="15" x="236.3579" y="264.2617"/><rect fill="#FFFFFF" height="2" style="stroke:#000000;stroke-width:1;" width="4" x="234.3579" y="266.2617"/><rect fill="#FFFFFF" height="2" style="stroke:#000000;stroke-width:1;" width="4" x="234.3579" y="270.2617"/><text fill="#000000" font-family="'Segoe UI'" font-size="11" lengthAdjust="spacing" textLength="30.3359" x="201.022" y="291.1318">config</text></g><!--entity configs--><g class="entity" data-qualified-name="main.configs" data-source-line="28" id="ent0008"><rect fill="#FFFFFF" height="44.6309" rx="5" ry="5" style="stroke:#000000;stroke-width:1;" width="75.0034" x="291.522" y="259.2617"/><rect fill="#FFFFFF" height="10" style="stroke:#000000;stroke-width:1;" width="15" x="346.5254" y="264.2617"/><rect fill="#FFFFFF" height="2" style="stroke:#000000;stroke-width:1;" width="4" x="344.5254" y="266.2617"/><rect fill="#FFFFFF" height="2" style="stroke:#000000;stroke-width:1;" width="4" x="344.5254" y="270.2617"/><text fill="#000000" font-family="'Segoe UI'" font-size="11" lengthAdjust="spacing" textLength="35.0034" x="306.522" y="291.1318">configs</text></g><!--entity code_1--><g class="entity" data-qualified-name="code.code_1" data-source-line="32" id="ent0010"><rect fill="#FFFFFF" height="44.6309" rx="5" ry="5" style="stroke:#000000;stroke-width:1;" width="196.0303" x="482.022" y="259.2617"/><rect fill="#FFFFFF" height="10" style="stroke:#000000;stroke-width:1;" width="15" x="658.0522" y="264.2617"/><rect fill="#FFFFFF" height="2" style="stroke:#000000;stroke-width:1;" width="4" x="656.0522" y="266.2617"/><rect fill="#FFFFFF" height="2" style="stroke:#000000;stroke-width:1;" width="4" x="656.0522" y="270.2617"/><text fill="#000000" font-family="'Segoe UI'" font-size="11" lengthAdjust="spacing" textLength="156.0303" x="497.022" y="291.1318">Classes/Funcoes nao detectadas</text></g><g class="entity" data-qualified-name="secrets" data-source-line="36" id="ent0011"><path d="M426.022,107.2617 L426.022,173.7852 A5,5 0 0 0 431.022,178.7852 L573.2109,178.7852 A5,5 0 0 0 578.2109,173.7852 L578.2109,112.2617 L568.2109,102.2617 L431.022,102.2617 A5,5 0 0 0 426.022,107.2617" fill="#EEEEEE" style="stroke:#000000;stroke-width:1;"/><path d="M568.2109,102.2617 L568.2109,109.7617 A2.5,2.5 0 0 0 570.7109,112.2617 L578.2109,112.2617 L568.2109,102.2617" fill="#EEEEEE" style="stroke:#000000;stroke-width:1;"/><text fill="#000000" font-family="'Segoe UI'" font-size="11" font-weight="bold" lengthAdjust="spacing" textLength="80.9209" x="432.022" y="119.1318">Dados Sigilosos</text><line style="stroke:#000000;stroke-width:1;" x1="427.022" x2="577.2109" y1="121.8926" y2="121.8926"/><text fill="#000000" font-family="'Segoe UI'" font-size="11" lengthAdjust="spacing" textLength="131.189" x="432.022" y="137.7627">Credenciais, tokens, chaves</text><text fill="#000000" font-family="'Segoe UI'" font-size="11" lengthAdjust="spacing" textLength="106.7827" x="432.022" y="152.3936">Variaveis de ambiente</text><text fill="#000000" font-family="'Segoe UI'" font-size="11" lengthAdjust="spacing" textLength="82.0757" x="432.022" y="167.0244">Configs sensiveis</text></g><!--link data to models--><g class="link" data-entity-1="ent0004" data-entity-2="ent0003" data-link-type="dependency" data-source-line="45" id="lnk12"><path d="M113.022,163.4117 C113.022,189.7317 113.022,226.8717 113.022,253.1617" fill="none" id="data-to-models" style="stroke:#000000;stroke-width:1;"/><polygon fill="#000000" points="113.022,259.1617,117.022,250.1617,113.022,254.1617,109.022,250.1617,113.022,259.1617" style="stroke:#000000;stroke-width:1;"/></g><!--link main to code--><g class="link" data-entity-1="ent0002" data-entity-2="ent0009" data-link-type="dependency" data-source-line="46" id="lnk13"><path d="M399.0522,282.2617 C399.1292,282.2617 399.2065,282.2617 399.2843,282.2617 C404.2623,282.2617 410.9338,282.2617 417.7082,282.2617 C424.4826,282.2617 431.3598,282.2617 436.749,282.2617 C437.4227,282.2617 438.0731,282.2617 438.6971,282.2617 C438.7751,282.2617 432.8527,282.2617 432.9299,282.2617" fill="none" id="main-to-code" style="stroke:#000000;stroke-width:1;"/><polygon fill="#000000" points="438.9299,282.2617,429.9299,278.2617,433.9299,282.2617,429.9299,286.2617,438.9299,282.2617" style="stroke:#000000;stroke-width:1;"/></g><g class="legend" data-source-line="12"><rect fill="none" height="144.3477" rx="5" ry="5" style="stroke:#000000;stroke-width:1;" width="202.6777" x="486.3442" y="338.2617"/><text fill="#000000" font-family="'Segoe UI'" font-size="14" font-weight="bold" lengthAdjust="spacing" textLength="22.8662" x="495.2065" y="360.3691">Cor</text><text fill="#000000" font-family="'Segoe UI'" font-size="14" font-weight="bold" lengthAdjust="spacing" textLength="52.8281" x="525.7974" y="360.3691">Camada</text><rect fill="#1565C0" height="18.6211" style="stroke:none;stroke-width:1;" width="30.5908" x="491.3442" y="363.8828"/><text fill="#000000" font-family="'Segoe UI'" font-size="14" lengthAdjust="spacing" textLength="3.835" x="491.3442" y="378.9902">&#160;</text><text fill="#000000" font-family="'Segoe UI'" font-size="14" lengthAdjust="spacing" textLength="84.2939" x="525.77" y="378.9902">Apresentacao</text><rect fill="#0277BD" height="18.6211" style="stroke:none;stroke-width:1;" width="30.5908" x="491.3442" y="382.5039"/><text fill="#000000" font-family="'Segoe UI'" font-size="14" lengthAdjust="spacing" textLength="3.835" x="491.3442" y="397.6113">&#160;</text><text fill="#000000" font-family="'Segoe UI'" font-size="14" lengthAdjust="spacing" textLength="59.4248" x="525.77" y="397.6113">Aplicacao</text><rect fill="#00838F" height="18.6211" style="stroke:none;stroke-width:1;" width="30.5908" x="491.3442" y="401.125"/><text fill="#000000" font-family="'Segoe UI'" font-size="14" lengthAdjust="spacing" textLength="3.835" x="491.3442" y="416.2324">&#160;</text><text fill="#000000" font-family="'Segoe UI'" font-size="14" lengthAdjust="spacing" textLength="52.9854" x="525.77" y="416.2324">Dominio</text><rect fill="#00695C" height="18.6211" style="stroke:none;stroke-width:1;" width="30.5908" x="491.3442" y="419.7461"/><text fill="#000000" font-family="'Segoe UI'" font-size="14" lengthAdjust="spacing" textLength="3.835" x="491.3442" y="434.8535">&#160;</text><text fill="#000000" font-family="'Segoe UI'" font-size="14" lengthAdjust="spacing" textLength="83.4736" x="525.77" y="434.8535">Infraestrutura</text><rect fill="#AD1457" height="18.6211" style="stroke:none;stroke-width:1;" width="30.5908" x="491.3442" y="438.3672"/><text fill="#000000" font-family="'Segoe UI'" font-size="14" lengthAdjust="spacing" textLength="3.835" x="491.3442" y="453.4746">&#160;</text><text fill="#000000" font-family="'Segoe UI'" font-size="14" lengthAdjust="spacing" textLength="100.0781" x="525.77" y="453.4746">Observabilidade</text><rect fill="#9E9E9E" height="18.6211" style="stroke:none;stroke-width:1;" width="30.5908" x="491.3442" y="456.9883"/><text fill="#000000" font-family="'Segoe UI'" font-size="14" lengthAdjust="spacing" textLength="3.835" x="491.3442" y="472.0957">&#160;</text><text fill="#000000" font-family="'Segoe UI'" font-size="14" lengthAdjust="spacing" textLength="154.417" x="525.77" y="472.0957">Dados Sigilosos (Isolado)</text><line style="stroke:#000000;stroke-width:1;" x1="491.3442" x2="684.022" y1="345.2617" y2="345.2617"/><line style="stroke:#000000;stroke-width:1;" x1="491.3442" x2="684.022" y1="363.8828" y2="363.8828"/><line style="stroke:#000000;stroke-width:1;" x1="491.3442" x2="684.022" y1="382.5039" y2="382.5039"/><line style="stroke:#000000;stroke-width:1;" x1="491.3442" x2="684.022" y1="401.125" y2="401.125"/><line style="stroke:#000000;stroke-width:1;" x1="491.3442" x2="684.022" y1="419.7461" y2="419.7461"/><line style="stroke:#000000;stroke-width:1;" x1="491.3442" x2="684.022" y1="438.3672" y2="438.3672"/><line style="stroke:#000000;stroke-width:1;" x1="491.3442" x2="684.022" y1="456.9883" y2="456.9883"/><line style="stroke:#000000;stroke-width:1;" x1="491.3442" x2="684.022" y1="475.6094" y2="475.6094"/><line style="stroke:#000000;stroke-width:1;" x1="491.3442" x2="491.3442" y1="345.2617" y2="475.6094"/><line style="stroke:#000000;stroke-width:1;" x1="521.9351" x2="521.9351" y1="345.2617" y2="475.6094"/><line style="stroke:#000000;stroke-width:1;" x1="684.022" x2="684.022" y1="345.2617" y2="475.6094"/></g><g class="footer" data-source-line="47"><text fill="#000000" font-family="'Segoe UI'" font-size="10" lengthAdjust="spacing" textLength="9.4482" x="183.2822" y="504.4004">\n</text><text fill="#000000" font-family="'Segoe UI'" font-size="10" lengthAdjust="spacing" textLength="362.0313" x="192.7305" y="504.4004">sistema_detec-o_de_Atividades_2 - Diagrama para portifolio (sem dados sensiveis)</text></g><?plantuml-src XLHjJzim4FxkNt4h7mRHAXfOUPbAfAulKgK14ztsPKpecbnJYyJER0V4nlxxpkuBQOUqHAglVXxVotFdl74BAWcg0gKIzbwg2WsMCCFqFZUwLjb05zh0tdZatmOZepdMXHjhvQwGFRIcb6k2hvFMwwIf_4KGnmsmuXYOqzGz5GI6KeSgBwX1i0lCzADKESoni4rabPbHP23kD812Ad9F5O4sRg65SDAnyoYoqZegyIuZHsbRythNT_91PfYHlJkAejjRrRESueVuEEcRdxLqv6g3G72fixhG5ZuRgL9PeRIzGyzCNex4oGtPkjJWau2AOykvBgHU4OKeA2ULWP7vmWc0vmlWvCE29MO8ptuJUdjnzwGxw2Hizoj3bfJ35FK6xXoTdduSBk52fjjOv-puREoneIwbaatavBmxyCX4pGsITQOEjQq9_M7yldlg2TSpI-O1Px88ocmOvoF_1kVS4WjJcKlMXAtzYTK5xnqmrvUuh5I8LNEXzQzyBK0B9SyRz7etwxOd2UoDZiT7uo7yvg2fBYkjk7xuNkgC2liZ70hcDfoXmm1wOnkogP6LMnvTsTi4nreiuM1jWwbMSva7T6c-1ji6RiMVHjs30gqbomCqhbMgsTh7KhFsUD1Qdc5zTmKu6tT7vxi2h3mThlqexdgOOyUZiqw01phsyPLs5Egbr92px3Cyx36ATdeNHRpRRhVvTs0e8suFT-STE7rFYjTqWG_aHVc6Hh8fMMFsNSuafqN-rB9iZgMiz7YO09-14E8jN8G7RaQV-eF9zLN_SdJrvNgwsXQ-NHmzMJSr38J_xsiHSyrU3BnSiKxodoiCRHXApFaZWBlN4FOjyRSeLB_9zM1pEONu2m00?></g></svg>