<?plantuml 1.2026.1?><svg xmlns="http://www.w3.org/2000/svg" xmlns:xlink="http://www.w3.org/1999/xlink" contentStyleType="text/css" data-diagram-type="DESCRIPTION" height="862px" preserveAspectRatio="none" style="width:1280px;height:862px;background:#FEFEFE;" version="1.1" viewBox="0 0 1280 862" width="1280px" zoomAndPan="magnify"><title>**IA-para-Mercado-Financeiro**\n&lt;size:13&gt;Arquitetura e Modulos Principais&lt;/size&gt;\n&lt;size:11&gt;Resumo para portifolio&lt;/size&gt;</title><defs/><g><rect fill="#FEFEFE" height="862" style="stroke:none;stroke-width:1;" width="1280" x="0" y="0"/><g class="title" data-source-line="10"><text fill="#000000" font-family="'Segoe UI'" font-size="22" font-weight="bold" lengthAdjust="spacing" textLength="293.4443" x="305.1431" y="38.7402">IA-para-Mercado-Financeiro</text><text fill="#000000" font-family="'Segoe UI'" font-size="22" font-weight="bold" lengthAdjust="spacing" textLength="22.9023" x="598.5874" y="38.7402">\n</text><text fill="#000000" font-family="'Segoe UI'" font-size="13" font-weight="bold" lengthAdjust="spacing" textLength="201.6841" x="621.4897" y="40.999">Arquitetura e Modulos Principais</text><text fill="#000000" font-family="'Segoe UI'" font-size="22" font-weight="bold" lengthAdjust="spacing" textLength="22.9023" x="823.1738" y="38.7402">\n</text><text fill="#000000" font-family="'Segoe UI'" font-size="11" font-weight="bold" lengthAdjust="spacing" textLength="119.7808" x="846.0762" y="41.501">Resumo para portifolio</text></g><!--cluster main--><g class="cluster" data-qualified-name="main" data-source-line="22" id="ent0002"><rect fill="#E3F2FD" height="269.5" rx="5" ry="5" style="stroke:#000000;stroke-width:1;" width="550" x="12" y="62.2617"/><text fill="#000000" font-family="'Segoe UI'" font-size="11" font-style="italic" lengthAdjust="spacing" textLength="57.7285" x="258.1357" y="76.1318">&#171;Rectangle&#187;</text><text fill="#000000" font-family="'Segoe UI'" font-size="11" font-weight="bold" lengthAdjust="spacing" textLength="98.4683" x="237.7659" y="90.7627">Modulos Principais</text></g><!--cluster code--><g class="cluster" data-qualified-name="code" data-source-line="32" id="ent0010"><rect fill="#E8F5E9" height="468" rx="5" ry="5" style="stroke:#000000;stroke-width:1;" width="672" x="602" y="203.2617"/><text fill="#000000" font-family="'Segoe UI'" font-size="11" font-style="italic" lengthAdjust="spacing" textLength="57.7285" x="909.1357" y="217.1318">&#171;Rectangle&#187;</text><text fill="#000000" font-family="'Segoe UI'" font-size="11" font-weight="bold" lengthAdjust="spacing" textLength="143.5156" x="866.2422" y="231.7627">Classes e Funcoes (amostra)</text></g><!--entity src--><g class="entity" data-qualified-name="main.src" data-source-line="23" id="ent0003"><rect fill="#FFFFFF" height="44.6309" rx="5" ry="5" style="stroke:#000000;stroke-width:1;" width="53.5728" x="260" y="118.2617"/><rect fill="#FFFFFF" height="10" style="stroke:#000000;stroke-width:1;" width="15" x="293.5728" y="123.2617"/><rect fill="#FFFFFF" height="2" style="stroke:#000000;stroke-width:1;" width="4" x="291.5728" y="125.2617"/><rect fill="#FFFFFF" height="2" style="stroke:#000000;stroke-width:1;" width="4" x="291.5728" y="129.2617"/><text fill="#000000" font-family="'Segoe UI'" font-size="11" lengthAdjust="spacing" textLength="13.5728" x="275" y="150.1318">src</text></g><!--entity models--><g class="entity" data-qualified-name="main.models" data-source-line="24" id="ent0004"><rect fill="#FFFFFF" height="44.6309" rx="5" ry="5" style="stroke:#000000;stroke-width:1;" width="75.4814" x="156.5" y="262.7617"/><rect fill="#FFFFFF" height="10" style="stroke:#000000;stroke-width:1;" width="15" x="211.9814" y="267.7617"/><rect fill="#FFFFFF" height="2" style="stroke:#000000;stroke-width:1;" width="4" x="209.9814" y="269.7617"/><rect fill="#FFFFFF" height="2" style="stroke:#000000;stroke-width:1;" width="4" x="209.9814" y="273.7617"/><text fill="#000000" font-family="'Segoe UI'" font-size="11" lengthAdjust="spacing" textLength="35.4814" x="171.5" y="294.6318">models</text></g><!--entity data--><g class="entity" data-qualified-name="main.data" data-source-line="25" id="ent0005"><rect fill="#FFFFFF" height="44.6309" rx="5" ry="5" style="stroke:#000000;stroke-width:1;" width="61.3984" x="163.5" y="118.2617"/><rect fill="#FFFFFF" height="10" style="stroke:#000000;stroke-width:1;" width="15" x="204.8984" y="123.2617"/><rect fill="#FFFFFF" height="2" style="stroke:#000000;stroke-width:1;" width="4" x="202.8984" y="125.2617"/><rect fill="#FFFFFF" height="2" style="stroke:#000000;stroke-width:1;" width="4" x="202.8984" y="129.2617"/><text fill="#000000" font-family="'Segoe UI'" font-size="11" lengthAdjust="spacing" textLength="21.3984" x="178.5" y="150.1318">data</text></g><!--entity docs--><g class="entity" data-qualified-name="main.docs" data-source-line="26" id="ent0006"><rect fill="#FFFFFF" height="44.6309" rx="5" ry="5" style="stroke:#000000;stroke-width:1;" width="62.6714" x="349.5" y="118.2617"/><rect fill="#FFFFFF" height="10" style="stroke:#000000;stroke-width:1;" width="15" x="392.1714" y="123.2617"/><rect fill="#FFFFFF" height="2" style="stroke:#000000;stroke-width:1;" width="4" x="390.1714" y="125.2617"/><rect fill="#FFFFFF" height="2" style="stroke:#000000;stroke-width:1;" width="4" x="390.1714" y="129.2617"/><text fill="#000000" font-family="'Segoe UI'" font-size="11" lengthAdjust="spacing" textLength="22.6714" x="364.5" y="150.1318">docs</text></g><!--entity scripts--><g class="entity" data-qualified-name="main.scripts" data-source-line="27" id="ent0007"><rect fill="#FFFFFF" height="44.6309" rx="5" ry="5" style="stroke:#000000;stroke-width:1;" width="71.0986" x="447.5" y="118.2617"/><rect fill="#FFFFFF" height="10" style="stroke:#000000;stroke-width:1;" width="15" x="498.5986" y="123.2617"/><rect fill="#FFFFFF" height="2" style="stroke:#000000;stroke-width:1;" width="4" x="496.5986" y="125.2617"/><rect fill="#FFFFFF" height="2" style="stroke:#000000;stroke-width:1;" width="4" x="496.5986" y="129.2617"/><text fill="#000000" font-family="'Segoe UI'" font-size="11" lengthAdjust="spacing" textLength="31.0986" x="462.5" y="150.1318">scripts</text></g><!--entity tests--><g class="entity" data-qualified-name="main.tests" data-source-line="28" id="ent0008"><rect fill="#FFFFFF" height="44.6309" rx="5" ry="5" style="stroke:#000000;stroke-width:1;" width="62.5425" x="349.5" y="262.7617"/><rect fill="#FFFFFF" height="10" style="stroke:#000000;stroke-width:1;" width="15" x="392.0425" y="267.7617"/><rect fill="#FFFFFF" height="2" style="stroke:#000000;stroke-width:1;" width="4" x="390.0425" y="269.7617"/><rect fill="#FFFFFF" height="2" style="stroke:#000000;stroke-width:1;" width="4" x="390.0425" y="273.7617"/><text fill="#000000" font-family="'Segoe UI'" font-size="11" lengthAdjust="spacing" textLength="22.5425" x="364.5" y="294.6318">tests</text></g><!--entity notebooks--><g class="entity" data-qualified-name="main.notebooks" data-source-line="29" id="ent0009"><rect fill="#FFFFFF" height="44.6309" rx="5" ry="5" style="stroke:#000000;stroke-width:1;" width="91.6431" x="36" y="118.2617"/><rect fill="#FFFFFF" height="10" style="stroke:#000000;stroke-width:1;" width="15" x="107.6431" y="123.2617"/><rect fill="#FFFFFF" height="2" style="stroke:#000000;stroke-width:1;" width="4" x="105.6431" y="125.2617"/><rect fill="#FFFFFF" height="2" style="stroke:#000000;stroke-width:1;" width="4" x="105.6431" y="129.2617"/><text fill="#000000" font-family="'Segoe UI'" font-size="11" lengthAdjust="spacing" textLength="51.6431" x="51" y="150.1318">notebooks</text></g><!--entity code_1--><g class="entity" data-qualified-name="code.code_1" data-source-line="33" id="ent0011"><rect fill="#FFFFFF" height="44.6309" rx="5" ry="5" style="stroke:#000000;stroke-width:1;" width="63.4824" x="652.5" y="262.7617"/><rect fill="#FFFFFF" height="10" style="stroke:#000000;stroke-width:1;" width="15" x="695.9824" y="267.7617"/><rect fill="#FFFFFF" height="2" style="stroke:#000000;stroke-width:1;" width="4" x="693.9824" y="269.7617"/><rect fill="#FFFFFF" height="2" style="stroke:#000000;stroke-width:1;" width="4" x="693.9824" y="273.7617"/><text fill="#000000" font-family="'Segoe UI'" font-size="11" lengthAdjust="spacing" textLength="23.4824" x="667.5" y="294.6318">Price</text></g><!--entity code_2--><g class="entity" data-qualified-name="code.code_2" data-source-line="34" id="ent0012"><rect fill="#FFFFFF" height="51.9463" rx="5" ry="5" style="stroke:#000000;stroke-width:1;" width="63.2808" x="750.5" y="259.2617"/><rect fill="#FFFFFF" height="10" style="stroke:#000000;stroke-width:1;" width="15" x="793.7808" y="264.2617"/><rect fill="#FFFFFF" height="2" style="stroke:#000000;stroke-width:1;" width="4" x="791.7808" y="266.2617"/><rect fill="#FFFFFF" height="2" style="stroke:#000000;stroke-width:1;" width="4" x="791.7808" y="270.2617"/><line style="stroke:#000000;stroke-width:1;" x1="751.5" x2="774.5" y1="286.5771" y2="286.5771"/><text fill="#000000" font-family="'Segoe UI'" font-size="11" lengthAdjust="spacing" textLength="15.2808" x="774.5" y="290.6318">init</text><line style="stroke:#000000;stroke-width:1;" x1="789.7808" x2="812.7808" y1="286.5771" y2="286.5771"/></g><!--entity code_3--><g class="entity" data-qualified-name="code.code_3" data-source-line="35" id="ent0013"><rect fill="#FFFFFF" height="44.6309" rx="5" ry="5" style="stroke:#000000;stroke-width:1;" width="65.5073" x="849" y="262.7617"/><rect fill="#FFFFFF" height="10" style="stroke:#000000;stroke-width:1;" width="15" x="894.5073" y="267.7617"/><rect fill="#FFFFFF" height="2" style="stroke:#000000;stroke-width:1;" width="4" x="892.5073" y="269.7617"/><rect fill="#FFFFFF" height="2" style="stroke:#000000;stroke-width:1;" width="4" x="892.5073" y="273.7617"/><text fill="#000000" font-family="'Segoe UI'" font-size="11" lengthAdjust="spacing" textLength="25.5073" x="864" y="294.6318">value</text></g><!--entity code_4--><g class="entity" data-qualified-name="code.code_4" data-source-line="36" id="ent0014"><rect fill="#FFFFFF" height="51.9463" rx="5" ry="5" style="stroke:#000000;stroke-width:1;" width="60.2192" x="950" y="259.2617"/><rect fill="#FFFFFF" height="10" style="stroke:#000000;stroke-width:1;" width="15" x="990.2192" y="264.2617"/><rect fill="#FFFFFF" height="2" style="stroke:#000000;stroke-width:1;" width="4" x="988.2192" y="266.2617"/><rect fill="#FFFFFF" height="2" style="stroke:#000000;stroke-width:1;" width="4" x="988.2192" y="270.2617"/><line style="stroke:#000000;stroke-width:1;" x1="951" x2="974" y1="286.5771" y2="286.5771"/><text fill="#000000" font-family="'Segoe UI'" font-size="11" lengthAdjust="spacing" textLength="12.2192" x="974" y="290.6318">str</text><line style="stroke:#000000;stroke-width:1;" x1="986.2192" x2="1009.2192" y1="286.5771" y2="286.5771"/></g><!--entity code_5--><g class="entity" data-qualified-name="code.code_5" data-source-line="37" id="ent0015"><rect fill="#FFFFFF" height="51.9463" rx="5" ry="5" style="stroke:#000000;stroke-width:1;" width="67.8677" x="1045" y="259.2617"/><rect fill="#FFFFFF" height="10" style="stroke:#000000;stroke-width:1;" width="15" x="1092.8677" y="264.2617"/><rect fill="#FFFFFF" height="2" style="stroke:#000000;stroke-width:1;" width="4" x="1090.8677" y="266.2617"/><rect fill="#FFFFFF" height="2" style="stroke:#000000;stroke-width:1;" width="4" x="1090.8677" y="270.2617"/><line style="stroke:#000000;stroke-width:1;" x1="1046" x2="1069" y1="286.5771" y2="286.5771"/><text fill="#000000" font-family="'Segoe UI'" font-size="11" lengthAdjust="spacing" textLength="19.8677" x="1069" y="290.6318">repr</text><line style="stroke:#000000;stroke-width:1;" x1="1088.8677" x2="1111.8677" y1="286.5771" y2="286.5771"/></g><!--entity code_6--><g class="entity" data-qualified-name="code.code_6" data-source-line="38" id="ent0016"><rect fill="#FFFFFF" height="51.9463" rx="5" ry="5" style="stroke:#000000;stroke-width:1;" width="60.23" x="654" y="371.2617"/><rect fill="#FFFFFF" height="10" style="stroke:#000000;stroke-width:1;" width="15" x="694.23" y="376.2617"/><rect fill="#FFFFFF" height="2" style="stroke:#000000;stroke-width:1;" width="4" x="692.23" y="378.2617"/><rect fill="#FFFFFF" height="2" style="stroke:#000000;stroke-width:1;" width="4" x="692.23" y="382.2617"/><line style="stroke:#000000;stroke-width:1;" x1="655" x2="678" y1="398.5771" y2="398.5771"/><text fill="#000000" font-family="'Segoe UI'" font-size="11" lengthAdjust="spacing" textLength="12.23" x="678" y="402.6318">eq</text><line style="stroke:#000000;stroke-width:1;" x1="690.23" x2="713.23" y1="398.5771" y2="398.5771"/></g><!--entity code_7--><g class="entity" data-qualified-name="code.code_7" data-source-line="39" id="ent0017"><rect fill="#FFFFFF" height="51.9463" rx="5" ry="5" style="stroke:#000000;stroke-width:1;" width="54.3916" x="749" y="371.2617"/><rect fill="#FFFFFF" height="10" style="stroke:#000000;stroke-width:1;" width="15" x="783.3916" y="376.2617"/><rect fill="#FFFFFF" height="2" style="stroke:#000000;stroke-width:1;" width="4" x="781.3916" y="378.2617"/><rect fill="#FFFFFF" height="2" style="stroke:#000000;stroke-width:1;" width="4" x="781.3916" y="382.2617"/><line style="stroke:#000000;stroke-width:1;" x1="750" x2="773" y1="398.5771" y2="398.5771"/><text fill="#000000" font-family="'Segoe UI'" font-size="11" lengthAdjust="spacing" textLength="6.3916" x="773" y="402.6318">lt</text><line style="stroke:#000000;stroke-width:1;" x1="779.3916" x2="802.3916" y1="398.5771" y2="398.5771"/></g><!--entity code_8--><g class="entity" data-qualified-name="code.code_8" data-source-line="40" id="ent0018"><rect fill="#FFFFFF" height="51.9463" rx="5" ry="5" style="stroke:#000000;stroke-width:1;" width="56.4165" x="838" y="371.2617"/><rect fill="#FFFFFF" height="10" style="stroke:#000000;stroke-width:1;" width="15" x="874.4165" y="376.2617"/><rect fill="#FFFFFF" height="2" style="stroke:#000000;stroke-width:1;" width="4" x="872.4165" y="378.2617"/><rect fill="#FFFFFF" height="2" style="stroke:#000000;stroke-width:1;" width="4" x="872.4165" y="382.2617"/><line style="stroke:#000000;stroke-width:1;" x1="839" x2="862" y1="398.5771" y2="398.5771"/><text fill="#000000" font-family="'Segoe UI'" font-size="11" lengthAdjust="spacing" textLength="8.4165" x="862" y="402.6318">le</text><line style="stroke:#000000;stroke-width:1;" x1="870.4165" x2="893.4165" y1="398.5771" y2="398.5771"/></g><!--entity code_9--><g class="entity" data-qualified-name="code.code_9" data-source-line="41" id="ent0019"><rect fill="#FFFFFF" height="51.9463" rx="5" ry="5" style="stroke:#000000;stroke-width:1;" width="58.2051" x="929" y="371.2617"/><rect fill="#FFFFFF" height="10" style="stroke:#000000;stroke-width:1;" width="15" x="967.2051" y="376.2617"/><rect fill="#FFFFFF" height="2" style="stroke:#000000;stroke-width:1;" width="4" x="965.2051" y="378.2617"/><rect fill="#FFFFFF" height="2" style="stroke:#000000;stroke-width:1;" width="4" x="965.2051" y="382.2617"/><line style="stroke:#000000;stroke-width:1;" x1="930" x2="953" y1="398.5771" y2="398.5771"/><text fill="#000000" font-family="'Segoe UI'" font-size="11" lengthAdjust="spacing" textLength="10.2051" x="953" y="402.6318">gt</text><line style="stroke:#000000;stroke-width:1;" x1="963.2051" x2="986.2051" y1="398.5771" y2="398.5771"/></g><!--entity code_10--><g class="entity" data-qualified-name="code.code_10" data-source-line="42" id="ent0020"><rect fill="#FFFFFF" height="51.9463" rx="5" ry="5" style="stroke:#000000;stroke-width:1;" width="60.23" x="1022" y="371.2617"/><rect fill="#FFFFFF" height="10" style="stroke:#000000;stroke-width:1;" width="15" x="1062.23" y="376.2617"/><rect fill="#FFFFFF" height="2" style="stroke:#000000;stroke-width:1;" width="4" x="1060.23" y="378.2617"/><rect fill="#FFFFFF" height="2" style="stroke:#000000;stroke-width:1;" width="4" x="1060.23" y="382.2617"/><line style="stroke:#000000;stroke-width:1;" x1="1023" x2="1046" y1="398.5771" y2="398.5771"/><text fill="#000000" font-family="'Segoe UI'" font-size="11" lengthAdjust="spacing" textLength="12.23" x="1046" y="402.6318">ge</text><line style="stroke:#000000;stroke-width:1;" x1="1058.23" x2="1081.23" y1="398.5771" y2="398.5771"/></g><!--entity code_11--><g class="entity" data-qualified-name="code.code_11" data-source-line="43" id="ent0021"><rect fill="#FFFFFF" height="51.9463" rx="5" ry="5" style="stroke:#000000;stroke-width:1;" width="70.7144" x="648.5" y="483.2617"/><rect fill="#FFFFFF" height="10" style="stroke:#000000;stroke-width:1;" width="15" x="699.2144" y="488.2617"/><rect fill="#FFFFFF" height="2" style="stroke:#000000;stroke-width:1;" width="4" x="697.2144" y="490.2617"/><rect fill="#FFFFFF" height="2" style="stroke:#000000;stroke-width:1;" width="4" x="697.2144" y="494.2617"/><line style="stroke:#000000;stroke-width:1;" x1="649.5" x2="672.5" y1="510.5771" y2="510.5771"/><text fill="#000000" font-family="'Segoe UI'" font-size="11" lengthAdjust="spacing" textLength="22.7144" x="672.5" y="514.6318">hash</text><line style="stroke:#000000;stroke-width:1;" x1="695.2144" x2="718.2144" y1="510.5771" y2="510.5771"/></g><!--entity code_12--><g class="entity" data-qualified-name="code.code_12" data-source-line="44" id="ent0022"><rect fill="#FFFFFF" height="51.9463" rx="5" ry="5" style="stroke:#000000;stroke-width:1;" width="66.5518" x="754.5" y="483.2617"/><rect fill="#FFFFFF" height="10" style="stroke:#000000;stroke-width:1;" width="15" x="801.0518" y="488.2617"/><rect fill="#FFFFFF" height="2" style="stroke:#000000;stroke-width:1;" width="4" x="799.0518" y="490.2617"/><rect fill="#FFFFFF" height="2" style="stroke:#000000;stroke-width:1;" width="4" x="799.0518" y="494.2617"/><line style="stroke:#000000;stroke-width:1;" x1="755.5" x2="778.5" y1="510.5771" y2="510.5771"/><text fill="#000000" font-family="'Segoe UI'" font-size="11" lengthAdjust="spacing" textLength="18.5518" x="778.5" y="514.6318">add</text><line style="stroke:#000000;stroke-width:1;" x1="797.0518" x2="820.0518" y1="510.5771" y2="510.5771"/></g><!--entity code_13--><g class="entity" data-qualified-name="code.code_13" data-source-line="45" id="ent0023"><rect fill="#FFFFFF" height="51.9463" rx="5" ry="5" style="stroke:#000000;stroke-width:1;" width="65.3594" x="856.5" y="483.2617"/><rect fill="#FFFFFF" height="10" style="stroke:#000000;stroke-width:1;" width="15" x="901.8594" y="488.2617"/><rect fill="#FFFFFF" height="2" style="stroke:#000000;stroke-width:1;" width="4" x="899.8594" y="490.2617"/><rect fill="#FFFFFF" height="2" style="stroke:#000000;stroke-width:1;" width="4" x="899.8594" y="494.2617"/><line style="stroke:#000000;stroke-width:1;" x1="857.5" x2="880.5" y1="510.5771" y2="510.5771"/><text fill="#000000" font-family="'Segoe UI'" font-size="11" lengthAdjust="spacing" textLength="17.3594" x="880.5" y="514.6318">sub</text><line style="stroke:#000000;stroke-width:1;" x1="897.8594" x2="920.8594" y1="510.5771" y2="510.5771"/></g><!--entity code_14--><g class="entity" data-qualified-name="code.code_14" data-source-line="46" id="ent0024"><rect fill="#FFFFFF" height="51.9463" rx="5" ry="5" style="stroke:#000000;stroke-width:1;" width="66.3638" x="957" y="483.2617"/><rect fill="#FFFFFF" height="10" style="stroke:#000000;stroke-width:1;" width="15" x="1003.3638" y="488.2617"/><rect fill="#FFFFFF" height="2" style="stroke:#000000;stroke-width:1;" width="4" x="1001.3638" y="490.2617"/><rect fill="#FFFFFF" height="2" style="stroke:#000000;stroke-width:1;" width="4" x="1001.3638" y="494.2617"/><line style="stroke:#000000;stroke-width:1;" x1="958" x2="981" y1="510.5771" y2="510.5771"/><text fill="#000000" font-family="'Segoe UI'" font-size="11" lengthAdjust="spacing" textLength="18.3638" x="981" y="514.6318">mul</text><line style="stroke:#000000;stroke-width:1;" x1="999.3638" x2="1022.3638" y1="510.5771" y2="510.5771"/></g><!--entity code_15--><g class="entity" data-qualified-name="code.code_15" data-source-line="47" id="ent0025"><rect fill="#FFFFFF" height="51.9463" rx="5" ry="5" style="stroke:#000000;stroke-width:1;" width="81.9399" x="1058" y="483.2617"/><rect fill="#FFFFFF" height="10" style="stroke:#000000;stroke-width:1;" width="15" x="1119.9399" y="488.2617"/><rect fill="#FFFFFF" height="2" style="stroke:#000000;stroke-width:1;" width="4" x="1117.9399" y="490.2617"/><rect fill="#FFFFFF" height="2" style="stroke:#000000;stroke-width:1;" width="4" x="1117.9399" y="494.2617"/><line style="stroke:#000000;stroke-width:1;" x1="1059" x2="1082" y1="510.5771" y2="510.5771"/><text fill="#000000" font-family="'Segoe UI'" font-size="11" lengthAdjust="spacing" textLength="33.9399" x="1082" y="514.6318">truediv</text><line style="stroke:#000000;stroke-width:1;" x1="1115.9399" x2="1138.9399" y1="510.5771" y2="510.5771"/></g><!--entity code_16--><g class="entity" data-qualified-name="code.code_16" data-source-line="48" id="ent0026"><rect fill="#FFFFFF" height="44.6309" rx="5" ry="5" style="stroke:#000000;stroke-width:1;" width="98.6255" x="634.5" y="598.7617"/><rect fill="#FFFFFF" height="10" style="stroke:#000000;stroke-width:1;" width="15" x="713.1255" y="603.7617"/><rect fill="#FFFFFF" height="2" style="stroke:#000000;stroke-width:1;" width="4" x="711.1255" y="605.7617"/><rect fill="#FFFFFF" height="2" style="stroke:#000000;stroke-width:1;" width="4" x="711.1255" y="609.7617"/><text fill="#000000" font-family="'Segoe UI'" font-size="11" lengthAdjust="spacing" textLength="58.6255" x="649.5" y="630.6318">BackupError</text></g><!--entity code_17--><g class="entity" data-qualified-name="code.code_17" data-source-line="49" id="ent0027"><rect fill="#FFFFFF" height="44.6309" rx="5" ry="5" style="stroke:#000000;stroke-width:1;" width="107.5093" x="769" y="598.7617"/><rect fill="#FFFFFF" height="10" style="stroke:#000000;stroke-width:1;" width="15" x="856.5093" y="603.7617"/><rect fill="#FFFFFF" height="2" style="stroke:#000000;stroke-width:1;" width="4" x="854.5093" y="605.7617"/><rect fill="#FFFFFF" height="2" style="stroke:#000000;stroke-width:1;" width="4" x="854.5093" y="609.7617"/><text fill="#000000" font-family="'Segoe UI'" font-size="11" lengthAdjust="spacing" textLength="67.5093" x="784" y="630.6318">RecoveryError</text></g><!--entity code_18--><g class="entity" data-qualified-name="code.code_18" data-source-line="50" id="ent0028"><rect fill="#FFFFFF" height="44.6309" rx="5" ry="5" style="stroke:#000000;stroke-width:1;" width="104.7593" x="912.5" y="598.7617"/><rect fill="#FFFFFF" height="10" style="stroke:#000000;stroke-width:1;" width="15" x="997.2593" y="603.7617"/><rect fill="#FFFFFF" height="2" style="stroke:#000000;stroke-width:1;" width="4" x="995.2593" y="605.7617"/><rect fill="#FFFFFF" height="2" style="stroke:#000000;stroke-width:1;" width="4" x="995.2593" y="609.7617"/><text fill="#000000" font-family="'Segoe UI'" font-size="11" lengthAdjust="spacing" textLength="64.7593" x="927.5" y="630.6318">BackupResult</text></g><!--entity code_19--><g class="entity" data-qualified-name="code.code_19" data-source-line="51" id="ent0029"><rect fill="#FFFFFF" height="51.9463" rx="5" ry="5" style="stroke:#000000;stroke-width:1;" width="89.1533" x="1052.5" y="595.2617"/><rect fill="#FFFFFF" height="10" style="stroke:#000000;stroke-width:1;" width="15" x="1121.6533" y="600.2617"/><rect fill="#FFFFFF" height="2" style="stroke:#000000;stroke-width:1;" width="4" x="1119.6533" y="602.2617"/><rect fill="#FFFFFF" height="2" style="stroke:#000000;stroke-width:1;" width="4" x="1119.6533" y="606.2617"/><line style="stroke:#000000;stroke-width:1;" x1="1053.5" x2="1076.5" y1="622.5771" y2="622.5771"/><text fill="#000000" font-family="'Segoe UI'" font-size="11" lengthAdjust="spacing" textLength="41.1533" x="1076.5" y="626.6318">post_init</text><line style="stroke:#000000;stroke-width:1;" x1="1117.6533" x2="1140.6533" y1="622.5771" y2="622.5771"/></g><!--entity code_20--><g class="entity" data-qualified-name="code.code_20" data-source-line="52" id="ent0030"><rect fill="#FFFFFF" height="44.6309" rx="5" ry="5" style="stroke:#000000;stroke-width:1;" width="72.6885" x="1176.5" y="598.7617"/><rect fill="#FFFFFF" height="10" style="stroke:#000000;stroke-width:1;" width="15" x="1229.1885" y="603.7617"/><rect fill="#FFFFFF" height="2" style="stroke:#000000;stroke-width:1;" width="4" x="1227.1885" y="605.7617"/><rect fill="#FFFFFF" height="2" style="stroke:#000000;stroke-width:1;" width="4" x="1227.1885" y="609.7617"/><text fill="#000000" font-family="'Segoe UI'" font-size="11" lengthAdjust="spacing" textLength="32.6885" x="1191.5" y="630.6318">to_dict</text></g><g class="entity" data-qualified-name="secrets" data-source-line="56" id="ent0031"><path d="M589,107.2617 L589,173.7852 A5,5 0 0 0 594,178.7852 L736.189,178.7852 A5,5 0 0 0 741.189,173.7852 L741.189,112.2617 L731.189,102.2617 L594,102.2617 A5,5 0 0 0 589,107.2617" fill="#EEEEEE" style="stroke:#000000;stroke-width:1;"/><path d="M731.189,102.2617 L731.189,109.7617 A2.5,2.5 0 0 0 733.689,112.2617 L741.189,112.2617 L731.189,102.2617" fill="#EEEEEE" style="stroke:#000000;stroke-width:1;"/><text fill="#000000" font-family="'Segoe UI'" font-size="11" font-weight="bold" lengthAdjust="spacing" textLength="80.9209" x="595" y="119.1318">Dados Sigilosos</text><line style="stroke:#000000;stroke-width:1;" x1="590" x2="740.189" y1="121.8926" y2="121.8926"/><text fill="#000000" font-family="'Segoe UI'" font-size="11" lengthAdjust="spacing" textLength="131.189" x="595" y="137.7627">Credenciais, tokens, chaves</text><text fill="#000000" font-family="'Segoe UI'" font-size="11" lengthAdjust="spacing" textLength="106.7827" x="595" y="152.3936">Variaveis de ambiente</text><text fill="#000000" font-family="'Segoe UI'" font-size="11" lengthAdjust="spacing" textLength="82.0757" x="595" y="167.0244">Configs sensiveis</text></g><!--link src to models--><g class="link" data-entity-1="ent0003" data-entity-2="ent0004" data-link-type="dependency" data-source-line="65" id="lnk32"><path d="M259.92,141.2617 C244.41,141.2617 228,141.2617 228,141.2617 C228,141.2617 228,215.8417 228,256.4417" fill="none" id="src-to-models" style="stroke:#000000;stroke-width:1;"/><polygon fill="#000000" points="228,262.4417,232,253.4417,228,257.4417,224,253.4417,228,262.4417" style="stroke:#000000;stroke-width:1;"/></g><!--link data to models--><g class="link" data-entity-1="ent0005" data-entity-2="ent0004" data-link-type="dependency" data-source-line="66" id="lnk33"><path d="M194,163.3417 C194,190.3317 194,229.2417 194,256.3617" fill="none" id="data-to-models" style="stroke:#000000;stroke-width:1;"/><polygon fill="#000000" points="194,262.3617,198,253.3617,194,257.3617,190,253.3617,194,262.3617" style="stroke:#000000;stroke-width:1;"/></g><!--link notebooks to models--><g class="link" data-entity-1="ent0009" data-entity-2="ent0004" data-link-type="dependency" data-source-line="67" id="lnk34"><path d="M128.27,141.2617 C145.07,141.2617 160,141.2617 160,141.2617 C160,141.2617 160,215.8417 160,256.4417" fill="none" id="notebooks-to-models" style="stroke:#000000;stroke-width:1;"/><polygon fill="#000000" points="160,262.4417,164,253.4417,160,257.4417,156,253.4417,160,262.4417" style="stroke:#000000;stroke-width:1;"/></g><!--link main to code--><g class="link" data-entity-1="ent0002" data-entity-2="ent0010" data-link-type="dependency" data-source-line="68" id="lnk35"><path d="M562.0087,285.2617 C562.0831,285.2617 562.1579,285.2617 562.2331,285.2617 C562.3834,285.2617 562.5353,285.2617 562.6887,285.2617 C562.9956,285.2617 563.3084,285.2617 563.6269,285.2617 C564.264,285.2617 564.9238,285.2617 565.6035,285.2617 C566.9628,285.2617 568.4018,285.2617 569.8978,285.2617 C572.8899,285.2617 576.1103,285.2617 579.3788,285.2617 C585.9156,285.2617 592.6447,285.2617 598.1239,285.2617 C599.4937,285.2617 594.7854,285.2617 595.9764,285.2617" fill="none" id="main-to-code" style="stroke:#000000;stroke-width:1;"/><polygon fill="#000000" points="601.9764,285.2617,592.9764,281.2617,596.9764,285.2617,592.9764,289.2617,601.9764,285.2617" style="stroke:#000000;stroke-width:1;"/></g><g class="legend" data-source-line="12"><rect fill="none" height="144.3477" rx="5" ry="5" style="stroke:#000000;stroke-width:1;" width="202.6777" x="1058.3223" y="681.2617"/><text fill="#000000" font-family="'Segoe UI'" font-size="14" font-weight="bold" lengthAdjust="spacing" textLength="22.8662" x="1067.1846" y="703.3691">Cor</text><text fill="#000000" font-family="'Segoe UI'" font-size="14" font-weight="bold" lengthAdjust="spacing" textLength="52.8281" x="1097.7754" y="703.3691">Camada</text><rect fill="#1565C0" height="18.6211" style="stroke:none;stroke-width:1;" width="30.5908" x="1063.3223" y="706.8828"/><text fill="#000000" font-family="'Segoe UI'" font-size="14" lengthAdjust="spacing" textLength="3.835" x="1063.3223" y="721.9902">&#160;</text><text fill="#000000" font-family="'Segoe UI'" font-size="14" lengthAdjust="spacing" textLength="84.2939" x="1097.748" y="721.9902">Apresentacao</text><rect fill="#0277BD" height="18.6211" style="stroke:none;stroke-width:1;" width="30.5908" x="1063.3223" y="725.5039"/><text fill="#000000" font-family="'Segoe UI'" font-size="14" lengthAdjust="spacing" textLength="3.835" x="1063.3223" y="740.6113">&#160;</text><text fill="#000000" font-family="'Segoe UI'" font-size="14" lengthAdjust="spacing" textLength="59.4248" x="1097.748" y="740.6113">Aplicacao</text><rect fill="#00838F" height="18.6211" style="stroke:none;stroke-width:1;" width="30.5908" x="1063.3223" y="744.125"/><text fill="#000000" font-family="'Segoe UI'" font-size="14" lengthAdjust="spacing" textLength="3.835" x="1063.3223" y="759.2324">&#160;</text><text fill="#000000" font-family="'Segoe UI'" font-size="14" lengthAdjust="spacing" textLength="52.9854" x="1097.748" y="759.2324">Dominio</text><rect fill="#00695C" height="18.6211" style="stroke:none;stroke-width:1;" width="30.5908" x="1063.3223" y="762.7461"/><text fill="#000000" font-family="'Segoe UI'" font-size="14" lengthAdjust="spacing" textLength="3.835" x="1063.3223" y="777.8535">&#160;</text><text fill="#000000" font-family="'Segoe UI'" font-size="14" lengthAdjust="spacing" textLength="83.4736" x="1097.748" y="777.8535">Infraestrutura</text><rect fill="#AD1457" height="18.6211" style="stroke:none;stroke-width:1;" width="30.5908" x="1063.3223" y="781.3672"/><text fill="#000000" font-family="'Segoe UI'" font-size="14" lengthAdjust="spacing" textLength="3.835" x="1063.3223" y="796.4746">&#160;</text><text fill="#000000" font-family="'Segoe UI'" font-size="14" lengthAdjust="spacing" textLength="100.0781" x="1097.748" y="796.4746">Observabilidade</text><rect fill="#9E9E9E" height="18.6211" style="stroke:none;stroke-width:1;" width="30.5908" x="1063.3223" y="799.9883"/><text fill="#000000" font-family="'Segoe UI'" font-size="14" lengthAdjust="spacing" textLength="3.835" x="1063.3223" y="815.0957">&#160;</text><text fill="#000000" font-family="'Segoe UI'" font-size="14" lengthAdjust="spacing" textLength="154.417" x="1097.748" y="815.0957">Dados Sigilosos (Isolado)</text><line style="stroke:#000000;stroke-width:1;" x1="1063.3223" x2="1256" y1="688.2617" y2="688.2617"/><line style="stroke:#000000;stroke-width:1;" x1="1063.3223" x2="1256" y1="706.8828" y2="706.8828"/><line style="stroke:#000000;stroke-width:1;" x1="1063.3223" x2="1256" y1="725.5039" y2="725.5039"/><line style="stroke:#000000;stroke-width:1;" x1="1063.3223" x2="1256" y1="744.125" y2="744.125"/><line style="stroke:#000000;stroke-width:1;" x1="1063.3223" x2="1256" y1="762.7461" y2="762.7461"/><line style="stroke:#000000;stroke-width:1;" x1="1063.3223" x2="1256" y1="781.3672" y2="781.3672"/><line style="stroke:#000000;stroke-width:1;" x1="1063.3223" x2="1256" y1="799.9883" y2="799.9883"/><line style="stroke:#000000;stroke-width:1;" x1="1063.3223" x2="1256" y1="818.6094" y2="818.6094"/><line style="stroke:#000000;stroke-width:1;" x1="1063.3223" x2="1063.3223" y1="688.2617" y2="818.6094"/><line style="stroke:#000000;stroke-width:1;" x1="1093.9131" x2="1093.9131" y1="688.2617" y2="818.6094"/><line style="stroke:#000000;stroke-width:1;" x1="1256" x2="1256" y1="688.2617" y2="818.6094"/></g><g class="footer" data-source-line="69"><text fill="#000000" font-family="'Segoe UI'" font-size="10" lengthAdjust="spacing" textLength="9.4482" x="460.3926" y="847.4004">\n</text><text fill="#000000" font-family="'Segoe UI'" font-size="10" lengthAdjust="spacing" textLength="340.7666" x="469.8408" y="847.4004">IA-para-Mercado-Financeiro - Diagrama para portifolio (sem dados sensiveis)</text></g><?plantuml-src TLNRRjiu47tNLymc3viOQzHowZWfN0EkBu21JLB4k_lI5iQO6ij4A58bAHVPxVvxXxBZwD9AW3JYEJCS7Ws7l_aTPGIvGgaZzoHrZXOpsA1uIgqfT38robWuNyp3NM4ajCL2-ONH_XuvmjcAKaFmz_BivwIL_9SWZYjWpdDWIYl_h0Wi2OywLLGXk1qcvflKAMnHkIfopCngiX3tAe2IclnpJc2itvaeyj9py4vdEUa6GlUEhE2WtONKg0L9QpgTpv_ro75sx-AhySH-BQGdNrW4WZkJ5Ceu-6Yb5Z97wKPl0dFywXAF7yaLcO4G7dAULcwDakP8Z295AUa4h4ntFWBu_Xuux_A56IO8tyCWZCxZmVLWsXkpFSajET8U1PeJtEiFXnzc1rX9KSTwDrStYu3DJ2Qrh2BNjuDfG9PwQv6SjqMvjXV2P1Q_7Gm3uM7ZoEvn8vLCCA4JutOUxZ8u2-TW9LF9ch1riNH6yTWbSyCI3okDekD_XREsV6U03Z8kDHYD7b_--7WCv_EhHNynW_zuKc6ot6XUFtnoLdm97lok0vb9IBaIEvXrE46F9HYC1cJ4mIyOZTc4bRa_e4UxJl2itm4khJgeZQUDCKy7mkah-hyYo5IXS-IuiXQ55eQj2ymC_nIyB9KHl9QMCZUBmVosgGnBAkZBYyywhgFhDLU1NwzV2VqwOO-ggBXVDTqvfQhtsoPkAQyH1aq2VQt2rqrOrP8Rjc2gmZTDEArvtxRWcZUtXmQ-GxUhCLhgOPBK2FsMFiMcHcW9c1MgHcWfo1kH4hclaHegVk2oAVAvjSPMI0qjkLRCdknpapRyMQpGgfIli5hIvboDhUA96n9xiqwagCJfzqAPXvelzmu9IzvnwPON-tOwZTxHwV1ejzlbvzHIGjmUk3ly0TuyaUQtsE6UmWRx1wraK_9-vTZPHd825BoCtieqpAMT37ZPWK86KHJz3k_B2nxdVqwcouVxoTty_g-7rN4uudR2auzVMaTe4jNlqzwj3fPDAto71KTRmnmBhyT0R_ph4mQwC9EOyl64pLC2BXpnALcASrhAvUdiYA8V?></g></svg>