<?plantuml 1.2026.1?><svg xmlns="http://www.w3.org/2000/svg" xmlns:xlink="http://www.w3.org/1999/xlink" contentStyleType="text/css" data-diagram-type="DESCRIPTION" height="834px" preserveAspectRatio="none" style="width:793px;height:834px;background:#FEFEFE;" version="1.1" viewBox="0 0 793 834" width="793px" zoomAndPan="magnify"><title>**Sistema-ColmeIA**\n&lt;size:13&gt;Arquitetura e Modulos Principais&lt;/size&gt;\n&lt;size:11&gt;Resumo para portifolio&lt;/size&gt;</title><defs/><g><rect fill="#FEFEFE" height="834" style="stroke:none;stroke-width:1;" width="793" x="0" y="0"/><g class="title" data-source-line="10"><text fill="#000000" font-family="'Segoe UI'" font-size="22" font-weight="bold" lengthAdjust="spacing" textLength="177.5361" x="119.5972" y="38.7402">Sistema-ColmeIA</text><text fill="#000000" font-family="'Segoe UI'" font-size="22" font-weight="bold" lengthAdjust="spacing" textLength="22.9023" x="297.1333" y="38.7402">\n</text><text fill="#000000" font-family="'Segoe UI'" font-size="13" font-weight="bold" lengthAdjust="spacing" textLength="201.6841" x="320.0356" y="40.999">Arquitetura e Modulos Principais</text><text fill="#000000" font-family="'Segoe UI'" font-size="22" font-weight="bold" lengthAdjust="spacing" textLength="22.9023" x="521.7197" y="38.7402">\n</text><text fill="#000000" font-family="'Segoe UI'" font-size="11" font-weight="bold" lengthAdjust="spacing" textLength="119.7808" x="544.6221" y="41.501">Resumo para portifolio</text></g><!--cluster main--><g class="cluster" data-qualified-name="main" data-source-line="22" id="ent0002"><rect fill="#E3F2FD" height="266" rx="5" ry="5" style="stroke:#000000;stroke-width:1;" width="149" x="12" y="62.2617"/><text fill="#000000" font-family="'Segoe UI'" font-size="11" font-style="italic" lengthAdjust="spacing" textLength="57.7285" x="57.6357" y="76.1318">&#171;Rectangle&#187;</text><text fill="#000000" font-family="'Segoe UI'" font-size="11" font-weight="bold" lengthAdjust="spacing" textLength="98.4683" x="37.2659" y="90.7627">Modulos Principais</text></g><!--cluster code--><g class="cluster" data-qualified-name="code" data-source-line="27" id="ent0005"><rect fill="#E8F5E9" height="440" rx="5" ry="5" style="stroke:#000000;stroke-width:1;" width="586" x="201" y="203.2617"/><text fill="#000000" font-family="'Segoe UI'" font-size="11" font-style="italic" lengthAdjust="spacing" textLength="57.7285" x="465.1357" y="217.1318">&#171;Rectangle&#187;</text><text fill="#000000" font-family="'Segoe UI'" font-size="11" font-weight="bold" lengthAdjust="spacing" textLength="143.5156" x="422.2422" y="231.7627">Classes e Funcoes (amostra)</text></g><!--entity backend--><g class="entity" data-qualified-name="main.backend" data-source-line="23" id="ent0003"><rect fill="#FFFFFF" height="44.6309" rx="5" ry="5" style="stroke:#000000;stroke-width:1;" width="81.0674" x="36.5" y="259.2617"/><rect fill="#FFFFFF" height="10" style="stroke:#000000;stroke-width:1;" width="15" x="97.5674" y="264.2617"/><rect fill="#FFFFFF" height="2" style="stroke:#000000;stroke-width:1;" width="4" x="95.5674" y="266.2617"/><rect fill="#FFFFFF" height="2" style="stroke:#000000;stroke-width:1;" width="4" x="95.5674" y="270.2617"/><text fill="#000000" font-family="'Segoe UI'" font-size="11" lengthAdjust="spacing" textLength="41.0674" x="51.5" y="291.1318">backend</text></g><!--entity frontend--><g class="entity" data-qualified-name="main.frontend" data-source-line="24" id="ent0004"><rect fill="#FFFFFF" height="44.6309" rx="5" ry="5" style="stroke:#000000;stroke-width:1;" width="82.1201" x="36" y="118.2617"/><rect fill="#FFFFFF" height="10" style="stroke:#000000;stroke-width:1;" width="15" x="98.1201" y="123.2617"/><rect fill="#FFFFFF" height="2" style="stroke:#000000;stroke-width:1;" width="4" x="96.1201" y="125.2617"/><rect fill="#FFFFFF" height="2" style="stroke:#000000;stroke-width:1;" width="4" x="96.1201" y="129.2617"/><text fill="#000000" font-family="'Segoe UI'" font-size="11" lengthAdjust="spacing" textLength="42.1201" x="51" y="150.1318">frontend</text></g><!--entity code_1--><g class="entity" data-qualified-name="code.code_1" data-source-line="28" id="ent0006"><rect fill="#FFFFFF" height="44.6309" rx="5" ry="5" style="stroke:#000000;stroke-width:1;" width="94.8979" x="244.5" y="259.2617"/><rect fill="#FFFFFF" height="10" style="stroke:#000000;stroke-width:1;" width="15" x="319.3979" y="264.2617"/><rect fill="#FFFFFF" height="2" style="stroke:#000000;stroke-width:1;" width="4" x="317.3979" y="266.2617"/><rect fill="#FFFFFF" height="2" style="stroke:#000000;stroke-width:1;" width="4" x="317.3979" y="270.2617"/><text fill="#000000" font-family="'Segoe UI'" font-size="11" lengthAdjust="spacing" textLength="54.8979" x="259.5" y="291.1318">CoreConfig</text></g><!--entity code_2--><g class="entity" data-qualified-name="code.code_2" data-source-line="29" id="ent0007"><rect fill="#FFFFFF" height="44.6309" rx="5" ry="5" style="stroke:#000000;stroke-width:1;" width="84.0752" x="375" y="259.2617"/><rect fill="#FFFFFF" height="10" style="stroke:#000000;stroke-width:1;" width="15" x="439.0752" y="264.2617"/><rect fill="#FFFFFF" height="2" style="stroke:#000000;stroke-width:1;" width="4" x="437.0752" y="266.2617"/><rect fill="#FFFFFF" height="2" style="stroke:#000000;stroke-width:1;" width="4" x="437.0752" y="270.2617"/><text fill="#000000" font-family="'Segoe UI'" font-size="11" lengthAdjust="spacing" textLength="44.0752" x="390" y="291.1318">test_view</text></g><!--entity code_3--><g class="entity" data-qualified-name="code.code_3" data-source-line="30" id="ent0008"><rect fill="#FFFFFF" height="44.6309" rx="5" ry="5" style="stroke:#000000;stroke-width:1;" width="94.1299" x="494" y="259.2617"/><rect fill="#FFFFFF" height="10" style="stroke:#000000;stroke-width:1;" width="15" x="568.1299" y="264.2617"/><rect fill="#FFFFFF" height="2" style="stroke:#000000;stroke-width:1;" width="4" x="566.1299" y="266.2617"/><rect fill="#FFFFFF" height="2" style="stroke:#000000;stroke-width:1;" width="4" x="566.1299" y="270.2617"/><text fill="#000000" font-family="'Segoe UI'" font-size="11" lengthAdjust="spacing" textLength="54.1299" x="509" y="291.1318">simple_test</text></g><!--entity code_4--><g class="entity" data-qualified-name="code.code_4" data-source-line="31" id="ent0009"><rect fill="#FFFFFF" height="44.6309" rx="5" ry="5" style="stroke:#000000;stroke-width:1;" width="140.042" x="623" y="259.2617"/><rect fill="#FFFFFF" height="10" style="stroke:#000000;stroke-width:1;" width="15" x="743.042" y="264.2617"/><rect fill="#FFFFFF" height="2" style="stroke:#000000;stroke-width:1;" width="4" x="741.042" y="266.2617"/><rect fill="#FFFFFF" height="2" style="stroke:#000000;stroke-width:1;" width="4" x="741.042" y="270.2617"/><text fill="#000000" font-family="'Segoe UI'" font-size="11" lengthAdjust="spacing" textLength="100.042" x="638" y="291.1318">parse_reading_string</text></g><!--entity code_5--><g class="entity" data-qualified-name="code.code_5" data-source-line="32" id="ent0010"><rect fill="#FFFFFF" height="44.6309" rx="5" ry="5" style="stroke:#000000;stroke-width:1;" width="90.6763" x="242.5" y="364.2617"/><rect fill="#FFFFFF" height="10" style="stroke:#000000;stroke-width:1;" width="15" x="313.1763" y="369.2617"/><rect fill="#FFFFFF" height="2" style="stroke:#000000;stroke-width:1;" width="4" x="311.1763" y="371.2617"/><rect fill="#FFFFFF" height="2" style="stroke:#000000;stroke-width:1;" width="4" x="311.1763" y="375.2617"/><text fill="#000000" font-family="'Segoe UI'" font-size="11" lengthAdjust="spacing" textLength="50.6763" x="257.5" y="396.1318">login_view</text></g><!--entity code_6--><g class="entity" data-qualified-name="code.code_6" data-source-line="33" id="ent0011"><rect fill="#FFFFFF" height="44.6309" rx="5" ry="5" style="stroke:#000000;stroke-width:1;" width="87.5986" x="369" y="364.2617"/><rect fill="#FFFFFF" height="10" style="stroke:#000000;stroke-width:1;" width="15" x="436.5986" y="369.2617"/><rect fill="#FFFFFF" height="2" style="stroke:#000000;stroke-width:1;" width="4" x="434.5986" y="371.2617"/><rect fill="#FFFFFF" height="2" style="stroke:#000000;stroke-width:1;" width="4" x="434.5986" y="375.2617"/><text fill="#000000" font-family="'Segoe UI'" font-size="11" lengthAdjust="spacing" textLength="47.5986" x="384" y="396.1318">data_view</text></g><!--entity code_7--><g class="entity" data-qualified-name="code.code_7" data-source-line="34" id="ent0012"><rect fill="#FFFFFF" height="44.6309" rx="5" ry="5" style="stroke:#000000;stroke-width:1;" width="135.7236" x="492" y="364.2617"/><rect fill="#FFFFFF" height="10" style="stroke:#000000;stroke-width:1;" width="15" x="607.7236" y="369.2617"/><rect fill="#FFFFFF" height="2" style="stroke:#000000;stroke-width:1;" width="4" x="605.7236" y="371.2617"/><rect fill="#FFFFFF" height="2" style="stroke:#000000;stroke-width:1;" width="4" x="605.7236" y="375.2617"/><text fill="#000000" font-family="'Segoe UI'" font-size="11" lengthAdjust="spacing" textLength="95.7236" x="507" y="396.1318">historical_data_view</text></g><!--entity code_8--><g class="entity" data-qualified-name="code.code_8" data-source-line="35" id="ent0013"><rect fill="#FFFFFF" height="44.6309" rx="5" ry="5" style="stroke:#000000;stroke-width:1;" width="100.2959" x="663" y="364.2617"/><rect fill="#FFFFFF" height="10" style="stroke:#000000;stroke-width:1;" width="15" x="743.2959" y="369.2617"/><rect fill="#FFFFFF" height="2" style="stroke:#000000;stroke-width:1;" width="4" x="741.2959" y="371.2617"/><rect fill="#FFFFFF" height="2" style="stroke:#000000;stroke-width:1;" width="4" x="741.2959" y="375.2617"/><text fill="#000000" font-family="'Segoe UI'" font-size="11" lengthAdjust="spacing" textLength="60.2959" x="678" y="396.1318">get_sort_key</text></g><!--entity code_9--><g class="entity" data-qualified-name="code.code_9" data-source-line="36" id="ent0014"><rect fill="#FFFFFF" height="44.6309" rx="5" ry="5" style="stroke:#000000;stroke-width:1;" width="63.9604" x="256" y="469.2617"/><rect fill="#FFFFFF" height="10" style="stroke:#000000;stroke-width:1;" width="15" x="299.9604" y="474.2617"/><rect fill="#FFFFFF" height="2" style="stroke:#000000;stroke-width:1;" width="4" x="297.9604" y="476.2617"/><rect fill="#FFFFFF" height="2" style="stroke:#000000;stroke-width:1;" width="4" x="297.9604" y="480.2617"/><text fill="#000000" font-family="'Segoe UI'" font-size="11" lengthAdjust="spacing" textLength="23.9604" x="271" y="501.1318">main</text></g><!--entity code_10--><g class="entity" data-qualified-name="code.code_10" data-source-line="37" id="ent0015"><rect fill="#FFFFFF" height="44.6309" rx="5" ry="5" style="stroke:#000000;stroke-width:1;" width="66.3022" x="355" y="469.2617"/><rect fill="#FFFFFF" height="10" style="stroke:#000000;stroke-width:1;" width="15" x="401.3022" y="474.2617"/><rect fill="#FFFFFF" height="2" style="stroke:#000000;stroke-width:1;" width="4" x="399.3022" y="476.2617"/><rect fill="#FFFFFF" height="2" style="stroke:#000000;stroke-width:1;" width="4" x="399.3022" y="480.2617"/><text fill="#000000" font-family="'Segoe UI'" font-size="11" lengthAdjust="spacing" textLength="26.3022" x="370" y="501.1318">views</text></g><!--entity code_11--><g class="entity" data-qualified-name="code.code_11" data-source-line="38" id="ent0016"><rect fill="#FFFFFF" height="44.6309" rx="5" ry="5" style="stroke:#000000;stroke-width:1;" width="86.6426" x="456.5" y="469.2617"/><rect fill="#FFFFFF" height="10" style="stroke:#000000;stroke-width:1;" width="15" x="523.1426" y="474.2617"/><rect fill="#FFFFFF" height="2" style="stroke:#000000;stroke-width:1;" width="4" x="521.1426" y="476.2617"/><rect fill="#FFFFFF" height="2" style="stroke:#000000;stroke-width:1;" width="4" x="521.1426" y="480.2617"/><text fill="#000000" font-family="'Segoe UI'" font-size="11" lengthAdjust="spacing" textLength="46.6426" x="471.5" y="501.1318">root_view</text></g><!--entity code_12--><g class="entity" data-qualified-name="code.code_12" data-source-line="39" id="ent0017"><rect fill="#FFFFFF" height="44.6309" rx="5" ry="5" style="stroke:#000000;stroke-width:1;" width="60.0288" x="579" y="469.2617"/><rect fill="#FFFFFF" height="10" style="stroke:#000000;stroke-width:1;" width="15" x="619.0288" y="474.2617"/><rect fill="#FFFFFF" height="2" style="stroke:#000000;stroke-width:1;" width="4" x="617.0288" y="476.2617"/><rect fill="#FFFFFF" height="2" style="stroke:#000000;stroke-width:1;" width="4" x="617.0288" y="480.2617"/><text fill="#000000" font-family="'Segoe UI'" font-size="11" lengthAdjust="spacing" textLength="20.0288" x="594" y="501.1318">App</text></g><!--entity code_13--><g class="entity" data-qualified-name="code.code_13" data-source-line="40" id="ent0018"><rect fill="#FFFFFF" height="44.6309" rx="5" ry="5" style="stroke:#000000;stroke-width:1;" width="66.9897" x="254.5" y="574.2617"/><rect fill="#FFFFFF" height="10" style="stroke:#000000;stroke-width:1;" width="15" x="301.4897" y="579.2617"/><rect fill="#FFFFFF" height="2" style="stroke:#000000;stroke-width:1;" width="4" x="299.4897" y="581.2617"/><rect fill="#FFFFFF" height="2" style="stroke:#000000;stroke-width:1;" width="4" x="299.4897" y="585.2617"/><text fill="#000000" font-family="'Segoe UI'" font-size="11" lengthAdjust="spacing" textLength="26.9897" x="269.5" y="606.1318">Login</text></g><g class="entity" data-qualified-name="secrets" data-source-line="44" id="ent0019"><path d="M188,107.2617 L188,173.7852 A5,5 0 0 0 193,178.7852 L335.189,178.7852 A5,5 0 0 0 340.189,173.7852 L340.189,112.2617 L330.189,102.2617 L193,102.2617 A5,5 0 0 0 188,107.2617" fill="#EEEEEE" style="stroke:#000000;stroke-width:1;"/><path d="M330.189,102.2617 L330.189,109.7617 A2.5,2.5 0 0 0 332.689,112.2617 L340.189,112.2617 L330.189,102.2617" fill="#EEEEEE" style="stroke:#000000;stroke-width:1;"/><text fill="#000000" font-family="'Segoe UI'" font-size="11" font-weight="bold" lengthAdjust="spacing" textLength="80.9209" x="194" y="119.1318">Dados Sigilosos</text><line style="stroke:#000000;stroke-width:1;" x1="189" x2="339.189" y1="121.8926" y2="121.8926"/><text fill="#000000" font-family="'Segoe UI'" font-size="11" lengthAdjust="spacing" textLength="131.189" x="194" y="137.7627">Credenciais, tokens, chaves</text><text fill="#000000" font-family="'Segoe UI'" font-size="11" lengthAdjust="spacing" textLength="106.7827" x="194" y="152.3936">Variaveis de ambiente</text><text fill="#000000" font-family="'Segoe UI'" font-size="11" lengthAdjust="spacing" textLength="82.0757" x="194" y="167.0244">Configs sensiveis</text></g><!--link frontend to backend--><g class="link" data-entity-1="ent0004" data-entity-2="ent0003" data-link-type="dependency" data-source-line="53" id="lnk20"><path d="M77,163.4117 C77,189.7317 77,226.8717 77,253.1617" fill="none" id="frontend-to-backend" style="stroke:#000000;stroke-width:1;"/><polygon fill="#000000" points="77,259.1617,81,250.1617,77,254.1617,73,250.1617,77,259.1617" style="stroke:#000000;stroke-width:1;"/></g><!--link main to code--><g class="link" data-entity-1="ent0002" data-entity-2="ent0005" data-link-type="dependency" data-source-line="54" id="lnk21"><path d="M161.0302,282.2617 C161.1072,282.2617 161.1846,282.2617 161.2623,282.2617 C166.2403,282.2617 172.9119,282.2617 179.6863,282.2617 C186.4606,282.2617 193.3378,282.2617 198.727,282.2617 C199.4007,282.2617 200.0511,282.2617 200.6751,282.2617 C200.7531,282.2617 194.8307,282.2617 194.9079,282.2617" fill="none" id="main-to-code" style="stroke:#000000;stroke-width:1;"/><polygon fill="#000000" points="200.9079,282.2617,191.9079,278.2617,195.9079,282.2617,191.9079,286.2617,200.9079,282.2617" style="stroke:#000000;stroke-width:1;"/></g><g class="legend" data-source-line="12"><rect fill="none" height="144.3477" rx="5" ry="5" style="stroke:#000000;stroke-width:1;" width="202.6777" x="571.3223" y="653.2617"/><text fill="#000000" font-family="'Segoe UI'" font-size="14" font-weight="bold" lengthAdjust="spacing" textLength="22.8662" x="580.1846" y="675.3691">Cor</text><text fill="#000000" font-family="'Segoe UI'" font-size="14" font-weight="bold" lengthAdjust="spacing" textLength="52.8281" x="610.7754" y="675.3691">Camada</text><rect fill="#1565C0" height="18.6211" style="stroke:none;stroke-width:1;" width="30.5908" x="576.3223" y="678.8828"/><text fill="#000000" font-family="'Segoe UI'" font-size="14" lengthAdjust="spacing" textLength="3.835" x="576.3223" y="693.9902">&#160;</text><text fill="#000000" font-family="'Segoe UI'" font-size="14" lengthAdjust="spacing" textLength="84.2939" x="610.748" y="693.9902">Apresentacao</text><rect fill="#0277BD" height="18.6211" style="stroke:none;stroke-width:1;" width="30.5908" x="576.3223" y="697.5039"/><text fill="#000000" font-family="'Segoe UI'" font-size="14" lengthAdjust="spacing" textLength="3.835" x="576.3223" y="712.6113">&#160;</text><text fill="#000000" font-family="'Segoe UI'" font-size="14" lengthAdjust="spacing" textLength="59.4248" x="610.748" y="712.6113">Aplicacao</text><rect fill="#00838F" height="18.6211" style="stroke:none;stroke-width:1;" width="30.5908" x="576.3223" y="716.125"/><text fill="#000000" font-family="'Segoe UI'" font-size="14" lengthAdjust="spacing" textLength="3.835" x="576.3223" y="731.2324">&#160;</text><text fill="#000000" font-family="'Segoe UI'" font-size="14" lengthAdjust="spacing" textLength="52.9854" x="610.748" y="731.2324">Dominio</text><rect fill="#00695C" height="18.6211" style="stroke:none;stroke-width:1;" width="30.5908" x="576.3223" y="734.7461"/><text fill="#000000" font-family="'Segoe UI'" font-size="14" lengthAdjust="spacing" textLength="3.835" x="576.3223" y="749.8535">&#160;</text><text fill="#000000" font-family="'Segoe UI'" font-size="14" lengthAdjust="spacing" textLength="83.4736" x="610.748" y="749.8535">Infraestrutura</text><rect fill="#AD1457" height="18.6211" style="stroke:none;stroke-width:1;" width="30.5908" x="576.3223" y="753.3672"/><text fill="#000000" font-family="'Segoe UI'" font-size="14" lengthAdjust="spacing" textLength="3.835" x="576.3223" y="768.4746">&#160;</text><text fill="#000000" font-family="'Segoe UI'" font-size="14" lengthAdjust="spacing" textLength="100.0781" x="610.748" y="768.4746">Observabilidade</text><rect fill="#9E9E9E" height="18.6211" style="stroke:none;stroke-width:1;" width="30.5908" x="576.3223" y="771.9883"/><text fill="#000000" font-family="'Segoe UI'" font-size="14" lengthAdjust="spacing" textLength="3.835" x="576.3223" y="787.0957">&#160;</text><text fill="#000000" font-family="'Segoe UI'" font-size="14" lengthAdjust="spacing" textLength="154.417" x="610.748" y="787.0957">Dados Sigilosos (Isolado)</text><line style="stroke:#000000;stroke-width:1;" x1="576.3223" x2="769" y1="660.2617" y2="660.2617"/><line style="stroke:#000000;stroke-width:1;" x1="576.3223" x2="769" y1="678.8828" y2="678.8828"/><line style="stroke:#000000;stroke-width:1;" x1="576.3223" x2="769" y1="697.5039" y2="697.5039"/><line style="stroke:#000000;stroke-width:1;" x1="576.3223" x2="769" y1="716.125" y2="716.125"/><line style="stroke:#000000;stroke-width:1;" x1="576.3223" x2="769" y1="734.7461" y2="734.7461"/><line style="stroke:#000000;stroke-width:1;" x1="576.3223" x2="769" y1="753.3672" y2="753.3672"/><line style="stroke:#000000;stroke-width:1;" x1="576.3223" x2="769" y1="771.9883" y2="771.9883"/><line style="stroke:#000000;stroke-width:1;" x1="576.3223" x2="769" y1="790.6094" y2="790.6094"/><line style="stroke:#000000;stroke-width:1;" x1="576.3223" x2="576.3223" y1="660.2617" y2="790.6094"/><line style="stroke:#000000;stroke-width:1;" x1="606.9131" x2="606.9131" y1="660.2617" y2="790.6094"/><line style="stroke:#000000;stroke-width:1;" x1="769" x2="769" y1="660.2617" y2="790.6094"/></g><g class="footer" data-source-line="55"><text fill="#000000" font-family="'Segoe UI'" font-size="10" lengthAdjust="spacing" textLength="9.4482" x="241.5801" y="819.4004">\n</text><text fill="#000000" font-family="'Segoe UI'" font-size="10" lengthAdjust="spacing" textLength="291.3916" x="251.0283" y="819.4004">Sistema-ColmeIA - Diagrama para portifolio (sem dados sensiveis)</text></g><?plantuml-src RLJRRjf047ttLqp9GnDKL1n281L5ebmaf5ogqFQbYT1W3sQLzQwxkqwKDlttpZfSR3UsX9SvPtTkP-UTsr1Aa4aKAh0FGcLeC8KLHW-9qRcAnrfg0qUpgNzBZ9ZMc4itqyfT8v_GM52Y2RxF6s-J5k8tGHYMm8nzO48Bzom934KELIAfHB0RZFMJK0ciKTeoietCA38Gjak058hSSqQWZTle8732yU7Dva9OHocsE9kKvgDcy-vE3Io7z2di34VcLouSkTmW45pfE9VQmbSZL2Go57RmqJE7XotXy9PidchmJY5ZNsAjfT1ROX18IaZ5O4IoSG70osVWO8iFfXWZl7WZ38x2xdbtt1xoUfGPigGSHgZtSFkqr_ioUOMbYAfOkz_fppmsqQbGeeoSNtJ77fchjK6opkH5RZl2Q1AUTNkUSBEoP1vn9QI8CQOzusBgt-9mRe65XKW4ruHNntEh9TjEcEjJVCqq2BRDXCR_vMi0MaXPNp0OtExQF1p2qRGpEvrDu0yxZNIQQSNvmqylFJxotk_Qhgk4jM4vxHYxFy7VKWnZYTQIvMRESXLfNXrZghaEU5844sdEjHvCVzQTNjI3uRRHMAkrIEvt6vTXbUAumCj7GKy7nccLOKMQILfwue7JgN9OIPQMXZ1clIyvLFuSo6TLijI9K3MVtIebHeSrndcLiU4heGshIYxV8FUgv8JSqhBEbm_qV23rgoJVumDuKGNzyRPKn7OLDbhNgnZM2ZtAiX9Og_6bBqa9xdX1AEt8con5Xfpb9XSFxsmsQy9kDjdQQhNuTsme9jOkI_S3ECq2v6-qmKUoZFv08tWfB0ytm7Gbs3tvNOLAl2zbXSUBw-4Z28BWFNmk7hYTNex6yvlhqTNq-jlDOciETYhc28PxqHTNnXjyHi6Q2yJJxZ24siFQK8CMJ0GcF0QnFfZWs19FuoBbVO0d-t4L1Fy0?></g></svg>