<?plantuml 1.2026.1?><svg xmlns="http://www.w3.org/2000/svg" xmlns:xlink="http://www.w3.org/1999/xlink" contentStyleType="text/css" data-diagram-type="DESCRIPTION" height="841px" preserveAspectRatio="none" style="width:1074px;height:841px;background:#FEFEFE;" version="1.1" viewBox="0 0 1074 841" width="1074px" zoomAndPan="magnify"><title>**Screap_copasa**\n&lt;size:13&gt;Arquitetura e Modulos Principais&lt;/size&gt;\n&lt;size:11&gt;Resumo para portifolio&lt;/size&gt;</title><defs/><g><rect fill="#FEFEFE" height="841" style="stroke:none;stroke-width:1;" width="1074" x="0" y="0"/><g class="title" data-source-line="10"><text fill="#000000" font-family="'Segoe UI'" font-size="22" font-weight="bold" lengthAdjust="spacing" textLength="149.166" x="274.2822" y="38.7402">Screap_copasa</text><text fill="#000000" font-family="'Segoe UI'" font-size="22" font-weight="bold" lengthAdjust="spacing" textLength="22.9023" x="423.4482" y="38.7402">\n</text><text fill="#000000" font-family="'Segoe UI'" font-size="13" font-weight="bold" lengthAdjust="spacing" textLength="201.6841" x="446.3506" y="40.999">Arquitetura e Modulos Principais</text><text fill="#000000" font-family="'Segoe UI'" font-size="22" font-weight="bold" lengthAdjust="spacing" textLength="22.9023" x="648.0347" y="38.7402">\n</text><text fill="#000000" font-family="'Segoe UI'" font-size="11" font-weight="bold" lengthAdjust="spacing" textLength="119.7808" x="670.937" y="41.501">Resumo para portifolio</text></g><!--cluster main--><g class="cluster" data-qualified-name="main" data-source-line="22" id="ent0002"><rect fill="#E3F2FD" height="266" rx="5" ry="5" style="stroke:#000000;stroke-width:1;" width="121" x="12" y="62.2617"/><text fill="#000000" font-family="'Segoe UI'" font-size="11" font-style="italic" lengthAdjust="spacing" textLength="57.7285" x="43.6357" y="76.1318">&#171;Rectangle&#187;</text><text fill="#000000" font-family="'Segoe UI'" font-size="11" font-weight="bold" lengthAdjust="spacing" textLength="98.4683" x="23.2659" y="90.7627">Modulos Principais</text></g><!--cluster code--><g class="cluster" data-qualified-name="code" data-source-line="27" id="ent0005"><rect fill="#E8F5E9" height="447" rx="5" ry="5" style="stroke:#000000;stroke-width:1;" width="895" x="173" y="203.2617"/><text fill="#000000" font-family="'Segoe UI'" font-size="11" font-style="italic" lengthAdjust="spacing" textLength="57.7285" x="591.6357" y="217.1318">&#171;Rectangle&#187;</text><text fill="#000000" font-family="'Segoe UI'" font-size="11" font-weight="bold" lengthAdjust="spacing" textLength="143.5156" x="548.7422" y="231.7627">Classes e Funcoes (amostra)</text></g><!--entity src--><g class="entity" data-qualified-name="main.src" data-source-line="23" id="ent0003"><rect fill="#FFFFFF" height="44.6309" rx="5" ry="5" style="stroke:#000000;stroke-width:1;" width="53.5728" x="36" y="118.2617"/><rect fill="#FFFFFF" height="10" style="stroke:#000000;stroke-width:1;" width="15" x="69.5728" y="123.2617"/><rect fill="#FFFFFF" height="2" style="stroke:#000000;stroke-width:1;" width="4" x="67.5728" y="125.2617"/><rect fill="#FFFFFF" height="2" style="stroke:#000000;stroke-width:1;" width="4" x="67.5728" y="129.2617"/><text fill="#000000" font-family="'Segoe UI'" font-size="11" lengthAdjust="spacing" textLength="13.5728" x="51" y="150.1318">src</text></g><!--entity tests--><g class="entity" data-qualified-name="main.tests" data-source-line="24" id="ent0004"><rect fill="#FFFFFF" height="44.6309" rx="5" ry="5" style="stroke:#000000;stroke-width:1;" width="62.5425" x="36.5" y="259.2617"/><rect fill="#FFFFFF" height="10" style="stroke:#000000;stroke-width:1;" width="15" x="79.0425" y="264.2617"/><rect fill="#FFFFFF" height="2" style="stroke:#000000;stroke-width:1;" width="4" x="77.0425" y="266.2617"/><rect fill="#FFFFFF" height="2" style="stroke:#000000;stroke-width:1;" width="4" x="77.0425" y="270.2617"/><text fill="#000000" font-family="'Segoe UI'" font-size="11" lengthAdjust="spacing" textLength="22.5425" x="51.5" y="291.1318">tests</text></g><!--entity code_1--><g class="entity" data-qualified-name="code.code_1" data-source-line="28" id="ent0006"><rect fill="#FFFFFF" height="44.6309" rx="5" ry="5" style="stroke:#000000;stroke-width:1;" width="109.98" x="216" y="259.2617"/><rect fill="#FFFFFF" height="10" style="stroke:#000000;stroke-width:1;" width="15" x="305.98" y="264.2617"/><rect fill="#FFFFFF" height="2" style="stroke:#000000;stroke-width:1;" width="4" x="303.98" y="266.2617"/><rect fill="#FFFFFF" height="2" style="stroke:#000000;stroke-width:1;" width="4" x="303.98" y="270.2617"/><text fill="#000000" font-family="'Segoe UI'" font-size="11" lengthAdjust="spacing" textLength="69.98" x="231" y="291.1318">ApiInterceptor</text></g><!--entity code_2--><g class="entity" data-qualified-name="code.code_2" data-source-line="29" id="ent0007"><rect fill="#FFFFFF" height="44.6309" rx="5" ry="5" style="stroke:#000000;stroke-width:1;" width="158.4219" x="361" y="259.2617"/><rect fill="#FFFFFF" height="10" style="stroke:#000000;stroke-width:1;" width="15" x="499.4219" y="264.2617"/><rect fill="#FFFFFF" height="2" style="stroke:#000000;stroke-width:1;" width="4" x="497.4219" y="266.2617"/><rect fill="#FFFFFF" height="2" style="stroke:#000000;stroke-width:1;" width="4" x="497.4219" y="270.2617"/><text fill="#000000" font-family="'Segoe UI'" font-size="11" lengthAdjust="spacing" textLength="118.4219" x="376" y="291.1318">capturar_requisicoes_api</text></g><!--entity code_3--><g class="entity" data-qualified-name="code.code_3" data-source-line="30" id="ent0008"><rect fill="#FFFFFF" height="44.6309" rx="5" ry="5" style="stroke:#000000;stroke-width:1;" width="131.2227" x="554.5" y="259.2617"/><rect fill="#FFFFFF" height="10" style="stroke:#000000;stroke-width:1;" width="15" x="665.7227" y="264.2617"/><rect fill="#FFFFFF" height="2" style="stroke:#000000;stroke-width:1;" width="4" x="663.7227" y="266.2617"/><rect fill="#FFFFFF" height="2" style="stroke:#000000;stroke-width:1;" width="4" x="663.7227" y="270.2617"/><text fill="#000000" font-family="'Segoe UI'" font-size="11" lengthAdjust="spacing" textLength="91.2227" x="569.5" y="291.1318">obter_resposta_api</text></g><!--entity code_4--><g class="entity" data-qualified-name="code.code_4" data-source-line="31" id="ent0009"><rect fill="#FFFFFF" height="44.6309" rx="5" ry="5" style="stroke:#000000;stroke-width:1;" width="140.7563" x="720.5" y="259.2617"/><rect fill="#FFFFFF" height="10" style="stroke:#000000;stroke-width:1;" width="15" x="841.2563" y="264.2617"/><rect fill="#FFFFFF" height="2" style="stroke:#000000;stroke-width:1;" width="4" x="839.2563" y="266.2617"/><rect fill="#FFFFFF" height="2" style="stroke:#000000;stroke-width:1;" width="4" x="839.2563" y="270.2617"/><text fill="#000000" font-family="'Segoe UI'" font-size="11" lengthAdjust="spacing" textLength="100.7563" x="735.5" y="291.1318">extrair_dados_de_api</text></g><!--entity code_5--><g class="entity" data-qualified-name="code.code_5" data-source-line="32" id="ent0010"><rect fill="#FFFFFF" height="44.6309" rx="5" ry="5" style="stroke:#000000;stroke-width:1;" width="72.0654" x="897" y="259.2617"/><rect fill="#FFFFFF" height="10" style="stroke:#000000;stroke-width:1;" width="15" x="949.0654" y="264.2617"/><rect fill="#FFFFFF" height="2" style="stroke:#000000;stroke-width:1;" width="4" x="947.0654" y="266.2617"/><rect fill="#FFFFFF" height="2" style="stroke:#000000;stroke-width:1;" width="4" x="947.0654" y="270.2617"/><text fill="#000000" font-family="'Segoe UI'" font-size="11" lengthAdjust="spacing" textLength="32.0654" x="912" y="291.1318">Config</text></g><!--entity code_6--><g class="entity" data-qualified-name="code.code_6" data-source-line="33" id="ent0011"><rect fill="#FFFFFF" height="44.6309" rx="5" ry="5" style="stroke:#000000;stroke-width:1;" width="130.4438" x="205" y="367.7617"/><rect fill="#FFFFFF" height="10" style="stroke:#000000;stroke-width:1;" width="15" x="315.4438" y="372.7617"/><rect fill="#FFFFFF" height="2" style="stroke:#000000;stroke-width:1;" width="4" x="313.4438" y="374.7617"/><rect fill="#FFFFFF" height="2" style="stroke:#000000;stroke-width:1;" width="4" x="313.4438" y="378.7617"/><text fill="#000000" font-family="'Segoe UI'" font-size="11" lengthAdjust="spacing" textLength="90.4438" x="220" y="399.6318">validar_credenciais</text></g><!--entity code_7--><g class="entity" data-qualified-name="code.code_7" data-source-line="34" id="ent0012"><rect fill="#FFFFFF" height="44.6309" rx="5" ry="5" style="stroke:#000000;stroke-width:1;" width="126.1792" x="370" y="367.7617"/><rect fill="#FFFFFF" height="10" style="stroke:#000000;stroke-width:1;" width="15" x="476.1792" y="372.7617"/><rect fill="#FFFFFF" height="2" style="stroke:#000000;stroke-width:1;" width="4" x="474.1792" y="374.7617"/><rect fill="#FFFFFF" height="2" style="stroke:#000000;stroke-width:1;" width="4" x="474.1792" y="378.7617"/><text fill="#000000" font-family="'Segoe UI'" font-size="11" lengthAdjust="spacing" textLength="86.1792" x="385" y="399.6318">ScreapCopasaGUI</text></g><!--entity code_8--><g class="entity" data-qualified-name="code.code_8" data-source-line="35" id="ent0013"><rect fill="#FFFFFF" height="51.9463" rx="5" ry="5" style="stroke:#000000;stroke-width:1;" width="63.2808" x="531.5" y="364.2617"/><rect fill="#FFFFFF" height="10" style="stroke:#000000;stroke-width:1;" width="15" x="574.7808" y="369.2617"/><rect fill="#FFFFFF" height="2" style="stroke:#000000;stroke-width:1;" width="4" x="572.7808" y="371.2617"/><rect fill="#FFFFFF" height="2" style="stroke:#000000;stroke-width:1;" width="4" x="572.7808" y="375.2617"/><line style="stroke:#000000;stroke-width:1;" x1="532.5" x2="555.5" y1="391.5771" y2="391.5771"/><text fill="#000000" font-family="'Segoe UI'" font-size="11" lengthAdjust="spacing" textLength="15.2808" x="555.5" y="395.6318">init</text><line style="stroke:#000000;stroke-width:1;" x1="570.7808" x2="593.7808" y1="391.5771" y2="391.5771"/></g><!--entity code_9--><g class="entity" data-qualified-name="code.code_9" data-source-line="36" id="ent0014"><rect fill="#FFFFFF" height="44.6309" rx="5" ry="5" style="stroke:#000000;stroke-width:1;" width="107.8369" x="630" y="367.7617"/><rect fill="#FFFFFF" height="10" style="stroke:#000000;stroke-width:1;" width="15" x="717.8369" y="372.7617"/><rect fill="#FFFFFF" height="2" style="stroke:#000000;stroke-width:1;" width="4" x="715.8369" y="374.7617"/><rect fill="#FFFFFF" height="2" style="stroke:#000000;stroke-width:1;" width="4" x="715.8369" y="378.7617"/><text fill="#000000" font-family="'Segoe UI'" font-size="11" lengthAdjust="spacing" textLength="67.8369" x="645" y="399.6318">_criar_widgets</text></g><!--entity code_10--><g class="entity" data-qualified-name="code.code_10" data-source-line="37" id="ent0015"><rect fill="#FFFFFF" height="44.6309" rx="5" ry="5" style="stroke:#000000;stroke-width:1;" width="128.9185" x="773.5" y="367.7617"/><rect fill="#FFFFFF" height="10" style="stroke:#000000;stroke-width:1;" width="15" x="882.4185" y="372.7617"/><rect fill="#FFFFFF" height="2" style="stroke:#000000;stroke-width:1;" width="4" x="880.4185" y="374.7617"/><rect fill="#FFFFFF" height="2" style="stroke:#000000;stroke-width:1;" width="4" x="880.4185" y="378.7617"/><text fill="#000000" font-family="'Segoe UI'" font-size="11" lengthAdjust="spacing" textLength="88.9185" x="788.5" y="399.6318">_configurar_layout</text></g><!--entity code_11--><g class="entity" data-qualified-name="code.code_11" data-source-line="38" id="ent0016"><rect fill="#FFFFFF" height="44.6309" rx="5" ry="5" style="stroke:#000000;stroke-width:1;" width="118.6113" x="205.5" y="476.2617"/><rect fill="#FFFFFF" height="10" style="stroke:#000000;stroke-width:1;" width="15" x="304.1113" y="481.2617"/><rect fill="#FFFFFF" height="2" style="stroke:#000000;stroke-width:1;" width="4" x="302.1113" y="483.2617"/><rect fill="#FFFFFF" height="2" style="stroke:#000000;stroke-width:1;" width="4" x="302.1113" y="487.2617"/><text fill="#000000" font-family="'Segoe UI'" font-size="11" lengthAdjust="spacing" textLength="78.6113" x="220.5" y="508.1318">_atualizar_status</text></g><!--entity code_12--><g class="entity" data-qualified-name="code.code_12" data-source-line="39" id="ent0017"><rect fill="#FFFFFF" height="44.6309" rx="5" ry="5" style="stroke:#000000;stroke-width:1;" width="139.0859" x="359.5" y="476.2617"/><rect fill="#FFFFFF" height="10" style="stroke:#000000;stroke-width:1;" width="15" x="478.5859" y="481.2617"/><rect fill="#FFFFFF" height="2" style="stroke:#000000;stroke-width:1;" width="4" x="476.5859" y="483.2617"/><rect fill="#FFFFFF" height="2" style="stroke:#000000;stroke-width:1;" width="4" x="476.5859" y="487.2617"/><text fill="#000000" font-family="'Segoe UI'" font-size="11" lengthAdjust="spacing" textLength="99.0859" x="374.5" y="508.1318">_adicionar_resultado</text></g><!--entity code_13--><g class="entity" data-qualified-name="code.code_13" data-source-line="40" id="ent0018"><rect fill="#FFFFFF" height="44.6309" rx="5" ry="5" style="stroke:#000000;stroke-width:1;" width="129.8691" x="534" y="476.2617"/><rect fill="#FFFFFF" height="10" style="stroke:#000000;stroke-width:1;" width="15" x="643.8691" y="481.2617"/><rect fill="#FFFFFF" height="2" style="stroke:#000000;stroke-width:1;" width="4" x="641.8691" y="483.2617"/><rect fill="#FFFFFF" height="2" style="stroke:#000000;stroke-width:1;" width="4" x="641.8691" y="487.2617"/><text fill="#000000" font-family="'Segoe UI'" font-size="11" lengthAdjust="spacing" textLength="89.8691" x="549" y="508.1318">_limpar_resultados</text></g><!--entity code_14--><g class="entity" data-qualified-name="code.code_14" data-source-line="41" id="ent0019"><rect fill="#FFFFFF" height="44.6309" rx="5" ry="5" style="stroke:#000000;stroke-width:1;" width="178.4023" x="699" y="476.2617"/><rect fill="#FFFFFF" height="10" style="stroke:#000000;stroke-width:1;" width="15" x="857.4023" y="481.2617"/><rect fill="#FFFFFF" height="2" style="stroke:#000000;stroke-width:1;" width="4" x="855.4023" y="483.2617"/><rect fill="#FFFFFF" height="2" style="stroke:#000000;stroke-width:1;" width="4" x="855.4023" y="487.2617"/><text fill="#000000" font-family="'Segoe UI'" font-size="11" lengthAdjust="spacing" textLength="138.4023" x="714" y="508.1318">_iniciar_scraping_automatico</text></g><!--entity code_15--><g class="entity" data-qualified-name="code.code_15" data-source-line="42" id="ent0020"><rect fill="#FFFFFF" height="44.6309" rx="5" ry="5" style="stroke:#000000;stroke-width:1;" width="131.1421" x="912.5" y="476.2617"/><rect fill="#FFFFFF" height="10" style="stroke:#000000;stroke-width:1;" width="15" x="1023.6421" y="481.2617"/><rect fill="#FFFFFF" height="2" style="stroke:#000000;stroke-width:1;" width="4" x="1021.6421" y="483.2617"/><rect fill="#FFFFFF" height="2" style="stroke:#000000;stroke-width:1;" width="4" x="1021.6421" y="487.2617"/><text fill="#000000" font-family="'Segoe UI'" font-size="11" lengthAdjust="spacing" textLength="91.1421" x="927.5" y="508.1318">_executar_scraping</text></g><!--entity code_16--><g class="entity" data-qualified-name="code.code_16" data-source-line="43" id="ent0021"><rect fill="#FFFFFF" height="44.6309" rx="5" ry="5" style="stroke:#000000;stroke-width:1;" width="115.4424" x="207.5" y="581.2617"/><rect fill="#FFFFFF" height="10" style="stroke:#000000;stroke-width:1;" width="15" x="302.9424" y="586.2617"/><rect fill="#FFFFFF" height="2" style="stroke:#000000;stroke-width:1;" width="4" x="300.9424" y="588.2617"/><rect fill="#FFFFFF" height="2" style="stroke:#000000;stroke-width:1;" width="4" x="300.9424" y="592.2617"/><text fill="#000000" font-family="'Segoe UI'" font-size="11" lengthAdjust="spacing" textLength="75.4424" x="222.5" y="613.1318">_parar_scraping</text></g><!--entity code_17--><g class="entity" data-qualified-name="code.code_17" data-source-line="44" id="ent0022"><rect fill="#FFFFFF" height="44.6309" rx="5" ry="5" style="stroke:#000000;stroke-width:1;" width="127.7852" x="358" y="581.2617"/><rect fill="#FFFFFF" height="10" style="stroke:#000000;stroke-width:1;" width="15" x="465.7852" y="586.2617"/><rect fill="#FFFFFF" height="2" style="stroke:#000000;stroke-width:1;" width="4" x="463.7852" y="588.2617"/><rect fill="#FFFFFF" height="2" style="stroke:#000000;stroke-width:1;" width="4" x="463.7852" y="592.2617"/><text fill="#000000" font-family="'Segoe UI'" font-size="11" lengthAdjust="spacing" textLength="87.7852" x="373" y="613.1318">_finalizar_scraping</text></g><!--entity code_18--><g class="entity" data-qualified-name="code.code_18" data-source-line="45" id="ent0023"><rect fill="#FFFFFF" height="44.6309" rx="5" ry="5" style="stroke:#000000;stroke-width:1;" width="113.8472" x="521" y="581.2617"/><rect fill="#FFFFFF" height="10" style="stroke:#000000;stroke-width:1;" width="15" x="614.8472" y="586.2617"/><rect fill="#FFFFFF" height="2" style="stroke:#000000;stroke-width:1;" width="4" x="612.8472" y="588.2617"/><rect fill="#FFFFFF" height="2" style="stroke:#000000;stroke-width:1;" width="4" x="612.8472" y="592.2617"/><text fill="#000000" font-family="'Segoe UI'" font-size="11" lengthAdjust="spacing" textLength="73.8472" x="536" y="613.1318">_mostrar_sobre</text></g><!--entity code_19--><g class="entity" data-qualified-name="code.code_19" data-source-line="46" id="ent0024"><rect fill="#FFFFFF" height="44.6309" rx="5" ry="5" style="stroke:#000000;stroke-width:1;" width="69.9224" x="670" y="581.2617"/><rect fill="#FFFFFF" height="10" style="stroke:#000000;stroke-width:1;" width="15" x="719.9224" y="586.2617"/><rect fill="#FFFFFF" height="2" style="stroke:#000000;stroke-width:1;" width="4" x="717.9224" y="588.2617"/><rect fill="#FFFFFF" height="2" style="stroke:#000000;stroke-width:1;" width="4" x="717.9224" y="592.2617"/><text fill="#000000" font-family="'Segoe UI'" font-size="11" lengthAdjust="spacing" textLength="29.9224" x="685" y="613.1318">fechar</text></g><!--entity code_20--><g class="entity" data-qualified-name="code.code_20" data-source-line="47" id="ent0025"><rect fill="#FFFFFF" height="44.6309" rx="5" ry="5" style="stroke:#000000;stroke-width:1;" width="63.9604" x="775" y="581.2617"/><rect fill="#FFFFFF" height="10" style="stroke:#000000;stroke-width:1;" width="15" x="818.9604" y="586.2617"/><rect fill="#FFFFFF" height="2" style="stroke:#000000;stroke-width:1;" width="4" x="816.9604" y="588.2617"/><rect fill="#FFFFFF" height="2" style="stroke:#000000;stroke-width:1;" width="4" x="816.9604" y="592.2617"/><text fill="#000000" font-family="'Segoe UI'" font-size="11" lengthAdjust="spacing" textLength="23.9604" x="790" y="613.1318">main</text></g><g class="entity" data-qualified-name="secrets" data-source-line="51" id="ent0026"><path d="M160,107.2617 L160,173.7852 A5,5 0 0 0 165,178.7852 L307.189,178.7852 A5,5 0 0 0 312.189,173.7852 L312.189,112.2617 L302.189,102.2617 L165,102.2617 A5,5 0 0 0 160,107.2617" fill="#EEEEEE" style="stroke:#000000;stroke-width:1;"/><path d="M302.189,102.2617 L302.189,109.7617 A2.5,2.5 0 0 0 304.689,112.2617 L312.189,112.2617 L302.189,102.2617" fill="#EEEEEE" style="stroke:#000000;stroke-width:1;"/><text fill="#000000" font-family="'Segoe UI'" font-size="11" font-weight="bold" lengthAdjust="spacing" textLength="80.9209" x="166" y="119.1318">Dados Sigilosos</text><line style="stroke:#000000;stroke-width:1;" x1="161" x2="311.189" y1="121.8926" y2="121.8926"/><text fill="#000000" font-family="'Segoe UI'" font-size="11" lengthAdjust="spacing" textLength="131.189" x="166" y="137.7627">Credenciais, tokens, chaves</text><text fill="#000000" font-family="'Segoe UI'" font-size="11" lengthAdjust="spacing" textLength="106.7827" x="166" y="152.3936">Variaveis de ambiente</text><text fill="#000000" font-family="'Segoe UI'" font-size="11" lengthAdjust="spacing" textLength="82.0757" x="166" y="167.0244">Configs sensiveis</text></g><!--link src to tests--><g class="link" data-entity-1="ent0003" data-entity-2="ent0004" data-link-type="dependency" data-source-line="60" id="lnk27"><path d="M63.25,163.4117 C63.25,189.7317 63.25,226.8717 63.25,253.1617" fill="none" id="src-to-tests" style="stroke:#000000;stroke-width:1;"/><polygon fill="#000000" points="63.25,259.1617,67.25,250.1617,63.25,254.1617,59.25,250.1617,63.25,259.1617" style="stroke:#000000;stroke-width:1;"/></g><!--link main to code--><g class="link" data-entity-1="ent0002" data-entity-2="ent0005" data-link-type="dependency" data-source-line="61" id="lnk28"><path d="M133.0302,282.2617 C133.1072,282.2617 133.1846,282.2617 133.2623,282.2617 C138.2403,282.2617 144.9119,282.2617 151.6863,282.2617 C158.4606,282.2617 165.3378,282.2617 170.727,282.2617 C171.4007,282.2617 172.0511,282.2617 172.6751,282.2617 C172.7531,282.2617 166.8307,282.2617 166.9079,282.2617" fill="none" id="main-to-code" style="stroke:#000000;stroke-width:1;"/><polygon fill="#000000" points="172.9079,282.2617,163.9079,278.2617,167.9079,282.2617,163.9079,286.2617,172.9079,282.2617" style="stroke:#000000;stroke-width:1;"/></g><g class="legend" data-source-line="12"><rect fill="none" height="144.3477" rx="5" ry="5" style="stroke:#000000;stroke-width:1;" width="202.6777" x="852.3223" y="660.2617"/><text fill="#000000" font-family="'Segoe UI'" font-size="14" font-weight="bold" lengthAdjust="spacing" textLength="22.8662" x="861.1846" y="682.3691">Cor</text><text fill="#000000" font-family="'Segoe UI'" font-size="14" font-weight="bold" lengthAdjust="spacing" textLength="52.8281" x="891.7754" y="682.3691">Camada</text><rect fill="#1565C0" height="18.6211" style="stroke:none;stroke-width:1;" width="30.5908" x="857.3223" y="685.8828"/><text fill="#000000" font-family="'Segoe UI'" font-size="14" lengthAdjust="spacing" textLength="3.835" x="857.3223" y="700.9902">&#160;</text><text fill="#000000" font-family="'Segoe UI'" font-size="14" lengthAdjust="spacing" textLength="84.2939" x="891.748" y="700.9902">Apresentacao</text><rect fill="#0277BD" height="18.6211" style="stroke:none;stroke-width:1;" width="30.5908" x="857.3223" y="704.5039"/><text fill="#000000" font-family="'Segoe UI'" font-size="14" lengthAdjust="spacing" textLength="3.835" x="857.3223" y="719.6113">&#160;</text><text fill="#000000" font-family="'Segoe UI'" font-size="14" lengthAdjust="spacing" textLength="59.4248" x="891.748" y="719.6113">Aplicacao</text><rect fill="#00838F" height="18.6211" style="stroke:none;stroke-width:1;" width="30.5908" x="857.3223" y="723.125"/><text fill="#000000" font-family="'Segoe UI'" font-size="14" lengthAdjust="spacing" textLength="3.835" x="857.3223" y="738.2324">&#160;</text><text fill="#000000" font-family="'Segoe UI'" font-size="14" lengthAdjust="spacing" textLength="52.9854" x="891.748" y="738.2324">Dominio</text><rect fill="#00695C" height="18.6211" style="stroke:none;stroke-width:1;" width="30.5908" x="857.3223" y="741.7461"/><text fill="#000000" font-family="'Segoe UI'" font-size="14" lengthAdjust="spacing" textLength="3.835" x="857.3223" y="756.8535">&#160;</text><text fill="#000000" font-family="'Segoe UI'" font-size="14" lengthAdjust="spacing" textLength="83.4736" x="891.748" y="756.8535">Infraestrutura</text><rect fill="#AD1457" height="18.6211" style="stroke:none;stroke-width:1;" width="30.5908" x="857.3223" y="760.3672"/><text fill="#000000" font-family="'Segoe UI'" font-size="14" lengthAdjust="spacing" textLength="3.835" x="857.3223" y="775.4746">&#160;</text><text fill="#000000" font-family="'Segoe UI'" font-size="14" lengthAdjust="spacing" textLength="100.0781" x="891.748" y="775.4746">Observabilidade</text><rect fill="#9E9E9E" height="18.6211" style="stroke:none;stroke-width:1;" width="30.5908" x="857.3223" y="778.9883"/><text fill="#000000" font-family="'Segoe UI'" font-size="14" lengthAdjust="spacing" textLength="3.835" x="857.3223" y="794.0957">&#160;</text><text fill="#000000" font-family="'Segoe UI'" font-size="14" lengthAdjust="spacing" textLength="154.417" x="891.748" y="794.0957">Dados Sigilosos (Isolado)</text><line style="stroke:#000000;stroke-width:1;" x1="857.3223" x2="1050" y1="667.2617" y2="667.2617"/><line style="stroke:#000000;stroke-width:1;" x1="857.3223" x2="1050" y1="685.8828" y2="685.8828"/><line style="stroke:#000000;stroke-width:1;" x1="857.3223" x2="1050" y1="704.5039" y2="704.5039"/><line style="stroke:#000000;stroke-width:1;" x1="857.3223" x2="1050" y1="723.125" y2="723.125"/><line style="stroke:#000000;stroke-width:1;" x1="857.3223" x2="1050" y1="741.7461" y2="741.7461"/><line style="stroke:#000000;stroke-width:1;" x1="857.3223" x2="1050" y1="760.3672" y2="760.3672"/><line style="stroke:#000000;stroke-width:1;" x1="857.3223" x2="1050" y1="778.9883" y2="778.9883"/><line style="stroke:#000000;stroke-width:1;" x1="857.3223" x2="1050" y1="797.6094" y2="797.6094"/><line style="stroke:#000000;stroke-width:1;" x1="857.3223" x2="857.3223" y1="667.2617" y2="797.6094"/><line style="stroke:#000000;stroke-width:1;" x1="887.9131" x2="887.9131" y1="667.2617" y2="797.6094"/><line style="stroke:#000000;stroke-width:1;" x1="1050" x2="1050" y1="667.2617" y2="797.6094"/></g><g class="footer" data-source-line="62"><text fill="#000000" font-family="'Segoe UI'" font-size="10" lengthAdjust="spacing" textLength="9.4482" x="387.6758" y="826.4004">\n</text><text fill="#000000" font-family="'Segoe UI'" font-size="10" lengthAdjust="spacing" textLength="280.2002" x="397.124" y="826.4004">Screap_copasa - Diagrama para portifolio (sem dados sensiveis)</text></g><?plantuml-src RLLjRzis4FwkNt5BFYmn5inAwhmChW7FBuE1DHdYTL_MGZXJP_aGYTH8Acswxh_lg3WnfLO2B9hFSppUFSVZ3tv75K5T8kl4FR2kqM856rGFXJMDpcUcD1QEbulmHeoSjjYKVccqlqLPuMXDXI5ulphwFcdDNmZID09hyO45hVrJIM19UTH5IH71xJ0tdrWNiCNInSX-PrQJXNGO0ILhyayrWR5-PvB4ivV51uErieHrfaoD3WU33n_qsCc6Vaal9bFxJyEUV6CH2DwPl2cDWpyiQyKriXl_79YJWqawkIVNL0Q2IwZ54szDoMPFJ9AI2j8vM2vsFW7u-XPag-q7AymHleP961-deylHR3YHyRIsv4XxL6XUuU7vrTMlysUuPDN5XjSNryk0pKt5ccFaycOq2yXARosIyxPfOtiXJEVfcz5L8Dnj7Db7t739EURqohXPXBTTN0HmiEQ29ISoEbavKyhSgN13YC-H9ibUIZZwDdr7W0uggIuOZ-zVH9vCu7XniJnVpk5VSQfCLHijySFVpggFmKA-NS1B9Aw5sb7oN-HrLg9pv4I-PQELaT49LaOYnzFMlJ8INT_zzNAqkEcxdzQyqfwiejeR-_75E4kxD8LroAdDB4dnE0u-CwpvO73UDJ0RMLJOhfPjOPTwqQNIPzatsomFkSy4xv3VTCapexTS7E1H5tx48AtDfFfp4a54ZmFtiijzFYApzeJyzdvru5rrULaczUQpx42uxX6KPV7vYVE2VEJlfazhzzwciSGdq_WetSCU5tqZeNmHggJFDz6gQTgdvgpOw5OS9yr7qXYnUxfa9LTrJ8rNxWaJubOXCgUiQAAB31jlAlGYVsJLKoYZpwGQ7vb5t9vSMUWetoNsjCgsh5_oyIsvBzZpKH2gsLYAU3tTjgHs6DTyJx1mYAC27uOZg8sdzhYIL8ztSgpQHmm7Wrxp60nazkpiJ7vdXtBy2Rnv82rVSVv8Jj2_KEhdaTZ9zG5ORLYyKx1gwoNuqeu3thQWi8CaINw4j-q3zulVfxFLtUtqtUBspxlrVZgHVYBE9_lcqVQZy3U4acoDh67XqE67ayvz0MSmPopaVi5-puSJHtBDjP6-xklqzIP8aly1?></g></svg>