<?plantuml 1.2026.1?><svg xmlns="http://www.w3.org/2000/svg" xmlns:xlink="http://www.w3.org/1999/xlink" contentStyleType="text/css" data-diagram-type="DESCRIPTION" height="841px" preserveAspectRatio="none" style="width:1039px;height:841px;background:#FEFEFE;" version="1.1" viewBox="0 0 1039 841" width="1039px" zoomAndPan="magnify"><title>**IA_Mercado_2**\n&lt;size:13&gt;Arquitetura e Modulos Principais&lt;/size&gt;\n&lt;size:11&gt;Resumo para portifolio&lt;/size&gt;</title><defs/><g><rect fill="#FEFEFE" height="841" style="stroke:none;stroke-width:1;" width="1039" x="0" y="0"/><g class="title" data-source-line="10"><text fill="#000000" font-family="'Segoe UI'" font-size="22" font-weight="bold" lengthAdjust="spacing" textLength="144.5361" x="259.0972" y="38.7402">IA_Mercado_2</text><text fill="#000000" font-family="'Segoe UI'" font-size="22" font-weight="bold" lengthAdjust="spacing" textLength="22.9023" x="403.6333" y="38.7402">\n</text><text fill="#000000" font-family="'Segoe UI'" font-size="13" font-weight="bold" lengthAdjust="spacing" textLength="201.6841" x="426.5356" y="40.999">Arquitetura e Modulos Principais</text><text fill="#000000" font-family="'Segoe UI'" font-size="22" font-weight="bold" lengthAdjust="spacing" textLength="22.9023" x="628.2197" y="38.7402">\n</text><text fill="#000000" font-family="'Segoe UI'" font-size="11" font-weight="bold" lengthAdjust="spacing" textLength="119.7808" x="651.1221" y="41.501">Resumo para portifolio</text></g><!--cluster main--><g class="cluster" data-qualified-name="main" data-source-line="22" id="ent0002"><rect fill="#E3F2FD" height="378" rx="5" ry="5" style="stroke:#000000;stroke-width:1;" width="207" x="12" y="62.2617"/><text fill="#000000" font-family="'Segoe UI'" font-size="11" font-style="italic" lengthAdjust="spacing" textLength="57.7285" x="86.6357" y="76.1318">&#171;Rectangle&#187;</text><text fill="#000000" font-family="'Segoe UI'" font-size="11" font-weight="bold" lengthAdjust="spacing" textLength="98.4683" x="66.2659" y="90.7627">Modulos Principais</text></g><!--cluster code--><g class="cluster" data-qualified-name="code" data-source-line="29" id="ent0007"><rect fill="#E8F5E9" height="447" rx="5" ry="5" style="stroke:#000000;stroke-width:1;" width="774" x="259" y="203.2617"/><text fill="#000000" font-family="'Segoe UI'" font-size="11" font-style="italic" lengthAdjust="spacing" textLength="57.7285" x="617.1357" y="217.1318">&#171;Rectangle&#187;</text><text fill="#000000" font-family="'Segoe UI'" font-size="11" font-weight="bold" lengthAdjust="spacing" textLength="143.5156" x="574.2422" y="231.7627">Classes e Funcoes (amostra)</text></g><!--entity src--><g class="entity" data-qualified-name="main.src" data-source-line="23" id="ent0003"><rect fill="#FFFFFF" height="44.6309" rx="5" ry="5" style="stroke:#000000;stroke-width:1;" width="53.5728" x="36" y="262.7617"/><rect fill="#FFFFFF" height="10" style="stroke:#000000;stroke-width:1;" width="15" x="69.5728" y="267.7617"/><rect fill="#FFFFFF" height="2" style="stroke:#000000;stroke-width:1;" width="4" x="67.5728" y="269.7617"/><rect fill="#FFFFFF" height="2" style="stroke:#000000;stroke-width:1;" width="4" x="67.5728" y="273.7617"/><text fill="#000000" font-family="'Segoe UI'" font-size="11" lengthAdjust="spacing" textLength="13.5728" x="51" y="294.6318">src</text></g><!--entity models--><g class="entity" data-qualified-name="main.models" data-source-line="24" id="ent0004"><rect fill="#FFFFFF" height="44.6309" rx="5" ry="5" style="stroke:#000000;stroke-width:1;" width="75.4814" x="73.5" y="371.2617"/><rect fill="#FFFFFF" height="10" style="stroke:#000000;stroke-width:1;" width="15" x="128.9814" y="376.2617"/><rect fill="#FFFFFF" height="2" style="stroke:#000000;stroke-width:1;" width="4" x="126.9814" y="378.2617"/><rect fill="#FFFFFF" height="2" style="stroke:#000000;stroke-width:1;" width="4" x="126.9814" y="382.2617"/><text fill="#000000" font-family="'Segoe UI'" font-size="11" lengthAdjust="spacing" textLength="35.4814" x="88.5" y="403.1318">models</text></g><!--entity data--><g class="entity" data-qualified-name="main.data" data-source-line="25" id="ent0005"><rect fill="#FFFFFF" height="44.6309" rx="5" ry="5" style="stroke:#000000;stroke-width:1;" width="61.3984" x="125.5" y="262.7617"/><rect fill="#FFFFFF" height="10" style="stroke:#000000;stroke-width:1;" width="15" x="166.8984" y="267.7617"/><rect fill="#FFFFFF" height="2" style="stroke:#000000;stroke-width:1;" width="4" x="164.8984" y="269.7617"/><rect fill="#FFFFFF" height="2" style="stroke:#000000;stroke-width:1;" width="4" x="164.8984" y="273.7617"/><text fill="#000000" font-family="'Segoe UI'" font-size="11" lengthAdjust="spacing" textLength="21.3984" x="140.5" y="294.6318">data</text></g><!--entity config--><g class="entity" data-qualified-name="main.config" data-source-line="26" id="ent0006"><rect fill="#FFFFFF" height="44.6309" rx="5" ry="5" style="stroke:#000000;stroke-width:1;" width="70.3359" x="36" y="118.2617"/><rect fill="#FFFFFF" height="10" style="stroke:#000000;stroke-width:1;" width="15" x="86.3359" y="123.2617"/><rect fill="#FFFFFF" height="2" style="stroke:#000000;stroke-width:1;" width="4" x="84.3359" y="125.2617"/><rect fill="#FFFFFF" height="2" style="stroke:#000000;stroke-width:1;" width="4" x="84.3359" y="129.2617"/><text fill="#000000" font-family="'Segoe UI'" font-size="11" lengthAdjust="spacing" textLength="30.3359" x="51" y="150.1318">config</text></g><!--entity code_1--><g class="entity" data-qualified-name="code.code_1" data-source-line="30" id="ent0008"><rect fill="#FFFFFF" height="44.6309" rx="5" ry="5" style="stroke:#000000;stroke-width:1;" width="101.3755" x="302.5" y="262.7617"/><rect fill="#FFFFFF" height="10" style="stroke:#000000;stroke-width:1;" width="15" x="383.8755" y="267.7617"/><rect fill="#FFFFFF" height="2" style="stroke:#000000;stroke-width:1;" width="4" x="381.8755" y="269.7617"/><rect fill="#FFFFFF" height="2" style="stroke:#000000;stroke-width:1;" width="4" x="381.8755" y="273.7617"/><text fill="#000000" font-family="'Segoe UI'" font-size="11" lengthAdjust="spacing" textLength="61.3755" x="317.5" y="294.6318">ReplayBuffer</text></g><!--entity code_2--><g class="entity" data-qualified-name="code.code_2" data-source-line="31" id="ent0009"><rect fill="#FFFFFF" height="51.9463" rx="5" ry="5" style="stroke:#000000;stroke-width:1;" width="63.2808" x="438.5" y="259.2617"/><rect fill="#FFFFFF" height="10" style="stroke:#000000;stroke-width:1;" width="15" x="481.7808" y="264.2617"/><rect fill="#FFFFFF" height="2" style="stroke:#000000;stroke-width:1;" width="4" x="479.7808" y="266.2617"/><rect fill="#FFFFFF" height="2" style="stroke:#000000;stroke-width:1;" width="4" x="479.7808" y="270.2617"/><line style="stroke:#000000;stroke-width:1;" x1="439.5" x2="462.5" y1="286.5771" y2="286.5771"/><text fill="#000000" font-family="'Segoe UI'" font-size="11" lengthAdjust="spacing" textLength="15.2808" x="462.5" y="290.6318">init</text><line style="stroke:#000000;stroke-width:1;" x1="477.7808" x2="500.7808" y1="286.5771" y2="286.5771"/></g><!--entity code_3--><g class="entity" data-qualified-name="code.code_3" data-source-line="32" id="ent0010"><rect fill="#FFFFFF" height="44.6309" rx="5" ry="5" style="stroke:#000000;stroke-width:1;" width="63.5845" x="537" y="262.7617"/><rect fill="#FFFFFF" height="10" style="stroke:#000000;stroke-width:1;" width="15" x="580.5845" y="267.7617"/><rect fill="#FFFFFF" height="2" style="stroke:#000000;stroke-width:1;" width="4" x="578.5845" y="269.7617"/><rect fill="#FFFFFF" height="2" style="stroke:#000000;stroke-width:1;" width="4" x="578.5845" y="273.7617"/><text fill="#000000" font-family="'Segoe UI'" font-size="11" lengthAdjust="spacing" textLength="23.5845" x="552" y="294.6318">push</text></g><!--entity code_4--><g class="entity" data-qualified-name="code.code_4" data-source-line="33" id="ent0011"><rect fill="#FFFFFF" height="44.6309" rx="5" ry="5" style="stroke:#000000;stroke-width:1;" width="74.6221" x="636.5" y="262.7617"/><rect fill="#FFFFFF" height="10" style="stroke:#000000;stroke-width:1;" width="15" x="691.1221" y="267.7617"/><rect fill="#FFFFFF" height="2" style="stroke:#000000;stroke-width:1;" width="4" x="689.1221" y="269.7617"/><rect fill="#FFFFFF" height="2" style="stroke:#000000;stroke-width:1;" width="4" x="689.1221" y="273.7617"/><text fill="#000000" font-family="'Segoe UI'" font-size="11" lengthAdjust="spacing" textLength="34.6221" x="651.5" y="294.6318">sample</text></g><!--entity code_5--><g class="entity" data-qualified-name="code.code_5" data-source-line="34" id="ent0012"><rect fill="#FFFFFF" height="51.9463" rx="5" ry="5" style="stroke:#000000;stroke-width:1;" width="62.6416" x="746.5" y="259.2617"/><rect fill="#FFFFFF" height="10" style="stroke:#000000;stroke-width:1;" width="15" x="789.1416" y="264.2617"/><rect fill="#FFFFFF" height="2" style="stroke:#000000;stroke-width:1;" width="4" x="787.1416" y="266.2617"/><rect fill="#FFFFFF" height="2" style="stroke:#000000;stroke-width:1;" width="4" x="787.1416" y="270.2617"/><line style="stroke:#000000;stroke-width:1;" x1="747.5" x2="770.5" y1="286.5771" y2="286.5771"/><text fill="#000000" font-family="'Segoe UI'" font-size="11" lengthAdjust="spacing" textLength="14.6416" x="770.5" y="290.6318">len</text><line style="stroke:#000000;stroke-width:1;" x1="785.1416" x2="808.1416" y1="286.5771" y2="286.5771"/></g><!--entity code_6--><g class="entity" data-qualified-name="code.code_6" data-source-line="35" id="ent0013"><rect fill="#FFFFFF" height="44.6309" rx="5" ry="5" style="stroke:#000000;stroke-width:1;" width="66.1733" x="317" y="371.2617"/><rect fill="#FFFFFF" height="10" style="stroke:#000000;stroke-width:1;" width="15" x="363.1733" y="376.2617"/><rect fill="#FFFFFF" height="2" style="stroke:#000000;stroke-width:1;" width="4" x="361.1733" y="378.2617"/><rect fill="#FFFFFF" height="2" style="stroke:#000000;stroke-width:1;" width="4" x="361.1733" y="382.2617"/><text fill="#000000" font-family="'Segoe UI'" font-size="11" lengthAdjust="spacing" textLength="26.1733" x="332" y="403.1318">Actor</text></g><!--entity code_7--><g class="entity" data-qualified-name="code.code_7" data-source-line="36" id="ent0014"><rect fill="#FFFFFF" height="44.6309" rx="5" ry="5" style="stroke:#000000;stroke-width:1;" width="77.5601" x="418" y="371.2617"/><rect fill="#FFFFFF" height="10" style="stroke:#000000;stroke-width:1;" width="15" x="475.5601" y="376.2617"/><rect fill="#FFFFFF" height="2" style="stroke:#000000;stroke-width:1;" width="4" x="473.5601" y="378.2617"/><rect fill="#FFFFFF" height="2" style="stroke:#000000;stroke-width:1;" width="4" x="473.5601" y="382.2617"/><text fill="#000000" font-family="'Segoe UI'" font-size="11" lengthAdjust="spacing" textLength="37.5601" x="433" y="403.1318">forward</text></g><!--entity code_8--><g class="entity" data-qualified-name="code.code_8" data-source-line="37" id="ent0015"><rect fill="#FFFFFF" height="44.6309" rx="5" ry="5" style="stroke:#000000;stroke-width:1;" width="64.7715" x="531.5" y="371.2617"/><rect fill="#FFFFFF" height="10" style="stroke:#000000;stroke-width:1;" width="15" x="576.2715" y="376.2617"/><rect fill="#FFFFFF" height="2" style="stroke:#000000;stroke-width:1;" width="4" x="574.2715" y="378.2617"/><rect fill="#FFFFFF" height="2" style="stroke:#000000;stroke-width:1;" width="4" x="574.2715" y="382.2617"/><text fill="#000000" font-family="'Segoe UI'" font-size="11" lengthAdjust="spacing" textLength="24.7715" x="546.5" y="403.1318">Critic</text></g><!--entity code_9--><g class="entity" data-qualified-name="code.code_9" data-source-line="38" id="ent0016"><rect fill="#FFFFFF" height="44.6309" rx="5" ry="5" style="stroke:#000000;stroke-width:1;" width="54.2227" x="632" y="371.2617"/><rect fill="#FFFFFF" height="10" style="stroke:#000000;stroke-width:1;" width="15" x="666.2227" y="376.2617"/><rect fill="#FFFFFF" height="2" style="stroke:#000000;stroke-width:1;" width="4" x="664.2227" y="378.2617"/><rect fill="#FFFFFF" height="2" style="stroke:#000000;stroke-width:1;" width="4" x="664.2227" y="382.2617"/><text fill="#000000" font-family="'Segoe UI'" font-size="11" lengthAdjust="spacing" textLength="14.2227" x="647" y="403.1318">Q1</text></g><!--entity code_10--><g class="entity" data-qualified-name="code.code_10" data-source-line="39" id="ent0017"><rect fill="#FFFFFF" height="44.6309" rx="5" ry="5" style="stroke:#000000;stroke-width:1;" width="88.6836" x="721.5" y="371.2617"/><rect fill="#FFFFFF" height="10" style="stroke:#000000;stroke-width:1;" width="15" x="790.1836" y="376.2617"/><rect fill="#FFFFFF" height="2" style="stroke:#000000;stroke-width:1;" width="4" x="788.1836" y="378.2617"/><rect fill="#FFFFFF" height="2" style="stroke:#000000;stroke-width:1;" width="4" x="788.1836" y="382.2617"/><text fill="#000000" font-family="'Segoe UI'" font-size="11" lengthAdjust="spacing" textLength="48.6836" x="736.5" y="403.1318">TD3Agent</text></g><!--entity code_11--><g class="entity" data-qualified-name="code.code_11" data-source-line="40" id="ent0018"><rect fill="#FFFFFF" height="44.6309" rx="5" ry="5" style="stroke:#000000;stroke-width:1;" width="101.9502" x="296" y="476.2617"/><rect fill="#FFFFFF" height="10" style="stroke:#000000;stroke-width:1;" width="15" x="377.9502" y="481.2617"/><rect fill="#FFFFFF" height="2" style="stroke:#000000;stroke-width:1;" width="4" x="375.9502" y="483.2617"/><rect fill="#FFFFFF" height="2" style="stroke:#000000;stroke-width:1;" width="4" x="375.9502" y="487.2617"/><text fill="#000000" font-family="'Segoe UI'" font-size="11" lengthAdjust="spacing" textLength="61.9502" x="311" y="508.1318">select_action</text></g><!--entity code_12--><g class="entity" data-qualified-name="code.code_12" data-source-line="41" id="ent0019"><rect fill="#FFFFFF" height="44.6309" rx="5" ry="5" style="stroke:#000000;stroke-width:1;" width="62.0376" x="433" y="476.2617"/><rect fill="#FFFFFF" height="10" style="stroke:#000000;stroke-width:1;" width="15" x="475.0376" y="481.2617"/><rect fill="#FFFFFF" height="2" style="stroke:#000000;stroke-width:1;" width="4" x="473.0376" y="483.2617"/><rect fill="#FFFFFF" height="2" style="stroke:#000000;stroke-width:1;" width="4" x="473.0376" y="487.2617"/><text fill="#000000" font-family="'Segoe UI'" font-size="11" lengthAdjust="spacing" textLength="22.0376" x="448" y="508.1318">train</text></g><!--entity code_13--><g class="entity" data-qualified-name="code.code_13" data-source-line="42" id="ent0020"><rect fill="#FFFFFF" height="44.6309" rx="5" ry="5" style="stroke:#000000;stroke-width:1;" width="101.6602" x="530" y="476.2617"/><rect fill="#FFFFFF" height="10" style="stroke:#000000;stroke-width:1;" width="15" x="611.6602" y="481.2617"/><rect fill="#FFFFFF" height="2" style="stroke:#000000;stroke-width:1;" width="4" x="609.6602" y="483.2617"/><rect fill="#FFFFFF" height="2" style="stroke:#000000;stroke-width:1;" width="4" x="609.6602" y="487.2617"/><text fill="#000000" font-family="'Segoe UI'" font-size="11" lengthAdjust="spacing" textLength="61.6602" x="545" y="508.1318">_soft_update</text></g><!--entity code_14--><g class="entity" data-qualified-name="code.code_14" data-source-line="43" id="ent0021"><rect fill="#FFFFFF" height="44.6309" rx="5" ry="5" style="stroke:#000000;stroke-width:1;" width="61.2856" x="667.5" y="476.2617"/><rect fill="#FFFFFF" height="10" style="stroke:#000000;stroke-width:1;" width="15" x="708.7856" y="481.2617"/><rect fill="#FFFFFF" height="2" style="stroke:#000000;stroke-width:1;" width="4" x="706.7856" y="483.2617"/><rect fill="#FFFFFF" height="2" style="stroke:#000000;stroke-width:1;" width="4" x="706.7856" y="487.2617"/><text fill="#000000" font-family="'Segoe UI'" font-size="11" lengthAdjust="spacing" textLength="21.2856" x="682.5" y="508.1318">save</text></g><!--entity code_15--><g class="entity" data-qualified-name="code.code_15" data-source-line="44" id="ent0022"><rect fill="#FFFFFF" height="44.6309" rx="5" ry="5" style="stroke:#000000;stroke-width:1;" width="61.1836" x="763.5" y="476.2617"/><rect fill="#FFFFFF" height="10" style="stroke:#000000;stroke-width:1;" width="15" x="804.6836" y="481.2617"/><rect fill="#FFFFFF" height="2" style="stroke:#000000;stroke-width:1;" width="4" x="802.6836" y="483.2617"/><rect fill="#FFFFFF" height="2" style="stroke:#000000;stroke-width:1;" width="4" x="802.6836" y="487.2617"/><text fill="#000000" font-family="'Segoe UI'" font-size="11" lengthAdjust="spacing" textLength="21.1836" x="778.5" y="508.1318">load</text></g><!--entity code_16--><g class="entity" data-qualified-name="code.code_16" data-source-line="45" id="ent0023"><rect fill="#FFFFFF" height="44.6309" rx="5" ry="5" style="stroke:#000000;stroke-width:1;" width="64.2344" x="291" y="581.2617"/><rect fill="#FFFFFF" height="10" style="stroke:#000000;stroke-width:1;" width="15" x="335.2344" y="586.2617"/><rect fill="#FFFFFF" height="2" style="stroke:#000000;stroke-width:1;" width="4" x="333.2344" y="588.2617"/><rect fill="#FFFFFF" height="2" style="stroke:#000000;stroke-width:1;" width="4" x="333.2344" y="592.2617"/><text fill="#000000" font-family="'Segoe UI'" font-size="11" lengthAdjust="spacing" textLength="24.2344" x="306" y="613.1318">DQN</text></g><!--entity code_17--><g class="entity" data-qualified-name="code.code_17" data-source-line="46" id="ent0024"><rect fill="#FFFFFF" height="44.6309" rx="5" ry="5" style="stroke:#000000;stroke-width:1;" width="101.2251" x="390.5" y="581.2617"/><rect fill="#FFFFFF" height="10" style="stroke:#000000;stroke-width:1;" width="15" x="471.7251" y="586.2617"/><rect fill="#FFFFFF" height="2" style="stroke:#000000;stroke-width:1;" width="4" x="469.7251" y="588.2617"/><rect fill="#FFFFFF" height="2" style="stroke:#000000;stroke-width:1;" width="4" x="469.7251" y="592.2617"/><text fill="#000000" font-family="'Segoe UI'" font-size="11" lengthAdjust="spacing" textLength="61.2251" x="405.5" y="613.1318">DDQNAgent</text></g><!--entity code_18--><g class="entity" data-qualified-name="code.code_18" data-source-line="47" id="ent0025"><rect fill="#FFFFFF" height="44.6309" rx="5" ry="5" style="stroke:#000000;stroke-width:1;" width="151.8745" x="527" y="581.2617"/><rect fill="#FFFFFF" height="10" style="stroke:#000000;stroke-width:1;" width="15" x="658.8745" y="586.2617"/><rect fill="#FFFFFF" height="2" style="stroke:#000000;stroke-width:1;" width="4" x="656.8745" y="588.2617"/><rect fill="#FFFFFF" height="2" style="stroke:#000000;stroke-width:1;" width="4" x="656.8745" y="592.2617"/><text fill="#000000" font-family="'Segoe UI'" font-size="11" lengthAdjust="spacing" textLength="111.8745" x="542" y="613.1318">update_target_network</text></g><!--entity code_19--><g class="entity" data-qualified-name="code.code_19" data-source-line="48" id="ent0026"><rect fill="#FFFFFF" height="44.6309" rx="5" ry="5" style="stroke:#000000;stroke-width:1;" width="109.9424" x="714" y="581.2617"/><rect fill="#FFFFFF" height="10" style="stroke:#000000;stroke-width:1;" width="15" x="803.9424" y="586.2617"/><rect fill="#FFFFFF" height="2" style="stroke:#000000;stroke-width:1;" width="4" x="801.9424" y="588.2617"/><rect fill="#FFFFFF" height="2" style="stroke:#000000;stroke-width:1;" width="4" x="801.9424" y="592.2617"/><text fill="#000000" font-family="'Segoe UI'" font-size="11" lengthAdjust="spacing" textLength="69.9424" x="729" y="613.1318">BacktestResult</text></g><!--entity code_20--><g class="entity" data-qualified-name="code.code_20" data-source-line="49" id="ent0027"><rect fill="#FFFFFF" height="44.6309" rx="5" ry="5" style="stroke:#000000;stroke-width:1;" width="148.6841" x="859.5" y="581.2617"/><rect fill="#FFFFFF" height="10" style="stroke:#000000;stroke-width:1;" width="15" x="988.1841" y="586.2617"/><rect fill="#FFFFFF" height="2" style="stroke:#000000;stroke-width:1;" width="4" x="986.1841" y="588.2617"/><rect fill="#FFFFFF" height="2" style="stroke:#000000;stroke-width:1;" width="4" x="986.1841" y="592.2617"/><text fill="#000000" font-family="'Segoe UI'" font-size="11" lengthAdjust="spacing" textLength="108.6841" x="874.5" y="613.1318">TransactionCostModel</text></g><g class="entity" data-qualified-name="secrets" data-source-line="53" id="ent0028"><path d="M246,107.2617 L246,173.7852 A5,5 0 0 0 251,178.7852 L393.189,178.7852 A5,5 0 0 0 398.189,173.7852 L398.189,112.2617 L388.189,102.2617 L251,102.2617 A5,5 0 0 0 246,107.2617" fill="#EEEEEE" style="stroke:#000000;stroke-width:1;"/><path d="M388.189,102.2617 L388.189,109.7617 A2.5,2.5 0 0 0 390.689,112.2617 L398.189,112.2617 L388.189,102.2617" fill="#EEEEEE" style="stroke:#000000;stroke-width:1;"/><text fill="#000000" font-family="'Segoe UI'" font-size="11" font-weight="bold" lengthAdjust="spacing" textLength="80.9209" x="252" y="119.1318">Dados Sigilosos</text><line style="stroke:#000000;stroke-width:1;" x1="247" x2="397.189" y1="121.8926" y2="121.8926"/><text fill="#000000" font-family="'Segoe UI'" font-size="11" lengthAdjust="spacing" textLength="131.189" x="252" y="137.7627">Credenciais, tokens, chaves</text><text fill="#000000" font-family="'Segoe UI'" font-size="11" lengthAdjust="spacing" textLength="106.7827" x="252" y="152.3936">Variaveis de ambiente</text><text fill="#000000" font-family="'Segoe UI'" font-size="11" lengthAdjust="spacing" textLength="82.0757" x="252" y="167.0244">Configs sensiveis</text></g><!--link src to models--><g class="link" data-entity-1="ent0003" data-entity-2="ent0004" data-link-type="dependency" data-source-line="62" id="lnk29"><path d="M81.75,308.0117 C81.75,326.5217 81.75,346.5417 81.75,365.0417" fill="none" id="src-to-models" style="stroke:#000000;stroke-width:1;"/><polygon fill="#000000" points="81.75,371.0417,85.75,362.0417,81.75,366.0417,77.75,362.0417,81.75,371.0417" style="stroke:#000000;stroke-width:1;"/></g><!--link data to models--><g class="link" data-entity-1="ent0005" data-entity-2="ent0004" data-link-type="dependency" data-source-line="63" id="lnk30"><path d="M137,308.0117 C137,326.5217 137,346.5417 137,365.0417" fill="none" id="data-to-models" style="stroke:#000000;stroke-width:1;"/><polygon fill="#000000" points="137,371.0417,141,362.0417,137,366.0417,133,362.0417,137,371.0417" style="stroke:#000000;stroke-width:1;"/></g><!--link config to src--><g class="link" data-entity-1="ent0006" data-entity-2="ent0003" data-link-type="dependency" data-source-line="64" id="lnk31"><path d="M63,163.3417 C63,190.3317 63,229.2417 63,256.3617" fill="none" id="config-to-src" style="stroke:#000000;stroke-width:1;"/><polygon fill="#000000" points="63,262.3617,67,253.3617,63,257.3617,59,253.3617,63,262.3617" style="stroke:#000000;stroke-width:1;"/></g><!--link main to code--><g class="link" data-entity-1="ent0002" data-entity-2="ent0007" data-link-type="dependency" data-source-line="65" id="lnk32"><path d="M219.0087,285.2617 C219.0831,285.2617 219.1579,285.2617 219.2331,285.2617 C219.3834,285.2617 219.5353,285.2617 219.6887,285.2617 C219.9956,285.2617 220.3084,285.2617 220.6269,285.2617 C221.264,285.2617 221.9238,285.2617 222.6035,285.2617 C223.9628,285.2617 225.4018,285.2617 226.8978,285.2617 C229.8899,285.2617 233.1103,285.2617 236.3788,285.2617 C242.9156,285.2617 249.6447,285.2617 255.1239,285.2617 C256.4937,285.2617 251.7854,285.2617 252.9764,285.2617" fill="none" id="main-to-code" style="stroke:#000000;stroke-width:1;"/><polygon fill="#000000" points="258.9764,285.2617,249.9764,281.2617,253.9764,285.2617,249.9764,289.2617,258.9764,285.2617" style="stroke:#000000;stroke-width:1;"/></g><g class="legend" data-source-line="12"><rect fill="none" height="144.3477" rx="5" ry="5" style="stroke:#000000;stroke-width:1;" width="202.6777" x="817.3223" y="660.2617"/><text fill="#000000" font-family="'Segoe UI'" font-size="14" font-weight="bold" lengthAdjust="spacing" textLength="22.8662" x="826.1846" y="682.3691">Cor</text><text fill="#000000" font-family="'Segoe UI'" font-size="14" font-weight="bold" lengthAdjust="spacing" textLength="52.8281" x="856.7754" y="682.3691">Camada</text><rect fill="#1565C0" height="18.6211" style="stroke:none;stroke-width:1;" width="30.5908" x="822.3223" y="685.8828"/><text fill="#000000" font-family="'Segoe UI'" font-size="14" lengthAdjust="spacing" textLength="3.835" x="822.3223" y="700.9902">&#160;</text><text fill="#000000" font-family="'Segoe UI'" font-size="14" lengthAdjust="spacing" textLength="84.2939" x="856.748" y="700.9902">Apresentacao</text><rect fill="#0277BD" height="18.6211" style="stroke:none;stroke-width:1;" width="30.5908" x="822.3223" y="704.5039"/><text fill="#000000" font-family="'Segoe UI'" font-size="14" lengthAdjust="spacing" textLength="3.835" x="822.3223" y="719.6113">&#160;</text><text fill="#000000" font-family="'Segoe UI'" font-size="14" lengthAdjust="spacing" textLength="59.4248" x="856.748" y="719.6113">Aplicacao</text><rect fill="#00838F" height="18.6211" style="stroke:none;stroke-width:1;" width="30.5908" x="822.3223" y="723.125"/><text fill="#000000" font-family="'Segoe UI'" font-size="14" lengthAdjust="spacing" textLength="3.835" x="822.3223" y="738.2324">&#160;</text><text fill="#000000" font-family="'Segoe UI'" font-size="14" lengthAdjust="spacing" textLength="52.9854" x="856.748" y="738.2324">Dominio</text><rect fill="#00695C" height="18.6211" style="stroke:none;stroke-width:1;" width="30.5908" x="822.3223" y="741.7461"/><text fill="#000000" font-family="'Segoe UI'" font-size="14" lengthAdjust="spacing" textLength="3.835" x="822.3223" y="756.8535">&#160;</text><text fill="#000000" font-family="'Segoe UI'" font-size="14" lengthAdjust="spacing" textLength="83.4736" x="856.748" y="756.8535">Infraestrutura</text><rect fill="#AD1457" height="18.6211" style="stroke:none;stroke-width:1;" width="30.5908" x="822.3223" y="760.3672"/><text fill="#000000" font-family="'Segoe UI'" font-size="14" lengthAdjust="spacing" textLength="3.835" x="822.3223" y="775.4746">&#160;</text><text fill="#000000" font-family="'Segoe UI'" font-size="14" lengthAdjust="spacing" textLength="100.0781" x="856.748" y="775.4746">Observabilidade</text><rect fill="#9E9E9E" height="18.6211" style="stroke:none;stroke-width:1;" width="30.5908" x="822.3223" y="778.9883"/><text fill="#000000" font-family="'Segoe UI'" font-size="14" lengthAdjust="spacing" textLength="3.835" x="822.3223" y="794.0957">&#160;</text><text fill="#000000" font-family="'Segoe UI'" font-size="14" lengthAdjust="spacing" textLength="154.417" x="856.748" y="794.0957">Dados Sigilosos (Isolado)</text><line style="stroke:#000000;stroke-width:1;" x1="822.3223" x2="1015" y1="667.2617" y2="667.2617"/><line style="stroke:#000000;stroke-width:1;" x1="822.3223" x2="1015" y1="685.8828" y2="685.8828"/><line style="stroke:#000000;stroke-width:1;" x1="822.3223" x2="1015" y1="704.5039" y2="704.5039"/><line style="stroke:#000000;stroke-width:1;" x1="822.3223" x2="1015" y1="723.125" y2="723.125"/><line style="stroke:#000000;stroke-width:1;" x1="822.3223" x2="1015" y1="741.7461" y2="741.7461"/><line style="stroke:#000000;stroke-width:1;" x1="822.3223" x2="1015" y1="760.3672" y2="760.3672"/><line style="stroke:#000000;stroke-width:1;" x1="822.3223" x2="1015" y1="778.9883" y2="778.9883"/><line style="stroke:#000000;stroke-width:1;" x1="822.3223" x2="1015" y1="797.6094" y2="797.6094"/><line style="stroke:#000000;stroke-width:1;" x1="822.3223" x2="822.3223" y1="667.2617" y2="797.6094"/><line style="stroke:#000000;stroke-width:1;" x1="852.9131" x2="852.9131" y1="667.2617" y2="797.6094"/><line style="stroke:#000000;stroke-width:1;" x1="1015" x2="1015" y1="667.2617" y2="797.6094"/></g><g class="footer" data-source-line="66"><text fill="#000000" font-family="'Segoe UI'" font-size="10" lengthAdjust="spacing" textLength="9.4482" x="371.4697" y="826.4004">\n</text><text fill="#000000" font-family="'Segoe UI'" font-size="10" lengthAdjust="spacing" textLength="277.6123" x="380.918" y="826.4004">IA_Mercado_2 - Diagrama para portifolio (sem dados sensiveis)</text></g><?plantuml-src RPLjRzCm4CVVvrCStGksYebcfNj0fLBN1waIss05tW2ARiabjUROmNOsZOVlpZdTLYVGIetht_by_llkyi9jg2Ie90eLsLkXAZHOmWscjuNHjSfcMce3Uyk5_mOM6ULOIxVKobqYU-YjgT04drUz_nkjnK-2E0vWnNjWGMlt80aCfGvL8Iami1lCzBrG1UGeRKWU8pEA3CI304YXo3rK1DguZOuY9nmxx_TNq-I2JCh-agD-_zitDROSpzjuE9cQ7xLmv6g3G72Xirfg2n-CKAceKDZnQsyvsIs99zTawrA3tn4gtaZaMWhzQ1X5aWfI6HXHR5m4yFiTSAJD0qlC47xxIHZlnQFZqMmmuV6qCcH9EKnHF-F1qSd9-NoBfKZRR70wF5rwDjUbK28ansUZcIShbHiawqpTdEt9O3gFtunElC7LZILpXpT2YWmpUhOuM_Xluvprih0MXM1DUBI_ibhot07R-YDkJnf5ZpS9lN_bwm5QA3cvO3o-VhhZoGJs5iFbqN8EltZJL9ULLdn--6fD-jslu6SRb3eZQHks7RPnXWuRw0Tjb6gLYwA1ss7q9uXu9j5QidprorgbcaVxM6fM3GzwsoMiJ3Vqq-LeSTOD_PguY1xEwpmdy_rfQHAtZPA4RyiboSxWg6rGrNQpWyEEEbXMadRuJTUv91Nw7hNvD7Kw2EsuJNDjxj5aEtxIvZCZd4Xt-BIDFyOxTDP6d-R3AIUA2rGPT0v6aWLEC7L2gy2ienxVYWXnHxl4wjmbTSKv48WK_oFYNKWx6agDWGHnHy7vnyi0TWISC-sUiwFXDhR4eId89TogxhMv3SmxcfvpbZekOTzmPEYsAx11PRVYpJXtBto111asy1cljAEciYWrv2ndSVDXH_r-fyxxVPuzF3patvcXZBYKkP9VWTEtfFYPRbX2Nu1Vq0WU2YuxzbtU28w6_AgcplnUoWhFcsxX8uYYw2MyQpvmlNW_dQskBgSNYyjFL-l7wOXBdpUVF9MvB-Zm_xQ6cndV99hMul_ueqQvvZqCx9hrO19sVZY4kS22NnJOxTwmRudVLuqGps4VFFVqAFeB?></g></svg>