<?plantuml 1.2026.1?><svg xmlns="http://www.w3.org/2000/svg" xmlns:xlink="http://www.w3.org/1999/xlink" contentStyleType="text/css" data-diagram-type="DESCRIPTION" height="841px" preserveAspectRatio="none" style="width:1414px;height:841px;background:#FEFEFE;" version="1.1" viewBox="0 0 1414 841" width="1414px" zoomAndPan="magnify"><title>**RAG_eng_Eletrica**\n&lt;size:13&gt;Arquitetura e Modulos Principais&lt;/size&gt;\n&lt;size:11&gt;Resumo para portifolio&lt;/size&gt;</title><defs/><g><rect fill="#FEFEFE" height="841" style="stroke:none;stroke-width:1;" width="1414" x="0" y="0"/><g class="title" data-source-line="10"><text fill="#000000" font-family="'Segoe UI'" font-size="22" font-weight="bold" lengthAdjust="spacing" textLength="178.3955" x="429.6675" y="38.7402">RAG_eng_Eletrica</text><text fill="#000000" font-family="'Segoe UI'" font-size="22" font-weight="bold" lengthAdjust="spacing" textLength="22.9023" x="608.063" y="38.7402">\n</text><text fill="#000000" font-family="'Segoe UI'" font-size="13" font-weight="bold" lengthAdjust="spacing" textLength="201.6841" x="630.9653" y="40.999">Arquitetura e Modulos Principais</text><text fill="#000000" font-family="'Segoe UI'" font-size="22" font-weight="bold" lengthAdjust="spacing" textLength="22.9023" x="832.6494" y="38.7402">\n</text><text fill="#000000" font-family="'Segoe UI'" font-size="11" font-weight="bold" lengthAdjust="spacing" textLength="119.7808" x="855.5518" y="41.501">Resumo para portifolio</text></g><!--cluster main--><g class="cluster" data-qualified-name="main" data-source-line="22" id="ent0002"><rect fill="#E3F2FD" height="266" rx="5" ry="5" style="stroke:#000000;stroke-width:1;" width="415" x="12" y="62.2617"/><text fill="#000000" font-family="'Segoe UI'" font-size="11" font-style="italic" lengthAdjust="spacing" textLength="57.7285" x="190.6357" y="76.1318">&#171;Rectangle&#187;</text><text fill="#000000" font-family="'Segoe UI'" font-size="11" font-weight="bold" lengthAdjust="spacing" textLength="98.4683" x="170.2659" y="90.7627">Modulos Principais</text></g><!--cluster code--><g class="cluster" data-qualified-name="code" data-source-line="31" id="ent0009"><rect fill="#E8F5E9" height="447" rx="5" ry="5" style="stroke:#000000;stroke-width:1;" width="941" x="467" y="203.2617"/><text fill="#000000" font-family="'Segoe UI'" font-size="11" font-style="italic" lengthAdjust="spacing" textLength="57.7285" x="908.6357" y="217.1318">&#171;Rectangle&#187;</text><text fill="#000000" font-family="'Segoe UI'" font-size="11" font-weight="bold" lengthAdjust="spacing" textLength="143.5156" x="865.7422" y="231.7627">Classes e Funcoes (amostra)</text></g><!--entity src--><g class="entity" data-qualified-name="main.src" data-source-line="23" id="ent0003"><rect fill="#FFFFFF" height="44.6309" rx="5" ry="5" style="stroke:#000000;stroke-width:1;" width="53.5728" x="133" y="118.2617"/><rect fill="#FFFFFF" height="10" style="stroke:#000000;stroke-width:1;" width="15" x="166.5728" y="123.2617"/><rect fill="#FFFFFF" height="2" style="stroke:#000000;stroke-width:1;" width="4" x="164.5728" y="125.2617"/><rect fill="#FFFFFF" height="2" style="stroke:#000000;stroke-width:1;" width="4" x="164.5728" y="129.2617"/><text fill="#000000" font-family="'Segoe UI'" font-size="11" lengthAdjust="spacing" textLength="13.5728" x="148" y="150.1318">src</text></g><!--entity models--><g class="entity" data-qualified-name="main.models" data-source-line="24" id="ent0004"><rect fill="#FFFFFF" height="44.6309" rx="5" ry="5" style="stroke:#000000;stroke-width:1;" width="75.4814" x="78.5" y="259.2617"/><rect fill="#FFFFFF" height="10" style="stroke:#000000;stroke-width:1;" width="15" x="133.9814" y="264.2617"/><rect fill="#FFFFFF" height="2" style="stroke:#000000;stroke-width:1;" width="4" x="131.9814" y="266.2617"/><rect fill="#FFFFFF" height="2" style="stroke:#000000;stroke-width:1;" width="4" x="131.9814" y="270.2617"/><text fill="#000000" font-family="'Segoe UI'" font-size="11" lengthAdjust="spacing" textLength="35.4814" x="93.5" y="291.1318">models</text></g><!--entity data--><g class="entity" data-qualified-name="main.data" data-source-line="25" id="ent0005"><rect fill="#FFFFFF" height="44.6309" rx="5" ry="5" style="stroke:#000000;stroke-width:1;" width="61.3984" x="36.5" y="118.2617"/><rect fill="#FFFFFF" height="10" style="stroke:#000000;stroke-width:1;" width="15" x="77.8984" y="123.2617"/><rect fill="#FFFFFF" height="2" style="stroke:#000000;stroke-width:1;" width="4" x="75.8984" y="125.2617"/><rect fill="#FFFFFF" height="2" style="stroke:#000000;stroke-width:1;" width="4" x="75.8984" y="129.2617"/><text fill="#000000" font-family="'Segoe UI'" font-size="11" lengthAdjust="spacing" textLength="21.3984" x="51.5" y="150.1318">data</text></g><!--entity docs--><g class="entity" data-qualified-name="main.docs" data-source-line="26" id="ent0006"><rect fill="#FFFFFF" height="44.6309" rx="5" ry="5" style="stroke:#000000;stroke-width:1;" width="62.6714" x="222.5" y="118.2617"/><rect fill="#FFFFFF" height="10" style="stroke:#000000;stroke-width:1;" width="15" x="265.1714" y="123.2617"/><rect fill="#FFFFFF" height="2" style="stroke:#000000;stroke-width:1;" width="4" x="263.1714" y="125.2617"/><rect fill="#FFFFFF" height="2" style="stroke:#000000;stroke-width:1;" width="4" x="263.1714" y="129.2617"/><text fill="#000000" font-family="'Segoe UI'" font-size="11" lengthAdjust="spacing" textLength="22.6714" x="237.5" y="150.1318">docs</text></g><!--entity tests--><g class="entity" data-qualified-name="main.tests" data-source-line="27" id="ent0007"><rect fill="#FFFFFF" height="44.6309" rx="5" ry="5" style="stroke:#000000;stroke-width:1;" width="62.5425" x="320.5" y="118.2617"/><rect fill="#FFFFFF" height="10" style="stroke:#000000;stroke-width:1;" width="15" x="363.0425" y="123.2617"/><rect fill="#FFFFFF" height="2" style="stroke:#000000;stroke-width:1;" width="4" x="361.0425" y="125.2617"/><rect fill="#FFFFFF" height="2" style="stroke:#000000;stroke-width:1;" width="4" x="361.0425" y="129.2617"/><text fill="#000000" font-family="'Segoe UI'" font-size="11" lengthAdjust="spacing" textLength="22.5425" x="335.5" y="150.1318">tests</text></g><!--entity ui--><g class="entity" data-qualified-name="main.ui" data-source-line="28" id="ent0008"><rect fill="#FFFFFF" height="44.6309" rx="5" ry="5" style="stroke:#000000;stroke-width:1;" width="48.8892" x="229.5" y="259.2617"/><rect fill="#FFFFFF" height="10" style="stroke:#000000;stroke-width:1;" width="15" x="258.3892" y="264.2617"/><rect fill="#FFFFFF" height="2" style="stroke:#000000;stroke-width:1;" width="4" x="256.3892" y="266.2617"/><rect fill="#FFFFFF" height="2" style="stroke:#000000;stroke-width:1;" width="4" x="256.3892" y="270.2617"/><text fill="#000000" font-family="'Segoe UI'" font-size="11" lengthAdjust="spacing" textLength="8.8892" x="244.5" y="291.1318">ui</text></g><!--entity code_1--><g class="entity" data-qualified-name="code.code_1" data-source-line="32" id="ent0010"><rect fill="#FFFFFF" height="44.6309" rx="5" ry="5" style="stroke:#000000;stroke-width:1;" width="123.542" x="510" y="259.2617"/><rect fill="#FFFFFF" height="10" style="stroke:#000000;stroke-width:1;" width="15" x="613.542" y="264.2617"/><rect fill="#FFFFFF" height="2" style="stroke:#000000;stroke-width:1;" width="4" x="611.542" y="266.2617"/><rect fill="#FFFFFF" height="2" style="stroke:#000000;stroke-width:1;" width="4" x="611.542" y="270.2617"/><text fill="#000000" font-family="'Segoe UI'" font-size="11" lengthAdjust="spacing" textLength="83.542" x="525" y="291.1318">analyze_code_file</text></g><!--entity code_2--><g class="entity" data-qualified-name="code.code_2" data-source-line="33" id="ent0011"><rect fill="#FFFFFF" height="44.6309" rx="5" ry="5" style="stroke:#000000;stroke-width:1;" width="152.1377" x="669" y="259.2617"/><rect fill="#FFFFFF" height="10" style="stroke:#000000;stroke-width:1;" width="15" x="801.1377" y="264.2617"/><rect fill="#FFFFFF" height="2" style="stroke:#000000;stroke-width:1;" width="4" x="799.1377" y="266.2617"/><rect fill="#FFFFFF" height="2" style="stroke:#000000;stroke-width:1;" width="4" x="799.1377" y="270.2617"/><text fill="#000000" font-family="'Segoe UI'" font-size="11" lengthAdjust="spacing" textLength="112.1377" x="684" y="291.1318">analyze_code_directory</text></g><!--entity code_3--><g class="entity" data-qualified-name="code.code_3" data-source-line="34" id="ent0012"><rect fill="#FFFFFF" height="44.6309" rx="5" ry="5" style="stroke:#000000;stroke-width:1;" width="125.8354" x="856" y="259.2617"/><rect fill="#FFFFFF" height="10" style="stroke:#000000;stroke-width:1;" width="15" x="961.8354" y="264.2617"/><rect fill="#FFFFFF" height="2" style="stroke:#000000;stroke-width:1;" width="4" x="959.8354" y="266.2617"/><rect fill="#FFFFFF" height="2" style="stroke:#000000;stroke-width:1;" width="4" x="959.8354" y="270.2617"/><text fill="#000000" font-family="'Segoe UI'" font-size="11" lengthAdjust="spacing" textLength="85.8354" x="871" y="291.1318">compare_projects</text></g><!--entity code_4--><g class="entity" data-qualified-name="code.code_4" data-source-line="35" id="ent0013"><rect fill="#FFFFFF" height="44.6309" rx="5" ry="5" style="stroke:#000000;stroke-width:1;" width="112.5581" x="1017.5" y="259.2617"/><rect fill="#FFFFFF" height="10" style="stroke:#000000;stroke-width:1;" width="15" x="1110.0581" y="264.2617"/><rect fill="#FFFFFF" height="2" style="stroke:#000000;stroke-width:1;" width="4" x="1108.0581" y="266.2617"/><rect fill="#FFFFFF" height="2" style="stroke:#000000;stroke-width:1;" width="4" x="1108.0581" y="270.2617"/><text fill="#000000" font-family="'Segoe UI'" font-size="11" lengthAdjust="spacing" textLength="72.5581" x="1032.5" y="291.1318">ProjectAnalysis</text></g><!--entity code_5--><g class="entity" data-qualified-name="code.code_5" data-source-line="36" id="ent0014"><rect fill="#FFFFFF" height="44.6309" rx="5" ry="5" style="stroke:#000000;stroke-width:1;" width="115.1094" x="1165.5" y="259.2617"/><rect fill="#FFFFFF" height="10" style="stroke:#000000;stroke-width:1;" width="15" x="1260.6094" y="264.2617"/><rect fill="#FFFFFF" height="2" style="stroke:#000000;stroke-width:1;" width="4" x="1258.6094" y="266.2617"/><rect fill="#FFFFFF" height="2" style="stroke:#000000;stroke-width:1;" width="4" x="1258.6094" y="270.2617"/><text fill="#000000" font-family="'Segoe UI'" font-size="11" lengthAdjust="spacing" textLength="75.1094" x="1180.5" y="291.1318">ProjectAnalyzer</text></g><!--entity code_6--><g class="entity" data-qualified-name="code.code_6" data-source-line="37" id="ent0015"><rect fill="#FFFFFF" height="51.9463" rx="5" ry="5" style="stroke:#000000;stroke-width:1;" width="63.2808" x="539.5" y="364.2617"/><rect fill="#FFFFFF" height="10" style="stroke:#000000;stroke-width:1;" width="15" x="582.7808" y="369.2617"/><rect fill="#FFFFFF" height="2" style="stroke:#000000;stroke-width:1;" width="4" x="580.7808" y="371.2617"/><rect fill="#FFFFFF" height="2" style="stroke:#000000;stroke-width:1;" width="4" x="580.7808" y="375.2617"/><line style="stroke:#000000;stroke-width:1;" x1="540.5" x2="563.5" y1="391.5771" y2="391.5771"/><text fill="#000000" font-family="'Segoe UI'" font-size="11" lengthAdjust="spacing" textLength="15.2808" x="563.5" y="395.6318">init</text><line style="stroke:#000000;stroke-width:1;" x1="578.7808" x2="601.7808" y1="391.5771" y2="391.5771"/></g><!--entity code_7--><g class="entity" data-qualified-name="code.code_7" data-source-line="38" id="ent0016"><rect fill="#FFFFFF" height="44.6309" rx="5" ry="5" style="stroke:#000000;stroke-width:1;" width="162.3428" x="638" y="367.7617"/><rect fill="#FFFFFF" height="10" style="stroke:#000000;stroke-width:1;" width="15" x="780.3428" y="372.7617"/><rect fill="#FFFFFF" height="2" style="stroke:#000000;stroke-width:1;" width="4" x="778.3428" y="374.7617"/><rect fill="#FFFFFF" height="2" style="stroke:#000000;stroke-width:1;" width="4" x="778.3428" y="378.7617"/><text fill="#000000" font-family="'Segoe UI'" font-size="11" lengthAdjust="spacing" textLength="122.3428" x="653" y="399.6318">analyze_project_directory</text></g><!--entity code_8--><g class="entity" data-qualified-name="code.code_8" data-source-line="39" id="ent0017"><rect fill="#FFFFFF" height="44.6309" rx="5" ry="5" style="stroke:#000000;stroke-width:1;" width="128.0591" x="835" y="367.7617"/><rect fill="#FFFFFF" height="10" style="stroke:#000000;stroke-width:1;" width="15" x="943.0591" y="372.7617"/><rect fill="#FFFFFF" height="2" style="stroke:#000000;stroke-width:1;" width="4" x="941.0591" y="374.7617"/><rect fill="#FFFFFF" height="2" style="stroke:#000000;stroke-width:1;" width="4" x="941.0591" y="378.7617"/><text fill="#000000" font-family="'Segoe UI'" font-size="11" lengthAdjust="spacing" textLength="88.0591" x="850" y="399.6318">_collect_code_files</text></g><!--entity code_9--><g class="entity" data-qualified-name="code.code_9" data-source-line="40" id="ent0018"><rect fill="#FFFFFF" height="44.6309" rx="5" ry="5" style="stroke:#000000;stroke-width:1;" width="122.3066" x="998" y="367.7617"/><rect fill="#FFFFFF" height="10" style="stroke:#000000;stroke-width:1;" width="15" x="1100.3066" y="372.7617"/><rect fill="#FFFFFF" height="2" style="stroke:#000000;stroke-width:1;" width="4" x="1098.3066" y="374.7617"/><rect fill="#FFFFFF" height="2" style="stroke:#000000;stroke-width:1;" width="4" x="1098.3066" y="378.7617"/><text fill="#000000" font-family="'Segoe UI'" font-size="11" lengthAdjust="spacing" textLength="82.3066" x="1013" y="399.6318">_collect_doc_files</text></g><!--entity code_10--><g class="entity" data-qualified-name="code.code_10" data-source-line="41" id="ent0019"><rect fill="#FFFFFF" height="44.6309" rx="5" ry="5" style="stroke:#000000;stroke-width:1;" width="152.5728" x="1155.5" y="367.7617"/><rect fill="#FFFFFF" height="10" style="stroke:#000000;stroke-width:1;" width="15" x="1288.0728" y="372.7617"/><rect fill="#FFFFFF" height="2" style="stroke:#000000;stroke-width:1;" width="4" x="1286.0728" y="374.7617"/><rect fill="#FFFFFF" height="2" style="stroke:#000000;stroke-width:1;" width="4" x="1286.0728" y="378.7617"/><text fill="#000000" font-family="'Segoe UI'" font-size="11" lengthAdjust="spacing" textLength="112.5728" x="1170.5" y="399.6318">_collect_schematic_files</text></g><!--entity code_11--><g class="entity" data-qualified-name="code.code_11" data-source-line="42" id="ent0020"><rect fill="#FFFFFF" height="44.6309" rx="5" ry="5" style="stroke:#000000;stroke-width:1;" width="128.4995" x="507" y="476.2617"/><rect fill="#FFFFFF" height="10" style="stroke:#000000;stroke-width:1;" width="15" x="615.4995" y="481.2617"/><rect fill="#FFFFFF" height="2" style="stroke:#000000;stroke-width:1;" width="4" x="613.4995" y="483.2617"/><rect fill="#FFFFFF" height="2" style="stroke:#000000;stroke-width:1;" width="4" x="613.4995" y="487.2617"/><text fill="#000000" font-family="'Segoe UI'" font-size="11" lengthAdjust="spacing" textLength="88.4995" x="522" y="508.1318">_read_project_files</text></g><!--entity code_12--><g class="entity" data-qualified-name="code.code_12" data-source-line="43" id="ent0021"><rect fill="#FFFFFF" height="44.6309" rx="5" ry="5" style="stroke:#000000;stroke-width:1;" width="147.4648" x="670.5" y="476.2617"/><rect fill="#FFFFFF" height="10" style="stroke:#000000;stroke-width:1;" width="15" x="797.9648" y="481.2617"/><rect fill="#FFFFFF" height="2" style="stroke:#000000;stroke-width:1;" width="4" x="795.9648" y="483.2617"/><rect fill="#FFFFFF" height="2" style="stroke:#000000;stroke-width:1;" width="4" x="795.9648" y="487.2617"/><text fill="#000000" font-family="'Segoe UI'" font-size="11" lengthAdjust="spacing" textLength="107.4648" x="685.5" y="508.1318">_extract_project_name</text></g><!--entity code_13--><g class="entity" data-qualified-name="code.code_13" data-source-line="44" id="ent0022"><rect fill="#FFFFFF" height="44.6309" rx="5" ry="5" style="stroke:#000000;stroke-width:1;" width="146.2349" x="853" y="476.2617"/><rect fill="#FFFFFF" height="10" style="stroke:#000000;stroke-width:1;" width="15" x="979.2349" y="481.2617"/><rect fill="#FFFFFF" height="2" style="stroke:#000000;stroke-width:1;" width="4" x="977.2349" y="483.2617"/><rect fill="#FFFFFF" height="2" style="stroke:#000000;stroke-width:1;" width="4" x="977.2349" y="487.2617"/><text fill="#000000" font-family="'Segoe UI'" font-size="11" lengthAdjust="spacing" textLength="106.2349" x="868" y="508.1318">_generate_description</text></g><!--entity code_14--><g class="entity" data-qualified-name="code.code_14" data-source-line="45" id="ent0023"><rect fill="#FFFFFF" height="44.6309" rx="5" ry="5" style="stroke:#000000;stroke-width:1;" width="147.5347" x="1034" y="476.2617"/><rect fill="#FFFFFF" height="10" style="stroke:#000000;stroke-width:1;" width="15" x="1161.5347" y="481.2617"/><rect fill="#FFFFFF" height="2" style="stroke:#000000;stroke-width:1;" width="4" x="1159.5347" y="483.2617"/><rect fill="#FFFFFF" height="2" style="stroke:#000000;stroke-width:1;" width="4" x="1159.5347" y="487.2617"/><text fill="#000000" font-family="'Segoe UI'" font-size="11" lengthAdjust="spacing" textLength="107.5347" x="1049" y="508.1318">_identify_technologies</text></g><!--entity code_15--><g class="entity" data-qualified-name="code.code_15" data-source-line="46" id="ent0024"><rect fill="#FFFFFF" height="44.6309" rx="5" ry="5" style="stroke:#000000;stroke-width:1;" width="145.918" x="1217" y="476.2617"/><rect fill="#FFFFFF" height="10" style="stroke:#000000;stroke-width:1;" width="15" x="1342.918" y="481.2617"/><rect fill="#FFFFFF" height="2" style="stroke:#000000;stroke-width:1;" width="4" x="1340.918" y="483.2617"/><rect fill="#FFFFFF" height="2" style="stroke:#000000;stroke-width:1;" width="4" x="1340.918" y="487.2617"/><text fill="#000000" font-family="'Segoe UI'" font-size="11" lengthAdjust="spacing" textLength="105.918" x="1232" y="508.1318">_identify_components</text></g><!--entity code_16--><g class="entity" data-qualified-name="code.code_16" data-source-line="47" id="ent0025"><rect fill="#FFFFFF" height="44.6309" rx="5" ry="5" style="stroke:#000000;stroke-width:1;" width="142.7437" x="499.5" y="581.2617"/><rect fill="#FFFFFF" height="10" style="stroke:#000000;stroke-width:1;" width="15" x="622.2437" y="586.2617"/><rect fill="#FFFFFF" height="2" style="stroke:#000000;stroke-width:1;" width="4" x="620.2437" y="588.2617"/><rect fill="#FFFFFF" height="2" style="stroke:#000000;stroke-width:1;" width="4" x="620.2437" y="592.2617"/><text fill="#000000" font-family="'Segoe UI'" font-size="11" lengthAdjust="spacing" textLength="102.7437" x="514.5" y="613.1318">_analyze_architecture</text></g><!--entity code_17--><g class="entity" data-qualified-name="code.code_17" data-source-line="48" id="ent0026"><rect fill="#FFFFFF" height="44.6309" rx="5" ry="5" style="stroke:#000000;stroke-width:1;" width="137.7378" x="678" y="581.2617"/><rect fill="#FFFFFF" height="10" style="stroke:#000000;stroke-width:1;" width="15" x="795.7378" y="586.2617"/><rect fill="#FFFFFF" height="2" style="stroke:#000000;stroke-width:1;" width="4" x="793.7378" y="588.2617"/><rect fill="#FFFFFF" height="2" style="stroke:#000000;stroke-width:1;" width="4" x="793.7378" y="592.2617"/><text fill="#000000" font-family="'Segoe UI'" font-size="11" lengthAdjust="spacing" textLength="97.7378" x="693" y="613.1318">_check_code_quality</text></g><!--entity code_18--><g class="entity" data-qualified-name="code.code_18" data-source-line="49" id="ent0027"><rect fill="#FFFFFF" height="44.6309" rx="5" ry="5" style="stroke:#000000;stroke-width:1;" width="162.2246" x="851" y="581.2617"/><rect fill="#FFFFFF" height="10" style="stroke:#000000;stroke-width:1;" width="15" x="993.2246" y="586.2617"/><rect fill="#FFFFFF" height="2" style="stroke:#000000;stroke-width:1;" width="4" x="991.2246" y="588.2617"/><rect fill="#FFFFFF" height="2" style="stroke:#000000;stroke-width:1;" width="4" x="991.2246" y="592.2617"/><text fill="#000000" font-family="'Segoe UI'" font-size="11" lengthAdjust="spacing" textLength="122.2246" x="866" y="613.1318">_identify_design_patterns</text></g><!--entity code_19--><g class="entity" data-qualified-name="code.code_19" data-source-line="50" id="ent0028"><rect fill="#FFFFFF" height="44.6309" rx="5" ry="5" style="stroke:#000000;stroke-width:1;" width="156.8696" x="1048.5" y="581.2617"/><rect fill="#FFFFFF" height="10" style="stroke:#000000;stroke-width:1;" width="15" x="1185.3696" y="586.2617"/><rect fill="#FFFFFF" height="2" style="stroke:#000000;stroke-width:1;" width="4" x="1183.3696" y="588.2617"/><rect fill="#FFFFFF" height="2" style="stroke:#000000;stroke-width:1;" width="4" x="1183.3696" y="592.2617"/><text fill="#000000" font-family="'Segoe UI'" font-size="11" lengthAdjust="spacing" textLength="116.8696" x="1063.5" y="613.1318">_suggest_improvements</text></g><!--entity code_20--><g class="entity" data-qualified-name="code.code_20" data-source-line="51" id="ent0029"><rect fill="#FFFFFF" height="44.6309" rx="5" ry="5" style="stroke:#000000;stroke-width:1;" width="143.1411" x="1240.5" y="581.2617"/><rect fill="#FFFFFF" height="10" style="stroke:#000000;stroke-width:1;" width="15" x="1363.6411" y="586.2617"/><rect fill="#FFFFFF" height="2" style="stroke:#000000;stroke-width:1;" width="4" x="1361.6411" y="588.2617"/><rect fill="#FFFFFF" height="2" style="stroke:#000000;stroke-width:1;" width="4" x="1361.6411" y="592.2617"/><text fill="#000000" font-family="'Segoe UI'" font-size="11" lengthAdjust="spacing" textLength="103.1411" x="1255.5" y="613.1318">_estimate_complexity</text></g><g class="entity" data-qualified-name="secrets" data-source-line="55" id="ent0030"><path d="M454,107.2617 L454,173.7852 A5,5 0 0 0 459,178.7852 L601.189,178.7852 A5,5 0 0 0 606.189,173.7852 L606.189,112.2617 L596.189,102.2617 L459,102.2617 A5,5 0 0 0 454,107.2617" fill="#EEEEEE" style="stroke:#000000;stroke-width:1;"/><path d="M596.189,102.2617 L596.189,109.7617 A2.5,2.5 0 0 0 598.689,112.2617 L606.189,112.2617 L596.189,102.2617" fill="#EEEEEE" style="stroke:#000000;stroke-width:1;"/><text fill="#000000" font-family="'Segoe UI'" font-size="11" font-weight="bold" lengthAdjust="spacing" textLength="80.9209" x="460" y="119.1318">Dados Sigilosos</text><line style="stroke:#000000;stroke-width:1;" x1="455" x2="605.189" y1="121.8926" y2="121.8926"/><text fill="#000000" font-family="'Segoe UI'" font-size="11" lengthAdjust="spacing" textLength="131.189" x="460" y="137.7627">Credenciais, tokens, chaves</text><text fill="#000000" font-family="'Segoe UI'" font-size="11" lengthAdjust="spacing" textLength="106.7827" x="460" y="152.3936">Variaveis de ambiente</text><text fill="#000000" font-family="'Segoe UI'" font-size="11" lengthAdjust="spacing" textLength="82.0757" x="460" y="167.0244">Configs sensiveis</text></g><!--link src to models--><g class="link" data-entity-1="ent0003" data-entity-2="ent0004" data-link-type="dependency" data-source-line="64" id="lnk31"><path d="M143.25,163.4117 C143.25,189.7317 143.25,226.8717 143.25,253.1617" fill="none" id="src-to-models" style="stroke:#000000;stroke-width:1;"/><polygon fill="#000000" points="143.25,259.1617,147.25,250.1617,143.25,254.1617,139.25,250.1617,143.25,259.1617" style="stroke:#000000;stroke-width:1;"/></g><!--link data to models--><g class="link" data-entity-1="ent0005" data-entity-2="ent0004" data-link-type="dependency" data-source-line="65" id="lnk32"><path d="M88,163.4117 C88,189.7317 88,226.8717 88,253.1617" fill="none" id="data-to-models" style="stroke:#000000;stroke-width:1;"/><polygon fill="#000000" points="88,259.1617,92,250.1617,88,254.1617,84,250.1617,88,259.1617" style="stroke:#000000;stroke-width:1;"/></g><!--link main to code--><g class="link" data-entity-1="ent0002" data-entity-2="ent0009" data-link-type="dependency" data-source-line="66" id="lnk33"><path d="M427.0302,282.2617 C427.1072,282.2617 427.1846,282.2617 427.2623,282.2617 C432.2403,282.2617 438.9119,282.2617 445.6863,282.2617 C452.4606,282.2617 459.3378,282.2617 464.727,282.2617 C465.4007,282.2617 466.0511,282.2617 466.6751,282.2617 C466.7531,282.2617 460.8307,282.2617 460.9079,282.2617" fill="none" id="main-to-code" style="stroke:#000000;stroke-width:1;"/><polygon fill="#000000" points="466.9079,282.2617,457.9079,278.2617,461.9079,282.2617,457.9079,286.2617,466.9079,282.2617" style="stroke:#000000;stroke-width:1;"/></g><g class="legend" data-source-line="12"><rect fill="none" height="144.3477" rx="5" ry="5" style="stroke:#000000;stroke-width:1;" width="202.6777" x="1192.3223" y="660.2617"/><text fill="#000000" font-family="'Segoe UI'" font-size="14" font-weight="bold" lengthAdjust="spacing" textLength="22.8662" x="1201.1846" y="682.3691">Cor</text><text fill="#000000" font-family="'Segoe UI'" font-size="14" font-weight="bold" lengthAdjust="spacing" textLength="52.8281" x="1231.7754" y="682.3691">Camada</text><rect fill="#1565C0" height="18.6211" style="stroke:none;stroke-width:1;" width="30.5908" x="1197.3223" y="685.8828"/><text fill="#000000" font-family="'Segoe UI'" font-size="14" lengthAdjust="spacing" textLength="3.835" x="1197.3223" y="700.9902">&#160;</text><text fill="#000000" font-family="'Segoe UI'" font-size="14" lengthAdjust="spacing" textLength="84.2939" x="1231.748" y="700.9902">Apresentacao</text><rect fill="#0277BD" height="18.6211" style="stroke:none;stroke-width:1;" width="30.5908" x="1197.3223" y="704.5039"/><text fill="#000000" font-family="'Segoe UI'" font-size="14" lengthAdjust="spacing" textLength="3.835" x="1197.3223" y="719.6113">&#160;</text><text fill="#000000" font-family="'Segoe UI'" font-size="14" lengthAdjust="spacing" textLength="59.4248" x="1231.748" y="719.6113">Aplicacao</text><rect fill="#00838F" height="18.6211" style="stroke:none;stroke-width:1;" width="30.5908" x="1197.3223" y="723.125"/><text fill="#000000" font-family="'Segoe UI'" font-size="14" lengthAdjust="spacing" textLength="3.835" x="1197.3223" y="738.2324">&#160;</text><text fill="#000000" font-family="'Segoe UI'" font-size="14" lengthAdjust="spacing" textLength="52.9854" x="1231.748" y="738.2324">Dominio</text><rect fill="#00695C" height="18.6211" style="stroke:none;stroke-width:1;" width="30.5908" x="1197.3223" y="741.7461"/><text fill="#000000" font-family="'Segoe UI'" font-size="14" lengthAdjust="spacing" textLength="3.835" x="1197.3223" y="756.8535">&#160;</text><text fill="#000000" font-family="'Segoe UI'" font-size="14" lengthAdjust="spacing" textLength="83.4736" x="1231.748" y="756.8535">Infraestrutura</text><rect fill="#AD1457" height="18.6211" style="stroke:none;stroke-width:1;" width="30.5908" x="1197.3223" y="760.3672"/><text fill="#000000" font-family="'Segoe UI'" font-size="14" lengthAdjust="spacing" textLength="3.835" x="1197.3223" y="775.4746">&#160;</text><text fill="#000000" font-family="'Segoe UI'" font-size="14" lengthAdjust="spacing" textLength="100.0781" x="1231.748" y="775.4746">Observabilidade</text><rect fill="#9E9E9E" height="18.6211" style="stroke:none;stroke-width:1;" width="30.5908" x="1197.3223" y="778.9883"/><text fill="#000000" font-family="'Segoe UI'" font-size="14" lengthAdjust="spacing" textLength="3.835" x="1197.3223" y="794.0957">&#160;</text><text fill="#000000" font-family="'Segoe UI'" font-size="14" lengthAdjust="spacing" textLength="154.417" x="1231.748" y="794.0957">Dados Sigilosos (Isolado)</text><line style="stroke:#000000;stroke-width:1;" x1="1197.3223" x2="1390" y1="667.2617" y2="667.2617"/><line style="stroke:#000000;stroke-width:1;" x1="1197.3223" x2="1390" y1="685.8828" y2="685.8828"/><line style="stroke:#000000;stroke-width:1;" x1="1197.3223" x2="1390" y1="704.5039" y2="704.5039"/><line style="stroke:#000000;stroke-width:1;" x1="1197.3223" x2="1390" y1="723.125" y2="723.125"/><line style="stroke:#000000;stroke-width:1;" x1="1197.3223" x2="1390" y1="741.7461" y2="741.7461"/><line style="stroke:#000000;stroke-width:1;" x1="1197.3223" x2="1390" y1="760.3672" y2="760.3672"/><line style="stroke:#000000;stroke-width:1;" x1="1197.3223" x2="1390" y1="778.9883" y2="778.9883"/><line style="stroke:#000000;stroke-width:1;" x1="1197.3223" x2="1390" y1="797.6094" y2="797.6094"/><line style="stroke:#000000;stroke-width:1;" x1="1197.3223" x2="1197.3223" y1="667.2617" y2="797.6094"/><line style="stroke:#000000;stroke-width:1;" x1="1227.9131" x2="1227.9131" y1="667.2617" y2="797.6094"/><line style="stroke:#000000;stroke-width:1;" x1="1390" x2="1390" y1="667.2617" y2="797.6094"/></g><g class="footer" data-source-line="67"><text fill="#000000" font-family="'Segoe UI'" font-size="10" lengthAdjust="spacing" textLength="9.4482" x="551.9043" y="826.4004">\n</text><text fill="#000000" font-family="'Segoe UI'" font-size="10" lengthAdjust="spacing" textLength="291.7432" x="561.3525" y="826.4004">RAG_eng_Eletrica - Diagrama para portifolio (sem dados sensiveis)</text></g><?plantuml-src VLNRRkCs47tNLx39GnEZGQqaZfF2Qy3rfGZGJHPnsvVkGfXGOtaQYjIILBfET_zzX_9DKk9QW3NYEJCymo67F_WbvYWA1QGZzqIw00kvU0Jvb5bJwdHibB7YU3ODJusHuW9AvMT6-plW24Tpp0oAFs-FtYRDwGL57DV0WkU03ET-fL1Ob1vqfh16S4j8pR-aCx40vUh8HfdLQ4NShG6ADFfLWS9OlpHHvCbpy4xdOVHRWZfBfWgz9GcTpiUFUk1Oqo_nnN1aFvVaqPSM18ht9YsLSUA39Isf07A3dmDpk7U9Xm_eojo8CAieU39Q64LcGumYXHdgL5ZAbZuIukixmMgh5-IGWlWQ1iNWEEvTzSRT8TkZmg93xK62sS7Tytx_ryaQLYoxWNMlBwvd0PkOd3JLaQkRtZWWjtfX0PstPPNRbZ2Qn9UzVY3SFpgqp_18Yb98SSUucOQd2iurS69E6V6Qi7LowupYiLFcXXJNcKRHffhYwFNo7Gbm8kSD9WQ3XssTXqDnFBsOdSycuZ-UL9gyC9hp5tyxApy53tutWToag5o5hSqcd8A72Wn62p9oxHUC9kHvUTPOPJN1aYgafEXRBSEn0kVGyLQPbLeQjauWDxpAS5gbAbdSgrIlPxtfJJjLqA1MBvW4ZsH12Zzj_PFuVvWfXUDYx6fFFs_IWmaMayAQVvZgziIB9l73cZ0AuHtLU9U7UIzezxnUavSal1Lzakm9Lsydib7sLYxzLaXfb0hKtIhLP5uVu7AXszIR0rGdkGM2frSEt5cQ7XOXtGblari5I_0BRmZcRVcQksIDtYfOmgS8BNWkBZffgV1aT8tUAbj2ARzfiKeyogNc7frHGytb8VvkiCvk5t5R9B1ooOrHSlUeQxzgh-GIvTEwF9zBKEHhnOpxXvHmefJff03lqUgwd7PHNPbbV3WJodand_c-Qgfl5vQfb8Ub38CAlpJqd7V3MTR6OzLZK5hqZizdzUD0dKwhutKwF7fsTiR_OuiiNXBtj9-4Dq-e-IsNy8oXR_m5bjWaxZ8SEtyaLeF1o-W5PM4kxIZWLTyC2g8e-b6ygtxYOVhxQ7nxVpTwFxtxutw-6Owu2VBamst32wsj_brrrV0TSeiMXeDQiR-dkiFsnIVEn8GWuxiIsfUNE778LtQL_KxhwUvAYwBl?></g></svg>