<?plantuml 1.2026.1?><svg xmlns="http://www.w3.org/2000/svg" xmlns:xlink="http://www.w3.org/1999/xlink" contentStyleType="text/css" data-diagram-type="DESCRIPTION" height="841px" preserveAspectRatio="none" style="width:793px;height:841px;background:#FEFEFE;" version="1.1" viewBox="0 0 793 841" width="793px" zoomAndPan="magnify"><title>**Sistema_Qualidade_de_energia**\n&lt;size:13&gt;Arquitetura e Modulos Principais&lt;/size&gt;\n&lt;size:11&gt;Resumo para portifolio&lt;/size&gt;</title><defs/><g><rect fill="#FEFEFE" height="841" style="stroke:none;stroke-width:1;" width="793" x="0" y="0"/><g class="title" data-source-line="10"><text fill="#000000" font-family="'Segoe UI'" font-size="22" font-weight="bold" lengthAdjust="spacing" textLength="316.5293" x="50.1006" y="38.7402">Sistema_Qualidade_de_energia</text><text fill="#000000" font-family="'Segoe UI'" font-size="22" font-weight="bold" lengthAdjust="spacing" textLength="22.9023" x="366.6299" y="38.7402">\n</text><text fill="#000000" font-family="'Segoe UI'" font-size="13" font-weight="bold" lengthAdjust="spacing" textLength="201.6841" x="389.5322" y="40.999">Arquitetura e Modulos Principais</text><text fill="#000000" font-family="'Segoe UI'" font-size="22" font-weight="bold" lengthAdjust="spacing" textLength="22.9023" x="591.2163" y="38.7402">\n</text><text fill="#000000" font-family="'Segoe UI'" font-size="11" font-weight="bold" lengthAdjust="spacing" textLength="119.7808" x="614.1187" y="41.501">Resumo para portifolio</text></g><!--cluster main--><g class="cluster" data-qualified-name="main" data-source-line="22" id="ent0002"><rect fill="#E3F2FD" height="269.5" rx="5" ry="5" style="stroke:#000000;stroke-width:1;" width="131" x="12" y="62.2617"/><text fill="#000000" font-family="'Segoe UI'" font-size="11" font-style="italic" lengthAdjust="spacing" textLength="57.7285" x="48.6357" y="76.1318">&#171;Rectangle&#187;</text><text fill="#000000" font-family="'Segoe UI'" font-size="11" font-weight="bold" lengthAdjust="spacing" textLength="98.4683" x="28.2659" y="90.7627">Modulos Principais</text></g><!--cluster code--><g class="cluster" data-qualified-name="code" data-source-line="27" id="ent0005"><rect fill="#E8F5E9" height="447" rx="5" ry="5" style="stroke:#000000;stroke-width:1;" width="604" x="183" y="203.2617"/><text fill="#000000" font-family="'Segoe UI'" font-size="11" font-style="italic" lengthAdjust="spacing" textLength="57.7285" x="456.1357" y="217.1318">&#171;Rectangle&#187;</text><text fill="#000000" font-family="'Segoe UI'" font-size="11" font-weight="bold" lengthAdjust="spacing" textLength="143.5156" x="413.2422" y="231.7627">Classes e Funcoes (amostra)</text></g><!--entity tests--><g class="entity" data-qualified-name="main.tests" data-source-line="23" id="ent0003"><rect fill="#FFFFFF" height="44.6309" rx="5" ry="5" style="stroke:#000000;stroke-width:1;" width="62.5425" x="36.5" y="118.2617"/><rect fill="#FFFFFF" height="10" style="stroke:#000000;stroke-width:1;" width="15" x="79.0425" y="123.2617"/><rect fill="#FFFFFF" height="2" style="stroke:#000000;stroke-width:1;" width="4" x="77.0425" y="125.2617"/><rect fill="#FFFFFF" height="2" style="stroke:#000000;stroke-width:1;" width="4" x="77.0425" y="129.2617"/><text fill="#000000" font-family="'Segoe UI'" font-size="11" lengthAdjust="spacing" textLength="22.5425" x="51.5" y="150.1318">tests</text></g><!--entity ui--><g class="entity" data-qualified-name="main.ui" data-source-line="24" id="ent0004"><rect fill="#FFFFFF" height="44.6309" rx="5" ry="5" style="stroke:#000000;stroke-width:1;" width="48.8892" x="43.5" y="262.7617"/><rect fill="#FFFFFF" height="10" style="stroke:#000000;stroke-width:1;" width="15" x="72.3892" y="267.7617"/><rect fill="#FFFFFF" height="2" style="stroke:#000000;stroke-width:1;" width="4" x="70.3892" y="269.7617"/><rect fill="#FFFFFF" height="2" style="stroke:#000000;stroke-width:1;" width="4" x="70.3892" y="273.7617"/><text fill="#000000" font-family="'Segoe UI'" font-size="11" lengthAdjust="spacing" textLength="8.8892" x="58.5" y="294.6318">ui</text></g><!--entity code_1--><g class="entity" data-qualified-name="code.code_1" data-source-line="28" id="ent0006"><rect fill="#FFFFFF" height="44.6309" rx="5" ry="5" style="stroke:#000000;stroke-width:1;" width="53.6694" x="226" y="262.7617"/><rect fill="#FFFFFF" height="10" style="stroke:#000000;stroke-width:1;" width="15" x="259.6694" y="267.7617"/><rect fill="#FFFFFF" height="2" style="stroke:#000000;stroke-width:1;" width="4" x="257.6694" y="269.7617"/><rect fill="#FFFFFF" height="2" style="stroke:#000000;stroke-width:1;" width="4" x="257.6694" y="273.7617"/><text fill="#000000" font-family="'Segoe UI'" font-size="11" lengthAdjust="spacing" textLength="13.6694" x="241" y="294.6318">FFI</text></g><!--entity code_2--><g class="entity" data-qualified-name="code.code_2" data-source-line="29" id="ent0007"><rect fill="#FFFFFF" height="51.9463" rx="5" ry="5" style="stroke:#000000;stroke-width:1;" width="63.2808" x="315.5" y="259.2617"/><rect fill="#FFFFFF" height="10" style="stroke:#000000;stroke-width:1;" width="15" x="358.7808" y="264.2617"/><rect fill="#FFFFFF" height="2" style="stroke:#000000;stroke-width:1;" width="4" x="356.7808" y="266.2617"/><rect fill="#FFFFFF" height="2" style="stroke:#000000;stroke-width:1;" width="4" x="356.7808" y="270.2617"/><line style="stroke:#000000;stroke-width:1;" x1="316.5" x2="339.5" y1="286.5771" y2="286.5771"/><text fill="#000000" font-family="'Segoe UI'" font-size="11" lengthAdjust="spacing" textLength="15.2808" x="339.5" y="290.6318">init</text><line style="stroke:#000000;stroke-width:1;" x1="354.7808" x2="377.7808" y1="286.5771" y2="286.5771"/></g><!--entity code_3--><g class="entity" data-qualified-name="code.code_3" data-source-line="30" id="ent0008"><rect fill="#FFFFFF" height="44.6309" rx="5" ry="5" style="stroke:#000000;stroke-width:1;" width="60.7539" x="413.5" y="262.7617"/><rect fill="#FFFFFF" height="10" style="stroke:#000000;stroke-width:1;" width="15" x="454.2539" y="267.7617"/><rect fill="#FFFFFF" height="2" style="stroke:#000000;stroke-width:1;" width="4" x="452.2539" y="269.7617"/><rect fill="#FFFFFF" height="2" style="stroke:#000000;stroke-width:1;" width="4" x="452.2539" y="273.7617"/><text fill="#000000" font-family="'Segoe UI'" font-size="11" lengthAdjust="spacing" textLength="20.7539" x="428.5" y="294.6318">cdef</text></g><!--entity code_4--><g class="entity" data-qualified-name="code.code_4" data-source-line="31" id="ent0009"><rect fill="#FFFFFF" height="44.6309" rx="5" ry="5" style="stroke:#000000;stroke-width:1;" width="115.061" x="509.5" y="262.7617"/><rect fill="#FFFFFF" height="10" style="stroke:#000000;stroke-width:1;" width="15" x="604.561" y="267.7617"/><rect fill="#FFFFFF" height="2" style="stroke:#000000;stroke-width:1;" width="4" x="602.561" y="269.7617"/><rect fill="#FFFFFF" height="2" style="stroke:#000000;stroke-width:1;" width="4" x="602.561" y="273.7617"/><text fill="#000000" font-family="'Segoe UI'" font-size="11" lengthAdjust="spacing" textLength="75.061" x="524.5" y="294.6318">embedding_api</text></g><!--entity code_5--><g class="entity" data-qualified-name="code.code_5" data-source-line="32" id="ent0010"><rect fill="#FFFFFF" height="44.6309" rx="5" ry="5" style="stroke:#000000;stroke-width:1;" width="65.3193" x="659.5" y="262.7617"/><rect fill="#FFFFFF" height="10" style="stroke:#000000;stroke-width:1;" width="15" x="704.8193" y="267.7617"/><rect fill="#FFFFFF" height="2" style="stroke:#000000;stroke-width:1;" width="4" x="702.8193" y="269.7617"/><rect fill="#FFFFFF" height="2" style="stroke:#000000;stroke-width:1;" width="4" x="702.8193" y="273.7617"/><text fill="#000000" font-family="'Segoe UI'" font-size="11" lengthAdjust="spacing" textLength="25.3193" x="674.5" y="294.6318">_cdef</text></g><!--entity code_6--><g class="entity" data-qualified-name="code.code_6" data-source-line="33" id="ent0011"><rect fill="#FFFFFF" height="44.6309" rx="5" ry="5" style="stroke:#000000;stroke-width:1;" width="74.0313" x="215" y="371.2617"/><rect fill="#FFFFFF" height="10" style="stroke:#000000;stroke-width:1;" width="15" x="269.0313" y="376.2617"/><rect fill="#FFFFFF" height="2" style="stroke:#000000;stroke-width:1;" width="4" x="267.0313" y="378.2617"/><rect fill="#FFFFFF" height="2" style="stroke:#000000;stroke-width:1;" width="4" x="267.0313" y="382.2617"/><text fill="#000000" font-family="'Segoe UI'" font-size="11" lengthAdjust="spacing" textLength="34.0313" x="230" y="403.1318">dlopen</text></g><!--entity code_7--><g class="entity" data-qualified-name="code.code_7" data-source-line="34" id="ent0012"><rect fill="#FFFFFF" height="44.6309" rx="5" ry="5" style="stroke:#000000;stroke-width:1;" width="73.752" x="324" y="371.2617"/><rect fill="#FFFFFF" height="10" style="stroke:#000000;stroke-width:1;" width="15" x="377.752" y="376.2617"/><rect fill="#FFFFFF" height="2" style="stroke:#000000;stroke-width:1;" width="4" x="375.752" y="378.2617"/><rect fill="#FFFFFF" height="2" style="stroke:#000000;stroke-width:1;" width="4" x="375.752" y="382.2617"/><text fill="#000000" font-family="'Segoe UI'" font-size="11" lengthAdjust="spacing" textLength="33.752" x="339" y="403.1318">dlclose</text></g><!--entity code_8--><g class="entity" data-qualified-name="code.code_8" data-source-line="35" id="ent0013"><rect fill="#FFFFFF" height="44.6309" rx="5" ry="5" style="stroke:#000000;stroke-width:1;" width="112.1768" x="433" y="371.2617"/><rect fill="#FFFFFF" height="10" style="stroke:#000000;stroke-width:1;" width="15" x="525.1768" y="376.2617"/><rect fill="#FFFFFF" height="2" style="stroke:#000000;stroke-width:1;" width="4" x="523.1768" y="378.2617"/><rect fill="#FFFFFF" height="2" style="stroke:#000000;stroke-width:1;" width="4" x="523.1768" y="382.2617"/><text fill="#000000" font-family="'Segoe UI'" font-size="11" lengthAdjust="spacing" textLength="72.1768" x="448" y="403.1318">_typeof_locked</text></g><!--entity code_9--><g class="entity" data-qualified-name="code.code_9" data-source-line="36" id="ent0014"><rect fill="#FFFFFF" height="44.6309" rx="5" ry="5" style="stroke:#000000;stroke-width:1;" width="75.7231" x="580" y="371.2617"/><rect fill="#FFFFFF" height="10" style="stroke:#000000;stroke-width:1;" width="15" x="635.7231" y="376.2617"/><rect fill="#FFFFFF" height="2" style="stroke:#000000;stroke-width:1;" width="4" x="633.7231" y="378.2617"/><rect fill="#FFFFFF" height="2" style="stroke:#000000;stroke-width:1;" width="4" x="633.7231" y="382.2617"/><text fill="#000000" font-family="'Segoe UI'" font-size="11" lengthAdjust="spacing" textLength="35.7231" x="595" y="403.1318">_typeof</text></g><!--entity code_10--><g class="entity" data-qualified-name="code.code_10" data-source-line="37" id="ent0015"><rect fill="#FFFFFF" height="44.6309" rx="5" ry="5" style="stroke:#000000;stroke-width:1;" width="71.1577" x="691.5" y="371.2617"/><rect fill="#FFFFFF" height="10" style="stroke:#000000;stroke-width:1;" width="15" x="742.6577" y="376.2617"/><rect fill="#FFFFFF" height="2" style="stroke:#000000;stroke-width:1;" width="4" x="740.6577" y="378.2617"/><rect fill="#FFFFFF" height="2" style="stroke:#000000;stroke-width:1;" width="4" x="740.6577" y="382.2617"/><text fill="#000000" font-family="'Segoe UI'" font-size="11" lengthAdjust="spacing" textLength="31.1577" x="706.5" y="403.1318">typeof</text></g><!--entity code_11--><g class="entity" data-qualified-name="code.code_11" data-source-line="38" id="ent0016"><rect fill="#FFFFFF" height="44.6309" rx="5" ry="5" style="stroke:#000000;stroke-width:1;" width="67.9458" x="219" y="476.2617"/><rect fill="#FFFFFF" height="10" style="stroke:#000000;stroke-width:1;" width="15" x="266.9458" y="481.2617"/><rect fill="#FFFFFF" height="2" style="stroke:#000000;stroke-width:1;" width="4" x="264.9458" y="483.2617"/><rect fill="#FFFFFF" height="2" style="stroke:#000000;stroke-width:1;" width="4" x="264.9458" y="487.2617"/><text fill="#000000" font-family="'Segoe UI'" font-size="11" lengthAdjust="spacing" textLength="27.9458" x="234" y="508.1318">sizeof</text></g><!--entity code_12--><g class="entity" data-qualified-name="code.code_12" data-source-line="39" id="ent0017"><rect fill="#FFFFFF" height="44.6309" rx="5" ry="5" style="stroke:#000000;stroke-width:1;" width="73.5156" x="322" y="476.2617"/><rect fill="#FFFFFF" height="10" style="stroke:#000000;stroke-width:1;" width="15" x="375.5156" y="481.2617"/><rect fill="#FFFFFF" height="2" style="stroke:#000000;stroke-width:1;" width="4" x="373.5156" y="483.2617"/><rect fill="#FFFFFF" height="2" style="stroke:#000000;stroke-width:1;" width="4" x="373.5156" y="487.2617"/><text fill="#000000" font-family="'Segoe UI'" font-size="11" lengthAdjust="spacing" textLength="33.5156" x="337" y="508.1318">alignof</text></g><!--entity code_13--><g class="entity" data-qualified-name="code.code_13" data-source-line="40" id="ent0018"><rect fill="#FFFFFF" height="44.6309" rx="5" ry="5" style="stroke:#000000;stroke-width:1;" width="77.3667" x="431.5" y="476.2617"/><rect fill="#FFFFFF" height="10" style="stroke:#000000;stroke-width:1;" width="15" x="488.8667" y="481.2617"/><rect fill="#FFFFFF" height="2" style="stroke:#000000;stroke-width:1;" width="4" x="486.8667" y="483.2617"/><rect fill="#FFFFFF" height="2" style="stroke:#000000;stroke-width:1;" width="4" x="486.8667" y="487.2617"/><text fill="#000000" font-family="'Segoe UI'" font-size="11" lengthAdjust="spacing" textLength="37.3667" x="446.5" y="508.1318">offsetof</text></g><!--entity code_14--><g class="entity" data-qualified-name="code.code_14" data-source-line="41" id="ent0019"><rect fill="#FFFFFF" height="44.6309" rx="5" ry="5" style="stroke:#000000;stroke-width:1;" width="59.9268" x="544" y="476.2617"/><rect fill="#FFFFFF" height="10" style="stroke:#000000;stroke-width:1;" width="15" x="583.9268" y="481.2617"/><rect fill="#FFFFFF" height="2" style="stroke:#000000;stroke-width:1;" width="4" x="581.9268" y="483.2617"/><rect fill="#FFFFFF" height="2" style="stroke:#000000;stroke-width:1;" width="4" x="581.9268" y="487.2617"/><text fill="#000000" font-family="'Segoe UI'" font-size="11" lengthAdjust="spacing" textLength="19.9268" x="559" y="508.1318">new</text></g><!--entity code_15--><g class="entity" data-qualified-name="code.code_15" data-source-line="42" id="ent0020"><rect fill="#FFFFFF" height="44.6309" rx="5" ry="5" style="stroke:#000000;stroke-width:1;" width="106.5371" x="639.5" y="476.2617"/><rect fill="#FFFFFF" height="10" style="stroke:#000000;stroke-width:1;" width="15" x="726.0371" y="481.2617"/><rect fill="#FFFFFF" height="2" style="stroke:#000000;stroke-width:1;" width="4" x="724.0371" y="483.2617"/><rect fill="#FFFFFF" height="2" style="stroke:#000000;stroke-width:1;" width="4" x="724.0371" y="487.2617"/><text fill="#000000" font-family="'Segoe UI'" font-size="11" lengthAdjust="spacing" textLength="66.5371" x="654.5" y="508.1318">new_allocator</text></g><!--entity code_16--><g class="entity" data-qualified-name="code.code_16" data-source-line="43" id="ent0021"><rect fill="#FFFFFF" height="44.6309" rx="5" ry="5" style="stroke:#000000;stroke-width:1;" width="77.5278" x="215" y="581.2617"/><rect fill="#FFFFFF" height="10" style="stroke:#000000;stroke-width:1;" width="15" x="272.5278" y="586.2617"/><rect fill="#FFFFFF" height="2" style="stroke:#000000;stroke-width:1;" width="4" x="270.5278" y="588.2617"/><rect fill="#FFFFFF" height="2" style="stroke:#000000;stroke-width:1;" width="4" x="270.5278" y="592.2617"/><text fill="#000000" font-family="'Segoe UI'" font-size="11" lengthAdjust="spacing" textLength="37.5278" x="230" y="613.1318">allocate</text></g><!--entity code_17--><g class="entity" data-qualified-name="code.code_17" data-source-line="44" id="ent0022"><rect fill="#FFFFFF" height="44.6309" rx="5" ry="5" style="stroke:#000000;stroke-width:1;" width="59.0728" x="328.5" y="581.2617"/><rect fill="#FFFFFF" height="10" style="stroke:#000000;stroke-width:1;" width="15" x="367.5728" y="586.2617"/><rect fill="#FFFFFF" height="2" style="stroke:#000000;stroke-width:1;" width="4" x="365.5728" y="588.2617"/><rect fill="#FFFFFF" height="2" style="stroke:#000000;stroke-width:1;" width="4" x="365.5728" y="592.2617"/><text fill="#000000" font-family="'Segoe UI'" font-size="11" lengthAdjust="spacing" textLength="19.0728" x="343.5" y="613.1318">cast</text></g><!--entity code_18--><g class="entity" data-qualified-name="code.code_18" data-source-line="45" id="ent0023"><rect fill="#FFFFFF" height="44.6309" rx="5" ry="5" style="stroke:#000000;stroke-width:1;" width="67.5859" x="423" y="581.2617"/><rect fill="#FFFFFF" height="10" style="stroke:#000000;stroke-width:1;" width="15" x="470.5859" y="586.2617"/><rect fill="#FFFFFF" height="2" style="stroke:#000000;stroke-width:1;" width="4" x="468.5859" y="588.2617"/><rect fill="#FFFFFF" height="2" style="stroke:#000000;stroke-width:1;" width="4" x="468.5859" y="592.2617"/><text fill="#000000" font-family="'Segoe UI'" font-size="11" lengthAdjust="spacing" textLength="27.5859" x="438" y="613.1318">string</text></g><!--entity code_19--><g class="entity" data-qualified-name="code.code_19" data-source-line="46" id="ent0024"><rect fill="#FFFFFF" height="44.6309" rx="5" ry="5" style="stroke:#000000;stroke-width:1;" width="75.0625" x="526.5" y="581.2617"/><rect fill="#FFFFFF" height="10" style="stroke:#000000;stroke-width:1;" width="15" x="581.5625" y="586.2617"/><rect fill="#FFFFFF" height="2" style="stroke:#000000;stroke-width:1;" width="4" x="579.5625" y="588.2617"/><rect fill="#FFFFFF" height="2" style="stroke:#000000;stroke-width:1;" width="4" x="579.5625" y="592.2617"/><text fill="#000000" font-family="'Segoe UI'" font-size="11" lengthAdjust="spacing" textLength="35.0625" x="541.5" y="613.1318">unpack</text></g><!--entity code_20--><g class="entity" data-qualified-name="code.code_20" data-source-line="47" id="ent0025"><rect fill="#FFFFFF" height="44.6309" rx="5" ry="5" style="stroke:#000000;stroke-width:1;" width="96.9067" x="636.5" y="581.2617"/><rect fill="#FFFFFF" height="10" style="stroke:#000000;stroke-width:1;" width="15" x="713.4067" y="586.2617"/><rect fill="#FFFFFF" height="2" style="stroke:#000000;stroke-width:1;" width="4" x="711.4067" y="588.2617"/><rect fill="#FFFFFF" height="2" style="stroke:#000000;stroke-width:1;" width="4" x="711.4067" y="592.2617"/><text fill="#000000" font-family="'Segoe UI'" font-size="11" lengthAdjust="spacing" textLength="56.9067" x="651.5" y="613.1318">from_buffer</text></g><g class="entity" data-qualified-name="secrets" data-source-line="51" id="ent0026"><path d="M170,107.2617 L170,173.7852 A5,5 0 0 0 175,178.7852 L317.189,178.7852 A5,5 0 0 0 322.189,173.7852 L322.189,112.2617 L312.189,102.2617 L175,102.2617 A5,5 0 0 0 170,107.2617" fill="#EEEEEE" style="stroke:#000000;stroke-width:1;"/><path d="M312.189,102.2617 L312.189,109.7617 A2.5,2.5 0 0 0 314.689,112.2617 L322.189,112.2617 L312.189,102.2617" fill="#EEEEEE" style="stroke:#000000;stroke-width:1;"/><text fill="#000000" font-family="'Segoe UI'" font-size="11" font-weight="bold" lengthAdjust="spacing" textLength="80.9209" x="176" y="119.1318">Dados Sigilosos</text><line style="stroke:#000000;stroke-width:1;" x1="171" x2="321.189" y1="121.8926" y2="121.8926"/><text fill="#000000" font-family="'Segoe UI'" font-size="11" lengthAdjust="spacing" textLength="131.189" x="176" y="137.7627">Credenciais, tokens, chaves</text><text fill="#000000" font-family="'Segoe UI'" font-size="11" lengthAdjust="spacing" textLength="106.7827" x="176" y="152.3936">Variaveis de ambiente</text><text fill="#000000" font-family="'Segoe UI'" font-size="11" lengthAdjust="spacing" textLength="82.0757" x="176" y="167.0244">Configs sensiveis</text></g><!--link tests to ui--><g class="link" data-entity-1="ent0003" data-entity-2="ent0004" data-link-type="dependency" data-source-line="60" id="lnk27"><path d="M68,163.3417 C68,190.3317 68,229.2417 68,256.3617" fill="none" id="tests-to-ui" style="stroke:#000000;stroke-width:1;"/><polygon fill="#000000" points="68,262.3617,72,253.3617,68,257.3617,64,253.3617,68,262.3617" style="stroke:#000000;stroke-width:1;"/></g><!--link main to code--><g class="link" data-entity-1="ent0002" data-entity-2="ent0005" data-link-type="dependency" data-source-line="61" id="lnk28"><path d="M143.0087,285.2617 C143.0831,285.2617 143.1579,285.2617 143.2331,285.2617 C143.3834,285.2617 143.5353,285.2617 143.6887,285.2617 C143.9956,285.2617 144.3084,285.2617 144.6269,285.2617 C145.264,285.2617 145.9238,285.2617 146.6035,285.2617 C147.9628,285.2617 149.4018,285.2617 150.8978,285.2617 C153.8899,285.2617 157.1103,285.2617 160.3788,285.2617 C166.9156,285.2617 173.6447,285.2617 179.1239,285.2617 C180.4937,285.2617 175.7854,285.2617 176.9764,285.2617" fill="none" id="main-to-code" style="stroke:#000000;stroke-width:1;"/><polygon fill="#000000" points="182.9764,285.2617,173.9764,281.2617,177.9764,285.2617,173.9764,289.2617,182.9764,285.2617" style="stroke:#000000;stroke-width:1;"/></g><g class="legend" data-source-line="12"><rect fill="none" height="144.3477" rx="5" ry="5" style="stroke:#000000;stroke-width:1;" width="202.6777" x="571.3223" y="660.2617"/><text fill="#000000" font-family="'Segoe UI'" font-size="14" font-weight="bold" lengthAdjust="spacing" textLength="22.8662" x="580.1846" y="682.3691">Cor</text><text fill="#000000" font-family="'Segoe UI'" font-size="14" font-weight="bold" lengthAdjust="spacing" textLength="52.8281" x="610.7754" y="682.3691">Camada</text><rect fill="#1565C0" height="18.6211" style="stroke:none;stroke-width:1;" width="30.5908" x="576.3223" y="685.8828"/><text fill="#000000" font-family="'Segoe UI'" font-size="14" lengthAdjust="spacing" textLength="3.835" x="576.3223" y="700.9902">&#160;</text><text fill="#000000" font-family="'Segoe UI'" font-size="14" lengthAdjust="spacing" textLength="84.2939" x="610.748" y="700.9902">Apresentacao</text><rect fill="#0277BD" height="18.6211" style="stroke:none;stroke-width:1;" width="30.5908" x="576.3223" y="704.5039"/><text fill="#000000" font-family="'Segoe UI'" font-size="14" lengthAdjust="spacing" textLength="3.835" x="576.3223" y="719.6113">&#160;</text><text fill="#000000" font-family="'Segoe UI'" font-size="14" lengthAdjust="spacing" textLength="59.4248" x="610.748" y="719.6113">Aplicacao</text><rect fill="#00838F" height="18.6211" style="stroke:none;stroke-width:1;" width="30.5908" x="576.3223" y="723.125"/><text fill="#000000" font-family="'Segoe UI'" font-size="14" lengthAdjust="spacing" textLength="3.835" x="576.3223" y="738.2324">&#160;</text><text fill="#000000" font-family="'Segoe UI'" font-size="14" lengthAdjust="spacing" textLength="52.9854" x="610.748" y="738.2324">Dominio</text><rect fill="#00695C" height="18.6211" style="stroke:none;stroke-width:1;" width="30.5908" x="576.3223" y="741.7461"/><text fill="#000000" font-family="'Segoe UI'" font-size="14" lengthAdjust="spacing" textLength="3.835" x="576.3223" y="756.8535">&#160;</text><text fill="#000000" font-family="'Segoe UI'" font-size="14" lengthAdjust="spacing" textLength="83.4736" x="610.748" y="756.8535">Infraestrutura</text><rect fill="#AD1457" height="18.6211" style="stroke:none;stroke-width:1;" width="30.5908" x="576.3223" y="760.3672"/><text fill="#000000" font-family="'Segoe UI'" font-size="14" lengthAdjust="spacing" textLength="3.835" x="576.3223" y="775.4746">&#160;</text><text fill="#000000" font-family="'Segoe UI'" font-size="14" lengthAdjust="spacing" textLength="100.0781" x="610.748" y="775.4746">Observabilidade</text><rect fill="#9E9E9E" height="18.6211" style="stroke:none;stroke-width:1;" width="30.5908" x="576.3223" y="778.9883"/><text fill="#000000" font-family="'Segoe UI'" font-size="14" lengthAdjust="spacing" textLength="3.835" x="576.3223" y="794.0957">&#160;</text><text fill="#000000" font-family="'Segoe UI'" font-size="14" lengthAdjust="spacing" textLength="154.417" x="610.748" y="794.0957">Dados Sigilosos (Isolado)</text><line style="stroke:#000000;stroke-width:1;" x1="576.3223" x2="769" y1="667.2617" y2="667.2617"/><line style="stroke:#000000;stroke-width:1;" x1="576.3223" x2="769" y1="685.8828" y2="685.8828"/><line style="stroke:#000000;stroke-width:1;" x1="576.3223" x2="769" y1="704.5039" y2="704.5039"/><line style="stroke:#000000;stroke-width:1;" x1="576.3223" x2="769" y1="723.125" y2="723.125"/><line style="stroke:#000000;stroke-width:1;" x1="576.3223" x2="769" y1="741.7461" y2="741.7461"/><line style="stroke:#000000;stroke-width:1;" x1="576.3223" x2="769" y1="760.3672" y2="760.3672"/><line style="stroke:#000000;stroke-width:1;" x1="576.3223" x2="769" y1="778.9883" y2="778.9883"/><line style="stroke:#000000;stroke-width:1;" x1="576.3223" x2="769" y1="797.6094" y2="797.6094"/><line style="stroke:#000000;stroke-width:1;" x1="576.3223" x2="576.3223" y1="667.2617" y2="797.6094"/><line style="stroke:#000000;stroke-width:1;" x1="606.9131" x2="606.9131" y1="667.2617" y2="797.6094"/><line style="stroke:#000000;stroke-width:1;" x1="769" x2="769" y1="667.2617" y2="797.6094"/></g><g class="footer" data-source-line="62"><text fill="#000000" font-family="'Segoe UI'" font-size="10" lengthAdjust="spacing" textLength="9.4482" x="211.3994" y="826.4004">\n</text><text fill="#000000" font-family="'Segoe UI'" font-size="10" lengthAdjust="spacing" textLength="351.7529" x="220.8477" y="826.4004">Sistema_Qualidade_de_energia - Diagrama para portifolio (sem dados sensiveis)</text></g><?plantuml-src VPNRRjiu48RlzHIpoSKcHeEruZY7mZNWjIt0m3RfnjlUj8KmbaOo4OfKIQf1Thlltg5oaCGMjGoBuFUJS-0C_PlRKqLGInGgidT2rMYmWXrcTwNHZSgNMce3XydQFpr5JWKsqYLQkMla7GwsL6g2zvk3duksub-2EEx1ccrWILlt80aCPGvLAQadi7lCzRrG9HGeRPyyUMOK6OZ7FI258lTG4sZZzZgAd72y-MYq5TPHXUdV3KgHOqufVucNbm97eq-VrCooVw_ZoNnXlZJ2aMiC0i5RdJTIMtXdXCf4ZSBE_l3AURSadj-IRIeDtWEesR0ej1JwIHX5aafIEHXHxbq4yEqDiEVj2olC4RxvIPWTnjFpwN8yv_6YDcH9ESnGl-3nwSN5dwj7B4KsPEFBoMNYsKfNGea-ER-QBZtPgC8WMMUQDhPdmM8LdqqllE1cPybynPrupD2BuchjdtPpFWyBMr4ApWcFZZPMIvuxPgqFyJ7IA7ewMJZuCNq7W1OgBZQOpMwVptm-XyFr93bDLl0V6yrqLMl5ySD7nmxRptvDEnh2HhIa4T7_FPjBYTQIvSDB6fLf7XrXfJbkF6wDPvfZ2urV9jFrLMWyIJQVdrUayP2bAQVPfMadE1qACgxz3aw6aAeTvJbNTegrw5HdWOtX7jCXpQMkINNuFCGPPvuwVX5ixjj45wdKsHtbdUpofxAENmK7563knW7tFJ3WGHwv7Kir40Hvr4LXoGqKGJ8LtVVWsGymHSb1ejEc9vk6RhIINhhY89yPMjUZGJQvlFWqUpn8OwDyVVPuaCR2w2hTDKL1FITFnxwmbNRafonbXfpbOcq_l7uq2XfoDEBPavCJ_bqQoebxZblk5JXzHuhVsHw_ac-Y3sW43uNb6ngmsWbsWlmghGfHUblA2i_RjlOUH57qExnfFt2x_ckntDnSBzwkh_-vsJvDHss7ilcvxyYsnVtOHn8LchSmq5sQu_clRcGuWPN0aYzq36zLEBB4_ojjt2zU7h_SjL7q7G00?></g></svg>