<?plantuml 1.2026.1?><svg xmlns="http://www.w3.org/2000/svg" xmlns:xlink="http://www.w3.org/1999/xlink" contentStyleType="text/css" data-diagram-type="DESCRIPTION" height="1044px" preserveAspectRatio="none" style="width:756px;height:1044px;background:#FEFEFE;" version="1.1" viewBox="0 0 756 1044" width="756px" zoomAndPan="magnify"><title>**Engineering_Playbook**\n&lt;size:13&gt;Arquitetura e Modulos Principais&lt;/size&gt;\n&lt;size:11&gt;Resumo para portifolio&lt;/size&gt;</title><defs/><g><rect fill="#FEFEFE" height="1044" style="stroke:none;stroke-width:1;" width="756" x="0" y="0"/><g class="title" data-source-line="10"><text fill="#000000" font-family="'Segoe UI'" font-size="22" font-weight="bold" lengthAdjust="spacing" textLength="229.3564" x="75.187" y="38.7402">Engineering_Playbook</text><text fill="#000000" font-family="'Segoe UI'" font-size="22" font-weight="bold" lengthAdjust="spacing" textLength="22.9023" x="304.5435" y="38.7402">\n</text><text fill="#000000" font-family="'Segoe UI'" font-size="13" font-weight="bold" lengthAdjust="spacing" textLength="201.6841" x="327.4458" y="40.999">Arquitetura e Modulos Principais</text><text fill="#000000" font-family="'Segoe UI'" font-size="22" font-weight="bold" lengthAdjust="spacing" textLength="22.9023" x="529.1299" y="38.7402">\n</text><text fill="#000000" font-family="'Segoe UI'" font-size="11" font-weight="bold" lengthAdjust="spacing" textLength="119.7808" x="552.0322" y="41.501">Resumo para portifolio</text></g><!--cluster main--><g class="cluster" data-qualified-name="main" data-source-line="22" id="ent0002"><rect fill="#E3F2FD" height="791" rx="5" ry="5" style="stroke:#000000;stroke-width:1;" width="260" x="187" y="62.2617"/><text fill="#000000" font-family="'Segoe UI'" font-size="11" font-style="italic" lengthAdjust="spacing" textLength="57.7285" x="288.1357" y="76.1318">&#171;Rectangle&#187;</text><text fill="#000000" font-family="'Segoe UI'" font-size="11" font-weight="bold" lengthAdjust="spacing" textLength="98.4683" x="267.7659" y="90.7627">Modulos Principais</text></g><!--cluster code--><g class="cluster" data-qualified-name="code" data-source-line="33" id="ent0011"><rect fill="#E8F5E9" height="125" rx="5" ry="5" style="stroke:#000000;stroke-width:1;" width="263" x="487" y="203.2617"/><text fill="#000000" font-family="'Segoe UI'" font-size="11" font-style="italic" lengthAdjust="spacing" textLength="57.7285" x="589.6357" y="217.1318">&#171;Rectangle&#187;</text><text fill="#000000" font-family="'Segoe UI'" font-size="11" font-weight="bold" lengthAdjust="spacing" textLength="143.5156" x="546.7422" y="231.7627">Classes e Funcoes (amostra)</text></g><!--entity .cursor--><g class="entity" data-qualified-name="main..cursor" data-source-line="23" id="ent0003"><rect fill="#FFFFFF" height="44.6309" rx="5" ry="5" style="stroke:#000000;stroke-width:1;" width="72.4521" x="332" y="118.2617"/><rect fill="#FFFFFF" height="10" style="stroke:#000000;stroke-width:1;" width="15" x="384.4521" y="123.2617"/><rect fill="#FFFFFF" height="2" style="stroke:#000000;stroke-width:1;" width="4" x="382.4521" y="125.2617"/><rect fill="#FFFFFF" height="2" style="stroke:#000000;stroke-width:1;" width="4" x="382.4521" y="129.2617"/><text fill="#000000" font-family="'Segoe UI'" font-size="11" lengthAdjust="spacing" textLength="32.4521" x="347" y="150.1318">.cursor</text></g><!--entity checklists--><g class="entity" data-qualified-name="main.checklists" data-source-line="24" id="ent0004"><rect fill="#FFFFFF" height="44.6309" rx="5" ry="5" style="stroke:#000000;stroke-width:1;" width="85.998" x="211" y="118.2617"/><rect fill="#FFFFFF" height="10" style="stroke:#000000;stroke-width:1;" width="15" x="276.998" y="123.2617"/><rect fill="#FFFFFF" height="2" style="stroke:#000000;stroke-width:1;" width="4" x="274.998" y="125.2617"/><rect fill="#FFFFFF" height="2" style="stroke:#000000;stroke-width:1;" width="4" x="274.998" y="129.2617"/><text fill="#000000" font-family="'Segoe UI'" font-size="11" lengthAdjust="spacing" textLength="45.998" x="226" y="150.1318">checklists</text></g><!--entity cloud--><g class="entity" data-qualified-name="main.cloud" data-source-line="25" id="ent0005"><rect fill="#FFFFFF" height="44.6309" rx="5" ry="5" style="stroke:#000000;stroke-width:1;" width="66.8931" x="222.5" y="259.2617"/><rect fill="#FFFFFF" height="10" style="stroke:#000000;stroke-width:1;" width="15" x="269.3931" y="264.2617"/><rect fill="#FFFFFF" height="2" style="stroke:#000000;stroke-width:1;" width="4" x="267.3931" y="266.2617"/><rect fill="#FFFFFF" height="2" style="stroke:#000000;stroke-width:1;" width="4" x="267.3931" y="270.2617"/><text fill="#000000" font-family="'Segoe UI'" font-size="11" lengthAdjust="spacing" textLength="26.8931" x="237.5" y="291.1318">cloud</text></g><!--entity context--><g class="entity" data-qualified-name="main.context" data-source-line="26" id="ent0006"><rect fill="#FFFFFF" height="44.6309" rx="5" ry="5" style="stroke:#000000;stroke-width:1;" width="76.0078" x="219" y="364.2617"/><rect fill="#FFFFFF" height="10" style="stroke:#000000;stroke-width:1;" width="15" x="275.0078" y="369.2617"/><rect fill="#FFFFFF" height="2" style="stroke:#000000;stroke-width:1;" width="4" x="273.0078" y="371.2617"/><rect fill="#FFFFFF" height="2" style="stroke:#000000;stroke-width:1;" width="4" x="273.0078" y="375.2617"/><text fill="#000000" font-family="'Segoe UI'" font-size="11" lengthAdjust="spacing" textLength="36.0078" x="234" y="396.1318">context</text></g><!--entity databases--><g class="entity" data-qualified-name="main.databases" data-source-line="27" id="ent0007"><rect fill="#FFFFFF" height="44.6309" rx="5" ry="5" style="stroke:#000000;stroke-width:1;" width="88.5493" x="214.5" y="469.2617"/><rect fill="#FFFFFF" height="10" style="stroke:#000000;stroke-width:1;" width="15" x="283.0493" y="474.2617"/><rect fill="#FFFFFF" height="2" style="stroke:#000000;stroke-width:1;" width="4" x="281.0493" y="476.2617"/><rect fill="#FFFFFF" height="2" style="stroke:#000000;stroke-width:1;" width="4" x="281.0493" y="480.2617"/><text fill="#000000" font-family="'Segoe UI'" font-size="11" lengthAdjust="spacing" textLength="48.5493" x="229.5" y="501.1318">databases</text></g><!--entity enforcement--><g class="entity" data-qualified-name="main.enforcement" data-source-line="28" id="ent0008"><rect fill="#FFFFFF" height="44.6309" rx="5" ry="5" style="stroke:#000000;stroke-width:1;" width="101.7031" x="211" y="574.2617"/><rect fill="#FFFFFF" height="10" style="stroke:#000000;stroke-width:1;" width="15" x="292.7031" y="579.2617"/><rect fill="#FFFFFF" height="2" style="stroke:#000000;stroke-width:1;" width="4" x="290.7031" y="581.2617"/><rect fill="#FFFFFF" height="2" style="stroke:#000000;stroke-width:1;" width="4" x="290.7031" y="585.2617"/><text fill="#000000" font-family="'Segoe UI'" font-size="11" lengthAdjust="spacing" textLength="61.7031" x="226" y="606.1318">enforcement</text></g><!--entity packs--><g class="entity" data-qualified-name="main.packs" data-source-line="29" id="ent0009"><rect fill="#FFFFFF" height="44.6309" rx="5" ry="5" style="stroke:#000000;stroke-width:1;" width="67.2798" x="228.5" y="679.2617"/><rect fill="#FFFFFF" height="10" style="stroke:#000000;stroke-width:1;" width="15" x="275.7798" y="684.2617"/><rect fill="#FFFFFF" height="2" style="stroke:#000000;stroke-width:1;" width="4" x="273.7798" y="686.2617"/><rect fill="#FFFFFF" height="2" style="stroke:#000000;stroke-width:1;" width="4" x="273.7798" y="690.2617"/><text fill="#000000" font-family="'Segoe UI'" font-size="11" lengthAdjust="spacing" textLength="27.2798" x="243.5" y="711.1318">packs</text></g><!--entity templates--><g class="entity" data-qualified-name="main.templates" data-source-line="30" id="ent0010"><rect fill="#FFFFFF" height="44.6309" rx="5" ry="5" style="stroke:#000000;stroke-width:1;" width="87.8296" x="218" y="784.2617"/><rect fill="#FFFFFF" height="10" style="stroke:#000000;stroke-width:1;" width="15" x="285.8296" y="789.2617"/><rect fill="#FFFFFF" height="2" style="stroke:#000000;stroke-width:1;" width="4" x="283.8296" y="791.2617"/><rect fill="#FFFFFF" height="2" style="stroke:#000000;stroke-width:1;" width="4" x="283.8296" y="795.2617"/><text fill="#000000" font-family="'Segoe UI'" font-size="11" lengthAdjust="spacing" textLength="47.8296" x="233" y="816.1318">templates</text></g><!--entity code_1--><g class="entity" data-qualified-name="code.code_1" data-source-line="34" id="ent0012"><rect fill="#FFFFFF" height="44.6309" rx="5" ry="5" style="stroke:#000000;stroke-width:1;" width="196.0303" x="530" y="259.2617"/><rect fill="#FFFFFF" height="10" style="stroke:#000000;stroke-width:1;" width="15" x="706.0303" y="264.2617"/><rect fill="#FFFFFF" height="2" style="stroke:#000000;stroke-width:1;" width="4" x="704.0303" y="266.2617"/><rect fill="#FFFFFF" height="2" style="stroke:#000000;stroke-width:1;" width="4" x="704.0303" y="270.2617"/><text fill="#000000" font-family="'Segoe UI'" font-size="11" lengthAdjust="spacing" textLength="156.0303" x="545" y="291.1318">Classes/Funcoes nao detectadas</text></g><g class="entity" data-qualified-name="secrets" data-source-line="38" id="ent0013"><path d="M11,107.2617 L11,173.7852 A5,5 0 0 0 16,178.7852 L158.189,178.7852 A5,5 0 0 0 163.189,173.7852 L163.189,112.2617 L153.189,102.2617 L16,102.2617 A5,5 0 0 0 11,107.2617" fill="#EEEEEE" style="stroke:#000000;stroke-width:1;"/><path d="M153.189,102.2617 L153.189,109.7617 A2.5,2.5 0 0 0 155.689,112.2617 L163.189,112.2617 L153.189,102.2617" fill="#EEEEEE" style="stroke:#000000;stroke-width:1;"/><text fill="#000000" font-family="'Segoe UI'" font-size="11" font-weight="bold" lengthAdjust="spacing" textLength="80.9209" x="17" y="119.1318">Dados Sigilosos</text><line style="stroke:#000000;stroke-width:1;" x1="12" x2="162.189" y1="121.8926" y2="121.8926"/><text fill="#000000" font-family="'Segoe UI'" font-size="11" lengthAdjust="spacing" textLength="131.189" x="17" y="137.7627">Credenciais, tokens, chaves</text><text fill="#000000" font-family="'Segoe UI'" font-size="11" lengthAdjust="spacing" textLength="106.7827" x="17" y="152.3936">Variaveis de ambiente</text><text fill="#000000" font-family="'Segoe UI'" font-size="11" lengthAdjust="spacing" textLength="82.0757" x="17" y="167.0244">Configs sensiveis</text></g><!--link checklists to cloud--><g class="link" data-entity-1="ent0004" data-entity-2="ent0005" data-link-type="dependency" data-source-line="47" id="lnk14"><path d="M256,163.4117 C256,189.7317 256,226.8717 256,253.1617" fill="none" id="checklists-to-cloud" style="stroke:#000000;stroke-width:1;"/><polygon fill="#000000" points="256,259.1617,260,250.1617,256,254.1617,252,250.1617,256,259.1617" style="stroke:#000000;stroke-width:1;"/></g><!--link cloud to context--><g class="link" data-entity-1="ent0005" data-entity-2="ent0006" data-link-type="dependency" data-source-line="48" id="lnk15"><path d="M256,304.2917 C256,321.8817 256,340.2317 256,357.9117" fill="none" id="cloud-to-context" style="stroke:#000000;stroke-width:1;"/><polygon fill="#000000" points="256,363.9117,260,354.9117,256,358.9117,252,354.9117,256,363.9117" style="stroke:#000000;stroke-width:1;"/></g><!--link context to databases--><g class="link" data-entity-1="ent0006" data-entity-2="ent0007" data-link-type="dependency" data-source-line="49" id="lnk16"><path d="M257,409.2917 C257,426.8817 257,445.2317 257,462.9117" fill="none" id="context-to-databases" style="stroke:#000000;stroke-width:1;"/><polygon fill="#000000" points="257,468.9117,261,459.9117,257,463.9117,253,459.9117,257,468.9117" style="stroke:#000000;stroke-width:1;"/></g><!--link databases to enforcement--><g class="link" data-entity-1="ent0007" data-entity-2="ent0008" data-link-type="dependency" data-source-line="50" id="lnk17"><path d="M259,514.2917 C259,531.8817 259,550.2317 259,567.9117" fill="none" id="databases-to-enforcement" style="stroke:#000000;stroke-width:1;"/><polygon fill="#000000" points="259,573.9117,263,564.9117,259,568.9117,255,564.9117,259,573.9117" style="stroke:#000000;stroke-width:1;"/></g><!--link enforcement to packs--><g class="link" data-entity-1="ent0008" data-entity-2="ent0009" data-link-type="dependency" data-source-line="51" id="lnk18"><path d="M262,619.2917 C262,636.8817 262,655.2317 262,672.9117" fill="none" id="enforcement-to-packs" style="stroke:#000000;stroke-width:1;"/><polygon fill="#000000" points="262,678.9117,266,669.9117,262,673.9117,258,669.9117,262,678.9117" style="stroke:#000000;stroke-width:1;"/></g><!--link packs to templates--><g class="link" data-entity-1="ent0009" data-entity-2="ent0010" data-link-type="dependency" data-source-line="52" id="lnk19"><path d="M262,724.2917 C262,741.8817 262,760.2317 262,777.9117" fill="none" id="packs-to-templates" style="stroke:#000000;stroke-width:1;"/><polygon fill="#000000" points="262,783.9117,266,774.9117,262,778.9117,258,774.9117,262,783.9117" style="stroke:#000000;stroke-width:1;"/></g><!--link main to code--><g class="link" data-entity-1="ent0002" data-entity-2="ent0011" data-link-type="dependency" data-source-line="53" id="lnk20"><path d="M447.0921,141.2617 C447.1693,141.2617 447.2469,141.2617 447.3249,141.2617 C447.9489,141.2617 448.5993,141.2617 449.273,141.2617 C454.6622,141.2617 461.5394,141.2617 468.3138,141.2617 C481.8625,141.2617 495,141.2617 495,141.2617 C495,141.2617 495,149.503 495,161.9936 C495,168.2389 495,175.5466 495,183.4176 C495,187.3531 495,191.4294 495,195.5842 C495,197.6617 495,199.7587 495,201.8675 C495,202.1311 495,196.3949 495,196.6589" fill="none" id="main-to-code" style="stroke:#000000;stroke-width:1;"/><polygon fill="#000000" points="495,202.6589,499,193.6589,495,197.6589,491,193.6589,495,202.6589" style="stroke:#000000;stroke-width:1;"/></g><g class="legend" data-source-line="12"><rect fill="none" height="144.3477" rx="5" ry="5" style="stroke:#000000;stroke-width:1;" width="202.6777" x="534.3223" y="863.2617"/><text fill="#000000" font-family="'Segoe UI'" font-size="14" font-weight="bold" lengthAdjust="spacing" textLength="22.8662" x="543.1846" y="885.3691">Cor</text><text fill="#000000" font-family="'Segoe UI'" font-size="14" font-weight="bold" lengthAdjust="spacing" textLength="52.8281" x="573.7754" y="885.3691">Camada</text><rect fill="#1565C0" height="18.6211" style="stroke:none;stroke-width:1;" width="30.5908" x="539.3223" y="888.8828"/><text fill="#000000" font-family="'Segoe UI'" font-size="14" lengthAdjust="spacing" textLength="3.835" x="539.3223" y="903.9902">&#160;</text><text fill="#000000" font-family="'Segoe UI'" font-size="14" lengthAdjust="spacing" textLength="84.2939" x="573.748" y="903.9902">Apresentacao</text><rect fill="#0277BD" height="18.6211" style="stroke:none;stroke-width:1;" width="30.5908" x="539.3223" y="907.5039"/><text fill="#000000" font-family="'Segoe UI'" font-size="14" lengthAdjust="spacing" textLength="3.835" x="539.3223" y="922.6113">&#160;</text><text fill="#000000" font-family="'Segoe UI'" font-size="14" lengthAdjust="spacing" textLength="59.4248" x="573.748" y="922.6113">Aplicacao</text><rect fill="#00838F" height="18.6211" style="stroke:none;stroke-width:1;" width="30.5908" x="539.3223" y="926.125"/><text fill="#000000" font-family="'Segoe UI'" font-size="14" lengthAdjust="spacing" textLength="3.835" x="539.3223" y="941.2324">&#160;</text><text fill="#000000" font-family="'Segoe UI'" font-size="14" lengthAdjust="spacing" textLength="52.9854" x="573.748" y="941.2324">Dominio</text><rect fill="#00695C" height="18.6211" style="stroke:none;stroke-width:1;" width="30.5908" x="539.3223" y="944.7461"/><text fill="#000000" font-family="'Segoe UI'" font-size="14" lengthAdjust="spacing" textLength="3.835" x="539.3223" y="959.8535">&#160;</text><text fill="#000000" font-family="'Segoe UI'" font-size="14" lengthAdjust="spacing" textLength="83.4736" x="573.748" y="959.8535">Infraestrutura</text><rect fill="#AD1457" height="18.6211" style="stroke:none;stroke-width:1;" width="30.5908" x="539.3223" y="963.3672"/><text fill="#000000" font-family="'Segoe UI'" font-size="14" lengthAdjust="spacing" textLength="3.835" x="539.3223" y="978.4746">&#160;</text><text fill="#000000" font-family="'Segoe UI'" font-size="14" lengthAdjust="spacing" textLength="100.0781" x="573.748" y="978.4746">Observabilidade</text><rect fill="#9E9E9E" height="18.6211" style="stroke:none;stroke-width:1;" width="30.5908" x="539.3223" y="981.9883"/><text fill="#000000" font-family="'Segoe UI'" font-size="14" lengthAdjust="spacing" textLength="3.835" x="539.3223" y="997.0957">&#160;</text><text fill="#000000" font-family="'Segoe UI'" font-size="14" lengthAdjust="spacing" textLength="154.417" x="573.748" y="997.0957">Dados Sigilosos (Isolado)</text><line style="stroke:#000000;stroke-width:1;" x1="539.3223" x2="732" y1="870.2617" y2="870.2617"/><line style="stroke:#000000;stroke-width:1;" x1="539.3223" x2="732" y1="888.8828" y2="888.8828"/><line style="stroke:#000000;stroke-width:1;" x1="539.3223" x2="732" y1="907.5039" y2="907.5039"/><line style="stroke:#000000;stroke-width:1;" x1="539.3223" x2="732" y1="926.125" y2="926.125"/><line style="stroke:#000000;stroke-width:1;" x1="539.3223" x2="732" y1="944.7461" y2="944.7461"/><line style="stroke:#000000;stroke-width:1;" x1="539.3223" x2="732" y1="963.3672" y2="963.3672"/><line style="stroke:#000000;stroke-width:1;" x1="539.3223" x2="732" y1="981.9883" y2="981.9883"/><line style="stroke:#000000;stroke-width:1;" x1="539.3223" x2="732" y1="1000.6094" y2="1000.6094"/><line style="stroke:#000000;stroke-width:1;" x1="539.3223" x2="539.3223" y1="870.2617" y2="1000.6094"/><line style="stroke:#000000;stroke-width:1;" x1="569.9131" x2="569.9131" y1="870.2617" y2="1000.6094"/><line style="stroke:#000000;stroke-width:1;" x1="732" x2="732" y1="870.2617" y2="1000.6094"/></g><g class="footer" data-source-line="54"><text fill="#000000" font-family="'Segoe UI'" font-size="10" lengthAdjust="spacing" textLength="9.4482" x="212.311" y="1029.4004">\n</text><text fill="#000000" font-family="'Segoe UI'" font-size="10" lengthAdjust="spacing" textLength="312.9297" x="221.7593" y="1029.4004">Engineering_Playbook - Diagrama para portifolio (sem dados sensiveis)</text></g><?plantuml-src RLJRRjim37ttLt3fmrfZtU9swML80sIv007M2vfjB-jGC3RZ296bJ9AxTUl-VPJi9avM6x0edYEI8cc-SWig25OIXOhiKgWL6YnWXkaoDxfKsK1BRM1lFF9lWv7H74lfnbgvAsGBhIdbck3BfFKoQIf-4oH90ron3ynfwXubWQ7KeSebDGXsWPd-ALGESvIsYTIH6KK6adO3a4AHUrmHQECMEegSS6myZaSgPuGC6xk_aVWuqtePntTtgcivhW_9SQzlVfJ2aIiD0i6bpagfBTpmYLIiKDZkEy_iROualLkoPQ71UuOLEnHpBOMkYL4aAIULWH7vmaK0JnV04OS52ymGdhmIkdj9vwGpQFTOxgyCML8EKzHhk7rqUlfnMC5IfDjO--puREoneIw44atavBmpyCX4pGsITQOCTticz8V9-ywf9rpFB9a7d0afCinepJWV-JSOvpfOc8fSS4vOsfzOBLbtm5n_nUgcKLHN55h_fwy5QA7W9eDkz_QvrhqUx8sEnqVZ8VnXfwakLbhn_U7RsxGqLfll_bGjRnFI1QLBAQopWRFPxj2aBhEAuQKTaDkIVhaAhkHjGeOEPsYfyh7URPD8pRL9-ITIbQN6VfleirDP2j8swAZWVz3LhjQxw6yZgmE9bjrpUuvBbMgMzh7GN5ayQ5LtuEhjflTit1cTxwQtjlJksOxYdih8-OCPrXbbO_U9zw-q8w-nb1fobcs6Xot6yKvdn35h3myF-Jimb14Ndsl_1fnUak8rNU13oDzND895mLbbsyLCS5ZaJsar5xdtfQpmUEWl7q4KHQ_X8ZnmE_hK7qokh_gNewlFrzDQ7MsQW6FerHKFtsfVbxXUWsvJqxKKzCqYDkI0LTKBtx3V52lqT-KgesYkEMm3cudHxhqqXk0GXW9pdbwuEqfWtn8FqP3ZTKOErWCcYlu1?></g></svg>