<?plantuml 1.2026.1?><svg xmlns="http://www.w3.org/2000/svg" xmlns:xlink="http://www.w3.org/1999/xlink" contentStyleType="text/css" data-diagram-type="DESCRIPTION" height="834px" preserveAspectRatio="none" style="width:1137px;height:834px;background:#FEFEFE;" version="1.1" viewBox="0 0 1137 834" width="1137px" zoomAndPan="magnify"><title>**Programs-Gerson**\n&lt;size:13&gt;Arquitetura e Modulos Principais&lt;/size&gt;\n&lt;size:11&gt;Resumo para portifolio&lt;/size&gt;</title><defs/><g><rect fill="#FEFEFE" height="834" style="stroke:none;stroke-width:1;" width="1137" x="0" y="0"/><g class="title" data-source-line="10"><text fill="#000000" font-family="'Segoe UI'" font-size="22" font-weight="bold" lengthAdjust="spacing" textLength="181.3926" x="289.6689" y="38.7402">Programs-Gerson</text><text fill="#000000" font-family="'Segoe UI'" font-size="22" font-weight="bold" lengthAdjust="spacing" textLength="22.9023" x="471.0615" y="38.7402">\n</text><text fill="#000000" font-family="'Segoe UI'" font-size="13" font-weight="bold" lengthAdjust="spacing" textLength="201.6841" x="493.9639" y="40.999">Arquitetura e Modulos Principais</text><text fill="#000000" font-family="'Segoe UI'" font-size="22" font-weight="bold" lengthAdjust="spacing" textLength="22.9023" x="695.6479" y="38.7402">\n</text><text fill="#000000" font-family="'Segoe UI'" font-size="11" font-weight="bold" lengthAdjust="spacing" textLength="119.7808" x="718.5503" y="41.501">Resumo para portifolio</text></g><!--cluster main--><g class="cluster" data-qualified-name="main" data-source-line="22" id="ent0002"><rect fill="#E3F2FD" height="581" rx="5" ry="5" style="stroke:#000000;stroke-width:1;" width="377" x="12" y="62.2617"/><text fill="#000000" font-family="'Segoe UI'" font-size="11" font-style="italic" lengthAdjust="spacing" textLength="57.7285" x="171.6357" y="76.1318">&#171;Rectangle&#187;</text><text fill="#000000" font-family="'Segoe UI'" font-size="11" font-weight="bold" lengthAdjust="spacing" textLength="98.4683" x="151.2659" y="90.7627">Modulos Principais</text></g><!--cluster code--><g class="cluster" data-qualified-name="code" data-source-line="30" id="ent0008"><rect fill="#E8F5E9" height="440" rx="5" ry="5" style="stroke:#000000;stroke-width:1;" width="702" x="429" y="203.2617"/><text fill="#000000" font-family="'Segoe UI'" font-size="11" font-style="italic" lengthAdjust="spacing" textLength="57.7285" x="751.1357" y="217.1318">&#171;Rectangle&#187;</text><text fill="#000000" font-family="'Segoe UI'" font-size="11" font-weight="bold" lengthAdjust="spacing" textLength="143.5156" x="708.2422" y="231.7627">Classes e Funcoes (amostra)</text></g><!--entity extracao_criacao_bd_componentes--><g class="entity" data-qualified-name="main.extracao_criacao_bd_componentes" data-source-line="23" id="ent0003"><rect fill="#FFFFFF" height="44.6309" rx="5" ry="5" style="stroke:#000000;stroke-width:1;" width="309.7739" x="36" y="118.2617"/><rect fill="#FFFFFF" height="10" style="stroke:#000000;stroke-width:1;" width="15" x="325.7739" y="123.2617"/><rect fill="#FFFFFF" height="2" style="stroke:#000000;stroke-width:1;" width="4" x="323.7739" y="125.2617"/><rect fill="#FFFFFF" height="2" style="stroke:#000000;stroke-width:1;" width="4" x="323.7739" y="129.2617"/><text fill="#000000" font-family="'Segoe UI'" font-size="11" lengthAdjust="spacing" textLength="269.7739" x="51" y="150.1318">Extra&#231;&#227;o e cria&#231;&#227;o de Banco de Dados De componentes</text></g><!--entity programa_inteligencia_computacional--><g class="entity" data-qualified-name="main.programa_inteligencia_computacional" data-source-line="24" id="ent0004"><rect fill="#FFFFFF" height="44.6309" rx="5" ry="5" style="stroke:#000000;stroke-width:1;" width="220.877" x="80.5" y="259.2617"/><rect fill="#FFFFFF" height="10" style="stroke:#000000;stroke-width:1;" width="15" x="281.377" y="264.2617"/><rect fill="#FFFFFF" height="2" style="stroke:#000000;stroke-width:1;" width="4" x="279.377" y="266.2617"/><rect fill="#FFFFFF" height="2" style="stroke:#000000;stroke-width:1;" width="4" x="279.377" y="270.2617"/><text fill="#000000" font-family="'Segoe UI'" font-size="11" lengthAdjust="spacing" textLength="180.877" x="95.5" y="291.1318">Programa Inteligencia computacional</text></g><!--entity raspagem_copasa--><g class="entity" data-qualified-name="main.raspagem_copasa" data-source-line="25" id="ent0005"><rect fill="#FFFFFF" height="44.6309" rx="5" ry="5" style="stroke:#000000;stroke-width:1;" width="127.479" x="127.5" y="364.2617"/><rect fill="#FFFFFF" height="10" style="stroke:#000000;stroke-width:1;" width="15" x="234.979" y="369.2617"/><rect fill="#FFFFFF" height="2" style="stroke:#000000;stroke-width:1;" width="4" x="232.979" y="371.2617"/><rect fill="#FFFFFF" height="2" style="stroke:#000000;stroke-width:1;" width="4" x="232.979" y="375.2617"/><text fill="#000000" font-family="'Segoe UI'" font-size="11" lengthAdjust="spacing" textLength="87.479" x="142.5" y="396.1318">Raspagem copasa</text></g><!--entity sistema_colmeia_copia--><g class="entity" data-qualified-name="main.sistema_colmeia_copia" data-source-line="26" id="ent0006"><rect fill="#FFFFFF" height="44.6309" rx="5" ry="5" style="stroke:#000000;stroke-width:1;" width="160.3179" x="111" y="469.2617"/><rect fill="#FFFFFF" height="10" style="stroke:#000000;stroke-width:1;" width="15" x="251.3179" y="474.2617"/><rect fill="#FFFFFF" height="2" style="stroke:#000000;stroke-width:1;" width="4" x="249.3179" y="476.2617"/><rect fill="#FFFFFF" height="2" style="stroke:#000000;stroke-width:1;" width="4" x="249.3179" y="480.2617"/><text fill="#000000" font-family="'Segoe UI'" font-size="11" lengthAdjust="spacing" textLength="120.3179" x="126" y="501.1318">Sistema ColmeIA - Copia</text></g><!--entity sistema_gerson--><g class="entity" data-qualified-name="main.sistema_gerson" data-source-line="27" id="ent0007"><rect fill="#FFFFFF" height="44.6309" rx="5" ry="5" style="stroke:#000000;stroke-width:1;" width="115.2007" x="133.5" y="574.2617"/><rect fill="#FFFFFF" height="10" style="stroke:#000000;stroke-width:1;" width="15" x="228.7007" y="579.2617"/><rect fill="#FFFFFF" height="2" style="stroke:#000000;stroke-width:1;" width="4" x="226.7007" y="581.2617"/><rect fill="#FFFFFF" height="2" style="stroke:#000000;stroke-width:1;" width="4" x="226.7007" y="585.2617"/><text fill="#000000" font-family="'Segoe UI'" font-size="11" lengthAdjust="spacing" textLength="75.2007" x="148.5" y="606.1318">Sistema Gerson</text></g><!--entity code_1--><g class="entity" data-qualified-name="code.code_1" data-source-line="31" id="ent0009"><rect fill="#FFFFFF" height="44.6309" rx="5" ry="5" style="stroke:#000000;stroke-width:1;" width="131.9478" x="472" y="259.2617"/><rect fill="#FFFFFF" height="10" style="stroke:#000000;stroke-width:1;" width="15" x="583.9478" y="264.2617"/><rect fill="#FFFFFF" height="2" style="stroke:#000000;stroke-width:1;" width="4" x="581.9478" y="266.2617"/><rect fill="#FFFFFF" height="2" style="stroke:#000000;stroke-width:1;" width="4" x="581.9478" y="270.2617"/><text fill="#000000" font-family="'Segoe UI'" font-size="11" lengthAdjust="spacing" textLength="91.9478" x="487" y="291.1318">model_exponential</text></g><!--entity code_2--><g class="entity" data-qualified-name="code.code_2" data-source-line="32" id="ent0010"><rect fill="#FFFFFF" height="44.6309" rx="5" ry="5" style="stroke:#000000;stroke-width:1;" width="150.5479" x="639.5" y="259.2617"/><rect fill="#FFFFFF" height="10" style="stroke:#000000;stroke-width:1;" width="15" x="770.0479" y="264.2617"/><rect fill="#FFFFFF" height="2" style="stroke:#000000;stroke-width:1;" width="4" x="768.0479" y="266.2617"/><rect fill="#FFFFFF" height="2" style="stroke:#000000;stroke-width:1;" width="4" x="768.0479" y="270.2617"/><text fill="#000000" font-family="'Segoe UI'" font-size="11" lengthAdjust="spacing" textLength="110.5479" x="654.5" y="291.1318">generate_dengue_data</text></g><!--entity code_3--><g class="entity" data-qualified-name="code.code_3" data-source-line="33" id="ent0011"><rect fill="#FFFFFF" height="44.6309" rx="5" ry="5" style="stroke:#000000;stroke-width:1;" width="115.582" x="826" y="259.2617"/><rect fill="#FFFFFF" height="10" style="stroke:#000000;stroke-width:1;" width="15" x="921.582" y="264.2617"/><rect fill="#FFFFFF" height="2" style="stroke:#000000;stroke-width:1;" width="4" x="919.582" y="266.2617"/><rect fill="#FFFFFF" height="2" style="stroke:#000000;stroke-width:1;" width="4" x="919.582" y="270.2617"/><text fill="#000000" font-family="'Segoe UI'" font-size="11" lengthAdjust="spacing" textLength="75.582" x="841" y="291.1318">classify_dengue</text></g><!--entity code_4--><g class="entity" data-qualified-name="code.code_4" data-source-line="34" id="ent0012"><rect fill="#FFFFFF" height="44.6309" rx="5" ry="5" style="stroke:#000000;stroke-width:1;" width="129.3481" x="977.5" y="259.2617"/><rect fill="#FFFFFF" height="10" style="stroke:#000000;stroke-width:1;" width="15" x="1086.8481" y="264.2617"/><rect fill="#FFFFFF" height="2" style="stroke:#000000;stroke-width:1;" width="4" x="1084.8481" y="266.2617"/><rect fill="#FFFFFF" height="2" style="stroke:#000000;stroke-width:1;" width="4" x="1084.8481" y="270.2617"/><text fill="#000000" font-family="'Segoe UI'" font-size="11" lengthAdjust="spacing" textLength="89.3481" x="992.5" y="291.1318">model_polynomial</text></g><!--entity code_5--><g class="entity" data-qualified-name="code.code_5" data-source-line="35" id="ent0013"><rect fill="#FFFFFF" height="44.6309" rx="5" ry="5" style="stroke:#000000;stroke-width:1;" width="66.3022" x="506" y="364.2617"/><rect fill="#FFFFFF" height="10" style="stroke:#000000;stroke-width:1;" width="15" x="552.3022" y="369.2617"/><rect fill="#FFFFFF" height="2" style="stroke:#000000;stroke-width:1;" width="4" x="550.3022" y="371.2617"/><rect fill="#FFFFFF" height="2" style="stroke:#000000;stroke-width:1;" width="4" x="550.3022" y="375.2617"/><text fill="#000000" font-family="'Segoe UI'" font-size="11" lengthAdjust="spacing" textLength="26.3022" x="521" y="396.1318">views</text></g><!--entity code_6--><g class="entity" data-qualified-name="code.code_6" data-source-line="36" id="ent0014"><rect fill="#FFFFFF" height="44.6309" rx="5" ry="5" style="stroke:#000000;stroke-width:1;" width="140.042" x="607" y="364.2617"/><rect fill="#FFFFFF" height="10" style="stroke:#000000;stroke-width:1;" width="15" x="727.042" y="369.2617"/><rect fill="#FFFFFF" height="2" style="stroke:#000000;stroke-width:1;" width="4" x="725.042" y="371.2617"/><rect fill="#FFFFFF" height="2" style="stroke:#000000;stroke-width:1;" width="4" x="725.042" y="375.2617"/><text fill="#000000" font-family="'Segoe UI'" font-size="11" lengthAdjust="spacing" textLength="100.042" x="622" y="396.1318">parse_reading_string</text></g><!--entity code_7--><g class="entity" data-qualified-name="code.code_7" data-source-line="37" id="ent0015"><rect fill="#FFFFFF" height="44.6309" rx="5" ry="5" style="stroke:#000000;stroke-width:1;" width="90.6763" x="782.5" y="364.2617"/><rect fill="#FFFFFF" height="10" style="stroke:#000000;stroke-width:1;" width="15" x="853.1763" y="369.2617"/><rect fill="#FFFFFF" height="2" style="stroke:#000000;stroke-width:1;" width="4" x="851.1763" y="371.2617"/><rect fill="#FFFFFF" height="2" style="stroke:#000000;stroke-width:1;" width="4" x="851.1763" y="375.2617"/><text fill="#000000" font-family="'Segoe UI'" font-size="11" lengthAdjust="spacing" textLength="50.6763" x="797.5" y="396.1318">login_view</text></g><!--entity code_8--><g class="entity" data-qualified-name="code.code_8" data-source-line="38" id="ent0016"><rect fill="#FFFFFF" height="44.6309" rx="5" ry="5" style="stroke:#000000;stroke-width:1;" width="87.5986" x="909" y="364.2617"/><rect fill="#FFFFFF" height="10" style="stroke:#000000;stroke-width:1;" width="15" x="976.5986" y="369.2617"/><rect fill="#FFFFFF" height="2" style="stroke:#000000;stroke-width:1;" width="4" x="974.5986" y="371.2617"/><rect fill="#FFFFFF" height="2" style="stroke:#000000;stroke-width:1;" width="4" x="974.5986" y="375.2617"/><text fill="#000000" font-family="'Segoe UI'" font-size="11" lengthAdjust="spacing" textLength="47.5986" x="924" y="396.1318">data_view</text></g><!--entity code_9--><g class="entity" data-qualified-name="code.code_9" data-source-line="39" id="ent0017"><rect fill="#FFFFFF" height="44.6309" rx="5" ry="5" style="stroke:#000000;stroke-width:1;" width="135.7236" x="472" y="469.2617"/><rect fill="#FFFFFF" height="10" style="stroke:#000000;stroke-width:1;" width="15" x="587.7236" y="474.2617"/><rect fill="#FFFFFF" height="2" style="stroke:#000000;stroke-width:1;" width="4" x="585.7236" y="476.2617"/><rect fill="#FFFFFF" height="2" style="stroke:#000000;stroke-width:1;" width="4" x="585.7236" y="480.2617"/><text fill="#000000" font-family="'Segoe UI'" font-size="11" lengthAdjust="spacing" textLength="95.7236" x="487" y="501.1318">historical_data_view</text></g><!--entity code_10--><g class="entity" data-qualified-name="code.code_10" data-source-line="40" id="ent0018"><rect fill="#FFFFFF" height="44.6309" rx="5" ry="5" style="stroke:#000000;stroke-width:1;" width="100.2959" x="643" y="469.2617"/><rect fill="#FFFFFF" height="10" style="stroke:#000000;stroke-width:1;" width="15" x="723.2959" y="474.2617"/><rect fill="#FFFFFF" height="2" style="stroke:#000000;stroke-width:1;" width="4" x="721.2959" y="476.2617"/><rect fill="#FFFFFF" height="2" style="stroke:#000000;stroke-width:1;" width="4" x="721.2959" y="480.2617"/><text fill="#000000" font-family="'Segoe UI'" font-size="11" lengthAdjust="spacing" textLength="60.2959" x="658" y="501.1318">get_sort_key</text></g><!--entity code_11--><g class="entity" data-qualified-name="code.code_11" data-source-line="41" id="ent0019"><rect fill="#FFFFFF" height="44.6309" rx="5" ry="5" style="stroke:#000000;stroke-width:1;" width="63.9604" x="778" y="469.2617"/><rect fill="#FFFFFF" height="10" style="stroke:#000000;stroke-width:1;" width="15" x="821.9604" y="474.2617"/><rect fill="#FFFFFF" height="2" style="stroke:#000000;stroke-width:1;" width="4" x="819.9604" y="476.2617"/><rect fill="#FFFFFF" height="2" style="stroke:#000000;stroke-width:1;" width="4" x="819.9604" y="480.2617"/><text fill="#000000" font-family="'Segoe UI'" font-size="11" lengthAdjust="spacing" textLength="23.9604" x="793" y="501.1318">main</text></g><!--entity code_12--><g class="entity" data-qualified-name="code.code_12" data-source-line="42" id="ent0020"><rect fill="#FFFFFF" height="44.6309" rx="5" ry="5" style="stroke:#000000;stroke-width:1;" width="94.8979" x="877.5" y="469.2617"/><rect fill="#FFFFFF" height="10" style="stroke:#000000;stroke-width:1;" width="15" x="952.3979" y="474.2617"/><rect fill="#FFFFFF" height="2" style="stroke:#000000;stroke-width:1;" width="4" x="950.3979" y="476.2617"/><rect fill="#FFFFFF" height="2" style="stroke:#000000;stroke-width:1;" width="4" x="950.3979" y="480.2617"/><text fill="#000000" font-family="'Segoe UI'" font-size="11" lengthAdjust="spacing" textLength="54.8979" x="892.5" y="501.1318">CoreConfig</text></g><!--entity code_13--><g class="entity" data-qualified-name="code.code_13" data-source-line="43" id="ent0021"><rect fill="#FFFFFF" height="44.6309" rx="5" ry="5" style="stroke:#000000;stroke-width:1;" width="60.0288" x="510" y="574.2617"/><rect fill="#FFFFFF" height="10" style="stroke:#000000;stroke-width:1;" width="15" x="550.0288" y="579.2617"/><rect fill="#FFFFFF" height="2" style="stroke:#000000;stroke-width:1;" width="4" x="548.0288" y="581.2617"/><rect fill="#FFFFFF" height="2" style="stroke:#000000;stroke-width:1;" width="4" x="548.0288" y="585.2617"/><text fill="#000000" font-family="'Segoe UI'" font-size="11" lengthAdjust="spacing" textLength="20.0288" x="525" y="606.1318">App</text></g><!--entity code_14--><g class="entity" data-qualified-name="code.code_14" data-source-line="44" id="ent0022"><rect fill="#FFFFFF" height="44.6309" rx="5" ry="5" style="stroke:#000000;stroke-width:1;" width="66.9897" x="605.5" y="574.2617"/><rect fill="#FFFFFF" height="10" style="stroke:#000000;stroke-width:1;" width="15" x="652.4897" y="579.2617"/><rect fill="#FFFFFF" height="2" style="stroke:#000000;stroke-width:1;" width="4" x="650.4897" y="581.2617"/><rect fill="#FFFFFF" height="2" style="stroke:#000000;stroke-width:1;" width="4" x="650.4897" y="585.2617"/><text fill="#000000" font-family="'Segoe UI'" font-size="11" lengthAdjust="spacing" textLength="26.9897" x="620.5" y="606.1318">Login</text></g><g class="entity" data-qualified-name="secrets" data-source-line="48" id="ent0023"><path d="M416,107.2617 L416,173.7852 A5,5 0 0 0 421,178.7852 L563.189,178.7852 A5,5 0 0 0 568.189,173.7852 L568.189,112.2617 L558.189,102.2617 L421,102.2617 A5,5 0 0 0 416,107.2617" fill="#EEEEEE" style="stroke:#000000;stroke-width:1;"/><path d="M558.189,102.2617 L558.189,109.7617 A2.5,2.5 0 0 0 560.689,112.2617 L568.189,112.2617 L558.189,102.2617" fill="#EEEEEE" style="stroke:#000000;stroke-width:1;"/><text fill="#000000" font-family="'Segoe UI'" font-size="11" font-weight="bold" lengthAdjust="spacing" textLength="80.9209" x="422" y="119.1318">Dados Sigilosos</text><line style="stroke:#000000;stroke-width:1;" x1="417" x2="567.189" y1="121.8926" y2="121.8926"/><text fill="#000000" font-family="'Segoe UI'" font-size="11" lengthAdjust="spacing" textLength="131.189" x="422" y="137.7627">Credenciais, tokens, chaves</text><text fill="#000000" font-family="'Segoe UI'" font-size="11" lengthAdjust="spacing" textLength="106.7827" x="422" y="152.3936">Variaveis de ambiente</text><text fill="#000000" font-family="'Segoe UI'" font-size="11" lengthAdjust="spacing" textLength="82.0757" x="422" y="167.0244">Configs sensiveis</text></g><!--link extracao_criacao_bd_componentes to programa_inteligencia_computacional--><g class="link" data-entity-1="ent0003" data-entity-2="ent0004" data-link-type="dependency" data-source-line="57" id="lnk24"><path d="M191,163.4117 C191,189.7317 191,226.8717 191,253.1617" fill="none" id="extracao_criacao_bd_componentes-to-programa_inteligencia_computacional" style="stroke:#000000;stroke-width:1;"/><polygon fill="#000000" points="191,259.1617,195,250.1617,191,254.1617,187,250.1617,191,259.1617" style="stroke:#000000;stroke-width:1;"/></g><!--link programa_inteligencia_computacional to raspagem_copasa--><g class="link" data-entity-1="ent0004" data-entity-2="ent0005" data-link-type="dependency" data-source-line="58" id="lnk25"><path d="M191,304.2917 C191,321.8817 191,340.2317 191,357.9117" fill="none" id="programa_inteligencia_computacional-to-raspagem_copasa" style="stroke:#000000;stroke-width:1;"/><polygon fill="#000000" points="191,363.9117,195,354.9117,191,358.9117,187,354.9117,191,363.9117" style="stroke:#000000;stroke-width:1;"/></g><!--link raspagem_copasa to sistema_colmeia_copia--><g class="link" data-entity-1="ent0005" data-entity-2="ent0006" data-link-type="dependency" data-source-line="59" id="lnk26"><path d="M191,409.2917 C191,426.8817 191,445.2317 191,462.9117" fill="none" id="raspagem_copasa-to-sistema_colmeia_copia" style="stroke:#000000;stroke-width:1;"/><polygon fill="#000000" points="191,468.9117,195,459.9117,191,463.9117,187,459.9117,191,468.9117" style="stroke:#000000;stroke-width:1;"/></g><!--link sistema_colmeia_copia to sistema_gerson--><g class="link" data-entity-1="ent0006" data-entity-2="ent0007" data-link-type="dependency" data-source-line="60" id="lnk27"><path d="M191,514.2917 C191,531.8817 191,550.2317 191,567.9117" fill="none" id="sistema_colmeia_copia-to-sistema_gerson" style="stroke:#000000;stroke-width:1;"/><polygon fill="#000000" points="191,573.9117,195,564.9117,191,568.9117,187,564.9117,191,573.9117" style="stroke:#000000;stroke-width:1;"/></g><!--link main to code--><g class="link" data-entity-1="ent0002" data-entity-2="ent0008" data-link-type="dependency" data-source-line="61" id="lnk28"><path d="M389.0302,282.2617 C389.1072,282.2617 389.1846,282.2617 389.2623,282.2617 C394.2403,282.2617 400.9119,282.2617 407.6863,282.2617 C414.4606,282.2617 421.3378,282.2617 426.727,282.2617 C427.4007,282.2617 428.0511,282.2617 428.6751,282.2617 C428.7531,282.2617 422.8307,282.2617 422.9079,282.2617" fill="none" id="main-to-code" style="stroke:#000000;stroke-width:1;"/><polygon fill="#000000" points="428.9079,282.2617,419.9079,278.2617,423.9079,282.2617,419.9079,286.2617,428.9079,282.2617" style="stroke:#000000;stroke-width:1;"/></g><g class="legend" data-source-line="12"><rect fill="none" height="144.3477" rx="5" ry="5" style="stroke:#000000;stroke-width:1;" width="202.6777" x="915.3223" y="653.2617"/><text fill="#000000" font-family="'Segoe UI'" font-size="14" font-weight="bold" lengthAdjust="spacing" textLength="22.8662" x="924.1846" y="675.3691">Cor</text><text fill="#000000" font-family="'Segoe UI'" font-size="14" font-weight="bold" lengthAdjust="spacing" textLength="52.8281" x="954.7754" y="675.3691">Camada</text><rect fill="#1565C0" height="18.6211" style="stroke:none;stroke-width:1;" width="30.5908" x="920.3223" y="678.8828"/><text fill="#000000" font-family="'Segoe UI'" font-size="14" lengthAdjust="spacing" textLength="3.835" x="920.3223" y="693.9902">&#160;</text><text fill="#000000" font-family="'Segoe UI'" font-size="14" lengthAdjust="spacing" textLength="84.2939" x="954.748" y="693.9902">Apresentacao</text><rect fill="#0277BD" height="18.6211" style="stroke:none;stroke-width:1;" width="30.5908" x="920.3223" y="697.5039"/><text fill="#000000" font-family="'Segoe UI'" font-size="14" lengthAdjust="spacing" textLength="3.835" x="920.3223" y="712.6113">&#160;</text><text fill="#000000" font-family="'Segoe UI'" font-size="14" lengthAdjust="spacing" textLength="59.4248" x="954.748" y="712.6113">Aplicacao</text><rect fill="#00838F" height="18.6211" style="stroke:none;stroke-width:1;" width="30.5908" x="920.3223" y="716.125"/><text fill="#000000" font-family="'Segoe UI'" font-size="14" lengthAdjust="spacing" textLength="3.835" x="920.3223" y="731.2324">&#160;</text><text fill="#000000" font-family="'Segoe UI'" font-size="14" lengthAdjust="spacing" textLength="52.9854" x="954.748" y="731.2324">Dominio</text><rect fill="#00695C" height="18.6211" style="stroke:none;stroke-width:1;" width="30.5908" x="920.3223" y="734.7461"/><text fill="#000000" font-family="'Segoe UI'" font-size="14" lengthAdjust="spacing" textLength="3.835" x="920.3223" y="749.8535">&#160;</text><text fill="#000000" font-family="'Segoe UI'" font-size="14" lengthAdjust="spacing" textLength="83.4736" x="954.748" y="749.8535">Infraestrutura</text><rect fill="#AD1457" height="18.6211" style="stroke:none;stroke-width:1;" width="30.5908" x="920.3223" y="753.3672"/><text fill="#000000" font-family="'Segoe UI'" font-size="14" lengthAdjust="spacing" textLength="3.835" x="920.3223" y="768.4746">&#160;</text><text fill="#000000" font-family="'Segoe UI'" font-size="14" lengthAdjust="spacing" textLength="100.0781" x="954.748" y="768.4746">Observabilidade</text><rect fill="#9E9E9E" height="18.6211" style="stroke:none;stroke-width:1;" width="30.5908" x="920.3223" y="771.9883"/><text fill="#000000" font-family="'Segoe UI'" font-size="14" lengthAdjust="spacing" textLength="3.835" x="920.3223" y="787.0957">&#160;</text><text fill="#000000" font-family="'Segoe UI'" font-size="14" lengthAdjust="spacing" textLength="154.417" x="954.748" y="787.0957">Dados Sigilosos (Isolado)</text><line style="stroke:#000000;stroke-width:1;" x1="920.3223" x2="1113" y1="660.2617" y2="660.2617"/><line style="stroke:#000000;stroke-width:1;" x1="920.3223" x2="1113" y1="678.8828" y2="678.8828"/><line style="stroke:#000000;stroke-width:1;" x1="920.3223" x2="1113" y1="697.5039" y2="697.5039"/><line style="stroke:#000000;stroke-width:1;" x1="920.3223" x2="1113" y1="716.125" y2="716.125"/><line style="stroke:#000000;stroke-width:1;" x1="920.3223" x2="1113" y1="734.7461" y2="734.7461"/><line style="stroke:#000000;stroke-width:1;" x1="920.3223" x2="1113" y1="753.3672" y2="753.3672"/><line style="stroke:#000000;stroke-width:1;" x1="920.3223" x2="1113" y1="771.9883" y2="771.9883"/><line style="stroke:#000000;stroke-width:1;" x1="920.3223" x2="1113" y1="790.6094" y2="790.6094"/><line style="stroke:#000000;stroke-width:1;" x1="920.3223" x2="920.3223" y1="660.2617" y2="790.6094"/><line style="stroke:#000000;stroke-width:1;" x1="950.9131" x2="950.9131" y1="660.2617" y2="790.6094"/><line style="stroke:#000000;stroke-width:1;" x1="1113" x2="1113" y1="660.2617" y2="790.6094"/></g><g class="footer" data-source-line="62"><text fill="#000000" font-family="'Segoe UI'" font-size="10" lengthAdjust="spacing" textLength="9.4482" x="412.6548" y="819.4004">\n</text><text fill="#000000" font-family="'Segoe UI'" font-size="10" lengthAdjust="spacing" textLength="293.2422" x="422.103" y="819.4004">Programs-Gerson - Diagrama para portifolio (sem dados sensiveis)</text></g><?plantuml-src ZLNRRjj647tdLspbXzf2XKgsvKkX251qAGGaTc2rVMaAOaIEg86Nk-pkqedQv6loq0_9ZtLsALiaAw2H074rvypEx9cTuNTkYpcAGWAfo3wIAi10BjQGF6P6bogTQgcDE5dC_RV6I743fNGBhTmTy0wT5MOQnQ_Bpd7IYlv2CHZKm89ZG8OhjvCe32OEL2QnHh1RIFK7KfdOWBHrP9-PKMZ4e5y392bqkmA5DcwheyYHuysxtNT6PupRtizeh5RTxlltQcGvfPy65-E9-RCaXwuq852yrMafjHNl3Ac42Y0x-j4pnmUNmVW1RPbhuOEAWcFHHalIUs8KISnGfS9GjdMH49zU2KusF2275CGdRnIZay7mQZZjZtazAGnQL0uIq2zm__pw-lMiWYKbJQn_St6pyDXCvwIeZbpT3gSUMQgD0RJEbE5ipuJ9R70vlFQ4-xL5ymHhafH2YY-Csxd_Xisv15QiA2FMX5UdIwibsywOwuzOdJIAziKKdV_Arn5WHSxtIun63yzb7e_5oVnYSRwOYRyvQABpGYi-l-ZCFpe3N__v-aLpCH93-pLdznfK4XPLKZCyk64L1RqlgnHxF_zSft6DqmoqlnF0CZcKnET820AXv3AGLY33fiMU5rED5pTupOqVm1QiHSws0Yo4JSpU5bUsfiEAh4DEX7ijn-L4z7XLKELeAupz60jn6JdkNjtjXbSMJD7dMe6c4gn5raeiIjQJLwUGQxuaS1PS4yqAjojrinZERrkL-ZrdfepnO_MVGFxnx1yFcapM30quZ5DKMSaFS70WdpV9YK-GDhiz-S2xE1Q-q7Adk0FgqI-Rn2V23_Q03fiezx35s22aF6bYre4V1_9LaonrHYhs6nuerqsAFrkBSTDaRBausd0_o_W8-ROjdOijJvZu4NSrVVijBRYzQcXBVXu-EDLgGxM33LggJugY1hQaVkEFNOCl_OrIsc6uQvWOT9PlIVYmPxVR6XlTBbjxlHx_JWsceOF8_Y2SVaJ5psGBJw4zVmDkt2SawziSyZNvllLU8NiVIrdoU1W-FeCeYhuNhy97FCpVJARB-xl9s_dTB_UhlJdwdwd0YOs_gSc_WHFsQlTwwt_W76_hezO6Vz_GOPnwkwz7jD4iX1675rH_t7hXyKYP4LJZhlNI4gUMHrKQ2lOYxzdBgooA_WK0?></g></svg>