<?plantuml 1.2026.1?><svg xmlns="http://www.w3.org/2000/svg" xmlns:xlink="http://www.w3.org/1999/xlink" contentStyleType="text/css" data-diagram-type="DESCRIPTION" height="834px" preserveAspectRatio="none" style="width:1252px;height:834px;background:#FEFEFE;" version="1.1" viewBox="0 0 1252 834" width="1252px" zoomAndPan="magnify"><title>**IA_mercado_3**\n&lt;size:13&gt;Arquitetura e Modulos Principais&lt;/size&gt;\n&lt;size:11&gt;Resumo para portifolio&lt;/size&gt;</title><defs/><g><rect fill="#FEFEFE" height="834" style="stroke:none;stroke-width:1;" width="1252" x="0" y="0"/><g class="title" data-source-line="10"><text fill="#000000" font-family="'Segoe UI'" font-size="22" font-weight="bold" lengthAdjust="spacing" textLength="143.6338" x="366.0483" y="38.7402">IA_mercado_3</text><text fill="#000000" font-family="'Segoe UI'" font-size="22" font-weight="bold" lengthAdjust="spacing" textLength="22.9023" x="509.6821" y="38.7402">\n</text><text fill="#000000" font-family="'Segoe UI'" font-size="13" font-weight="bold" lengthAdjust="spacing" textLength="201.6841" x="532.5845" y="40.999">Arquitetura e Modulos Principais</text><text fill="#000000" font-family="'Segoe UI'" font-size="22" font-weight="bold" lengthAdjust="spacing" textLength="22.9023" x="734.2686" y="38.7402">\n</text><text fill="#000000" font-family="'Segoe UI'" font-size="11" font-weight="bold" lengthAdjust="spacing" textLength="119.7808" x="757.1709" y="41.501">Resumo para portifolio</text></g><!--cluster main--><g class="cluster" data-qualified-name="main" data-source-line="22" id="ent0002"><rect fill="#E3F2FD" height="266" rx="5" ry="5" style="stroke:#000000;stroke-width:1;" width="324" x="12" y="62.2617"/><text fill="#000000" font-family="'Segoe UI'" font-size="11" font-style="italic" lengthAdjust="spacing" textLength="57.7285" x="145.1357" y="76.1318">&#171;Rectangle&#187;</text><text fill="#000000" font-family="'Segoe UI'" font-size="11" font-weight="bold" lengthAdjust="spacing" textLength="98.4683" x="124.7659" y="90.7627">Modulos Principais</text></g><!--cluster code--><g class="cluster" data-qualified-name="code" data-source-line="29" id="ent0007"><rect fill="#E8F5E9" height="440" rx="5" ry="5" style="stroke:#000000;stroke-width:1;" width="870" x="376" y="203.2617"/><text fill="#000000" font-family="'Segoe UI'" font-size="11" font-style="italic" lengthAdjust="spacing" textLength="57.7285" x="782.1357" y="217.1318">&#171;Rectangle&#187;</text><text fill="#000000" font-family="'Segoe UI'" font-size="11" font-weight="bold" lengthAdjust="spacing" textLength="143.5156" x="739.2422" y="231.7627">Classes e Funcoes (amostra)</text></g><!--entity src--><g class="entity" data-qualified-name="main.src" data-source-line="23" id="ent0003"><rect fill="#FFFFFF" height="44.6309" rx="5" ry="5" style="stroke:#000000;stroke-width:1;" width="53.5728" x="239" y="118.2617"/><rect fill="#FFFFFF" height="10" style="stroke:#000000;stroke-width:1;" width="15" x="272.5728" y="123.2617"/><rect fill="#FFFFFF" height="2" style="stroke:#000000;stroke-width:1;" width="4" x="270.5728" y="125.2617"/><rect fill="#FFFFFF" height="2" style="stroke:#000000;stroke-width:1;" width="4" x="270.5728" y="129.2617"/><text fill="#000000" font-family="'Segoe UI'" font-size="11" lengthAdjust="spacing" textLength="13.5728" x="254" y="150.1318">src</text></g><!--entity models--><g class="entity" data-qualified-name="main.models" data-source-line="24" id="ent0004"><rect fill="#FFFFFF" height="44.6309" rx="5" ry="5" style="stroke:#000000;stroke-width:1;" width="75.4814" x="176.5" y="259.2617"/><rect fill="#FFFFFF" height="10" style="stroke:#000000;stroke-width:1;" width="15" x="231.9814" y="264.2617"/><rect fill="#FFFFFF" height="2" style="stroke:#000000;stroke-width:1;" width="4" x="229.9814" y="266.2617"/><rect fill="#FFFFFF" height="2" style="stroke:#000000;stroke-width:1;" width="4" x="229.9814" y="270.2617"/><text fill="#000000" font-family="'Segoe UI'" font-size="11" lengthAdjust="spacing" textLength="35.4814" x="191.5" y="291.1318">models</text></g><!--entity data--><g class="entity" data-qualified-name="main.data" data-source-line="25" id="ent0005"><rect fill="#FFFFFF" height="44.6309" rx="5" ry="5" style="stroke:#000000;stroke-width:1;" width="61.3984" x="142.5" y="118.2617"/><rect fill="#FFFFFF" height="10" style="stroke:#000000;stroke-width:1;" width="15" x="183.8984" y="123.2617"/><rect fill="#FFFFFF" height="2" style="stroke:#000000;stroke-width:1;" width="4" x="181.8984" y="125.2617"/><rect fill="#FFFFFF" height="2" style="stroke:#000000;stroke-width:1;" width="4" x="181.8984" y="129.2617"/><text fill="#000000" font-family="'Segoe UI'" font-size="11" lengthAdjust="spacing" textLength="21.3984" x="157.5" y="150.1318">data</text></g><!--entity scripts--><g class="entity" data-qualified-name="main.scripts" data-source-line="26" id="ent0006"><rect fill="#FFFFFF" height="44.6309" rx="5" ry="5" style="stroke:#000000;stroke-width:1;" width="71.0986" x="36.5" y="118.2617"/><rect fill="#FFFFFF" height="10" style="stroke:#000000;stroke-width:1;" width="15" x="87.5986" y="123.2617"/><rect fill="#FFFFFF" height="2" style="stroke:#000000;stroke-width:1;" width="4" x="85.5986" y="125.2617"/><rect fill="#FFFFFF" height="2" style="stroke:#000000;stroke-width:1;" width="4" x="85.5986" y="129.2617"/><text fill="#000000" font-family="'Segoe UI'" font-size="11" lengthAdjust="spacing" textLength="31.0986" x="51.5" y="150.1318">scripts</text></g><!--entity code_1--><g class="entity" data-qualified-name="code.code_1" data-source-line="30" id="ent0008"><rect fill="#FFFFFF" height="44.6309" rx="5" ry="5" style="stroke:#000000;stroke-width:1;" width="97.0303" x="430.5" y="259.2617"/><rect fill="#FFFFFF" height="10" style="stroke:#000000;stroke-width:1;" width="15" x="507.5303" y="264.2617"/><rect fill="#FFFFFF" height="2" style="stroke:#000000;stroke-width:1;" width="4" x="505.5303" y="266.2617"/><rect fill="#FFFFFF" height="2" style="stroke:#000000;stroke-width:1;" width="4" x="505.5303" y="270.2617"/><text fill="#000000" font-family="'Segoe UI'" font-size="11" lengthAdjust="spacing" textLength="57.0303" x="445.5" y="291.1318">TradeResult</text></g><!--entity code_2--><g class="entity" data-qualified-name="code.code_2" data-source-line="31" id="ent0009"><rect fill="#FFFFFF" height="44.6309" rx="5" ry="5" style="stroke:#000000;stroke-width:1;" width="72.6885" x="562.5" y="259.2617"/><rect fill="#FFFFFF" height="10" style="stroke:#000000;stroke-width:1;" width="15" x="615.1885" y="264.2617"/><rect fill="#FFFFFF" height="2" style="stroke:#000000;stroke-width:1;" width="4" x="613.1885" y="266.2617"/><rect fill="#FFFFFF" height="2" style="stroke:#000000;stroke-width:1;" width="4" x="613.1885" y="270.2617"/><text fill="#000000" font-family="'Segoe UI'" font-size="11" lengthAdjust="spacing" textLength="32.6885" x="577.5" y="291.1318">to_dict</text></g><!--entity code_3--><g class="entity" data-qualified-name="code.code_3" data-source-line="32" id="ent0010"><rect fill="#FFFFFF" height="44.6309" rx="5" ry="5" style="stroke:#000000;stroke-width:1;" width="116.9678" x="670.5" y="259.2617"/><rect fill="#FFFFFF" height="10" style="stroke:#000000;stroke-width:1;" width="15" x="767.4678" y="264.2617"/><rect fill="#FFFFFF" height="2" style="stroke:#000000;stroke-width:1;" width="4" x="765.4678" y="266.2617"/><rect fill="#FFFFFF" height="2" style="stroke:#000000;stroke-width:1;" width="4" x="765.4678" y="270.2617"/><text fill="#000000" font-family="'Segoe UI'" font-size="11" lengthAdjust="spacing" textLength="76.9678" x="685.5" y="291.1318">_parse_tp_levels</text></g><!--entity code_4--><g class="entity" data-qualified-name="code.code_4" data-source-line="33" id="ent0011"><rect fill="#FFFFFF" height="44.6309" rx="5" ry="5" style="stroke:#000000;stroke-width:1;" width="115.2813" x="822.5" y="259.2617"/><rect fill="#FFFFFF" height="10" style="stroke:#000000;stroke-width:1;" width="15" x="917.7813" y="264.2617"/><rect fill="#FFFFFF" height="2" style="stroke:#000000;stroke-width:1;" width="4" x="915.7813" y="266.2617"/><rect fill="#FFFFFF" height="2" style="stroke:#000000;stroke-width:1;" width="4" x="915.7813" y="270.2617"/><text fill="#000000" font-family="'Segoe UI'" font-size="11" lengthAdjust="spacing" textLength="75.2813" x="837.5" y="291.1318">_simulate_trade</text></g><!--entity code_5--><g class="entity" data-qualified-name="code.code_5" data-source-line="34" id="ent0012"><rect fill="#FFFFFF" height="44.6309" rx="5" ry="5" style="stroke:#000000;stroke-width:1;" width="101.3271" x="972.5" y="259.2617"/><rect fill="#FFFFFF" height="10" style="stroke:#000000;stroke-width:1;" width="15" x="1053.8271" y="264.2617"/><rect fill="#FFFFFF" height="2" style="stroke:#000000;stroke-width:1;" width="4" x="1051.8271" y="266.2617"/><rect fill="#FFFFFF" height="2" style="stroke:#000000;stroke-width:1;" width="4" x="1051.8271" y="270.2617"/><text fill="#000000" font-family="'Segoe UI'" font-size="11" lengthAdjust="spacing" textLength="61.3271" x="987.5" y="291.1318">run_backtest</text></g><!--entity code_6--><g class="entity" data-qualified-name="code.code_6" data-source-line="35" id="ent0013"><rect fill="#FFFFFF" height="44.6309" rx="5" ry="5" style="stroke:#000000;stroke-width:1;" width="141.1646" x="408.5" y="364.2617"/><rect fill="#FFFFFF" height="10" style="stroke:#000000;stroke-width:1;" width="15" x="529.6646" y="369.2617"/><rect fill="#FFFFFF" height="2" style="stroke:#000000;stroke-width:1;" width="4" x="527.6646" y="371.2617"/><rect fill="#FFFFFF" height="2" style="stroke:#000000;stroke-width:1;" width="4" x="527.6646" y="375.2617"/><text fill="#000000" font-family="'Segoe UI'" font-size="11" lengthAdjust="spacing" textLength="101.1646" x="423.5" y="396.1318">_trades_to_pnl_series</text></g><!--entity code_7--><g class="entity" data-qualified-name="code.code_7" data-source-line="36" id="ent0014"><rect fill="#FFFFFF" height="44.6309" rx="5" ry="5" style="stroke:#000000;stroke-width:1;" width="148.625" x="584.5" y="364.2617"/><rect fill="#FFFFFF" height="10" style="stroke:#000000;stroke-width:1;" width="15" x="713.125" y="369.2617"/><rect fill="#FFFFFF" height="2" style="stroke:#000000;stroke-width:1;" width="4" x="711.125" y="371.2617"/><rect fill="#FFFFFF" height="2" style="stroke:#000000;stroke-width:1;" width="4" x="711.125" y="375.2617"/><text fill="#000000" font-family="'Segoe UI'" font-size="11" lengthAdjust="spacing" textLength="108.625" x="599.5" y="396.1318">compute_equity_curve</text></g><!--entity code_8--><g class="entity" data-qualified-name="code.code_8" data-source-line="37" id="ent0015"><rect fill="#FFFFFF" height="44.6309" rx="5" ry="5" style="stroke:#000000;stroke-width:1;" width="138.6831" x="768.5" y="364.2617"/><rect fill="#FFFFFF" height="10" style="stroke:#000000;stroke-width:1;" width="15" x="887.1831" y="369.2617"/><rect fill="#FFFFFF" height="2" style="stroke:#000000;stroke-width:1;" width="4" x="885.1831" y="371.2617"/><rect fill="#FFFFFF" height="2" style="stroke:#000000;stroke-width:1;" width="4" x="885.1831" y="375.2617"/><text fill="#000000" font-family="'Segoe UI'" font-size="11" lengthAdjust="spacing" textLength="98.6831" x="783.5" y="396.1318">compute_drawdown</text></g><!--entity code_9--><g class="entity" data-qualified-name="code.code_9" data-source-line="38" id="ent0016"><rect fill="#FFFFFF" height="44.6309" rx="5" ry="5" style="stroke:#000000;stroke-width:1;" width="122.9297" x="942.5" y="364.2617"/><rect fill="#FFFFFF" height="10" style="stroke:#000000;stroke-width:1;" width="15" x="1045.4297" y="369.2617"/><rect fill="#FFFFFF" height="2" style="stroke:#000000;stroke-width:1;" width="4" x="1043.4297" y="371.2617"/><rect fill="#FFFFFF" height="2" style="stroke:#000000;stroke-width:1;" width="4" x="1043.4297" y="375.2617"/><text fill="#000000" font-family="'Segoe UI'" font-size="11" lengthAdjust="spacing" textLength="82.9297" x="957.5" y="396.1318">compute_metrics</text></g><!--entity code_10--><g class="entity" data-qualified-name="code.code_10" data-source-line="39" id="ent0017"><rect fill="#FFFFFF" height="44.6309" rx="5" ry="5" style="stroke:#000000;stroke-width:1;" width="121.0767" x="1100.5" y="364.2617"/><rect fill="#FFFFFF" height="10" style="stroke:#000000;stroke-width:1;" width="15" x="1201.5767" y="369.2617"/><rect fill="#FFFFFF" height="2" style="stroke:#000000;stroke-width:1;" width="4" x="1199.5767" y="371.2617"/><rect fill="#FFFFFF" height="2" style="stroke:#000000;stroke-width:1;" width="4" x="1199.5767" y="375.2617"/><text fill="#000000" font-family="'Segoe UI'" font-size="11" lengthAdjust="spacing" textLength="81.0767" x="1115.5" y="396.1318">pattern_statistics</text></g><!--entity code_11--><g class="entity" data-qualified-name="code.code_11" data-source-line="40" id="ent0018"><rect fill="#FFFFFF" height="44.6309" rx="5" ry="5" style="stroke:#000000;stroke-width:1;" width="137.5337" x="410" y="469.2617"/><rect fill="#FFFFFF" height="10" style="stroke:#000000;stroke-width:1;" width="15" x="527.5337" y="474.2617"/><rect fill="#FFFFFF" height="2" style="stroke:#000000;stroke-width:1;" width="4" x="525.5337" y="476.2617"/><rect fill="#FFFFFF" height="2" style="stroke:#000000;stroke-width:1;" width="4" x="525.5337" y="480.2617"/><text fill="#000000" font-family="'Segoe UI'" font-size="11" lengthAdjust="spacing" textLength="97.5337" x="425" y="501.1318">_normalize_columns</text></g><!--entity code_12--><g class="entity" data-qualified-name="code.code_12" data-source-line="41" id="ent0019"><rect fill="#FFFFFF" height="44.6309" rx="5" ry="5" style="stroke:#000000;stroke-width:1;" width="110.2646" x="583" y="469.2617"/><rect fill="#FFFFFF" height="10" style="stroke:#000000;stroke-width:1;" width="15" x="673.2646" y="474.2617"/><rect fill="#FFFFFF" height="2" style="stroke:#000000;stroke-width:1;" width="4" x="671.2646" y="476.2617"/><rect fill="#FFFFFF" height="2" style="stroke:#000000;stroke-width:1;" width="4" x="671.2646" y="480.2617"/><text fill="#000000" font-family="'Segoe UI'" font-size="11" lengthAdjust="spacing" textLength="70.2646" x="598" y="501.1318">load_pair_data</text></g><!--entity code_13--><g class="entity" data-qualified-name="code.code_13" data-source-line="42" id="ent0020"><rect fill="#FFFFFF" height="44.6309" rx="5" ry="5" style="stroke:#000000;stroke-width:1;" width="104.4585" x="728" y="469.2617"/><rect fill="#FFFFFF" height="10" style="stroke:#000000;stroke-width:1;" width="15" x="812.4585" y="474.2617"/><rect fill="#FFFFFF" height="2" style="stroke:#000000;stroke-width:1;" width="4" x="810.4585" y="476.2617"/><rect fill="#FFFFFF" height="2" style="stroke:#000000;stroke-width:1;" width="4" x="810.4585" y="480.2617"/><text fill="#000000" font-family="'Segoe UI'" font-size="11" lengthAdjust="spacing" textLength="64.4585" x="743" y="501.1318">load_all_pairs</text></g><!--entity code_14--><g class="entity" data-qualified-name="code.code_14" data-source-line="43" id="ent0021"><rect fill="#FFFFFF" height="44.6309" rx="5" ry="5" style="stroke:#000000;stroke-width:1;" width="114.4487" x="867" y="469.2617"/><rect fill="#FFFFFF" height="10" style="stroke:#000000;stroke-width:1;" width="15" x="961.4487" y="474.2617"/><rect fill="#FFFFFF" height="2" style="stroke:#000000;stroke-width:1;" width="4" x="959.4487" y="476.2617"/><rect fill="#FFFFFF" height="2" style="stroke:#000000;stroke-width:1;" width="4" x="959.4487" y="480.2617"/><text fill="#000000" font-family="'Segoe UI'" font-size="11" lengthAdjust="spacing" textLength="74.4487" x="882" y="501.1318">resample_ohlcv</text></g><!--entity code_15--><g class="entity" data-qualified-name="code.code_15" data-source-line="44" id="ent0022"><rect fill="#FFFFFF" height="44.6309" rx="5" ry="5" style="stroke:#000000;stroke-width:1;" width="148.0933" x="1016" y="469.2617"/><rect fill="#FFFFFF" height="10" style="stroke:#000000;stroke-width:1;" width="15" x="1144.0933" y="474.2617"/><rect fill="#FFFFFF" height="2" style="stroke:#000000;stroke-width:1;" width="4" x="1142.0933" y="476.2617"/><rect fill="#FFFFFF" height="2" style="stroke:#000000;stroke-width:1;" width="4" x="1142.0933" y="480.2617"/><text fill="#000000" font-family="'Segoe UI'" font-size="11" lengthAdjust="spacing" textLength="108.0933" x="1031" y="501.1318">build_multi_timeframe</text></g><!--entity code_16--><g class="entity" data-qualified-name="code.code_16" data-source-line="45" id="ent0023"><rect fill="#FFFFFF" height="44.6309" rx="5" ry="5" style="stroke:#000000;stroke-width:1;" width="131.2173" x="413.5" y="574.2617"/><rect fill="#FFFFFF" height="10" style="stroke:#000000;stroke-width:1;" width="15" x="524.7173" y="579.2617"/><rect fill="#FFFFFF" height="2" style="stroke:#000000;stroke-width:1;" width="4" x="522.7173" y="581.2617"/><rect fill="#FFFFFF" height="2" style="stroke:#000000;stroke-width:1;" width="4" x="522.7173" y="585.2617"/><text fill="#000000" font-family="'Segoe UI'" font-size="11" lengthAdjust="spacing" textLength="91.2173" x="428.5" y="606.1318">raw_to_ohlcv_1min</text></g><!--entity code_17--><g class="entity" data-qualified-name="code.code_17" data-source-line="46" id="ent0024"><rect fill="#FFFFFF" height="44.6309" rx="5" ry="5" style="stroke:#000000;stroke-width:1;" width="158.7388" x="579.5" y="574.2617"/><rect fill="#FFFFFF" height="10" style="stroke:#000000;stroke-width:1;" width="15" x="718.2388" y="579.2617"/><rect fill="#FFFFFF" height="2" style="stroke:#000000;stroke-width:1;" width="4" x="716.2388" y="581.2617"/><rect fill="#FFFFFF" height="2" style="stroke:#000000;stroke-width:1;" width="4" x="716.2388" y="585.2617"/><text fill="#000000" font-family="'Segoe UI'" font-size="11" lengthAdjust="spacing" textLength="118.7388" x="594.5" y="606.1318">convert_all_raw_to_ohlcv</text></g><!--entity code_18--><g class="entity" data-qualified-name="code.code_18" data-source-line="47" id="ent0025"><rect fill="#FFFFFF" height="44.6309" rx="5" ry="5" style="stroke:#000000;stroke-width:1;" width="147.1748" x="773.5" y="574.2617"/><rect fill="#FFFFFF" height="10" style="stroke:#000000;stroke-width:1;" width="15" x="900.6748" y="579.2617"/><rect fill="#FFFFFF" height="2" style="stroke:#000000;stroke-width:1;" width="4" x="898.6748" y="581.2617"/><rect fill="#FFFFFF" height="2" style="stroke:#000000;stroke-width:1;" width="4" x="898.6748" y="585.2617"/><text fill="#000000" font-family="'Segoe UI'" font-size="11" lengthAdjust="spacing" textLength="107.1748" x="788.5" y="606.1318">add_moving_averages</text></g><!--entity code_19--><g class="entity" data-qualified-name="code.code_19" data-source-line="48" id="ent0026"><rect fill="#FFFFFF" height="44.6309" rx="5" ry="5" style="stroke:#000000;stroke-width:1;" width="83.9409" x="956" y="574.2617"/><rect fill="#FFFFFF" height="10" style="stroke:#000000;stroke-width:1;" width="15" x="1019.9409" y="579.2617"/><rect fill="#FFFFFF" height="2" style="stroke:#000000;stroke-width:1;" width="4" x="1017.9409" y="581.2617"/><rect fill="#FFFFFF" height="2" style="stroke:#000000;stroke-width:1;" width="4" x="1017.9409" y="585.2617"/><text fill="#000000" font-family="'Segoe UI'" font-size="11" lengthAdjust="spacing" textLength="43.9409" x="971" y="606.1318">add_ema</text></g><!--entity code_20--><g class="entity" data-qualified-name="code.code_20" data-source-line="49" id="ent0027"><rect fill="#FFFFFF" height="44.6309" rx="5" ry="5" style="stroke:#000000;stroke-width:1;" width="74.6113" x="1075.5" y="574.2617"/><rect fill="#FFFFFF" height="10" style="stroke:#000000;stroke-width:1;" width="15" x="1130.1113" y="579.2617"/><rect fill="#FFFFFF" height="2" style="stroke:#000000;stroke-width:1;" width="4" x="1128.1113" y="581.2617"/><rect fill="#FFFFFF" height="2" style="stroke:#000000;stroke-width:1;" width="4" x="1128.1113" y="585.2617"/><text fill="#000000" font-family="'Segoe UI'" font-size="11" lengthAdjust="spacing" textLength="34.6113" x="1090.5" y="606.1318">add_hv</text></g><g class="entity" data-qualified-name="secrets" data-source-line="53" id="ent0028"><path d="M363,107.2617 L363,173.7852 A5,5 0 0 0 368,178.7852 L510.189,178.7852 A5,5 0 0 0 515.189,173.7852 L515.189,112.2617 L505.189,102.2617 L368,102.2617 A5,5 0 0 0 363,107.2617" fill="#EEEEEE" style="stroke:#000000;stroke-width:1;"/><path d="M505.189,102.2617 L505.189,109.7617 A2.5,2.5 0 0 0 507.689,112.2617 L515.189,112.2617 L505.189,102.2617" fill="#EEEEEE" style="stroke:#000000;stroke-width:1;"/><text fill="#000000" font-family="'Segoe UI'" font-size="11" font-weight="bold" lengthAdjust="spacing" textLength="80.9209" x="369" y="119.1318">Dados Sigilosos</text><line style="stroke:#000000;stroke-width:1;" x1="364" x2="514.189" y1="121.8926" y2="121.8926"/><text fill="#000000" font-family="'Segoe UI'" font-size="11" lengthAdjust="spacing" textLength="131.189" x="369" y="137.7627">Credenciais, tokens, chaves</text><text fill="#000000" font-family="'Segoe UI'" font-size="11" lengthAdjust="spacing" textLength="106.7827" x="369" y="152.3936">Variaveis de ambiente</text><text fill="#000000" font-family="'Segoe UI'" font-size="11" lengthAdjust="spacing" textLength="82.0757" x="369" y="167.0244">Configs sensiveis</text></g><!--link src to models--><g class="link" data-entity-1="ent0003" data-entity-2="ent0004" data-link-type="dependency" data-source-line="62" id="lnk29"><path d="M245.25,163.4117 C245.25,189.7317 245.25,226.8717 245.25,253.1617" fill="none" id="src-to-models" style="stroke:#000000;stroke-width:1;"/><polygon fill="#000000" points="245.25,259.1617,249.25,250.1617,245.25,254.1617,241.25,250.1617,245.25,259.1617" style="stroke:#000000;stroke-width:1;"/></g><!--link data to models--><g class="link" data-entity-1="ent0005" data-entity-2="ent0004" data-link-type="dependency" data-source-line="63" id="lnk30"><path d="M190,163.4117 C190,189.7317 190,226.8717 190,253.1617" fill="none" id="data-to-models" style="stroke:#000000;stroke-width:1;"/><polygon fill="#000000" points="190,259.1617,194,250.1617,190,254.1617,186,250.1617,190,259.1617" style="stroke:#000000;stroke-width:1;"/></g><!--link main to code--><g class="link" data-entity-1="ent0002" data-entity-2="ent0007" data-link-type="dependency" data-source-line="64" id="lnk31"><path d="M336.0302,282.2617 C336.1072,282.2617 336.1846,282.2617 336.2623,282.2617 C341.2403,282.2617 347.9119,282.2617 354.6863,282.2617 C361.4606,282.2617 368.3378,282.2617 373.727,282.2617 C374.4007,282.2617 375.0511,282.2617 375.6751,282.2617 C375.7531,282.2617 369.8307,282.2617 369.9079,282.2617" fill="none" id="main-to-code" style="stroke:#000000;stroke-width:1;"/><polygon fill="#000000" points="375.9079,282.2617,366.9079,278.2617,370.9079,282.2617,366.9079,286.2617,375.9079,282.2617" style="stroke:#000000;stroke-width:1;"/></g><g class="legend" data-source-line="12"><rect fill="none" height="144.3477" rx="5" ry="5" style="stroke:#000000;stroke-width:1;" width="202.6777" x="1030.3223" y="653.2617"/><text fill="#000000" font-family="'Segoe UI'" font-size="14" font-weight="bold" lengthAdjust="spacing" textLength="22.8662" x="1039.1846" y="675.3691">Cor</text><text fill="#000000" font-family="'Segoe UI'" font-size="14" font-weight="bold" lengthAdjust="spacing" textLength="52.8281" x="1069.7754" y="675.3691">Camada</text><rect fill="#1565C0" height="18.6211" style="stroke:none;stroke-width:1;" width="30.5908" x="1035.3223" y="678.8828"/><text fill="#000000" font-family="'Segoe UI'" font-size="14" lengthAdjust="spacing" textLength="3.835" x="1035.3223" y="693.9902">&#160;</text><text fill="#000000" font-family="'Segoe UI'" font-size="14" lengthAdjust="spacing" textLength="84.2939" x="1069.748" y="693.9902">Apresentacao</text><rect fill="#0277BD" height="18.6211" style="stroke:none;stroke-width:1;" width="30.5908" x="1035.3223" y="697.5039"/><text fill="#000000" font-family="'Segoe UI'" font-size="14" lengthAdjust="spacing" textLength="3.835" x="1035.3223" y="712.6113">&#160;</text><text fill="#000000" font-family="'Segoe UI'" font-size="14" lengthAdjust="spacing" textLength="59.4248" x="1069.748" y="712.6113">Aplicacao</text><rect fill="#00838F" height="18.6211" style="stroke:none;stroke-width:1;" width="30.5908" x="1035.3223" y="716.125"/><text fill="#000000" font-family="'Segoe UI'" font-size="14" lengthAdjust="spacing" textLength="3.835" x="1035.3223" y="731.2324">&#160;</text><text fill="#000000" font-family="'Segoe UI'" font-size="14" lengthAdjust="spacing" textLength="52.9854" x="1069.748" y="731.2324">Dominio</text><rect fill="#00695C" height="18.6211" style="stroke:none;stroke-width:1;" width="30.5908" x="1035.3223" y="734.7461"/><text fill="#000000" font-family="'Segoe UI'" font-size="14" lengthAdjust="spacing" textLength="3.835" x="1035.3223" y="749.8535">&#160;</text><text fill="#000000" font-family="'Segoe UI'" font-size="14" lengthAdjust="spacing" textLength="83.4736" x="1069.748" y="749.8535">Infraestrutura</text><rect fill="#AD1457" height="18.6211" style="stroke:none;stroke-width:1;" width="30.5908" x="1035.3223" y="753.3672"/><text fill="#000000" font-family="'Segoe UI'" font-size="14" lengthAdjust="spacing" textLength="3.835" x="1035.3223" y="768.4746">&#160;</text><text fill="#000000" font-family="'Segoe UI'" font-size="14" lengthAdjust="spacing" textLength="100.0781" x="1069.748" y="768.4746">Observabilidade</text><rect fill="#9E9E9E" height="18.6211" style="stroke:none;stroke-width:1;" width="30.5908" x="1035.3223" y="771.9883"/><text fill="#000000" font-family="'Segoe UI'" font-size="14" lengthAdjust="spacing" textLength="3.835" x="1035.3223" y="787.0957">&#160;</text><text fill="#000000" font-family="'Segoe UI'" font-size="14" lengthAdjust="spacing" textLength="154.417" x="1069.748" y="787.0957">Dados Sigilosos (Isolado)</text><line style="stroke:#000000;stroke-width:1;" x1="1035.3223" x2="1228" y1="660.2617" y2="660.2617"/><line style="stroke:#000000;stroke-width:1;" x1="1035.3223" x2="1228" y1="678.8828" y2="678.8828"/><line style="stroke:#000000;stroke-width:1;" x1="1035.3223" x2="1228" y1="697.5039" y2="697.5039"/><line style="stroke:#000000;stroke-width:1;" x1="1035.3223" x2="1228" y1="716.125" y2="716.125"/><line style="stroke:#000000;stroke-width:1;" x1="1035.3223" x2="1228" y1="734.7461" y2="734.7461"/><line style="stroke:#000000;stroke-width:1;" x1="1035.3223" x2="1228" y1="753.3672" y2="753.3672"/><line style="stroke:#000000;stroke-width:1;" x1="1035.3223" x2="1228" y1="771.9883" y2="771.9883"/><line style="stroke:#000000;stroke-width:1;" x1="1035.3223" x2="1228" y1="790.6094" y2="790.6094"/><line style="stroke:#000000;stroke-width:1;" x1="1035.3223" x2="1035.3223" y1="660.2617" y2="790.6094"/><line style="stroke:#000000;stroke-width:1;" x1="1065.9131" x2="1065.9131" y1="660.2617" y2="790.6094"/><line style="stroke:#000000;stroke-width:1;" x1="1228" x2="1228" y1="660.2617" y2="790.6094"/></g><g class="footer" data-source-line="65"><text fill="#000000" font-family="'Segoe UI'" font-size="10" lengthAdjust="spacing" textLength="9.4482" x="478.1528" y="819.4004">\n</text><text fill="#000000" font-family="'Segoe UI'" font-size="10" lengthAdjust="spacing" textLength="277.2461" x="487.6011" y="819.4004">IA_mercado_3 - Diagrama para portifolio (sem dados sensiveis)</text></g><?plantuml-src RLNRRkCs47tNLx39GnEZGIrxdJY5ru3h2s2WcnJnjY_T1J6MnZ8HNbIIyYBjzjyxb6-K70kmA9upTyxm1xz5XQoK87JYNeKkmO9YQyXU2sigdK-DD9PTB-RXYHWvRg2IVc6qVmBISBN2mY3xOtdrFcab_a6MfX5OaWqeSENV93ABcGTTI8m8RWkv-IPqmJOWNOmSFBCQBKkx4I25HlzM8ZFMRqsIUE59UQUpd725DYDzlD_fVFcYHuxy-INjZoVsxqfuz9K5XkoJoIjf7FlT2fs94eGR_HoOuxD8Edv1Lod3WaLMaY6nCLAO0p5991QeSsP5iVK9Ozy_ClAqVe627DZtiCb6r-dWVZ3jZcazAIqwr1uoC2Uustju-7MsXwN8cbXts1yk0ZOpIcWH8_UFWsb0bdfZ0PstLHtRaJ2PfHy63u7ml7PeTx0MKkIGuudnE0zFhPpovTXA589oGgkRfJEIzcw96qBSHveaXqgogylqNJ5mJD7XOgFHox76up6xdlSNlSMC_Kj6CwDAeob-zfUpsTSWGUyce4oEqjNOVjc4S_1GWs7HKfbPKVgzw66T_1VvF9NW73eg_gBIcQ7L3IX3UOFRslcCp5quFrmCvezjvpzRIcCu7D9_FKhojCdnXkSYY_1U4-TqgXnoNtA9ksF4DR7V8ZgXAWcUkC7icVUXoRELvg6RFHs5CsdGKbRhS9oyAxNaT2u4HgRlc-omhCWmXivvurbbTv7zX_V9kOLlrCtwJ1o-JrJehSWYwuzDNWdUezNSUV32-GQLPa4pBcsi0abzoJCZAwLZRgioqa1EsHUMdmxJdjTxXmTIrjnONwj0rDAWIedSR6MsYtYj0gqh8NDEjVI2Uw6GkbP5wKnRfQ8qXZBLIdbApHzHB-gaTsXzxMmi5acqYWKvUM9sD78va2ZrHnpWy9ACAixKuoLX6rdhTKFZQUEnxaNCB7f7pLJ_IBJJQGsSJeTsx-xkw7zgCKUQAJHIVcBUlAAcTxObByCa-1EieAMW_YVTQYt8FWOfepUY2BQq4m6lnrRm84cI7zd7-iTUvhzDfildfycd-TFdvzLXEw4PHCR7ntaJJaNyNG-ry1rYIpQ6b5fslYQwu_ZEONTi9g2WqaBxtc0t3kcch2C_-NbxkasIv7y0?></g></svg>