<?plantuml 1.2026.1?><svg xmlns="http://www.w3.org/2000/svg" xmlns:xlink="http://www.w3.org/1999/xlink" contentStyleType="text/css" data-diagram-type="DESCRIPTION" height="950px" preserveAspectRatio="none" style="width:1212px;height:950px;background:#FEFEFE;" version="1.1" viewBox="0 0 1212 950" width="1212px" zoomAndPan="magnify"><title>**Sistema_deteccao_de_atividades**\n&lt;size:13&gt;Arquitetura e Modulos Principais&lt;/size&gt;\n&lt;size:11&gt;Resumo para portifolio&lt;/size&gt;</title><defs/><g><rect fill="#FEFEFE" height="950" style="stroke:none;stroke-width:1;" width="1212" x="0" y="0"/><g class="title" data-source-line="10"><text fill="#000000" font-family="'Segoe UI'" font-size="22" font-weight="bold" lengthAdjust="spacing" textLength="331.5146" x="252.1079" y="38.7402">Sistema_deteccao_de_atividades</text><text fill="#000000" font-family="'Segoe UI'" font-size="22" font-weight="bold" lengthAdjust="spacing" textLength="22.9023" x="583.6226" y="38.7402">\n</text><text fill="#000000" font-family="'Segoe UI'" font-size="13" font-weight="bold" lengthAdjust="spacing" textLength="201.6841" x="606.5249" y="40.999">Arquitetura e Modulos Principais</text><text fill="#000000" font-family="'Segoe UI'" font-size="22" font-weight="bold" lengthAdjust="spacing" textLength="22.9023" x="808.209" y="38.7402">\n</text><text fill="#000000" font-family="'Segoe UI'" font-size="11" font-weight="bold" lengthAdjust="spacing" textLength="119.7808" x="831.1113" y="41.501">Resumo para portifolio</text></g><!--cluster main--><g class="cluster" data-qualified-name="main" data-source-line="22" id="ent0002"><rect fill="#E3F2FD" height="696.5" rx="5" ry="5" style="stroke:#000000;stroke-width:1;" width="228" x="12" y="62.2617"/><text fill="#000000" font-family="'Segoe UI'" font-size="11" font-style="italic" lengthAdjust="spacing" textLength="57.7285" x="97.1357" y="76.1318">&#171;Rectangle&#187;</text><text fill="#000000" font-family="'Segoe UI'" font-size="11" font-weight="bold" lengthAdjust="spacing" textLength="98.4683" x="76.7659" y="90.7627">Modulos Principais</text></g><!--cluster code--><g class="cluster" data-qualified-name="code" data-source-line="31" id="ent0009"><rect fill="#E8F5E9" height="447" rx="5" ry="5" style="stroke:#000000;stroke-width:1;" width="926" x="280" y="206.7617"/><text fill="#000000" font-family="'Segoe UI'" font-size="11" font-style="italic" lengthAdjust="spacing" textLength="57.7285" x="714.1357" y="220.6318">&#171;Rectangle&#187;</text><text fill="#000000" font-family="'Segoe UI'" font-size="11" font-weight="bold" lengthAdjust="spacing" textLength="143.5156" x="671.2422" y="235.2627">Classes e Funcoes (amostra)</text></g><!--entity pycache_dir--><g class="entity" data-qualified-name="main.pycache_dir" data-source-line="23" id="ent0003"><rect fill="#FFFFFF" height="51.9463" rx="5" ry="5" style="stroke:#000000;stroke-width:1;" width="87.5259" x="78" y="118.2617"/><rect fill="#FFFFFF" height="10" style="stroke:#000000;stroke-width:1;" width="15" x="145.5259" y="123.2617"/><rect fill="#FFFFFF" height="2" style="stroke:#000000;stroke-width:1;" width="4" x="143.5259" y="125.2617"/><rect fill="#FFFFFF" height="2" style="stroke:#000000;stroke-width:1;" width="4" x="143.5259" y="129.2617"/><line style="stroke:#000000;stroke-width:1;" x1="79" x2="102" y1="145.5771" y2="145.5771"/><text fill="#000000" font-family="'Segoe UI'" font-size="11" lengthAdjust="spacing" textLength="39.5259" x="102" y="149.6318">pycache</text><line style="stroke:#000000;stroke-width:1;" x1="141.5259" x2="164.5259" y1="145.5771" y2="145.5771"/></g><!--entity arquivos_ucf_101--><g class="entity" data-qualified-name="main.arquivos_ucf_101" data-source-line="24" id="ent0004"><rect fill="#FFFFFF" height="44.6309" rx="5" ry="5" style="stroke:#000000;stroke-width:1;" width="126.2222" x="59" y="262.7617"/><rect fill="#FFFFFF" height="10" style="stroke:#000000;stroke-width:1;" width="15" x="165.2222" y="267.7617"/><rect fill="#FFFFFF" height="2" style="stroke:#000000;stroke-width:1;" width="4" x="163.2222" y="269.7617"/><rect fill="#FFFFFF" height="2" style="stroke:#000000;stroke-width:1;" width="4" x="163.2222" y="273.7617"/><text fill="#000000" font-family="'Segoe UI'" font-size="11" lengthAdjust="spacing" textLength="86.2222" x="74" y="294.6318">Arquivos UCF 101</text></g><!--entity arquivos_havard--><g class="entity" data-qualified-name="main.arquivos_havard" data-source-line="25" id="ent0005"><rect fill="#FFFFFF" height="44.6309" rx="5" ry="5" style="stroke:#000000;stroke-width:1;" width="120.2549" x="62" y="367.7617"/><rect fill="#FFFFFF" height="10" style="stroke:#000000;stroke-width:1;" width="15" x="162.2549" y="372.7617"/><rect fill="#FFFFFF" height="2" style="stroke:#000000;stroke-width:1;" width="4" x="160.2549" y="374.7617"/><rect fill="#FFFFFF" height="2" style="stroke:#000000;stroke-width:1;" width="4" x="160.2549" y="378.7617"/><text fill="#000000" font-family="'Segoe UI'" font-size="11" lengthAdjust="spacing" textLength="80.2549" x="77" y="399.6318">Arquivos Havard</text></g><!--entity artigos--><g class="entity" data-qualified-name="main.artigos" data-source-line="26" id="ent0006"><rect fill="#FFFFFF" height="44.6309" rx="5" ry="5" style="stroke:#000000;stroke-width:1;" width="74.9014" x="84.5" y="472.7617"/><rect fill="#FFFFFF" height="10" style="stroke:#000000;stroke-width:1;" width="15" x="139.4014" y="477.7617"/><rect fill="#FFFFFF" height="2" style="stroke:#000000;stroke-width:1;" width="4" x="137.4014" y="479.7617"/><rect fill="#FFFFFF" height="2" style="stroke:#000000;stroke-width:1;" width="4" x="137.4014" y="483.7617"/><text fill="#000000" font-family="'Segoe UI'" font-size="11" lengthAdjust="spacing" textLength="34.9014" x="99.5" y="504.6318">Artigos</text></g><!--entity configuracao_cameras--><g class="entity" data-qualified-name="main.configuracao_cameras" data-source-line="27" id="ent0007"><rect fill="#FFFFFF" height="44.6309" rx="5" ry="5" style="stroke:#000000;stroke-width:1;" width="172.3384" x="36" y="581.2617"/><rect fill="#FFFFFF" height="10" style="stroke:#000000;stroke-width:1;" width="15" x="188.3384" y="586.2617"/><rect fill="#FFFFFF" height="2" style="stroke:#000000;stroke-width:1;" width="4" x="186.3384" y="588.2617"/><rect fill="#FFFFFF" height="2" style="stroke:#000000;stroke-width:1;" width="4" x="186.3384" y="592.2617"/><text fill="#000000" font-family="'Segoe UI'" font-size="11" lengthAdjust="spacing" textLength="132.3384" x="51" y="613.1318">Configuracao para cameras</text></g><!--entity kinetics_dataset--><g class="entity" data-qualified-name="main.kinetics_dataset" data-source-line="28" id="ent0008"><rect fill="#FFFFFF" height="44.6309" rx="5" ry="5" style="stroke:#000000;stroke-width:1;" width="116.1943" x="64" y="689.7617"/><rect fill="#FFFFFF" height="10" style="stroke:#000000;stroke-width:1;" width="15" x="160.1943" y="694.7617"/><rect fill="#FFFFFF" height="2" style="stroke:#000000;stroke-width:1;" width="4" x="158.1943" y="696.7617"/><rect fill="#FFFFFF" height="2" style="stroke:#000000;stroke-width:1;" width="4" x="158.1943" y="700.7617"/><text fill="#000000" font-family="'Segoe UI'" font-size="11" lengthAdjust="spacing" textLength="76.1943" x="79" y="721.6318">kinetics-dataset</text></g><!--entity code_1--><g class="entity" data-qualified-name="code.code_1" data-source-line="32" id="ent0010"><rect fill="#FFFFFF" height="44.6309" rx="5" ry="5" style="stroke:#000000;stroke-width:1;" width="179.9438" x="323" y="262.7617"/><rect fill="#FFFFFF" height="10" style="stroke:#000000;stroke-width:1;" width="15" x="482.9438" y="267.7617"/><rect fill="#FFFFFF" height="2" style="stroke:#000000;stroke-width:1;" width="4" x="480.9438" y="269.7617"/><rect fill="#FFFFFF" height="2" style="stroke:#000000;stroke-width:1;" width="4" x="480.9438" y="273.7617"/><text fill="#000000" font-family="'Segoe UI'" font-size="11" lengthAdjust="spacing" textLength="139.9438" x="338" y="294.6318">extract_mediapipe_keypoints</text></g><!--entity code_2--><g class="entity" data-qualified-name="code.code_2" data-source-line="33" id="ent0011"><rect fill="#FFFFFF" height="44.6309" rx="5" ry="5" style="stroke:#000000;stroke-width:1;" width="175.3354" x="538.5" y="262.7617"/><rect fill="#FFFFFF" height="10" style="stroke:#000000;stroke-width:1;" width="15" x="693.8354" y="267.7617"/><rect fill="#FFFFFF" height="2" style="stroke:#000000;stroke-width:1;" width="4" x="691.8354" y="269.7617"/><rect fill="#FFFFFF" height="2" style="stroke:#000000;stroke-width:1;" width="4" x="691.8354" y="273.7617"/><text fill="#000000" font-family="'Segoe UI'" font-size="11" lengthAdjust="spacing" textLength="135.3354" x="553.5" y="294.6318">extract_efficientnet_features</text></g><!--entity code_3--><g class="entity" data-qualified-name="code.code_3" data-source-line="34" id="ent0012"><rect fill="#FFFFFF" height="44.6309" rx="5" ry="5" style="stroke:#000000;stroke-width:1;" width="124.9761" x="748.5" y="262.7617"/><rect fill="#FFFFFF" height="10" style="stroke:#000000;stroke-width:1;" width="15" x="853.4761" y="267.7617"/><rect fill="#FFFFFF" height="2" style="stroke:#000000;stroke-width:1;" width="4" x="851.4761" y="269.7617"/><rect fill="#FFFFFF" height="2" style="stroke:#000000;stroke-width:1;" width="4" x="851.4761" y="273.7617"/><text fill="#000000" font-family="'Segoe UI'" font-size="11" lengthAdjust="spacing" textLength="84.9761" x="763.5" y="294.6318">build_lstm_model</text></g><!--entity code_4--><g class="entity" data-qualified-name="code.code_4" data-source-line="35" id="ent0013"><rect fill="#FFFFFF" height="44.6309" rx="5" ry="5" style="stroke:#000000;stroke-width:1;" width="63.9604" x="909" y="262.7617"/><rect fill="#FFFFFF" height="10" style="stroke:#000000;stroke-width:1;" width="15" x="952.9604" y="267.7617"/><rect fill="#FFFFFF" height="2" style="stroke:#000000;stroke-width:1;" width="4" x="950.9604" y="269.7617"/><rect fill="#FFFFFF" height="2" style="stroke:#000000;stroke-width:1;" width="4" x="950.9604" y="273.7617"/><text fill="#000000" font-family="'Segoe UI'" font-size="11" lengthAdjust="spacing" textLength="23.9604" x="924" y="294.6318">main</text></g><!--entity code_5--><g class="entity" data-qualified-name="code.code_5" data-source-line="36" id="ent0014"><rect fill="#FFFFFF" height="44.6309" rx="5" ry="5" style="stroke:#000000;stroke-width:1;" width="173.6221" x="1008" y="262.7617"/><rect fill="#FFFFFF" height="10" style="stroke:#000000;stroke-width:1;" width="15" x="1161.6221" y="267.7617"/><rect fill="#FFFFFF" height="2" style="stroke:#000000;stroke-width:1;" width="4" x="1159.6221" y="269.7617"/><rect fill="#FFFFFF" height="2" style="stroke:#000000;stroke-width:1;" width="4" x="1159.6221" y="273.7617"/><text fill="#000000" font-family="'Segoe UI'" font-size="11" lengthAdjust="spacing" textLength="133.6221" x="1023" y="294.6318">get_video_paths_and_labels</text></g><!--entity code_6--><g class="entity" data-qualified-name="code.code_6" data-source-line="37" id="ent0015"><rect fill="#FFFFFF" height="44.6309" rx="5" ry="5" style="stroke:#000000;stroke-width:1;" width="113.5894" x="356" y="367.7617"/><rect fill="#FFFFFF" height="10" style="stroke:#000000;stroke-width:1;" width="15" x="449.5894" y="372.7617"/><rect fill="#FFFFFF" height="2" style="stroke:#000000;stroke-width:1;" width="4" x="447.5894" y="374.7617"/><rect fill="#FFFFFF" height="2" style="stroke:#000000;stroke-width:1;" width="4" x="447.5894" y="378.7617"/><text fill="#000000" font-family="'Segoe UI'" font-size="11" lengthAdjust="spacing" textLength="73.5894" x="371" y="399.6318">data_generator</text></g><!--entity code_7--><g class="entity" data-qualified-name="code.code_7" data-source-line="38" id="ent0016"><rect fill="#FFFFFF" height="44.6309" rx="5" ry="5" style="stroke:#000000;stroke-width:1;" width="99.877" x="505" y="367.7617"/><rect fill="#FFFFFF" height="10" style="stroke:#000000;stroke-width:1;" width="15" x="584.877" y="372.7617"/><rect fill="#FFFFFF" height="2" style="stroke:#000000;stroke-width:1;" width="4" x="582.877" y="374.7617"/><rect fill="#FFFFFF" height="2" style="stroke:#000000;stroke-width:1;" width="4" x="582.877" y="378.7617"/><text fill="#000000" font-family="'Segoe UI'" font-size="11" lengthAdjust="spacing" textLength="59.877" x="520" y="399.6318">build_model</text></g><!--entity code_8--><g class="entity" data-qualified-name="code.code_8" data-source-line="39" id="ent0017"><rect fill="#FFFFFF" height="44.6309" rx="5" ry="5" style="stroke:#000000;stroke-width:1;" width="191.4648" x="640.5" y="367.7617"/><rect fill="#FFFFFF" height="10" style="stroke:#000000;stroke-width:1;" width="15" x="811.9648" y="372.7617"/><rect fill="#FFFFFF" height="2" style="stroke:#000000;stroke-width:1;" width="4" x="809.9648" y="374.7617"/><rect fill="#FFFFFF" height="2" style="stroke:#000000;stroke-width:1;" width="4" x="809.9648" y="378.7617"/><text fill="#000000" font-family="'Segoe UI'" font-size="11" lengthAdjust="spacing" textLength="151.4648" x="655.5" y="399.6318">extract_vit_features_from_video</text></g><!--entity code_9--><g class="entity" data-qualified-name="code.code_9" data-source-line="40" id="ent0018"><rect fill="#FFFFFF" height="44.6309" rx="5" ry="5" style="stroke:#000000;stroke-width:1;" width="167.6279" x="867" y="367.7617"/><rect fill="#FFFFFF" height="10" style="stroke:#000000;stroke-width:1;" width="15" x="1014.6279" y="372.7617"/><rect fill="#FFFFFF" height="2" style="stroke:#000000;stroke-width:1;" width="4" x="1012.6279" y="374.7617"/><rect fill="#FFFFFF" height="2" style="stroke:#000000;stroke-width:1;" width="4" x="1012.6279" y="378.7617"/><text fill="#000000" font-family="'Segoe UI'" font-size="11" lengthAdjust="spacing" textLength="127.6279" x="882" y="399.6318">preprocess_and_save_data</text></g><!--entity code_10--><g class="entity" data-qualified-name="code.code_10" data-source-line="41" id="ent0019"><rect fill="#FFFFFF" height="44.6309" rx="5" ry="5" style="stroke:#000000;stroke-width:1;" width="106.7466" x="1070.5" y="367.7617"/><rect fill="#FFFFFF" height="10" style="stroke:#000000;stroke-width:1;" width="15" x="1157.2466" y="372.7617"/><rect fill="#FFFFFF" height="2" style="stroke:#000000;stroke-width:1;" width="4" x="1155.2466" y="374.7617"/><rect fill="#FFFFFF" height="2" style="stroke:#000000;stroke-width:1;" width="4" x="1155.2466" y="378.7617"/><text fill="#000000" font-family="'Segoe UI'" font-size="11" lengthAdjust="spacing" textLength="66.7466" x="1085.5" y="399.6318">obter_url_rtsp</text></g><!--entity code_11--><g class="entity" data-qualified-name="code.code_11" data-source-line="42" id="ent0020"><rect fill="#FFFFFF" height="44.6309" rx="5" ry="5" style="stroke:#000000;stroke-width:1;" width="98.3354" x="364" y="472.7617"/><rect fill="#FFFFFF" height="10" style="stroke:#000000;stroke-width:1;" width="15" x="442.3354" y="477.7617"/><rect fill="#FFFFFF" height="2" style="stroke:#000000;stroke-width:1;" width="4" x="440.3354" y="479.7617"/><rect fill="#FFFFFF" height="2" style="stroke:#000000;stroke-width:1;" width="4" x="440.3354" y="483.7617"/><text fill="#000000" font-family="'Segoe UI'" font-size="11" lengthAdjust="spacing" textLength="58.3354" x="379" y="504.6318">iniciar_mibo</text></g><!--entity code_12--><g class="entity" data-qualified-name="code.code_12" data-source-line="43" id="ent0021"><rect fill="#FFFFFF" height="44.6309" rx="5" ry="5" style="stroke:#000000;stroke-width:1;" width="96.9121" x="497.5" y="472.7617"/><rect fill="#FFFFFF" height="10" style="stroke:#000000;stroke-width:1;" width="15" x="574.4121" y="477.7617"/><rect fill="#FFFFFF" height="2" style="stroke:#000000;stroke-width:1;" width="4" x="572.4121" y="479.7617"/><rect fill="#FFFFFF" height="2" style="stroke:#000000;stroke-width:1;" width="4" x="572.4121" y="483.7617"/><text fill="#000000" font-family="'Segoe UI'" font-size="11" lengthAdjust="spacing" textLength="56.9121" x="512.5" y="504.6318">testar_mibo</text></g><!--entity code_13--><g class="entity" data-qualified-name="code.code_13" data-source-line="44" id="ent0022"><rect fill="#FFFFFF" height="44.6309" rx="5" ry="5" style="stroke:#000000;stroke-width:1;" width="113.6055" x="630" y="472.7617"/><rect fill="#FFFFFF" height="10" style="stroke:#000000;stroke-width:1;" width="15" x="723.6055" y="477.7617"/><rect fill="#FFFFFF" height="2" style="stroke:#000000;stroke-width:1;" width="4" x="721.6055" y="479.7617"/><rect fill="#FFFFFF" height="2" style="stroke:#000000;stroke-width:1;" width="4" x="721.6055" y="483.7617"/><text fill="#000000" font-family="'Segoe UI'" font-size="11" lengthAdjust="spacing" textLength="73.6055" x="645" y="504.6318">iniciar_webcam</text></g><!--entity code_14--><g class="entity" data-qualified-name="code.code_14" data-source-line="45" id="ent0023"><rect fill="#FFFFFF" height="44.6309" rx="5" ry="5" style="stroke:#000000;stroke-width:1;" width="112.1821" x="779" y="472.7617"/><rect fill="#FFFFFF" height="10" style="stroke:#000000;stroke-width:1;" width="15" x="871.1821" y="477.7617"/><rect fill="#FFFFFF" height="2" style="stroke:#000000;stroke-width:1;" width="4" x="869.1821" y="479.7617"/><rect fill="#FFFFFF" height="2" style="stroke:#000000;stroke-width:1;" width="4" x="869.1821" y="483.7617"/><text fill="#000000" font-family="'Segoe UI'" font-size="11" lengthAdjust="spacing" textLength="72.1821" x="794" y="504.6318">testar_webcam</text></g><!--entity code_15--><g class="entity" data-qualified-name="code.code_15" data-source-line="46" id="ent0024"><rect fill="#FFFFFF" height="44.6309" rx="5" ry="5" style="stroke:#000000;stroke-width:1;" width="140.7886" x="926.5" y="472.7617"/><rect fill="#FFFFFF" height="10" style="stroke:#000000;stroke-width:1;" width="15" x="1047.2886" y="477.7617"/><rect fill="#FFFFFF" height="2" style="stroke:#000000;stroke-width:1;" width="4" x="1045.2886" y="479.7617"/><rect fill="#FFFFFF" height="2" style="stroke:#000000;stroke-width:1;" width="4" x="1045.2886" y="483.7617"/><text fill="#000000" font-family="'Segoe UI'" font-size="11" lengthAdjust="spacing" textLength="100.7886" x="941.5" y="504.6318">PerformanceMonitor</text></g><!--entity code_16--><g class="entity" data-qualified-name="code.code_16" data-source-line="47" id="ent0025"><rect fill="#FFFFFF" height="51.9463" rx="5" ry="5" style="stroke:#000000;stroke-width:1;" width="63.2808" x="381.5" y="577.7617"/><rect fill="#FFFFFF" height="10" style="stroke:#000000;stroke-width:1;" width="15" x="424.7808" y="582.7617"/><rect fill="#FFFFFF" height="2" style="stroke:#000000;stroke-width:1;" width="4" x="422.7808" y="584.7617"/><rect fill="#FFFFFF" height="2" style="stroke:#000000;stroke-width:1;" width="4" x="422.7808" y="588.7617"/><line style="stroke:#000000;stroke-width:1;" x1="382.5" x2="405.5" y1="605.0771" y2="605.0771"/><text fill="#000000" font-family="'Segoe UI'" font-size="11" lengthAdjust="spacing" textLength="15.2808" x="405.5" y="609.1318">init</text><line style="stroke:#000000;stroke-width:1;" x1="420.7808" x2="443.7808" y1="605.0771" y2="605.0771"/></g><!--entity code_17--><g class="entity" data-qualified-name="code.code_17" data-source-line="48" id="ent0026"><rect fill="#FFFFFF" height="44.6309" rx="5" ry="5" style="stroke:#000000;stroke-width:1;" width="133.6772" x="480" y="581.2617"/><rect fill="#FFFFFF" height="10" style="stroke:#000000;stroke-width:1;" width="15" x="593.6772" y="586.2617"/><rect fill="#FFFFFF" height="2" style="stroke:#000000;stroke-width:1;" width="4" x="591.6772" y="588.2617"/><rect fill="#FFFFFF" height="2" style="stroke:#000000;stroke-width:1;" width="4" x="591.6772" y="592.2617"/><text fill="#000000" font-family="'Segoe UI'" font-size="11" lengthAdjust="spacing" textLength="93.6772" x="495" y="613.1318">_get_hardware_info</text></g><!--entity code_18--><g class="entity" data-qualified-name="code.code_18" data-source-line="49" id="ent0027"><rect fill="#FFFFFF" height="44.6309" rx="5" ry="5" style="stroke:#000000;stroke-width:1;" width="134.1768" x="649" y="581.2617"/><rect fill="#FFFFFF" height="10" style="stroke:#000000;stroke-width:1;" width="15" x="763.1768" y="586.2617"/><rect fill="#FFFFFF" height="2" style="stroke:#000000;stroke-width:1;" width="4" x="761.1768" y="588.2617"/><rect fill="#FFFFFF" height="2" style="stroke:#000000;stroke-width:1;" width="4" x="761.1768" y="592.2617"/><text fill="#000000" font-family="'Segoe UI'" font-size="11" lengthAdjust="spacing" textLength="94.1768" x="664" y="613.1318">_monitor_resources</text></g><!--entity code_19--><g class="entity" data-qualified-name="code.code_19" data-source-line="50" id="ent0028"><rect fill="#FFFFFF" height="44.6309" rx="5" ry="5" style="stroke:#000000;stroke-width:1;" width="120.2764" x="818" y="581.2617"/><rect fill="#FFFFFF" height="10" style="stroke:#000000;stroke-width:1;" width="15" x="918.2764" y="586.2617"/><rect fill="#FFFFFF" height="2" style="stroke:#000000;stroke-width:1;" width="4" x="916.2764" y="588.2617"/><rect fill="#FFFFFF" height="2" style="stroke:#000000;stroke-width:1;" width="4" x="916.2764" y="592.2617"/><text fill="#000000" font-family="'Segoe UI'" font-size="11" lengthAdjust="spacing" textLength="80.2764" x="833" y="613.1318">monitor_process</text></g><!--entity code_20--><g class="entity" data-qualified-name="code.code_20" data-source-line="51" id="ent0029"><rect fill="#FFFFFF" height="44.6309" rx="5" ry="5" style="stroke:#000000;stroke-width:1;" width="122.8276" x="973.5" y="581.2617"/><rect fill="#FFFFFF" height="10" style="stroke:#000000;stroke-width:1;" width="15" x="1076.3276" y="586.2617"/><rect fill="#FFFFFF" height="2" style="stroke:#000000;stroke-width:1;" width="4" x="1074.3276" y="588.2617"/><rect fill="#FFFFFF" height="2" style="stroke:#000000;stroke-width:1;" width="4" x="1074.3276" y="592.2617"/><text fill="#000000" font-family="'Segoe UI'" font-size="11" lengthAdjust="spacing" textLength="82.8276" x="988.5" y="613.1318">_format_duration</text></g><g class="entity" data-qualified-name="secrets" data-source-line="55" id="ent0030"><path d="M267,110.7617 L267,177.2852 A5,5 0 0 0 272,182.2852 L414.189,182.2852 A5,5 0 0 0 419.189,177.2852 L419.189,115.7617 L409.189,105.7617 L272,105.7617 A5,5 0 0 0 267,110.7617" fill="#EEEEEE" style="stroke:#000000;stroke-width:1;"/><path d="M409.189,105.7617 L409.189,113.2617 A2.5,2.5 0 0 0 411.689,115.7617 L419.189,115.7617 L409.189,105.7617" fill="#EEEEEE" style="stroke:#000000;stroke-width:1;"/><text fill="#000000" font-family="'Segoe UI'" font-size="11" font-weight="bold" lengthAdjust="spacing" textLength="80.9209" x="273" y="122.6318">Dados Sigilosos</text><line style="stroke:#000000;stroke-width:1;" x1="268" x2="418.189" y1="125.3926" y2="125.3926"/><text fill="#000000" font-family="'Segoe UI'" font-size="11" lengthAdjust="spacing" textLength="131.189" x="273" y="141.2627">Credenciais, tokens, chaves</text><text fill="#000000" font-family="'Segoe UI'" font-size="11" lengthAdjust="spacing" textLength="106.7827" x="273" y="155.8936">Variaveis de ambiente</text><text fill="#000000" font-family="'Segoe UI'" font-size="11" lengthAdjust="spacing" textLength="82.0757" x="273" y="170.5244">Configs sensiveis</text></g><!--link pycache_dir to arquivos_ucf_101--><g class="link" data-entity-1="ent0003" data-entity-2="ent0004" data-link-type="dependency" data-source-line="64" id="lnk31"><path d="M122,170.4517 C122,196.8917 122,231.3217 122,256.4717" fill="none" id="pycache_dir-to-arquivos_ucf_101" style="stroke:#000000;stroke-width:1;"/><polygon fill="#000000" points="122,262.4717,126,253.4717,122,257.4717,118,253.4717,122,262.4717" style="stroke:#000000;stroke-width:1;"/></g><!--link arquivos_ucf_101 to arquivos_havard--><g class="link" data-entity-1="ent0004" data-entity-2="ent0005" data-link-type="dependency" data-source-line="65" id="lnk32"><path d="M122,307.7917 C122,325.3817 122,343.7317 122,361.4117" fill="none" id="arquivos_ucf_101-to-arquivos_havard" style="stroke:#000000;stroke-width:1;"/><polygon fill="#000000" points="122,367.4117,126,358.4117,122,362.4117,118,358.4117,122,367.4117" style="stroke:#000000;stroke-width:1;"/></g><!--link arquivos_havard to artigos--><g class="link" data-entity-1="ent0005" data-entity-2="ent0006" data-link-type="dependency" data-source-line="66" id="lnk33"><path d="M122,412.7917 C122,430.3817 122,448.7317 122,466.4117" fill="none" id="arquivos_havard-to-artigos" style="stroke:#000000;stroke-width:1;"/><polygon fill="#000000" points="122,472.4117,126,463.4117,122,467.4117,118,463.4117,122,472.4117" style="stroke:#000000;stroke-width:1;"/></g><!--link artigos to configuracao_cameras--><g class="link" data-entity-1="ent0006" data-entity-2="ent0007" data-link-type="dependency" data-source-line="67" id="lnk34"><path d="M122,518.0117 C122,536.5217 122,556.5417 122,575.0417" fill="none" id="artigos-to-configuracao_cameras" style="stroke:#000000;stroke-width:1;"/><polygon fill="#000000" points="122,581.0417,126,572.0417,122,576.0417,118,572.0417,122,581.0417" style="stroke:#000000;stroke-width:1;"/></g><!--link configuracao_cameras to kinetics_dataset--><g class="link" data-entity-1="ent0007" data-entity-2="ent0008" data-link-type="dependency" data-source-line="68" id="lnk35"><path d="M122,626.5117 C122,645.0217 122,665.0417 122,683.5417" fill="none" id="configuracao_cameras-to-kinetics_dataset" style="stroke:#000000;stroke-width:1;"/><polygon fill="#000000" points="122,689.5417,126,680.5417,122,684.5417,118,680.5417,122,689.5417" style="stroke:#000000;stroke-width:1;"/></g><!--link main to code--><g class="link" data-entity-1="ent0002" data-entity-2="ent0009" data-link-type="dependency" data-source-line="69" id="lnk36"><path d="M240.0302,285.7617 C240.1072,285.7617 240.1846,285.7617 240.2623,285.7617 C245.2403,285.7617 251.9119,285.7617 258.6863,285.7617 C265.4606,285.7617 272.3378,285.7617 277.727,285.7617 C278.4007,285.7617 279.0511,285.7617 279.6751,285.7617 C279.7531,285.7617 273.8307,285.7617 273.9079,285.7617" fill="none" id="main-to-code" style="stroke:#000000;stroke-width:1;"/><polygon fill="#000000" points="279.9079,285.7617,270.9079,281.7617,274.9079,285.7617,270.9079,289.7617,279.9079,285.7617" style="stroke:#000000;stroke-width:1;"/></g><g class="legend" data-source-line="12"><rect fill="none" height="144.3477" rx="5" ry="5" style="stroke:#000000;stroke-width:1;" width="202.6777" x="990.3223" y="768.7617"/><text fill="#000000" font-family="'Segoe UI'" font-size="14" font-weight="bold" lengthAdjust="spacing" textLength="22.8662" x="999.1846" y="790.8691">Cor</text><text fill="#000000" font-family="'Segoe UI'" font-size="14" font-weight="bold" lengthAdjust="spacing" textLength="52.8281" x="1029.7754" y="790.8691">Camada</text><rect fill="#1565C0" height="18.6211" style="stroke:none;stroke-width:1;" width="30.5908" x="995.3223" y="794.3828"/><text fill="#000000" font-family="'Segoe UI'" font-size="14" lengthAdjust="spacing" textLength="3.835" x="995.3223" y="809.4902">&#160;</text><text fill="#000000" font-family="'Segoe UI'" font-size="14" lengthAdjust="spacing" textLength="84.2939" x="1029.748" y="809.4902">Apresentacao</text><rect fill="#0277BD" height="18.6211" style="stroke:none;stroke-width:1;" width="30.5908" x="995.3223" y="813.0039"/><text fill="#000000" font-family="'Segoe UI'" font-size="14" lengthAdjust="spacing" textLength="3.835" x="995.3223" y="828.1113">&#160;</text><text fill="#000000" font-family="'Segoe UI'" font-size="14" lengthAdjust="spacing" textLength="59.4248" x="1029.748" y="828.1113">Aplicacao</text><rect fill="#00838F" height="18.6211" style="stroke:none;stroke-width:1;" width="30.5908" x="995.3223" y="831.625"/><text fill="#000000" font-family="'Segoe UI'" font-size="14" lengthAdjust="spacing" textLength="3.835" x="995.3223" y="846.7324">&#160;</text><text fill="#000000" font-family="'Segoe UI'" font-size="14" lengthAdjust="spacing" textLength="52.9854" x="1029.748" y="846.7324">Dominio</text><rect fill="#00695C" height="18.6211" style="stroke:none;stroke-width:1;" width="30.5908" x="995.3223" y="850.2461"/><text fill="#000000" font-family="'Segoe UI'" font-size="14" lengthAdjust="spacing" textLength="3.835" x="995.3223" y="865.3535">&#160;</text><text fill="#000000" font-family="'Segoe UI'" font-size="14" lengthAdjust="spacing" textLength="83.4736" x="1029.748" y="865.3535">Infraestrutura</text><rect fill="#AD1457" height="18.6211" style="stroke:none;stroke-width:1;" width="30.5908" x="995.3223" y="868.8672"/><text fill="#000000" font-family="'Segoe UI'" font-size="14" lengthAdjust="spacing" textLength="3.835" x="995.3223" y="883.9746">&#160;</text><text fill="#000000" font-family="'Segoe UI'" font-size="14" lengthAdjust="spacing" textLength="100.0781" x="1029.748" y="883.9746">Observabilidade</text><rect fill="#9E9E9E" height="18.6211" style="stroke:none;stroke-width:1;" width="30.5908" x="995.3223" y="887.4883"/><text fill="#000000" font-family="'Segoe UI'" font-size="14" lengthAdjust="spacing" textLength="3.835" x="995.3223" y="902.5957">&#160;</text><text fill="#000000" font-family="'Segoe UI'" font-size="14" lengthAdjust="spacing" textLength="154.417" x="1029.748" y="902.5957">Dados Sigilosos (Isolado)</text><line style="stroke:#000000;stroke-width:1;" x1="995.3223" x2="1188" y1="775.7617" y2="775.7617"/><line style="stroke:#000000;stroke-width:1;" x1="995.3223" x2="1188" y1="794.3828" y2="794.3828"/><line style="stroke:#000000;stroke-width:1;" x1="995.3223" x2="1188" y1="813.0039" y2="813.0039"/><line style="stroke:#000000;stroke-width:1;" x1="995.3223" x2="1188" y1="831.625" y2="831.625"/><line style="stroke:#000000;stroke-width:1;" x1="995.3223" x2="1188" y1="850.2461" y2="850.2461"/><line style="stroke:#000000;stroke-width:1;" x1="995.3223" x2="1188" y1="868.8672" y2="868.8672"/><line style="stroke:#000000;stroke-width:1;" x1="995.3223" x2="1188" y1="887.4883" y2="887.4883"/><line style="stroke:#000000;stroke-width:1;" x1="995.3223" x2="1188" y1="906.1094" y2="906.1094"/><line style="stroke:#000000;stroke-width:1;" x1="995.3223" x2="995.3223" y1="775.7617" y2="906.1094"/><line style="stroke:#000000;stroke-width:1;" x1="1025.9131" x2="1025.9131" y1="775.7617" y2="906.1094"/><line style="stroke:#000000;stroke-width:1;" x1="1188" x2="1188" y1="775.7617" y2="906.1094"/></g><g class="footer" data-source-line="70"><text fill="#000000" font-family="'Segoe UI'" font-size="10" lengthAdjust="spacing" textLength="9.4482" x="417.8232" y="934.9004">\n</text><text fill="#000000" font-family="'Segoe UI'" font-size="10" lengthAdjust="spacing" textLength="357.9053" x="427.2715" y="934.9004">Sistema_deteccao_de_atividades - Diagrama para portifolio (sem dados sensiveis)</text></g><?plantuml-src VLPjR-Cs3FxkNw6r7zO62nQtbxuClG1Tcc05rlRGxFPbDmYCJJj4RScJv7JTRlzzbE8qjfCj0MA5V2XIV4ZAtxWLbYYg0aX5zeLK1GPAiOJa9JUwLkbK5zg8u_dCVrk853Ee2pVNoZq2xt2qm5oZ-7n_T1YqeBzGn75BMR4Fo77XtWeK1XC7AY-m1R0hIFKhgLnaKDYsfedCA3GY7hKK1IbqRnKARTnAHv4ZnviF1Wko3akGAJfC4j2yaE1eJIcaQ0U3Br_KZUK8VuZF9xVcZveSkjg0GF6WqxhGLdmof1AgWEpDznuvsPd4asUqTQc5Zq5Kx9eoNP1kW55KO8ug5ORobOk4-FfHSEpX0IMa8BvweRWvZiSNu-bemklRog15vO1ZVLUFpYulVxpRg0jAkhhHrVdLtElkT4cAsfgBw_7KQ-vLPW2jCtKusnPmUnT_65zwmDFIebd3aegGbtV4zSn_m-RCY1KBoebpmgkJUwiBbfqorXznSz8eQhWLH_lfEn9WHSdb9cvkdhUiJoRYU7O-FvlVYR_PQQBBIYi-lpYIidhZewvGoc2v_PUIwG83RMjszNawvwA80neQeQoJJBBmFqn-WZMOj6kn2hA-WQDSsmOOrbt0LAkCSiwkvoQKGyBDOM1ZahIqib5qxLzy_L9YXoauiEY2sLOe6s7qJol1qmAiHSkLEgzLedbr0gLcak6qySb4zZDzDH_FhdkP_Wt_PAF4oH9JWeegb2_uLcbIplw-tKd6XsqmooWX5d6aCaFW0iEMrLdNQbbJaSh2kbAMh2vsmFCkq9V9JlcXgypP5JSmQbc1Mra9YlU49HOjn-EkYK-Wv0hbn3jjTh2BG_7rGhiyVF8rxGuiCwFBJKmxkwkk7JTsPNI2TXEmXJK6NdS6rrq3lNHeP6qAQPojMaoCkZXk-eJ0o9AMBUznZp37_RyFEZkyrIikkKfRkFE3c-t1UaHzGfDfKu9Ay44hwcG-xZ4a9JjtKhOGFNAavtt5hVaA1XcTjG_I8uav3FuaawDhaxHhCkuHiuKsxBI0FK9aE8oJAJUo8zqgqBEHRqsb7NgHnSIWiznkuSER30Qz-JaOi7Gu7FBlr62AF29vGdudd7v1nS-4Xn3w4V4h6E8bMRvI1PHBtshehS94yRwK9QyFKzX744NHj-9Z-8ZdsS-tq_kdnzk7sUClJuj67BL6AGSnsH-MVK4NrGp8tly6ivcDpJF83Ww_GyA0tfjvuSROx9DYb6a-eX6xEtWq-VyhNWp57K7ExmZGlwR5YKL-LGdClEVnzFtoZg9_0G00?></g></svg>