<?plantuml 1.2026.1?><svg xmlns="http://www.w3.org/2000/svg" xmlns:xlink="http://www.w3.org/1999/xlink" contentStyleType="text/css" data-diagram-type="DESCRIPTION" height="841px" preserveAspectRatio="none" style="width:1100px;height:841px;background:#FEFEFE;" version="1.1" viewBox="0 0 1100 841" width="1100px" zoomAndPan="magnify"><title>**Sistema_de_gestao**\n&lt;size:13&gt;Arquitetura e Modulos Principais&lt;/size&gt;\n&lt;size:11&gt;Resumo para portifolio&lt;/size&gt;</title><defs/><g><rect fill="#FEFEFE" height="841" style="stroke:none;stroke-width:1;" width="1100" x="0" y="0"/><g class="title" data-source-line="10"><text fill="#000000" font-family="'Segoe UI'" font-size="22" font-weight="bold" lengthAdjust="spacing" textLength="193.5527" x="265.0889" y="38.7402">Sistema_de_gestao</text><text fill="#000000" font-family="'Segoe UI'" font-size="22" font-weight="bold" lengthAdjust="spacing" textLength="22.9023" x="458.6416" y="38.7402">\n</text><text fill="#000000" font-family="'Segoe UI'" font-size="13" font-weight="bold" lengthAdjust="spacing" textLength="201.6841" x="481.5439" y="40.999">Arquitetura e Modulos Principais</text><text fill="#000000" font-family="'Segoe UI'" font-size="22" font-weight="bold" lengthAdjust="spacing" textLength="22.9023" x="683.228" y="38.7402">\n</text><text fill="#000000" font-family="'Segoe UI'" font-size="11" font-weight="bold" lengthAdjust="spacing" textLength="119.7808" x="706.1304" y="41.501">Resumo para portifolio</text></g><!--cluster main--><g class="cluster" data-qualified-name="main" data-source-line="22" id="ent0002"><rect fill="#E3F2FD" height="269.5" rx="5" ry="5" style="stroke:#000000;stroke-width:1;" width="256" x="12" y="62.2617"/><text fill="#000000" font-family="'Segoe UI'" font-size="11" font-style="italic" lengthAdjust="spacing" textLength="57.7285" x="111.1357" y="76.1318">&#171;Rectangle&#187;</text><text fill="#000000" font-family="'Segoe UI'" font-size="11" font-weight="bold" lengthAdjust="spacing" textLength="98.4683" x="90.7659" y="90.7627">Modulos Principais</text></g><!--cluster code--><g class="cluster" data-qualified-name="code" data-source-line="28" id="ent0006"><rect fill="#E8F5E9" height="447" rx="5" ry="5" style="stroke:#000000;stroke-width:1;" width="786" x="308" y="203.2617"/><text fill="#000000" font-family="'Segoe UI'" font-size="11" font-style="italic" lengthAdjust="spacing" textLength="57.7285" x="672.1357" y="217.1318">&#171;Rectangle&#187;</text><text fill="#000000" font-family="'Segoe UI'" font-size="11" font-weight="bold" lengthAdjust="spacing" textLength="143.5156" x="629.2422" y="231.7627">Classes e Funcoes (amostra)</text></g><!--entity backend--><g class="entity" data-qualified-name="main.backend" data-source-line="23" id="ent0003"><rect fill="#FFFFFF" height="44.6309" rx="5" ry="5" style="stroke:#000000;stroke-width:1;" width="81.0674" x="143.5" y="262.7617"/><rect fill="#FFFFFF" height="10" style="stroke:#000000;stroke-width:1;" width="15" x="204.5674" y="267.7617"/><rect fill="#FFFFFF" height="2" style="stroke:#000000;stroke-width:1;" width="4" x="202.5674" y="269.7617"/><rect fill="#FFFFFF" height="2" style="stroke:#000000;stroke-width:1;" width="4" x="202.5674" y="273.7617"/><text fill="#000000" font-family="'Segoe UI'" font-size="11" lengthAdjust="spacing" textLength="41.0674" x="158.5" y="294.6318">backend</text></g><!--entity frontend--><g class="entity" data-qualified-name="main.frontend" data-source-line="24" id="ent0004"><rect fill="#FFFFFF" height="44.6309" rx="5" ry="5" style="stroke:#000000;stroke-width:1;" width="82.1201" x="143" y="118.2617"/><rect fill="#FFFFFF" height="10" style="stroke:#000000;stroke-width:1;" width="15" x="205.1201" y="123.2617"/><rect fill="#FFFFFF" height="2" style="stroke:#000000;stroke-width:1;" width="4" x="203.1201" y="125.2617"/><rect fill="#FFFFFF" height="2" style="stroke:#000000;stroke-width:1;" width="4" x="203.1201" y="129.2617"/><text fill="#000000" font-family="'Segoe UI'" font-size="11" lengthAdjust="spacing" textLength="42.1201" x="158" y="150.1318">frontend</text></g><!--entity scripts--><g class="entity" data-qualified-name="main.scripts" data-source-line="25" id="ent0005"><rect fill="#FFFFFF" height="44.6309" rx="5" ry="5" style="stroke:#000000;stroke-width:1;" width="71.0986" x="36.5" y="118.2617"/><rect fill="#FFFFFF" height="10" style="stroke:#000000;stroke-width:1;" width="15" x="87.5986" y="123.2617"/><rect fill="#FFFFFF" height="2" style="stroke:#000000;stroke-width:1;" width="4" x="85.5986" y="125.2617"/><rect fill="#FFFFFF" height="2" style="stroke:#000000;stroke-width:1;" width="4" x="85.5986" y="129.2617"/><text fill="#000000" font-family="'Segoe UI'" font-size="11" lengthAdjust="spacing" textLength="31.0986" x="51.5" y="150.1318">scripts</text></g><!--entity code_1--><g class="entity" data-qualified-name="code.code_1" data-source-line="29" id="ent0007"><rect fill="#FFFFFF" height="44.6309" rx="5" ry="5" style="stroke:#000000;stroke-width:1;" width="87.502" x="378" y="262.7617"/><rect fill="#FFFFFF" height="10" style="stroke:#000000;stroke-width:1;" width="15" x="445.502" y="267.7617"/><rect fill="#FFFFFF" height="2" style="stroke:#000000;stroke-width:1;" width="4" x="443.502" y="269.7617"/><rect fill="#FFFFFF" height="2" style="stroke:#000000;stroke-width:1;" width="4" x="443.502" y="273.7617"/><text fill="#000000" font-family="'Segoe UI'" font-size="11" lengthAdjust="spacing" textLength="47.502" x="393" y="294.6318">Migration</text></g><!--entity code_2--><g class="entity" data-qualified-name="code.code_2" data-source-line="30" id="ent0008"><rect fill="#FFFFFF" height="44.6309" rx="5" ry="5" style="stroke:#000000;stroke-width:1;" width="61.8013" x="501" y="262.7617"/><rect fill="#FFFFFF" height="10" style="stroke:#000000;stroke-width:1;" width="15" x="542.8013" y="267.7617"/><rect fill="#FFFFFF" height="2" style="stroke:#000000;stroke-width:1;" width="4" x="540.8013" y="269.7617"/><rect fill="#FFFFFF" height="2" style="stroke:#000000;stroke-width:1;" width="4" x="540.8013" y="273.7617"/><text fill="#000000" font-family="'Segoe UI'" font-size="11" lengthAdjust="spacing" textLength="21.8013" x="516" y="294.6318">User</text></g><!--entity code_3--><g class="entity" data-qualified-name="code.code_3" data-source-line="31" id="ent0009"><rect fill="#FFFFFF" height="44.6309" rx="5" ry="5" style="stroke:#000000;stroke-width:1;" width="64.9541" x="598.5" y="262.7617"/><rect fill="#FFFFFF" height="10" style="stroke:#000000;stroke-width:1;" width="15" x="643.4541" y="267.7617"/><rect fill="#FFFFFF" height="2" style="stroke:#000000;stroke-width:1;" width="4" x="641.4541" y="269.7617"/><rect fill="#FFFFFF" height="2" style="stroke:#000000;stroke-width:1;" width="4" x="641.4541" y="273.7617"/><text fill="#000000" font-family="'Segoe UI'" font-size="11" lengthAdjust="spacing" textLength="24.9541" x="613.5" y="294.6318">Meta</text></g><!--entity code_4--><g class="entity" data-qualified-name="code.code_4" data-source-line="32" id="ent0010"><rect fill="#FFFFFF" height="51.9463" rx="5" ry="5" style="stroke:#000000;stroke-width:1;" width="60.2192" x="699" y="259.2617"/><rect fill="#FFFFFF" height="10" style="stroke:#000000;stroke-width:1;" width="15" x="739.2192" y="264.2617"/><rect fill="#FFFFFF" height="2" style="stroke:#000000;stroke-width:1;" width="4" x="737.2192" y="266.2617"/><rect fill="#FFFFFF" height="2" style="stroke:#000000;stroke-width:1;" width="4" x="737.2192" y="270.2617"/><line style="stroke:#000000;stroke-width:1;" x1="700" x2="723" y1="286.5771" y2="286.5771"/><text fill="#000000" font-family="'Segoe UI'" font-size="11" lengthAdjust="spacing" textLength="12.2192" x="723" y="290.6318">str</text><line style="stroke:#000000;stroke-width:1;" x1="735.2192" x2="758.2192" y1="286.5771" y2="286.5771"/></g><!--entity code_5--><g class="entity" data-qualified-name="code.code_5" data-source-line="33" id="ent0011"><rect fill="#FFFFFF" height="44.6309" rx="5" ry="5" style="stroke:#000000;stroke-width:1;" width="86.6104" x="794.5" y="262.7617"/><rect fill="#FFFFFF" height="10" style="stroke:#000000;stroke-width:1;" width="15" x="861.1104" y="267.7617"/><rect fill="#FFFFFF" height="2" style="stroke:#000000;stroke-width:1;" width="4" x="859.1104" y="269.7617"/><rect fill="#FFFFFF" height="2" style="stroke:#000000;stroke-width:1;" width="4" x="859.1104" y="273.7617"/><text fill="#000000" font-family="'Segoe UI'" font-size="11" lengthAdjust="spacing" textLength="46.6104" x="809.5" y="294.6318">full_name</text></g><!--entity code_6--><g class="entity" data-qualified-name="code.code_6" data-source-line="34" id="ent0012"><rect fill="#FFFFFF" height="44.6309" rx="5" ry="5" style="stroke:#000000;stroke-width:1;" width="99.5278" x="372" y="371.2617"/><rect fill="#FFFFFF" height="10" style="stroke:#000000;stroke-width:1;" width="15" x="451.5278" y="376.2617"/><rect fill="#FFFFFF" height="2" style="stroke:#000000;stroke-width:1;" width="4" x="449.5278" y="378.2617"/><rect fill="#FFFFFF" height="2" style="stroke:#000000;stroke-width:1;" width="4" x="449.5278" y="382.2617"/><text fill="#000000" font-family="'Segoe UI'" font-size="11" lengthAdjust="spacing" textLength="59.5278" x="387" y="403.1318">is_employee</text></g><!--entity code_7--><g class="entity" data-qualified-name="code.code_7" data-source-line="35" id="ent0013"><rect fill="#FFFFFF" height="44.6309" rx="5" ry="5" style="stroke:#000000;stroke-width:1;" width="82.335" x="507" y="371.2617"/><rect fill="#FFFFFF" height="10" style="stroke:#000000;stroke-width:1;" width="15" x="569.335" y="376.2617"/><rect fill="#FFFFFF" height="2" style="stroke:#000000;stroke-width:1;" width="4" x="567.335" y="378.2617"/><rect fill="#FFFFFF" height="2" style="stroke:#000000;stroke-width:1;" width="4" x="567.335" y="382.2617"/><text fill="#000000" font-family="'Segoe UI'" font-size="11" lengthAdjust="spacing" textLength="42.335" x="522" y="403.1318">is_admin</text></g><!--entity code_8--><g class="entity" data-qualified-name="code.code_8" data-source-line="36" id="ent0014"><rect fill="#FFFFFF" height="44.6309" rx="5" ry="5" style="stroke:#000000;stroke-width:1;" width="92.7549" x="624.5" y="371.2617"/><rect fill="#FFFFFF" height="10" style="stroke:#000000;stroke-width:1;" width="15" x="697.2549" y="376.2617"/><rect fill="#FFFFFF" height="2" style="stroke:#000000;stroke-width:1;" width="4" x="695.2549" y="378.2617"/><rect fill="#FFFFFF" height="2" style="stroke:#000000;stroke-width:1;" width="4" x="695.2549" y="382.2617"/><text fill="#000000" font-family="'Segoe UI'" font-size="11" lengthAdjust="spacing" textLength="52.7549" x="639.5" y="403.1318">UserProfile</text></g><!--entity code_9--><g class="entity" data-qualified-name="code.code_9" data-source-line="37" id="ent0015"><rect fill="#FFFFFF" height="44.6309" rx="5" ry="5" style="stroke:#000000;stroke-width:1;" width="136.3145" x="753" y="371.2617"/><rect fill="#FFFFFF" height="10" style="stroke:#000000;stroke-width:1;" width="15" x="869.3145" y="376.2617"/><rect fill="#FFFFFF" height="2" style="stroke:#000000;stroke-width:1;" width="4" x="867.3145" y="378.2617"/><rect fill="#FFFFFF" height="2" style="stroke:#000000;stroke-width:1;" width="4" x="867.3145" y="382.2617"/><text fill="#000000" font-family="'Segoe UI'" font-size="11" lengthAdjust="spacing" textLength="96.3145" x="768" y="403.1318">UserProfileSerializer</text></g><!--entity code_10--><g class="entity" data-qualified-name="code.code_10" data-source-line="38" id="ent0016"><rect fill="#FFFFFF" height="44.6309" rx="5" ry="5" style="stroke:#000000;stroke-width:1;" width="105.3608" x="924.5" y="371.2617"/><rect fill="#FFFFFF" height="10" style="stroke:#000000;stroke-width:1;" width="15" x="1009.8608" y="376.2617"/><rect fill="#FFFFFF" height="2" style="stroke:#000000;stroke-width:1;" width="4" x="1007.8608" y="378.2617"/><rect fill="#FFFFFF" height="2" style="stroke:#000000;stroke-width:1;" width="4" x="1007.8608" y="382.2617"/><text fill="#000000" font-family="'Segoe UI'" font-size="11" lengthAdjust="spacing" textLength="65.3608" x="939.5" y="403.1318">UserSerializer</text></g><!--entity code_11--><g class="entity" data-qualified-name="code.code_11" data-source-line="39" id="ent0017"><rect fill="#FFFFFF" height="44.6309" rx="5" ry="5" style="stroke:#000000;stroke-width:1;" width="163.7124" x="340" y="476.2617"/><rect fill="#FFFFFF" height="10" style="stroke:#000000;stroke-width:1;" width="15" x="483.7124" y="481.2617"/><rect fill="#FFFFFF" height="2" style="stroke:#000000;stroke-width:1;" width="4" x="481.7124" y="483.2617"/><rect fill="#FFFFFF" height="2" style="stroke:#000000;stroke-width:1;" width="4" x="481.7124" y="487.2617"/><text fill="#000000" font-family="'Segoe UI'" font-size="11" lengthAdjust="spacing" textLength="123.7124" x="355" y="508.1318">UserRegistrationSerializer</text></g><!--entity code_12--><g class="entity" data-qualified-name="code.code_12" data-source-line="40" id="ent0018"><rect fill="#FFFFFF" height="44.6309" rx="5" ry="5" style="stroke:#000000;stroke-width:1;" width="77.748" x="539" y="476.2617"/><rect fill="#FFFFFF" height="10" style="stroke:#000000;stroke-width:1;" width="15" x="596.748" y="481.2617"/><rect fill="#FFFFFF" height="2" style="stroke:#000000;stroke-width:1;" width="4" x="594.748" y="483.2617"/><rect fill="#FFFFFF" height="2" style="stroke:#000000;stroke-width:1;" width="4" x="594.748" y="487.2617"/><text fill="#000000" font-family="'Segoe UI'" font-size="11" lengthAdjust="spacing" textLength="37.748" x="554" y="508.1318">validate</text></g><!--entity code_13--><g class="entity" data-qualified-name="code.code_13" data-source-line="41" id="ent0019"><rect fill="#FFFFFF" height="44.6309" rx="5" ry="5" style="stroke:#000000;stroke-width:1;" width="69.7344" x="652" y="476.2617"/><rect fill="#FFFFFF" height="10" style="stroke:#000000;stroke-width:1;" width="15" x="701.7344" y="481.2617"/><rect fill="#FFFFFF" height="2" style="stroke:#000000;stroke-width:1;" width="4" x="699.7344" y="483.2617"/><rect fill="#FFFFFF" height="2" style="stroke:#000000;stroke-width:1;" width="4" x="699.7344" y="487.2617"/><text fill="#000000" font-family="'Segoe UI'" font-size="11" lengthAdjust="spacing" textLength="29.7344" x="667" y="508.1318">create</text></g><!--entity code_14--><g class="entity" data-qualified-name="code.code_14" data-source-line="42" id="ent0020"><rect fill="#FFFFFF" height="44.6309" rx="5" ry="5" style="stroke:#000000;stroke-width:1;" width="110.5493" x="757.5" y="476.2617"/><rect fill="#FFFFFF" height="10" style="stroke:#000000;stroke-width:1;" width="15" x="848.0493" y="481.2617"/><rect fill="#FFFFFF" height="2" style="stroke:#000000;stroke-width:1;" width="4" x="846.0493" y="483.2617"/><rect fill="#FFFFFF" height="2" style="stroke:#000000;stroke-width:1;" width="4" x="846.0493" y="487.2617"/><text fill="#000000" font-family="'Segoe UI'" font-size="11" lengthAdjust="spacing" textLength="70.5493" x="772.5" y="508.1318">LoginSerializer</text></g><!--entity code_15--><g class="entity" data-qualified-name="code.code_15" data-source-line="43" id="ent0021"><rect fill="#FFFFFF" height="44.6309" rx="5" ry="5" style="stroke:#000000;stroke-width:1;" width="166.4355" x="904" y="476.2617"/><rect fill="#FFFFFF" height="10" style="stroke:#000000;stroke-width:1;" width="15" x="1050.4355" y="481.2617"/><rect fill="#FFFFFF" height="2" style="stroke:#000000;stroke-width:1;" width="4" x="1048.4355" y="483.2617"/><rect fill="#FFFFFF" height="2" style="stroke:#000000;stroke-width:1;" width="4" x="1048.4355" y="487.2617"/><text fill="#000000" font-family="'Segoe UI'" font-size="11" lengthAdjust="spacing" textLength="126.4355" x="919" y="508.1318">PasswordChangeSerializer</text></g><!--entity code_16--><g class="entity" data-qualified-name="code.code_16" data-source-line="44" id="ent0022"><rect fill="#FFFFFF" height="44.6309" rx="5" ry="5" style="stroke:#000000;stroke-width:1;" width="148.5605" x="347.5" y="581.2617"/><rect fill="#FFFFFF" height="10" style="stroke:#000000;stroke-width:1;" width="15" x="476.0605" y="586.2617"/><rect fill="#FFFFFF" height="2" style="stroke:#000000;stroke-width:1;" width="4" x="474.0605" y="588.2617"/><rect fill="#FFFFFF" height="2" style="stroke:#000000;stroke-width:1;" width="4" x="474.0605" y="592.2617"/><text fill="#000000" font-family="'Segoe UI'" font-size="11" lengthAdjust="spacing" textLength="108.5605" x="362.5" y="613.1318">validate_old_password</text></g><!--entity code_17--><g class="entity" data-qualified-name="code.code_17" data-source-line="45" id="ent0023"><rect fill="#FFFFFF" height="44.6309" rx="5" ry="5" style="stroke:#000000;stroke-width:1;" width="61.2856" x="531.5" y="581.2617"/><rect fill="#FFFFFF" height="10" style="stroke:#000000;stroke-width:1;" width="15" x="572.7856" y="586.2617"/><rect fill="#FFFFFF" height="2" style="stroke:#000000;stroke-width:1;" width="4" x="570.7856" y="588.2617"/><rect fill="#FFFFFF" height="2" style="stroke:#000000;stroke-width:1;" width="4" x="570.7856" y="592.2617"/><text fill="#000000" font-family="'Segoe UI'" font-size="11" lengthAdjust="spacing" textLength="21.2856" x="546.5" y="613.1318">save</text></g><!--entity code_18--><g class="entity" data-qualified-name="code.code_18" data-source-line="46" id="ent0024"><rect fill="#FFFFFF" height="44.6309" rx="5" ry="5" style="stroke:#000000;stroke-width:1;" width="143.3506" x="627.5" y="581.2617"/><rect fill="#FFFFFF" height="10" style="stroke:#000000;stroke-width:1;" width="15" x="750.8506" y="586.2617"/><rect fill="#FFFFFF" height="2" style="stroke:#000000;stroke-width:1;" width="4" x="748.8506" y="588.2617"/><rect fill="#FFFFFF" height="2" style="stroke:#000000;stroke-width:1;" width="4" x="748.8506" y="592.2617"/><text fill="#000000" font-family="'Segoe UI'" font-size="11" lengthAdjust="spacing" textLength="103.3506" x="642.5" y="613.1318">UserRegistrationView</text></g><!--entity code_19--><g class="entity" data-qualified-name="code.code_19" data-source-line="47" id="ent0025"><rect fill="#FFFFFF" height="44.6309" rx="5" ry="5" style="stroke:#000000;stroke-width:1;" width="90.6763" x="805.5" y="581.2617"/><rect fill="#FFFFFF" height="10" style="stroke:#000000;stroke-width:1;" width="15" x="876.1763" y="586.2617"/><rect fill="#FFFFFF" height="2" style="stroke:#000000;stroke-width:1;" width="4" x="874.1763" y="588.2617"/><rect fill="#FFFFFF" height="2" style="stroke:#000000;stroke-width:1;" width="4" x="874.1763" y="592.2617"/><text fill="#000000" font-family="'Segoe UI'" font-size="11" lengthAdjust="spacing" textLength="50.6763" x="820.5" y="613.1318">login_view</text></g><!--entity code_20--><g class="entity" data-qualified-name="code.code_20" data-source-line="48" id="ent0026"><rect fill="#FFFFFF" height="44.6309" rx="5" ry="5" style="stroke:#000000;stroke-width:1;" width="98.1851" x="932" y="581.2617"/><rect fill="#FFFFFF" height="10" style="stroke:#000000;stroke-width:1;" width="15" x="1010.1851" y="586.2617"/><rect fill="#FFFFFF" height="2" style="stroke:#000000;stroke-width:1;" width="4" x="1008.1851" y="588.2617"/><rect fill="#FFFFFF" height="2" style="stroke:#000000;stroke-width:1;" width="4" x="1008.1851" y="592.2617"/><text fill="#000000" font-family="'Segoe UI'" font-size="11" lengthAdjust="spacing" textLength="58.1851" x="947" y="613.1318">logout_view</text></g><g class="entity" data-qualified-name="secrets" data-source-line="52" id="ent0027"><path d="M295,107.2617 L295,173.7852 A5,5 0 0 0 300,178.7852 L442.189,178.7852 A5,5 0 0 0 447.189,173.7852 L447.189,112.2617 L437.189,102.2617 L300,102.2617 A5,5 0 0 0 295,107.2617" fill="#EEEEEE" style="stroke:#000000;stroke-width:1;"/><path d="M437.189,102.2617 L437.189,109.7617 A2.5,2.5 0 0 0 439.689,112.2617 L447.189,112.2617 L437.189,102.2617" fill="#EEEEEE" style="stroke:#000000;stroke-width:1;"/><text fill="#000000" font-family="'Segoe UI'" font-size="11" font-weight="bold" lengthAdjust="spacing" textLength="80.9209" x="301" y="119.1318">Dados Sigilosos</text><line style="stroke:#000000;stroke-width:1;" x1="296" x2="446.189" y1="121.8926" y2="121.8926"/><text fill="#000000" font-family="'Segoe UI'" font-size="11" lengthAdjust="spacing" textLength="131.189" x="301" y="137.7627">Credenciais, tokens, chaves</text><text fill="#000000" font-family="'Segoe UI'" font-size="11" lengthAdjust="spacing" textLength="106.7827" x="301" y="152.3936">Variaveis de ambiente</text><text fill="#000000" font-family="'Segoe UI'" font-size="11" lengthAdjust="spacing" textLength="82.0757" x="301" y="167.0244">Configs sensiveis</text></g><!--link frontend to backend--><g class="link" data-entity-1="ent0004" data-entity-2="ent0003" data-link-type="dependency" data-source-line="61" id="lnk28"><path d="M184,163.3417 C184,190.3317 184,229.2417 184,256.3617" fill="none" id="frontend-to-backend" style="stroke:#000000;stroke-width:1;"/><polygon fill="#000000" points="184,262.3617,188,253.3617,184,257.3617,180,253.3617,184,262.3617" style="stroke:#000000;stroke-width:1;"/></g><!--link main to code--><g class="link" data-entity-1="ent0002" data-entity-2="ent0006" data-link-type="dependency" data-source-line="62" id="lnk29"><path d="M268.0087,285.2617 C268.0831,285.2617 268.1579,285.2617 268.2331,285.2617 C268.3834,285.2617 268.5353,285.2617 268.6887,285.2617 C268.9956,285.2617 269.3084,285.2617 269.6269,285.2617 C270.264,285.2617 270.9238,285.2617 271.6035,285.2617 C272.9628,285.2617 274.4018,285.2617 275.8978,285.2617 C278.8899,285.2617 282.1103,285.2617 285.3787,285.2617 C291.9156,285.2617 298.6447,285.2617 304.1239,285.2617 C305.4937,285.2617 300.7854,285.2617 301.9764,285.2617" fill="none" id="main-to-code" style="stroke:#000000;stroke-width:1;"/><polygon fill="#000000" points="307.9764,285.2617,298.9764,281.2617,302.9764,285.2617,298.9764,289.2617,307.9764,285.2617" style="stroke:#000000;stroke-width:1;"/></g><g class="legend" data-source-line="12"><rect fill="none" height="144.3477" rx="5" ry="5" style="stroke:#000000;stroke-width:1;" width="202.6777" x="878.3223" y="660.2617"/><text fill="#000000" font-family="'Segoe UI'" font-size="14" font-weight="bold" lengthAdjust="spacing" textLength="22.8662" x="887.1846" y="682.3691">Cor</text><text fill="#000000" font-family="'Segoe UI'" font-size="14" font-weight="bold" lengthAdjust="spacing" textLength="52.8281" x="917.7754" y="682.3691">Camada</text><rect fill="#1565C0" height="18.6211" style="stroke:none;stroke-width:1;" width="30.5908" x="883.3223" y="685.8828"/><text fill="#000000" font-family="'Segoe UI'" font-size="14" lengthAdjust="spacing" textLength="3.835" x="883.3223" y="700.9902">&#160;</text><text fill="#000000" font-family="'Segoe UI'" font-size="14" lengthAdjust="spacing" textLength="84.2939" x="917.748" y="700.9902">Apresentacao</text><rect fill="#0277BD" height="18.6211" style="stroke:none;stroke-width:1;" width="30.5908" x="883.3223" y="704.5039"/><text fill="#000000" font-family="'Segoe UI'" font-size="14" lengthAdjust="spacing" textLength="3.835" x="883.3223" y="719.6113">&#160;</text><text fill="#000000" font-family="'Segoe UI'" font-size="14" lengthAdjust="spacing" textLength="59.4248" x="917.748" y="719.6113">Aplicacao</text><rect fill="#00838F" height="18.6211" style="stroke:none;stroke-width:1;" width="30.5908" x="883.3223" y="723.125"/><text fill="#000000" font-family="'Segoe UI'" font-size="14" lengthAdjust="spacing" textLength="3.835" x="883.3223" y="738.2324">&#160;</text><text fill="#000000" font-family="'Segoe UI'" font-size="14" lengthAdjust="spacing" textLength="52.9854" x="917.748" y="738.2324">Dominio</text><rect fill="#00695C" height="18.6211" style="stroke:none;stroke-width:1;" width="30.5908" x="883.3223" y="741.7461"/><text fill="#000000" font-family="'Segoe UI'" font-size="14" lengthAdjust="spacing" textLength="3.835" x="883.3223" y="756.8535">&#160;</text><text fill="#000000" font-family="'Segoe UI'" font-size="14" lengthAdjust="spacing" textLength="83.4736" x="917.748" y="756.8535">Infraestrutura</text><rect fill="#AD1457" height="18.6211" style="stroke:none;stroke-width:1;" width="30.5908" x="883.3223" y="760.3672"/><text fill="#000000" font-family="'Segoe UI'" font-size="14" lengthAdjust="spacing" textLength="3.835" x="883.3223" y="775.4746">&#160;</text><text fill="#000000" font-family="'Segoe UI'" font-size="14" lengthAdjust="spacing" textLength="100.0781" x="917.748" y="775.4746">Observabilidade</text><rect fill="#9E9E9E" height="18.6211" style="stroke:none;stroke-width:1;" width="30.5908" x="883.3223" y="778.9883"/><text fill="#000000" font-family="'Segoe UI'" font-size="14" lengthAdjust="spacing" textLength="3.835" x="883.3223" y="794.0957">&#160;</text><text fill="#000000" font-family="'Segoe UI'" font-size="14" lengthAdjust="spacing" textLength="154.417" x="917.748" y="794.0957">Dados Sigilosos (Isolado)</text><line style="stroke:#000000;stroke-width:1;" x1="883.3223" x2="1076" y1="667.2617" y2="667.2617"/><line style="stroke:#000000;stroke-width:1;" x1="883.3223" x2="1076" y1="685.8828" y2="685.8828"/><line style="stroke:#000000;stroke-width:1;" x1="883.3223" x2="1076" y1="704.5039" y2="704.5039"/><line style="stroke:#000000;stroke-width:1;" x1="883.3223" x2="1076" y1="723.125" y2="723.125"/><line style="stroke:#000000;stroke-width:1;" x1="883.3223" x2="1076" y1="741.7461" y2="741.7461"/><line style="stroke:#000000;stroke-width:1;" x1="883.3223" x2="1076" y1="760.3672" y2="760.3672"/><line style="stroke:#000000;stroke-width:1;" x1="883.3223" x2="1076" y1="778.9883" y2="778.9883"/><line style="stroke:#000000;stroke-width:1;" x1="883.3223" x2="1076" y1="797.6094" y2="797.6094"/><line style="stroke:#000000;stroke-width:1;" x1="883.3223" x2="883.3223" y1="667.2617" y2="797.6094"/><line style="stroke:#000000;stroke-width:1;" x1="913.9131" x2="913.9131" y1="667.2617" y2="797.6094"/><line style="stroke:#000000;stroke-width:1;" x1="1076" x2="1076" y1="667.2617" y2="797.6094"/></g><g class="footer" data-source-line="63"><text fill="#000000" font-family="'Segoe UI'" font-size="10" lengthAdjust="spacing" textLength="9.4482" x="391.2349" y="826.4004">\n</text><text fill="#000000" font-family="'Segoe UI'" font-size="10" lengthAdjust="spacing" textLength="299.082" x="400.6831" y="826.4004">Sistema_de_gestao - Diagrama para portifolio (sem dados sensiveis)</text></g><?plantuml-src VLLjRzis4FwkNt5BFYmn5inAwZWUN0EUOmC1cXV4Qx-iXN2HplAX5AcHb8DqtN_VKVMBB7kJ08lcynpvt1tl-9DVKa5GAcGTkQ-iIxHOm0kcNtDhAfrDZ38MJcVJy3OO6IsmKdvcj7z0MU5aJhaX-7XtSfmqvsy4STm0Iza3SvhxDqLWAVMeSqKDWbjYPbvPvx10vPh8MfdLP27kDW35clnRIM2iNveeyknbyKvdpivJWKb6IKxEe-bqFd_MGoUYVeklHcFxLyMUV6KH2EvDLYdZuCcoJhb4TiDV0tEqCub7p-Igma3O5ahPZHT6iLaJeqXHJZe3o_dIHm3VtuF8hJzOO8RmFKp2y3JkNVSctP6CnwKbHzfZYcOBTo_x_TzlVy2AqtsiUtDrCmlOhIbOSnEv7lGc0RdJ2ulYiArgtpQ4yMtyhjSFXCSNHtQ5BwmumuosZC4qlFNYaWG7SyvPOYAZipjdbCoT2pUu-CFJA5gd4quEmtS2wA2G4mR3uVCcqQCHd4wlPfUpM_XRDarDKHej_iEVuV39ab-2rNgyJrXOEL0RnkRFFiMbballQiPw7FtJ43bHw1mvoVQiqgcHqHaMHWA5vxNQr4WmscflPhtfeAtsddEBdet-ih5Budt6Hmdn3hnicPF77NYr3oQ9A4gI7Vwk5OXAgKHB-UqOlNq6kuIAKfatQd2k3pYOoGdQ4Vg73ZnPis3LMEJcFpbpienAwg3XzU2GVOmcnNp0UwQSGs92Z8_QjCAzmd2MVKDgt8fvQcaVRuNzWydv-5Qj-3_98NerDfiivP0SzJlk7HUN69KbvTgyGM-bnk6ggRF__z7vnFJQOBSof89NoMgVCpZWcCgtI9VTK3hQUAghYIHytaavr8_OTpgj7j7foEp5nONyJYnb96r0ki0lu8tKidpJfRZb1Fs44h4LiPER0h1uOH51mShe1UTXB-quu7Md2GgYAFePtjSFF4y_Z2TtZm_Z--d37u_pzNIqQGYYOBJj7tNt2HF1esXXP2aBktxU7HtS4701junIsmMskpoSEPBBhNPwA_5ys_kZw5y0?></g></svg>