<?plantuml 1.2026.1?><svg xmlns="http://www.w3.org/2000/svg" xmlns:xlink="http://www.w3.org/1999/xlink" contentStyleType="text/css" data-diagram-type="DESCRIPTION" height="834px" preserveAspectRatio="none" style="width:961px;height:834px;background:#FEFEFE;" version="1.1" viewBox="0 0 961 834" width="961px" zoomAndPan="magnify"><title>**Site_GRW**\n&lt;size:13&gt;Arquitetura e Modulos Principais&lt;/size&gt;\n&lt;size:11&gt;Resumo para portifolio&lt;/size&gt;</title><defs/><g><rect fill="#FEFEFE" height="834" style="stroke:none;stroke-width:1;" width="961" x="0" y="0"/><g class="title" data-source-line="10"><text fill="#000000" font-family="'Segoe UI'" font-size="22" font-weight="bold" lengthAdjust="spacing" textLength="100.2891" x="242.2207" y="38.7402">Site_GRW</text><text fill="#000000" font-family="'Segoe UI'" font-size="22" font-weight="bold" lengthAdjust="spacing" textLength="22.9023" x="342.5098" y="38.7402">\n</text><text fill="#000000" font-family="'Segoe UI'" font-size="13" font-weight="bold" lengthAdjust="spacing" textLength="201.6841" x="365.4121" y="40.999">Arquitetura e Modulos Principais</text><text fill="#000000" font-family="'Segoe UI'" font-size="22" font-weight="bold" lengthAdjust="spacing" textLength="22.9023" x="567.0962" y="38.7402">\n</text><text fill="#000000" font-family="'Segoe UI'" font-size="11" font-weight="bold" lengthAdjust="spacing" textLength="119.7808" x="589.9985" y="41.501">Resumo para portifolio</text></g><!--cluster main--><g class="cluster" data-qualified-name="main" data-source-line="22" id="ent0002"><rect fill="#E3F2FD" height="371" rx="5" ry="5" style="stroke:#000000;stroke-width:1;" width="174" x="12" y="62.2617"/><text fill="#000000" font-family="'Segoe UI'" font-size="11" font-style="italic" lengthAdjust="spacing" textLength="57.7285" x="70.1357" y="76.1318">&#171;Rectangle&#187;</text><text fill="#000000" font-family="'Segoe UI'" font-size="11" font-weight="bold" lengthAdjust="spacing" textLength="98.4683" x="49.7659" y="90.7627">Modulos Principais</text></g><!--cluster code--><g class="cluster" data-qualified-name="code" data-source-line="28" id="ent0006"><rect fill="#E8F5E9" height="440" rx="5" ry="5" style="stroke:#000000;stroke-width:1;" width="729" x="226" y="203.2617"/><text fill="#000000" font-family="'Segoe UI'" font-size="11" font-style="italic" lengthAdjust="spacing" textLength="57.7285" x="561.6357" y="217.1318">&#171;Rectangle&#187;</text><text fill="#000000" font-family="'Segoe UI'" font-size="11" font-weight="bold" lengthAdjust="spacing" textLength="143.5156" x="518.7422" y="231.7627">Classes e Funcoes (amostra)</text></g><!--entity claude_dir--><g class="entity" data-qualified-name="main.claude_dir" data-source-line="23" id="ent0003"><rect fill="#FFFFFF" height="44.6309" rx="5" ry="5" style="stroke:#000000;stroke-width:1;" width="74.1816" x="58" y="118.2617"/><rect fill="#FFFFFF" height="10" style="stroke:#000000;stroke-width:1;" width="15" x="112.1816" y="123.2617"/><rect fill="#FFFFFF" height="2" style="stroke:#000000;stroke-width:1;" width="4" x="110.1816" y="125.2617"/><rect fill="#FFFFFF" height="2" style="stroke:#000000;stroke-width:1;" width="4" x="110.1816" y="129.2617"/><text fill="#000000" font-family="'Segoe UI'" font-size="11" lengthAdjust="spacing" textLength="34.1816" x="73" y="150.1318">.claude</text></g><!--entity grw_engenharia--><g class="entity" data-qualified-name="main.grw_engenharia" data-source-line="24" id="ent0004"><rect fill="#FFFFFF" height="44.6309" rx="5" ry="5" style="stroke:#000000;stroke-width:1;" width="116.9893" x="36.5" y="259.2617"/><rect fill="#FFFFFF" height="10" style="stroke:#000000;stroke-width:1;" width="15" x="133.4893" y="264.2617"/><rect fill="#FFFFFF" height="2" style="stroke:#000000;stroke-width:1;" width="4" x="131.4893" y="266.2617"/><rect fill="#FFFFFF" height="2" style="stroke:#000000;stroke-width:1;" width="4" x="131.4893" y="270.2617"/><text fill="#000000" font-family="'Segoe UI'" font-size="11" lengthAdjust="spacing" textLength="76.9893" x="51.5" y="291.1318">grw-engenharia</text></g><!--entity imagens_dir--><g class="entity" data-qualified-name="main.imagens_dir" data-source-line="25" id="ent0005"><rect fill="#FFFFFF" height="44.6309" rx="5" ry="5" style="stroke:#000000;stroke-width:1;" width="81.1211" x="54.5" y="364.2617"/><rect fill="#FFFFFF" height="10" style="stroke:#000000;stroke-width:1;" width="15" x="115.6211" y="369.2617"/><rect fill="#FFFFFF" height="2" style="stroke:#000000;stroke-width:1;" width="4" x="113.6211" y="371.2617"/><rect fill="#FFFFFF" height="2" style="stroke:#000000;stroke-width:1;" width="4" x="113.6211" y="375.2617"/><text fill="#000000" font-family="'Segoe UI'" font-size="11" lengthAdjust="spacing" textLength="41.1211" x="69.5" y="396.1318">Imagens</text></g><!--entity code_1--><g class="entity" data-qualified-name="code.code_1" data-source-line="29" id="ent0007"><rect fill="#FFFFFF" height="44.6309" rx="5" ry="5" style="stroke:#000000;stroke-width:1;" width="79.3057" x="269.5" y="259.2617"/><rect fill="#FFFFFF" height="10" style="stroke:#000000;stroke-width:1;" width="15" x="328.8057" y="264.2617"/><rect fill="#FFFFFF" height="2" style="stroke:#000000;stroke-width:1;" width="4" x="326.8057" y="266.2617"/><rect fill="#FFFFFF" height="2" style="stroke:#000000;stroke-width:1;" width="4" x="326.8057" y="270.2617"/><text fill="#000000" font-family="'Segoe UI'" font-size="11" lengthAdjust="spacing" textLength="39.3057" x="284.5" y="291.1318">position</text></g><!--entity code_2--><g class="entity" data-qualified-name="code.code_2" data-source-line="30" id="ent0008"><rect fill="#FFFFFF" height="44.6309" rx="5" ry="5" style="stroke:#000000;stroke-width:1;" width="83.5381" x="384" y="259.2617"/><rect fill="#FFFFFF" height="10" style="stroke:#000000;stroke-width:1;" width="15" x="447.5381" y="264.2617"/><rect fill="#FFFFFF" height="2" style="stroke:#000000;stroke-width:1;" width="4" x="445.5381" y="266.2617"/><rect fill="#FFFFFF" height="2" style="stroke:#000000;stroke-width:1;" width="4" x="445.5381" y="270.2617"/><text fill="#000000" font-family="'Segoe UI'" font-size="11" lengthAdjust="spacing" textLength="43.5381" x="399" y="291.1318">unclosed</text></g><!--entity code_3--><g class="entity" data-qualified-name="code.code_3" data-source-line="31" id="ent0009"><rect fill="#FFFFFF" height="44.6309" rx="5" ry="5" style="stroke:#000000;stroke-width:1;" width="86.6426" x="503.5" y="259.2617"/><rect fill="#FFFFFF" height="10" style="stroke:#000000;stroke-width:1;" width="15" x="570.1426" y="264.2617"/><rect fill="#FFFFFF" height="2" style="stroke:#000000;stroke-width:1;" width="4" x="568.1426" y="266.2617"/><rect fill="#FFFFFF" height="2" style="stroke:#000000;stroke-width:1;" width="4" x="568.1426" y="270.2617"/><text fill="#000000" font-family="'Segoe UI'" font-size="11" lengthAdjust="spacing" textLength="46.6426" x="518.5" y="291.1318">endOfFile</text></g><!--entity code_4--><g class="entity" data-qualified-name="code.code_4" data-source-line="32" id="ent0010"><rect fill="#FFFFFF" height="44.6309" rx="5" ry="5" style="stroke:#000000;stroke-width:1;" width="90.4077" x="626" y="259.2617"/><rect fill="#FFFFFF" height="10" style="stroke:#000000;stroke-width:1;" width="15" x="696.4077" y="264.2617"/><rect fill="#FFFFFF" height="2" style="stroke:#000000;stroke-width:1;" width="4" x="694.4077" y="266.2617"/><rect fill="#FFFFFF" height="2" style="stroke:#000000;stroke-width:1;" width="4" x="694.4077" y="270.2617"/><text fill="#000000" font-family="'Segoe UI'" font-size="11" lengthAdjust="spacing" textLength="50.4077" x="641" y="291.1318">nextToken</text></g><!--entity code_5--><g class="entity" data-qualified-name="code.code_5" data-source-line="33" id="ent0011"><rect fill="#FFFFFF" height="44.6309" rx="5" ry="5" style="stroke:#000000;stroke-width:1;" width="62.6123" x="751.5" y="259.2617"/><rect fill="#FFFFFF" height="10" style="stroke:#000000;stroke-width:1;" width="15" x="794.1123" y="264.2617"/><rect fill="#FFFFFF" height="2" style="stroke:#000000;stroke-width:1;" width="4" x="792.1123" y="266.2617"/><rect fill="#FFFFFF" height="2" style="stroke:#000000;stroke-width:1;" width="4" x="792.1123" y="270.2617"/><text fill="#000000" font-family="'Segoe UI'" font-size="11" lengthAdjust="spacing" textLength="22.6123" x="766.5" y="291.1318">back</text></g><!--entity code_6--><g class="entity" data-qualified-name="code.code_6" data-source-line="34" id="ent0012"><rect fill="#FFFFFF" height="44.6309" rx="5" ry="5" style="stroke:#000000;stroke-width:1;" width="102.2617" x="258" y="364.2617"/><rect fill="#FFFFFF" height="10" style="stroke:#000000;stroke-width:1;" width="15" x="340.2617" y="369.2617"/><rect fill="#FFFFFF" height="2" style="stroke:#000000;stroke-width:1;" width="4" x="338.2617" y="371.2617"/><rect fill="#FFFFFF" height="2" style="stroke:#000000;stroke-width:1;" width="4" x="338.2617" y="375.2617"/><text fill="#000000" font-family="'Segoe UI'" font-size="11" lengthAdjust="spacing" textLength="62.2617" x="273" y="396.1318">registerInput</text></g><!--entity code_7--><g class="entity" data-qualified-name="code.code_7" data-source-line="35" id="ent0013"><rect fill="#FFFFFF" height="44.6309" rx="5" ry="5" style="stroke:#000000;stroke-width:1;" width="108.9165" x="395.5" y="364.2617"/><rect fill="#FFFFFF" height="10" style="stroke:#000000;stroke-width:1;" width="15" x="484.4165" y="369.2617"/><rect fill="#FFFFFF" height="2" style="stroke:#000000;stroke-width:1;" width="4" x="482.4165" y="371.2617"/><rect fill="#FFFFFF" height="2" style="stroke:#000000;stroke-width:1;" width="4" x="482.4165" y="375.2617"/><text fill="#000000" font-family="'Segoe UI'" font-size="11" lengthAdjust="spacing" textLength="68.9165" x="410.5" y="396.1318">getTokenType</text></g><!--entity code_8--><g class="entity" data-qualified-name="code.code_8" data-source-line="36" id="ent0014"><rect fill="#FFFFFF" height="44.6309" rx="5" ry="5" style="stroke:#000000;stroke-width:1;" width="124.8633" x="539.5" y="364.2617"/><rect fill="#FFFFFF" height="10" style="stroke:#000000;stroke-width:1;" width="15" x="644.3633" y="369.2617"/><rect fill="#FFFFFF" height="2" style="stroke:#000000;stroke-width:1;" width="4" x="642.3633" y="371.2617"/><rect fill="#FFFFFF" height="2" style="stroke:#000000;stroke-width:1;" width="4" x="642.3633" y="375.2617"/><text fill="#000000" font-family="'Segoe UI'" font-size="11" lengthAdjust="spacing" textLength="84.8633" x="554.5" y="396.1318">terminalHighlight</text></g><!--entity code_9--><g class="entity" data-qualified-name="code.code_9" data-source-line="37" id="ent0015"><rect fill="#FFFFFF" height="44.6309" rx="5" ry="5" style="stroke:#000000;stroke-width:1;" width="111.3926" x="699.5" y="364.2617"/><rect fill="#FFFFFF" height="10" style="stroke:#000000;stroke-width:1;" width="15" x="790.8926" y="369.2617"/><rect fill="#FFFFFF" height="2" style="stroke:#000000;stroke-width:1;" width="4" x="788.8926" y="371.2617"/><rect fill="#FFFFFF" height="2" style="stroke:#000000;stroke-width:1;" width="4" x="788.8926" y="375.2617"/><text fill="#000000" font-family="'Segoe UI'" font-size="11" lengthAdjust="spacing" textLength="71.3926" x="714.5" y="396.1318">CssSyntaxError</text></g><!--entity code_10--><g class="entity" data-qualified-name="code.code_10" data-source-line="38" id="ent0016"><rect fill="#FFFFFF" height="44.6309" rx="5" ry="5" style="stroke:#000000;stroke-width:1;" width="85.187" x="845.5" y="364.2617"/><rect fill="#FFFFFF" height="10" style="stroke:#000000;stroke-width:1;" width="15" x="910.687" y="369.2617"/><rect fill="#FFFFFF" height="2" style="stroke:#000000;stroke-width:1;" width="4" x="908.687" y="371.2617"/><rect fill="#FFFFFF" height="2" style="stroke:#000000;stroke-width:1;" width="4" x="908.687" y="375.2617"/><text fill="#000000" font-family="'Segoe UI'" font-size="11" lengthAdjust="spacing" textLength="45.187" x="860.5" y="396.1318">capitalize</text></g><!--entity code_11--><g class="entity" data-qualified-name="code.code_11" data-source-line="39" id="ent0017"><rect fill="#FFFFFF" height="44.6309" rx="5" ry="5" style="stroke:#000000;stroke-width:1;" width="87.1099" x="265.5" y="469.2617"/><rect fill="#FFFFFF" height="10" style="stroke:#000000;stroke-width:1;" width="15" x="332.6099" y="474.2617"/><rect fill="#FFFFFF" height="2" style="stroke:#000000;stroke-width:1;" width="4" x="330.6099" y="476.2617"/><rect fill="#FFFFFF" height="2" style="stroke:#000000;stroke-width:1;" width="4" x="330.6099" y="480.2617"/><text fill="#000000" font-family="'Segoe UI'" font-size="11" lengthAdjust="spacing" textLength="47.1099" x="280.5" y="501.1318">Stringifier</text></g><!--entity code_12--><g class="entity" data-qualified-name="code.code_12" data-source-line="40" id="ent0018"><rect fill="#FFFFFF" height="44.6309" rx="5" ry="5" style="stroke:#000000;stroke-width:1;" width="79.0156" x="387.5" y="469.2617"/><rect fill="#FFFFFF" height="10" style="stroke:#000000;stroke-width:1;" width="15" x="446.5156" y="474.2617"/><rect fill="#FFFFFF" height="2" style="stroke:#000000;stroke-width:1;" width="4" x="444.5156" y="476.2617"/><rect fill="#FFFFFF" height="2" style="stroke:#000000;stroke-width:1;" width="4" x="444.5156" y="480.2617"/><text fill="#000000" font-family="'Segoe UI'" font-size="11" lengthAdjust="spacing" textLength="39.0156" x="402.5" y="501.1318">stringify</text></g><!--entity code_13--><g class="entity" data-qualified-name="code.code_13" data-source-line="41" id="ent0019"><rect fill="#FFFFFF" height="44.6309" rx="5" ry="5" style="stroke:#000000;stroke-width:1;" width="93.0718" x="501.5" y="469.2617"/><rect fill="#FFFFFF" height="10" style="stroke:#000000;stroke-width:1;" width="15" x="574.5718" y="474.2617"/><rect fill="#FFFFFF" height="2" style="stroke:#000000;stroke-width:1;" width="4" x="572.5718" y="476.2617"/><rect fill="#FFFFFF" height="2" style="stroke:#000000;stroke-width:1;" width="4" x="572.5718" y="480.2617"/><text fill="#000000" font-family="'Segoe UI'" font-size="11" lengthAdjust="spacing" textLength="53.0718" x="516.5" y="501.1318">cloneNode</text></g><!--entity code_14--><g class="entity" data-qualified-name="code.code_14" data-source-line="42" id="ent0020"><rect fill="#FFFFFF" height="44.6309" rx="5" ry="5" style="stroke:#000000;stroke-width:1;" width="101.3218" x="629.5" y="469.2617"/><rect fill="#FFFFFF" height="10" style="stroke:#000000;stroke-width:1;" width="15" x="710.8218" y="474.2617"/><rect fill="#FFFFFF" height="2" style="stroke:#000000;stroke-width:1;" width="4" x="708.8218" y="476.2617"/><rect fill="#FFFFFF" height="2" style="stroke:#000000;stroke-width:1;" width="4" x="708.8218" y="480.2617"/><text fill="#000000" font-family="'Segoe UI'" font-size="11" lengthAdjust="spacing" textLength="61.3218" x="644.5" y="501.1318">sourceOffset</text></g><!--entity code_15--><g class="entity" data-qualified-name="code.code_15" data-source-line="43" id="ent0021"><rect fill="#FFFFFF" height="44.6309" rx="5" ry="5" style="stroke:#000000;stroke-width:1;" width="66.9038" x="765.5" y="469.2617"/><rect fill="#FFFFFF" height="10" style="stroke:#000000;stroke-width:1;" width="15" x="812.4038" y="474.2617"/><rect fill="#FFFFFF" height="2" style="stroke:#000000;stroke-width:1;" width="4" x="810.4038" y="476.2617"/><rect fill="#FFFFFF" height="2" style="stroke:#000000;stroke-width:1;" width="4" x="810.4038" y="480.2617"/><text fill="#000000" font-family="'Segoe UI'" font-size="11" lengthAdjust="spacing" textLength="26.9038" x="780.5" y="501.1318">Node</text></g><!--entity code_16--><g class="entity" data-qualified-name="code.code_16" data-source-line="44" id="ent0022"><rect fill="#FFFFFF" height="44.6309" rx="5" ry="5" style="stroke:#000000;stroke-width:1;" width="87.9102" x="265" y="574.2617"/><rect fill="#FFFFFF" height="10" style="stroke:#000000;stroke-width:1;" width="15" x="332.9102" y="579.2617"/><rect fill="#FFFFFF" height="2" style="stroke:#000000;stroke-width:1;" width="4" x="330.9102" y="581.2617"/><rect fill="#FFFFFF" height="2" style="stroke:#000000;stroke-width:1;" width="4" x="330.9102" y="585.2617"/><text fill="#000000" font-family="'Segoe UI'" font-size="11" lengthAdjust="spacing" textLength="47.9102" x="280" y="606.1318">Comment</text></g><!--entity code_17--><g class="entity" data-qualified-name="code.code_17" data-source-line="45" id="ent0023"><rect fill="#FFFFFF" height="44.6309" rx="5" ry="5" style="stroke:#000000;stroke-width:1;" width="95.29" x="388.5" y="574.2617"/><rect fill="#FFFFFF" height="10" style="stroke:#000000;stroke-width:1;" width="15" x="463.79" y="579.2617"/><rect fill="#FFFFFF" height="2" style="stroke:#000000;stroke-width:1;" width="4" x="461.79" y="581.2617"/><rect fill="#FFFFFF" height="2" style="stroke:#000000;stroke-width:1;" width="4" x="461.79" y="585.2617"/><text fill="#000000" font-family="'Segoe UI'" font-size="11" lengthAdjust="spacing" textLength="55.29" x="403.5" y="606.1318">Declaration</text></g><!--entity code_18--><g class="entity" data-qualified-name="code.code_18" data-source-line="46" id="ent0024"><rect fill="#FFFFFF" height="44.6309" rx="5" ry="5" style="stroke:#000000;stroke-width:1;" width="98.4912" x="519" y="574.2617"/><rect fill="#FFFFFF" height="10" style="stroke:#000000;stroke-width:1;" width="15" x="597.4912" y="579.2617"/><rect fill="#FFFFFF" height="2" style="stroke:#000000;stroke-width:1;" width="4" x="595.4912" y="581.2617"/><rect fill="#FFFFFF" height="2" style="stroke:#000000;stroke-width:1;" width="4" x="595.4912" y="585.2617"/><text fill="#000000" font-family="'Segoe UI'" font-size="11" lengthAdjust="spacing" textLength="58.4912" x="534" y="606.1318">cleanSource</text></g><!--entity code_19--><g class="entity" data-qualified-name="code.code_19" data-source-line="47" id="ent0025"><rect fill="#FFFFFF" height="44.6309" rx="5" ry="5" style="stroke:#000000;stroke-width:1;" width="108.707" x="652.5" y="574.2617"/><rect fill="#FFFFFF" height="10" style="stroke:#000000;stroke-width:1;" width="15" x="741.207" y="579.2617"/><rect fill="#FFFFFF" height="2" style="stroke:#000000;stroke-width:1;" width="4" x="739.207" y="581.2617"/><rect fill="#FFFFFF" height="2" style="stroke:#000000;stroke-width:1;" width="4" x="739.207" y="585.2617"/><text fill="#000000" font-family="'Segoe UI'" font-size="11" lengthAdjust="spacing" textLength="68.707" x="667.5" y="606.1318">markTreeDirty</text></g><!--entity code_20--><g class="entity" data-qualified-name="code.code_20" data-source-line="48" id="ent0026"><rect fill="#FFFFFF" height="44.6309" rx="5" ry="5" style="stroke:#000000;stroke-width:1;" width="87.271" x="796.5" y="574.2617"/><rect fill="#FFFFFF" height="10" style="stroke:#000000;stroke-width:1;" width="15" x="863.771" y="579.2617"/><rect fill="#FFFFFF" height="2" style="stroke:#000000;stroke-width:1;" width="4" x="861.771" y="581.2617"/><rect fill="#FFFFFF" height="2" style="stroke:#000000;stroke-width:1;" width="4" x="861.771" y="585.2617"/><text fill="#000000" font-family="'Segoe UI'" font-size="11" lengthAdjust="spacing" textLength="47.271" x="811.5" y="606.1318">Container</text></g><g class="entity" data-qualified-name="secrets" data-source-line="52" id="ent0027"><path d="M213,107.2617 L213,173.7852 A5,5 0 0 0 218,178.7852 L360.189,178.7852 A5,5 0 0 0 365.189,173.7852 L365.189,112.2617 L355.189,102.2617 L218,102.2617 A5,5 0 0 0 213,107.2617" fill="#EEEEEE" style="stroke:#000000;stroke-width:1;"/><path d="M355.189,102.2617 L355.189,109.7617 A2.5,2.5 0 0 0 357.689,112.2617 L365.189,112.2617 L355.189,102.2617" fill="#EEEEEE" style="stroke:#000000;stroke-width:1;"/><text fill="#000000" font-family="'Segoe UI'" font-size="11" font-weight="bold" lengthAdjust="spacing" textLength="80.9209" x="219" y="119.1318">Dados Sigilosos</text><line style="stroke:#000000;stroke-width:1;" x1="214" x2="364.189" y1="121.8926" y2="121.8926"/><text fill="#000000" font-family="'Segoe UI'" font-size="11" lengthAdjust="spacing" textLength="131.189" x="219" y="137.7627">Credenciais, tokens, chaves</text><text fill="#000000" font-family="'Segoe UI'" font-size="11" lengthAdjust="spacing" textLength="106.7827" x="219" y="152.3936">Variaveis de ambiente</text><text fill="#000000" font-family="'Segoe UI'" font-size="11" lengthAdjust="spacing" textLength="82.0757" x="219" y="167.0244">Configs sensiveis</text></g><!--link claude_dir to grw_engenharia--><g class="link" data-entity-1="ent0003" data-entity-2="ent0004" data-link-type="dependency" data-source-line="61" id="lnk28"><path d="M95,163.4117 C95,189.7317 95,226.8717 95,253.1617" fill="none" id="claude_dir-to-grw_engenharia" style="stroke:#000000;stroke-width:1;"/><polygon fill="#000000" points="95,259.1617,99,250.1617,95,254.1617,91,250.1617,95,259.1617" style="stroke:#000000;stroke-width:1;"/></g><!--link grw_engenharia to imagens_dir--><g class="link" data-entity-1="ent0004" data-entity-2="ent0005" data-link-type="dependency" data-source-line="62" id="lnk29"><path d="M95,304.2917 C95,321.8817 95,340.2317 95,357.9117" fill="none" id="grw_engenharia-to-imagens_dir" style="stroke:#000000;stroke-width:1;"/><polygon fill="#000000" points="95,363.9117,99,354.9117,95,358.9117,91,354.9117,95,363.9117" style="stroke:#000000;stroke-width:1;"/></g><!--link main to code--><g class="link" data-entity-1="ent0002" data-entity-2="ent0006" data-link-type="dependency" data-source-line="63" id="lnk30"><path d="M186.0302,282.2617 C186.1072,282.2617 186.1846,282.2617 186.2623,282.2617 C191.2403,282.2617 197.9119,282.2617 204.6863,282.2617 C211.4606,282.2617 218.3378,282.2617 223.727,282.2617 C224.4007,282.2617 225.0511,282.2617 225.6751,282.2617 C225.7531,282.2617 219.8307,282.2617 219.9079,282.2617" fill="none" id="main-to-code" style="stroke:#000000;stroke-width:1;"/><polygon fill="#000000" points="225.9079,282.2617,216.9079,278.2617,220.9079,282.2617,216.9079,286.2617,225.9079,282.2617" style="stroke:#000000;stroke-width:1;"/></g><g class="legend" data-source-line="12"><rect fill="none" height="144.3477" rx="5" ry="5" style="stroke:#000000;stroke-width:1;" width="202.6777" x="739.3223" y="653.2617"/><text fill="#000000" font-family="'Segoe UI'" font-size="14" font-weight="bold" lengthAdjust="spacing" textLength="22.8662" x="748.1846" y="675.3691">Cor</text><text fill="#000000" font-family="'Segoe UI'" font-size="14" font-weight="bold" lengthAdjust="spacing" textLength="52.8281" x="778.7754" y="675.3691">Camada</text><rect fill="#1565C0" height="18.6211" style="stroke:none;stroke-width:1;" width="30.5908" x="744.3223" y="678.8828"/><text fill="#000000" font-family="'Segoe UI'" font-size="14" lengthAdjust="spacing" textLength="3.835" x="744.3223" y="693.9902">&#160;</text><text fill="#000000" font-family="'Segoe UI'" font-size="14" lengthAdjust="spacing" textLength="84.2939" x="778.748" y="693.9902">Apresentacao</text><rect fill="#0277BD" height="18.6211" style="stroke:none;stroke-width:1;" width="30.5908" x="744.3223" y="697.5039"/><text fill="#000000" font-family="'Segoe UI'" font-size="14" lengthAdjust="spacing" textLength="3.835" x="744.3223" y="712.6113">&#160;</text><text fill="#000000" font-family="'Segoe UI'" font-size="14" lengthAdjust="spacing" textLength="59.4248" x="778.748" y="712.6113">Aplicacao</text><rect fill="#00838F" height="18.6211" style="stroke:none;stroke-width:1;" width="30.5908" x="744.3223" y="716.125"/><text fill="#000000" font-family="'Segoe UI'" font-size="14" lengthAdjust="spacing" textLength="3.835" x="744.3223" y="731.2324">&#160;</text><text fill="#000000" font-family="'Segoe UI'" font-size="14" lengthAdjust="spacing" textLength="52.9854" x="778.748" y="731.2324">Dominio</text><rect fill="#00695C" height="18.6211" style="stroke:none;stroke-width:1;" width="30.5908" x="744.3223" y="734.7461"/><text fill="#000000" font-family="'Segoe UI'" font-size="14" lengthAdjust="spacing" textLength="3.835" x="744.3223" y="749.8535">&#160;</text><text fill="#000000" font-family="'Segoe UI'" font-size="14" lengthAdjust="spacing" textLength="83.4736" x="778.748" y="749.8535">Infraestrutura</text><rect fill="#AD1457" height="18.6211" style="stroke:none;stroke-width:1;" width="30.5908" x="744.3223" y="753.3672"/><text fill="#000000" font-family="'Segoe UI'" font-size="14" lengthAdjust="spacing" textLength="3.835" x="744.3223" y="768.4746">&#160;</text><text fill="#000000" font-family="'Segoe UI'" font-size="14" lengthAdjust="spacing" textLength="100.0781" x="778.748" y="768.4746">Observabilidade</text><rect fill="#9E9E9E" height="18.6211" style="stroke:none;stroke-width:1;" width="30.5908" x="744.3223" y="771.9883"/><text fill="#000000" font-family="'Segoe UI'" font-size="14" lengthAdjust="spacing" textLength="3.835" x="744.3223" y="787.0957">&#160;</text><text fill="#000000" font-family="'Segoe UI'" font-size="14" lengthAdjust="spacing" textLength="154.417" x="778.748" y="787.0957">Dados Sigilosos (Isolado)</text><line style="stroke:#000000;stroke-width:1;" x1="744.3223" x2="937" y1="660.2617" y2="660.2617"/><line style="stroke:#000000;stroke-width:1;" x1="744.3223" x2="937" y1="678.8828" y2="678.8828"/><line style="stroke:#000000;stroke-width:1;" x1="744.3223" x2="937" y1="697.5039" y2="697.5039"/><line style="stroke:#000000;stroke-width:1;" x1="744.3223" x2="937" y1="716.125" y2="716.125"/><line style="stroke:#000000;stroke-width:1;" x1="744.3223" x2="937" y1="734.7461" y2="734.7461"/><line style="stroke:#000000;stroke-width:1;" x1="744.3223" x2="937" y1="753.3672" y2="753.3672"/><line style="stroke:#000000;stroke-width:1;" x1="744.3223" x2="937" y1="771.9883" y2="771.9883"/><line style="stroke:#000000;stroke-width:1;" x1="744.3223" x2="937" y1="790.6094" y2="790.6094"/><line style="stroke:#000000;stroke-width:1;" x1="744.3223" x2="744.3223" y1="660.2617" y2="790.6094"/><line style="stroke:#000000;stroke-width:1;" x1="774.9131" x2="774.9131" y1="660.2617" y2="790.6094"/><line style="stroke:#000000;stroke-width:1;" x1="937" x2="937" y1="660.2617" y2="790.6094"/></g><g class="footer" data-source-line="64"><text fill="#000000" font-family="'Segoe UI'" font-size="10" lengthAdjust="spacing" textLength="9.4482" x="342.0986" y="819.4004">\n</text><text fill="#000000" font-family="'Segoe UI'" font-size="10" lengthAdjust="spacing" textLength="258.3545" x="351.5469" y="819.4004">Site_GRW - Diagrama para portifolio (sem dados sensiveis)</text></g><?plantuml-src RPLjRzis4CVVwrFSd1TBZ7cpaZgE1zU0vuVMm1eFSRQzM8VW8fra8XIfabJQhErttr5s8agj3LWqxqVUtLztv0zkJmL1AL6eo3u8LQB10kunUSYDhbIwq58RE5cl_3SWKigmacwjbRj6tg6termJ_BdfVH_QYVy8uZWmbkm3Szgv9qbWA76eSaa1OFUOwez2vP2XjA7b69bHP20U1WOf5Bcdaa0RjzTHv8JZpVlzdN1qz-Rcxtx__NirjHpBh_75R6u-L6nmbK4WUAVJIceBVnYX4b6YiDDVF3bhbiIp6x9LeS5xWvATY4nBeOzW54dAIQLWHBvt4S2Nry1HrWyiC4NuuYTXUXAFBaUBuOp7yzAG9UKmGVrY7fwFnxyj3sOfahPjU7LnjVQsfIw44g7bSZ9QUCj6PGR9EbFLkJq3ysNyQZJsmFRUadd4Uo55YYcz49EL_zQRi_OMTY8Nh0cFJZTMIvuxOzQdUCWqYevl4NhVojS3j51mOS5qUlFyVcSpE5bThC_NI_ZCJXDTb5fn_j3xEP5OfLIlEWplKc7QJ6u-3aYnvpqQWJNAKtVDL1lV51oQEWGY3kDwpwz1t0k9rfBb0bXNAj4yEiL2itPuTWX5ipxT1AxMezMaay0_fRR22Qt-VLvs5xS1tfyLehG1pji0AxhDra9IGroq2KMVtAr-eC39gpRXMxSnZjf6GxcmZin6bPLhgCisbTF1nortKWEDsn3lmkM7yYtNklJrtf1NRN9XxUw9A_pJoXXj6cpInX8iXKF9ZHG8E6mpEyVLbOjCKB1Ft97P7g6d0Ea8pUz1qJLR0gIZjDMLIMYRPPQ2rEAEsfqzEd8lT57m800wIY-9AzrWfsh6tM09rQuE9u0w8XTe7cuDqL8O5oO-wKR4Bu8FoK2-yw7l1wKT-IbBYI5dkSRh3w_kzpjdGR_FiuF1W7yNXbBYTkTk_mcShnb-9djy9ClMltn7FfAmV1405lU2Go2_IgjCvDwNiiBRwnF5Hn15qO_mklx0pUht-MAplPw_MrtVRdV7wQWv6ZY6MRVzstzh8cpy-ZJoapxpADFiqa1plWzdpnS5360fCESx1Rk7FPnQugkjrkGbWxENAo2A_WS0?></g></svg>