<?plantuml 1.2026.1?><svg xmlns="http://www.w3.org/2000/svg" xmlns:xlink="http://www.w3.org/1999/xlink" contentStyleType="text/css" data-diagram-type="DESCRIPTION" height="834px" preserveAspectRatio="none" style="width:1245px;height:834px;background:#FEFEFE;" version="1.1" viewBox="0 0 1245 834" width="1245px" zoomAndPan="magnify"><title>**Sistema_Gerson**\n&lt;size:13&gt;Arquitetura e Modulos Principais&lt;/size&gt;\n&lt;size:11&gt;Resumo para portifolio&lt;/size&gt;</title><defs/><g><rect fill="#FEFEFE" height="834" style="stroke:none;stroke-width:1;" width="1245" x="0" y="0"/><g class="title" data-source-line="10"><text fill="#000000" font-family="'Segoe UI'" font-size="22" font-weight="bold" lengthAdjust="spacing" textLength="162.583" x="353.0737" y="38.7402">Sistema_Gerson</text><text fill="#000000" font-family="'Segoe UI'" font-size="22" font-weight="bold" lengthAdjust="spacing" textLength="22.9023" x="515.6567" y="38.7402">\n</text><text fill="#000000" font-family="'Segoe UI'" font-size="13" font-weight="bold" lengthAdjust="spacing" textLength="201.6841" x="538.5591" y="40.999">Arquitetura e Modulos Principais</text><text fill="#000000" font-family="'Segoe UI'" font-size="22" font-weight="bold" lengthAdjust="spacing" textLength="22.9023" x="740.2432" y="38.7402">\n</text><text fill="#000000" font-family="'Segoe UI'" font-size="11" font-weight="bold" lengthAdjust="spacing" textLength="119.7808" x="763.1455" y="41.501">Resumo para portifolio</text></g><!--cluster main--><g class="cluster" data-qualified-name="main" data-source-line="22" id="ent0002"><rect fill="#E3F2FD" height="266" rx="5" ry="5" style="stroke:#000000;stroke-width:1;" width="235" x="12" y="62.2617"/><text fill="#000000" font-family="'Segoe UI'" font-size="11" font-style="italic" lengthAdjust="spacing" textLength="57.7285" x="100.6357" y="76.1318">&#171;Rectangle&#187;</text><text fill="#000000" font-family="'Segoe UI'" font-size="11" font-weight="bold" lengthAdjust="spacing" textLength="98.4683" x="80.2659" y="90.7627">Modulos Principais</text></g><!--cluster code--><g class="cluster" data-qualified-name="code" data-source-line="27" id="ent0005"><rect fill="#E8F5E9" height="440" rx="5" ry="5" style="stroke:#000000;stroke-width:1;" width="952" x="287" y="203.2617"/><text fill="#000000" font-family="'Segoe UI'" font-size="11" font-style="italic" lengthAdjust="spacing" textLength="57.7285" x="734.1357" y="217.1318">&#171;Rectangle&#187;</text><text fill="#000000" font-family="'Segoe UI'" font-size="11" font-weight="bold" lengthAdjust="spacing" textLength="143.5156" x="691.2422" y="231.7627">Classes e Funcoes (amostra)</text></g><!--entity cursor_browser_tools_mcp--><g class="entity" data-qualified-name="main.cursor_browser_tools_mcp" data-source-line="23" id="ent0003"><rect fill="#FFFFFF" height="44.6309" rx="5" ry="5" style="stroke:#000000;stroke-width:1;" width="167.166" x="36.5" y="118.2617"/><rect fill="#FFFFFF" height="10" style="stroke:#000000;stroke-width:1;" width="15" x="183.666" y="123.2617"/><rect fill="#FFFFFF" height="2" style="stroke:#000000;stroke-width:1;" width="4" x="181.666" y="125.2617"/><rect fill="#FFFFFF" height="2" style="stroke:#000000;stroke-width:1;" width="4" x="181.666" y="129.2617"/><text fill="#000000" font-family="'Segoe UI'" font-size="11" lengthAdjust="spacing" textLength="127.166" x="51.5" y="150.1318">cursor-browser-tools-mcp</text></g><!--entity pee_platform--><g class="entity" data-qualified-name="main.pee_platform" data-source-line="24" id="ent0004"><rect fill="#FFFFFF" height="44.6309" rx="5" ry="5" style="stroke:#000000;stroke-width:1;" width="104.0127" x="68" y="259.2617"/><rect fill="#FFFFFF" height="10" style="stroke:#000000;stroke-width:1;" width="15" x="152.0127" y="264.2617"/><rect fill="#FFFFFF" height="2" style="stroke:#000000;stroke-width:1;" width="4" x="150.0127" y="266.2617"/><rect fill="#FFFFFF" height="2" style="stroke:#000000;stroke-width:1;" width="4" x="150.0127" y="270.2617"/><text fill="#000000" font-family="'Segoe UI'" font-size="11" lengthAdjust="spacing" textLength="64.0127" x="83" y="291.1318">pee-platform</text></g><!--entity code_1--><g class="entity" data-qualified-name="code.code_1" data-source-line="28" id="ent0006"><rect fill="#FFFFFF" height="44.6309" rx="5" ry="5" style="stroke:#000000;stroke-width:1;" width="141.5029" x="330" y="259.2617"/><rect fill="#FFFFFF" height="10" style="stroke:#000000;stroke-width:1;" width="15" x="451.5029" y="264.2617"/><rect fill="#FFFFFF" height="2" style="stroke:#000000;stroke-width:1;" width="4" x="449.5029" y="266.2617"/><rect fill="#FFFFFF" height="2" style="stroke:#000000;stroke-width:1;" width="4" x="449.5029" y="270.2617"/><text fill="#000000" font-family="'Segoe UI'" font-size="11" lengthAdjust="spacing" textLength="101.5029" x="345" y="291.1318">getDefaultServerPort</text></g><!--entity code_2--><g class="entity" data-qualified-name="code.code_2" data-source-line="29" id="ent0007"><rect fill="#FFFFFF" height="44.6309" rx="5" ry="5" style="stroke:#000000;stroke-width:1;" width="143.9951" x="507" y="259.2617"/><rect fill="#FFFFFF" height="10" style="stroke:#000000;stroke-width:1;" width="15" x="630.9951" y="264.2617"/><rect fill="#FFFFFF" height="2" style="stroke:#000000;stroke-width:1;" width="4" x="628.9951" y="266.2617"/><rect fill="#FFFFFF" height="2" style="stroke:#000000;stroke-width:1;" width="4" x="628.9951" y="270.2617"/><text fill="#000000" font-family="'Segoe UI'" font-size="11" lengthAdjust="spacing" textLength="103.9951" x="522" y="291.1318">getDefaultServerHost</text></g><!--entity code_3--><g class="entity" data-qualified-name="code.code_3" data-source-line="30" id="ent0008"><rect fill="#FFFFFF" height="44.6309" rx="5" ry="5" style="stroke:#000000;stroke-width:1;" width="62.2793" x="686" y="259.2617"/><rect fill="#FFFFFF" height="10" style="stroke:#000000;stroke-width:1;" width="15" x="728.2793" y="264.2617"/><rect fill="#FFFFFF" height="2" style="stroke:#000000;stroke-width:1;" width="4" x="726.2793" y="266.2617"/><rect fill="#FFFFFF" height="2" style="stroke:#000000;stroke-width:1;" width="4" x="726.2793" y="270.2617"/><text fill="#000000" font-family="'Segoe UI'" font-size="11" lengthAdjust="spacing" textLength="22.2793" x="701" y="291.1318">gtag</text></g><!--entity code_4--><g class="entity" data-qualified-name="code.code_4" data-source-line="31" id="ent0009"><rect fill="#FFFFFF" height="44.6309" rx="5" ry="5" style="stroke:#000000;stroke-width:1;" width="67.8438" x="783" y="259.2617"/><rect fill="#FFFFFF" height="10" style="stroke:#000000;stroke-width:1;" width="15" x="830.8438" y="264.2617"/><rect fill="#FFFFFF" height="2" style="stroke:#000000;stroke-width:1;" width="4" x="828.8438" y="266.2617"/><rect fill="#FFFFFF" height="2" style="stroke:#000000;stroke-width:1;" width="4" x="828.8438" y="270.2617"/><text fill="#000000" font-family="'Segoe UI'" font-size="11" lengthAdjust="spacing" textLength="27.8438" x="798" y="291.1318">Client</text></g><!--entity code_5--><g class="entity" data-qualified-name="code.code_5" data-source-line="32" id="ent0010"><rect fill="#FFFFFF" height="44.6309" rx="5" ry="5" style="stroke:#000000;stroke-width:1;" width="79.7461" x="886" y="259.2617"/><rect fill="#FFFFFF" height="10" style="stroke:#000000;stroke-width:1;" width="15" x="945.7461" y="264.2617"/><rect fill="#FFFFFF" height="2" style="stroke:#000000;stroke-width:1;" width="4" x="943.7461" y="266.2617"/><rect fill="#FFFFFF" height="2" style="stroke:#000000;stroke-width:1;" width="4" x="943.7461" y="270.2617"/><text fill="#000000" font-family="'Segoe UI'" font-size="11" lengthAdjust="spacing" textLength="39.7461" x="901" y="291.1318">SseError</text></g><!--entity code_6--><g class="entity" data-qualified-name="code.code_6" data-source-line="33" id="ent0011"><rect fill="#FFFFFF" height="44.6309" rx="5" ry="5" style="stroke:#000000;stroke-width:1;" width="131.6362" x="327" y="364.2617"/><rect fill="#FFFFFF" height="10" style="stroke:#000000;stroke-width:1;" width="15" x="438.6362" y="369.2617"/><rect fill="#FFFFFF" height="2" style="stroke:#000000;stroke-width:1;" width="4" x="436.6362" y="371.2617"/><rect fill="#FFFFFF" height="2" style="stroke:#000000;stroke-width:1;" width="4" x="436.6362" y="375.2617"/><text fill="#000000" font-family="'Segoe UI'" font-size="11" lengthAdjust="spacing" textLength="91.6362" x="342" y="396.1318">SSEClientTransport</text></g><!--entity code_7--><g class="entity" data-qualified-name="code.code_7" data-source-line="34" id="ent0012"><rect fill="#FFFFFF" height="44.6309" rx="5" ry="5" style="stroke:#000000;stroke-width:1;" width="152.4761" x="494" y="364.2617"/><rect fill="#FFFFFF" height="10" style="stroke:#000000;stroke-width:1;" width="15" x="626.4761" y="369.2617"/><rect fill="#FFFFFF" height="2" style="stroke:#000000;stroke-width:1;" width="4" x="624.4761" y="371.2617"/><rect fill="#FFFFFF" height="2" style="stroke:#000000;stroke-width:1;" width="4" x="624.4761" y="375.2617"/><text fill="#000000" font-family="'Segoe UI'" font-size="11" lengthAdjust="spacing" textLength="112.4761" x="509" y="396.1318">getDefaultEnvironment</text></g><!--entity code_8--><g class="entity" data-qualified-name="code.code_8" data-source-line="35" id="ent0013"><rect fill="#FFFFFF" height="44.6309" rx="5" ry="5" style="stroke:#000000;stroke-width:1;" width="139.5425" x="681" y="364.2617"/><rect fill="#FFFFFF" height="10" style="stroke:#000000;stroke-width:1;" width="15" x="800.5425" y="369.2617"/><rect fill="#FFFFFF" height="2" style="stroke:#000000;stroke-width:1;" width="4" x="798.5425" y="371.2617"/><rect fill="#FFFFFF" height="2" style="stroke:#000000;stroke-width:1;" width="4" x="798.5425" y="375.2617"/><text fill="#000000" font-family="'Segoe UI'" font-size="11" lengthAdjust="spacing" textLength="99.5425" x="696" y="396.1318">StdioClientTransport</text></g><!--entity code_9--><g class="entity" data-qualified-name="code.code_9" data-source-line="36" id="ent0014"><rect fill="#FFFFFF" height="44.6309" rx="5" ry="5" style="stroke:#000000;stroke-width:1;" width="86.6157" x="856.5" y="364.2617"/><rect fill="#FFFFFF" height="10" style="stroke:#000000;stroke-width:1;" width="15" x="923.1157" y="369.2617"/><rect fill="#FFFFFF" height="2" style="stroke:#000000;stroke-width:1;" width="4" x="921.1157" y="371.2617"/><rect fill="#FFFFFF" height="2" style="stroke:#000000;stroke-width:1;" width="4" x="921.1157" y="375.2617"/><text fill="#000000" font-family="'Segoe UI'" font-size="11" lengthAdjust="spacing" textLength="46.6157" x="871.5" y="396.1318">isElectron</text></g><!--entity code_10--><g class="entity" data-qualified-name="code.code_10" data-source-line="37" id="ent0015"><rect fill="#FFFFFF" height="44.6309" rx="5" ry="5" style="stroke:#000000;stroke-width:1;" width="169.1963" x="978.5" y="364.2617"/><rect fill="#FFFFFF" height="10" style="stroke:#000000;stroke-width:1;" width="15" x="1127.6963" y="369.2617"/><rect fill="#FFFFFF" height="2" style="stroke:#000000;stroke-width:1;" width="4" x="1125.6963" y="371.2617"/><rect fill="#FFFFFF" height="2" style="stroke:#000000;stroke-width:1;" width="4" x="1125.6963" y="375.2617"/><text fill="#000000" font-family="'Segoe UI'" font-size="11" lengthAdjust="spacing" textLength="129.1963" x="993.5" y="396.1318">WebSocketClientTransport</text></g><!--entity code_11--><g class="entity" data-qualified-name="code.code_11" data-source-line="38" id="ent0016"><rect fill="#FFFFFF" height="44.6309" rx="5" ry="5" style="stroke:#000000;stroke-width:1;" width="101.8213" x="337" y="469.2617"/><rect fill="#FFFFFF" height="10" style="stroke:#000000;stroke-width:1;" width="15" x="418.8213" y="474.2617"/><rect fill="#FFFFFF" height="2" style="stroke:#000000;stroke-width:1;" width="4" x="416.8213" y="476.2617"/><rect fill="#FFFFFF" height="2" style="stroke:#000000;stroke-width:1;" width="4" x="416.8213" y="480.2617"/><text fill="#000000" font-family="'Segoe UI'" font-size="11" lengthAdjust="spacing" textLength="61.8213" x="352" y="501.1318">Completable</text></g><!--entity code_12--><g class="entity" data-qualified-name="code.code_12" data-source-line="39" id="ent0017"><rect fill="#FFFFFF" height="44.6309" rx="5" ry="5" style="stroke:#000000;stroke-width:1;" width="100.0918" x="474" y="469.2617"/><rect fill="#FFFFFF" height="10" style="stroke:#000000;stroke-width:1;" width="15" x="554.0918" y="474.2617"/><rect fill="#FFFFFF" height="2" style="stroke:#000000;stroke-width:1;" width="4" x="552.0918" y="476.2617"/><rect fill="#FFFFFF" height="2" style="stroke:#000000;stroke-width:1;" width="4" x="552.0918" y="480.2617"/><text fill="#000000" font-family="'Segoe UI'" font-size="11" lengthAdjust="spacing" textLength="60.0918" x="489" y="501.1318">completable</text></g><!--entity code_13--><g class="entity" data-qualified-name="code.code_13" data-source-line="40" id="ent0018"><rect fill="#FFFFFF" height="44.6309" rx="5" ry="5" style="stroke:#000000;stroke-width:1;" width="143.689" x="609" y="469.2617"/><rect fill="#FFFFFF" height="10" style="stroke:#000000;stroke-width:1;" width="15" x="732.689" y="474.2617"/><rect fill="#FFFFFF" height="2" style="stroke:#000000;stroke-width:1;" width="4" x="730.689" y="476.2617"/><rect fill="#FFFFFF" height="2" style="stroke:#000000;stroke-width:1;" width="4" x="730.689" y="480.2617"/><text fill="#000000" font-family="'Segoe UI'" font-size="11" lengthAdjust="spacing" textLength="103.689" x="624" y="501.1318">processCreateParams</text></g><!--entity code_14--><g class="entity" data-qualified-name="code.code_14" data-source-line="41" id="ent0019"><rect fill="#FFFFFF" height="44.6309" rx="5" ry="5" style="stroke:#000000;stroke-width:1;" width="70.2661" x="788" y="469.2617"/><rect fill="#FFFFFF" height="10" style="stroke:#000000;stroke-width:1;" width="15" x="838.2661" y="474.2617"/><rect fill="#FFFFFF" height="2" style="stroke:#000000;stroke-width:1;" width="4" x="836.2661" y="476.2617"/><rect fill="#FFFFFF" height="2" style="stroke:#000000;stroke-width:1;" width="4" x="836.2661" y="480.2617"/><text fill="#000000" font-family="'Segoe UI'" font-size="11" lengthAdjust="spacing" textLength="30.2661" x="803" y="501.1318">Server</text></g><!--entity code_15--><g class="entity" data-qualified-name="code.code_15" data-source-line="42" id="ent0020"><rect fill="#FFFFFF" height="44.6309" rx="5" ry="5" style="stroke:#000000;stroke-width:1;" width="91.6914" x="893" y="469.2617"/><rect fill="#FFFFFF" height="10" style="stroke:#000000;stroke-width:1;" width="15" x="964.6914" y="474.2617"/><rect fill="#FFFFFF" height="2" style="stroke:#000000;stroke-width:1;" width="4" x="962.6914" y="476.2617"/><rect fill="#FFFFFF" height="2" style="stroke:#000000;stroke-width:1;" width="4" x="962.6914" y="480.2617"/><text fill="#000000" font-family="'Segoe UI'" font-size="11" lengthAdjust="spacing" textLength="51.6914" x="908" y="501.1318">McpServer</text></g><!--entity code_16--><g class="entity" data-qualified-name="code.code_16" data-source-line="43" id="ent0021"><rect fill="#FFFFFF" height="44.6309" rx="5" ry="5" style="stroke:#000000;stroke-width:1;" width="129.5254" x="319" y="574.2617"/><rect fill="#FFFFFF" height="10" style="stroke:#000000;stroke-width:1;" width="15" x="428.5254" y="579.2617"/><rect fill="#FFFFFF" height="2" style="stroke:#000000;stroke-width:1;" width="4" x="426.5254" y="581.2617"/><rect fill="#FFFFFF" height="2" style="stroke:#000000;stroke-width:1;" width="4" x="426.5254" y="585.2617"/><text fill="#000000" font-family="'Segoe UI'" font-size="11" lengthAdjust="spacing" textLength="89.5254" x="334" y="606.1318">ResourceTemplate</text></g><!--entity code_17--><g class="entity" data-qualified-name="code.code_17" data-source-line="44" id="ent0022"><rect fill="#FFFFFF" height="44.6309" rx="5" ry="5" style="stroke:#000000;stroke-width:1;" width="192.9634" x="484.5" y="574.2617"/><rect fill="#FFFFFF" height="10" style="stroke:#000000;stroke-width:1;" width="15" x="657.4634" y="579.2617"/><rect fill="#FFFFFF" height="2" style="stroke:#000000;stroke-width:1;" width="4" x="655.4634" y="581.2617"/><rect fill="#FFFFFF" height="2" style="stroke:#000000;stroke-width:1;" width="4" x="655.4634" y="585.2617"/><text fill="#000000" font-family="'Segoe UI'" font-size="11" lengthAdjust="spacing" textLength="152.9634" x="499.5" y="606.1318">promptArgumentsFromSchema</text></g><!--entity code_18--><g class="entity" data-qualified-name="code.code_18" data-source-line="45" id="ent0023"><rect fill="#FFFFFF" height="44.6309" rx="5" ry="5" style="stroke:#000000;stroke-width:1;" width="156.0264" x="713" y="574.2617"/><rect fill="#FFFFFF" height="10" style="stroke:#000000;stroke-width:1;" width="15" x="849.0264" y="579.2617"/><rect fill="#FFFFFF" height="2" style="stroke:#000000;stroke-width:1;" width="4" x="847.0264" y="581.2617"/><rect fill="#FFFFFF" height="2" style="stroke:#000000;stroke-width:1;" width="4" x="847.0264" y="585.2617"/><text fill="#000000" font-family="'Segoe UI'" font-size="11" lengthAdjust="spacing" textLength="116.0264" x="728" y="606.1318">createCompletionResult</text></g><!--entity code_19--><g class="entity" data-qualified-name="code.code_19" data-source-line="46" id="ent0024"><rect fill="#FFFFFF" height="44.6309" rx="5" ry="5" style="stroke:#000000;stroke-width:1;" width="134.0586" x="904" y="574.2617"/><rect fill="#FFFFFF" height="10" style="stroke:#000000;stroke-width:1;" width="15" x="1018.0586" y="579.2617"/><rect fill="#FFFFFF" height="2" style="stroke:#000000;stroke-width:1;" width="4" x="1016.0586" y="581.2617"/><rect fill="#FFFFFF" height="2" style="stroke:#000000;stroke-width:1;" width="4" x="1016.0586" y="585.2617"/><text fill="#000000" font-family="'Segoe UI'" font-size="11" lengthAdjust="spacing" textLength="94.0586" x="919" y="606.1318">SSEServerTransport</text></g><!--entity code_20--><g class="entity" data-qualified-name="code.code_20" data-source-line="47" id="ent0025"><rect fill="#FFFFFF" height="44.6309" rx="5" ry="5" style="stroke:#000000;stroke-width:1;" width="141.9648" x="1073" y="574.2617"/><rect fill="#FFFFFF" height="10" style="stroke:#000000;stroke-width:1;" width="15" x="1194.9648" y="579.2617"/><rect fill="#FFFFFF" height="2" style="stroke:#000000;stroke-width:1;" width="4" x="1192.9648" y="581.2617"/><rect fill="#FFFFFF" height="2" style="stroke:#000000;stroke-width:1;" width="4" x="1192.9648" y="585.2617"/><text fill="#000000" font-family="'Segoe UI'" font-size="11" lengthAdjust="spacing" textLength="101.9648" x="1088" y="606.1318">StdioServerTransport</text></g><g class="entity" data-qualified-name="secrets" data-source-line="51" id="ent0026"><path d="M274,107.2617 L274,173.7852 A5,5 0 0 0 279,178.7852 L421.189,178.7852 A5,5 0 0 0 426.189,173.7852 L426.189,112.2617 L416.189,102.2617 L279,102.2617 A5,5 0 0 0 274,107.2617" fill="#EEEEEE" style="stroke:#000000;stroke-width:1;"/><path d="M416.189,102.2617 L416.189,109.7617 A2.5,2.5 0 0 0 418.689,112.2617 L426.189,112.2617 L416.189,102.2617" fill="#EEEEEE" style="stroke:#000000;stroke-width:1;"/><text fill="#000000" font-family="'Segoe UI'" font-size="11" font-weight="bold" lengthAdjust="spacing" textLength="80.9209" x="280" y="119.1318">Dados Sigilosos</text><line style="stroke:#000000;stroke-width:1;" x1="275" x2="425.189" y1="121.8926" y2="121.8926"/><text fill="#000000" font-family="'Segoe UI'" font-size="11" lengthAdjust="spacing" textLength="131.189" x="280" y="137.7627">Credenciais, tokens, chaves</text><text fill="#000000" font-family="'Segoe UI'" font-size="11" lengthAdjust="spacing" textLength="106.7827" x="280" y="152.3936">Variaveis de ambiente</text><text fill="#000000" font-family="'Segoe UI'" font-size="11" lengthAdjust="spacing" textLength="82.0757" x="280" y="167.0244">Configs sensiveis</text></g><!--link cursor_browser_tools_mcp to pee_platform--><g class="link" data-entity-1="ent0003" data-entity-2="ent0004" data-link-type="dependency" data-source-line="60" id="lnk27"><path d="M120,163.4117 C120,189.7317 120,226.8717 120,253.1617" fill="none" id="cursor_browser_tools_mcp-to-pee_platform" style="stroke:#000000;stroke-width:1;"/><polygon fill="#000000" points="120,259.1617,124,250.1617,120,254.1617,116,250.1617,120,259.1617" style="stroke:#000000;stroke-width:1;"/></g><!--link main to code--><g class="link" data-entity-1="ent0002" data-entity-2="ent0005" data-link-type="dependency" data-source-line="61" id="lnk28"><path d="M247.0302,282.2617 C247.1072,282.2617 247.1846,282.2617 247.2623,282.2617 C252.2403,282.2617 258.9119,282.2617 265.6863,282.2617 C272.4606,282.2617 279.3378,282.2617 284.727,282.2617 C285.4007,282.2617 286.0511,282.2617 286.6751,282.2617 C286.7531,282.2617 280.8307,282.2617 280.9079,282.2617" fill="none" id="main-to-code" style="stroke:#000000;stroke-width:1;"/><polygon fill="#000000" points="286.9079,282.2617,277.9079,278.2617,281.9079,282.2617,277.9079,286.2617,286.9079,282.2617" style="stroke:#000000;stroke-width:1;"/></g><g class="legend" data-source-line="12"><rect fill="none" height="144.3477" rx="5" ry="5" style="stroke:#000000;stroke-width:1;" width="202.6777" x="1023.3223" y="653.2617"/><text fill="#000000" font-family="'Segoe UI'" font-size="14" font-weight="bold" lengthAdjust="spacing" textLength="22.8662" x="1032.1846" y="675.3691">Cor</text><text fill="#000000" font-family="'Segoe UI'" font-size="14" font-weight="bold" lengthAdjust="spacing" textLength="52.8281" x="1062.7754" y="675.3691">Camada</text><rect fill="#1565C0" height="18.6211" style="stroke:none;stroke-width:1;" width="30.5908" x="1028.3223" y="678.8828"/><text fill="#000000" font-family="'Segoe UI'" font-size="14" lengthAdjust="spacing" textLength="3.835" x="1028.3223" y="693.9902">&#160;</text><text fill="#000000" font-family="'Segoe UI'" font-size="14" lengthAdjust="spacing" textLength="84.2939" x="1062.748" y="693.9902">Apresentacao</text><rect fill="#0277BD" height="18.6211" style="stroke:none;stroke-width:1;" width="30.5908" x="1028.3223" y="697.5039"/><text fill="#000000" font-family="'Segoe UI'" font-size="14" lengthAdjust="spacing" textLength="3.835" x="1028.3223" y="712.6113">&#160;</text><text fill="#000000" font-family="'Segoe UI'" font-size="14" lengthAdjust="spacing" textLength="59.4248" x="1062.748" y="712.6113">Aplicacao</text><rect fill="#00838F" height="18.6211" style="stroke:none;stroke-width:1;" width="30.5908" x="1028.3223" y="716.125"/><text fill="#000000" font-family="'Segoe UI'" font-size="14" lengthAdjust="spacing" textLength="3.835" x="1028.3223" y="731.2324">&#160;</text><text fill="#000000" font-family="'Segoe UI'" font-size="14" lengthAdjust="spacing" textLength="52.9854" x="1062.748" y="731.2324">Dominio</text><rect fill="#00695C" height="18.6211" style="stroke:none;stroke-width:1;" width="30.5908" x="1028.3223" y="734.7461"/><text fill="#000000" font-family="'Segoe UI'" font-size="14" lengthAdjust="spacing" textLength="3.835" x="1028.3223" y="749.8535">&#160;</text><text fill="#000000" font-family="'Segoe UI'" font-size="14" lengthAdjust="spacing" textLength="83.4736" x="1062.748" y="749.8535">Infraestrutura</text><rect fill="#AD1457" height="18.6211" style="stroke:none;stroke-width:1;" width="30.5908" x="1028.3223" y="753.3672"/><text fill="#000000" font-family="'Segoe UI'" font-size="14" lengthAdjust="spacing" textLength="3.835" x="1028.3223" y="768.4746">&#160;</text><text fill="#000000" font-family="'Segoe UI'" font-size="14" lengthAdjust="spacing" textLength="100.0781" x="1062.748" y="768.4746">Observabilidade</text><rect fill="#9E9E9E" height="18.6211" style="stroke:none;stroke-width:1;" width="30.5908" x="1028.3223" y="771.9883"/><text fill="#000000" font-family="'Segoe UI'" font-size="14" lengthAdjust="spacing" textLength="3.835" x="1028.3223" y="787.0957">&#160;</text><text fill="#000000" font-family="'Segoe UI'" font-size="14" lengthAdjust="spacing" textLength="154.417" x="1062.748" y="787.0957">Dados Sigilosos (Isolado)</text><line style="stroke:#000000;stroke-width:1;" x1="1028.3223" x2="1221" y1="660.2617" y2="660.2617"/><line style="stroke:#000000;stroke-width:1;" x1="1028.3223" x2="1221" y1="678.8828" y2="678.8828"/><line style="stroke:#000000;stroke-width:1;" x1="1028.3223" x2="1221" y1="697.5039" y2="697.5039"/><line style="stroke:#000000;stroke-width:1;" x1="1028.3223" x2="1221" y1="716.125" y2="716.125"/><line style="stroke:#000000;stroke-width:1;" x1="1028.3223" x2="1221" y1="734.7461" y2="734.7461"/><line style="stroke:#000000;stroke-width:1;" x1="1028.3223" x2="1221" y1="753.3672" y2="753.3672"/><line style="stroke:#000000;stroke-width:1;" x1="1028.3223" x2="1221" y1="771.9883" y2="771.9883"/><line style="stroke:#000000;stroke-width:1;" x1="1028.3223" x2="1221" y1="790.6094" y2="790.6094"/><line style="stroke:#000000;stroke-width:1;" x1="1028.3223" x2="1028.3223" y1="660.2617" y2="790.6094"/><line style="stroke:#000000;stroke-width:1;" x1="1058.9131" x2="1058.9131" y1="660.2617" y2="790.6094"/><line style="stroke:#000000;stroke-width:1;" x1="1221" x2="1221" y1="660.2617" y2="790.6094"/></g><g class="footer" data-source-line="62"><text fill="#000000" font-family="'Segoe UI'" font-size="10" lengthAdjust="spacing" textLength="9.4482" x="470.5537" y="819.4004">\n</text><text fill="#000000" font-family="'Segoe UI'" font-size="10" lengthAdjust="spacing" textLength="285.4443" x="480.002" y="819.4004">Sistema_Gerson - Diagrama para portifolio (sem dados sensiveis)</text></g><?plantuml-src VLLTR-f647tthvYIXoQeg91S4gYuI1HC6wdvK9os3xqLMjQ3MMMzu-wkStNRs__UMKE2xOJQ4bxc7C-SdHdFVkEtc2CKMYWJkITb2c553ciXdp9BfKddfCd2oJ8ETusHuaQKsY_9-5l17Ze9PeJmwtNdVLAY_aOO36fWmJ54Xed_eX4iIYzCfh56S5kHqcTbCjW8xUh8NfarQ67Ghm5Q6VHV2WIoVajHv9Ldvzrkefp7NAn-Gkl8TBkVFfc9OqK_32wcC_jNgJpwqWf0kA6qrEJWtYeZLI6KctmVcDF3AuFf0xeo9mWneU1GQaDQqPuOHHepD2bObMrz1F3r8x3MwY5oaGhu6emmEHaCBuVp_fJNiyAYG-E55FGAzy-lhdvSx62jP1FhZov6ou0jA5T6rP7ByN0Ua6kpiGATjsMrjnV2R37uCBmAXBkrG_iiraghLAJuoXZ7uQwSSmKS92fJd1DUdLuxqcmxOsxOucwdKRIl9NJUfgy3ma7ExGMJoSDBbQTJE8albkVB1Vp3GINb1HdUFtHaoHMolRMbpookvucqw-MogDpimDKUN5NWYi6cYmAnnmtjDsJpwZKsh5uCqRyrjNCjd4F7PL-MHXAlJaLEd35njej7d9MsxD5o68zRil_8q2zspPvmIj7USrVy-U9YDVX_yiySya0-Rv6zo0xWHHESQyNF0_oX2ISEOsl97WZ35Y69TouUhJ2kQ8Y-F2OwDi_AaiaRaQzQZdsgwAZhKPEiNAmvnUppG1atAR_ZEY7vXFweJvu3pTJmKgCNQuqrKgiIybrIgmA59OdEpIqAZ_TXphWQkLMHNKLhUAiaDx9uGsaLXQSBbLRY8-QXQ-lABjyeomi_iraPYk6M_3UHFD15xPLMOMIrYtro59amodGzZQCt7RBJ-rxAn-yK_IZxl1--FKCUWyaXA_6ElwVgOaVTRclQTBjixVLw_CkvJv472i-Jxy3J4nf-ogruHiVeRy8gNYh71mw8V1qw1CDRP3Og2x6CKm6lPbPG44NHj_2nkk0X_cKslxwxdTt4juztoTuS7Pirh6ZQd2ZLS0lMiCreG-pVmk6uw4-Rfm_qOA54ncqasYS8d3haKxDAmwleizTp9Oh-0m00?></g></svg>