<?plantuml 1.2026.1?><svg xmlns="http://www.w3.org/2000/svg" xmlns:xlink="http://www.w3.org/1999/xlink" contentStyleType="text/css" data-diagram-type="DESCRIPTION" height="841px" preserveAspectRatio="none" style="width:1047px;height:841px;background:#FEFEFE;" version="1.1" viewBox="0 0 1047 841" width="1047px" zoomAndPan="magnify"><title>**Sistema_deteccao_atividade_Raspberry**\n&lt;size:13&gt;Arquitetura e Modulos Principais&lt;/size&gt;\n&lt;size:11&gt;Resumo para portifolio&lt;/size&gt;</title><defs/><g><rect fill="#FEFEFE" height="841" style="stroke:none;stroke-width:1;" width="1047" x="0" y="0"/><g class="title" data-source-line="10"><text fill="#000000" font-family="'Segoe UI'" font-size="22" font-weight="bold" lengthAdjust="spacing" textLength="400.7266" x="135.002" y="38.7402">Sistema_deteccao_atividade_Raspberry</text><text fill="#000000" font-family="'Segoe UI'" font-size="22" font-weight="bold" lengthAdjust="spacing" textLength="22.9023" x="535.7285" y="38.7402">\n</text><text fill="#000000" font-family="'Segoe UI'" font-size="13" font-weight="bold" lengthAdjust="spacing" textLength="201.6841" x="558.6309" y="40.999">Arquitetura e Modulos Principais</text><text fill="#000000" font-family="'Segoe UI'" font-size="22" font-weight="bold" lengthAdjust="spacing" textLength="22.9023" x="760.3149" y="38.7402">\n</text><text fill="#000000" font-family="'Segoe UI'" font-size="11" font-weight="bold" lengthAdjust="spacing" textLength="119.7808" x="783.2173" y="41.501">Resumo para portifolio</text></g><!--cluster main--><g class="cluster" data-qualified-name="main" data-source-line="22" id="ent0002"><rect fill="#E3F2FD" height="266" rx="5" ry="5" style="stroke:#000000;stroke-width:1;" width="121" x="12" y="62.2617"/><text fill="#000000" font-family="'Segoe UI'" font-size="11" font-style="italic" lengthAdjust="spacing" textLength="57.7285" x="43.6357" y="76.1318">&#171;Rectangle&#187;</text><text fill="#000000" font-family="'Segoe UI'" font-size="11" font-weight="bold" lengthAdjust="spacing" textLength="98.4683" x="23.2659" y="90.7627">Modulos Principais</text></g><!--cluster code--><g class="cluster" data-qualified-name="code" data-source-line="27" id="ent0005"><rect fill="#E8F5E9" height="447" rx="5" ry="5" style="stroke:#000000;stroke-width:1;" width="868" x="173" y="203.2617"/><text fill="#000000" font-family="'Segoe UI'" font-size="11" font-style="italic" lengthAdjust="spacing" textLength="57.7285" x="578.1357" y="217.1318">&#171;Rectangle&#187;</text><text fill="#000000" font-family="'Segoe UI'" font-size="11" font-weight="bold" lengthAdjust="spacing" textLength="143.5156" x="535.2422" y="231.7627">Classes e Funcoes (amostra)</text></g><!--entity src--><g class="entity" data-qualified-name="main.src" data-source-line="23" id="ent0003"><rect fill="#FFFFFF" height="44.6309" rx="5" ry="5" style="stroke:#000000;stroke-width:1;" width="53.5728" x="36" y="118.2617"/><rect fill="#FFFFFF" height="10" style="stroke:#000000;stroke-width:1;" width="15" x="69.5728" y="123.2617"/><rect fill="#FFFFFF" height="2" style="stroke:#000000;stroke-width:1;" width="4" x="67.5728" y="125.2617"/><rect fill="#FFFFFF" height="2" style="stroke:#000000;stroke-width:1;" width="4" x="67.5728" y="129.2617"/><text fill="#000000" font-family="'Segoe UI'" font-size="11" lengthAdjust="spacing" textLength="13.5728" x="51" y="150.1318">src</text></g><!--entity web--><g class="entity" data-qualified-name="main.web" data-source-line="24" id="ent0004"><rect fill="#FFFFFF" height="44.6309" rx="5" ry="5" style="stroke:#000000;stroke-width:1;" width="60.1685" x="36" y="259.2617"/><rect fill="#FFFFFF" height="10" style="stroke:#000000;stroke-width:1;" width="15" x="76.1685" y="264.2617"/><rect fill="#FFFFFF" height="2" style="stroke:#000000;stroke-width:1;" width="4" x="74.1685" y="266.2617"/><rect fill="#FFFFFF" height="2" style="stroke:#000000;stroke-width:1;" width="4" x="74.1685" y="270.2617"/><text fill="#000000" font-family="'Segoe UI'" font-size="11" lengthAdjust="spacing" textLength="20.1685" x="51" y="291.1318">web</text></g><!--entity code_1--><g class="entity" data-qualified-name="code.code_1" data-source-line="28" id="ent0006"><rect fill="#FFFFFF" height="44.6309" rx="5" ry="5" style="stroke:#000000;stroke-width:1;" width="127.4521" x="216.5" y="259.2617"/><rect fill="#FFFFFF" height="10" style="stroke:#000000;stroke-width:1;" width="15" x="323.9521" y="264.2617"/><rect fill="#FFFFFF" height="2" style="stroke:#000000;stroke-width:1;" width="4" x="321.9521" y="266.2617"/><rect fill="#FFFFFF" height="2" style="stroke:#000000;stroke-width:1;" width="4" x="321.9521" y="270.2617"/><text fill="#000000" font-family="'Segoe UI'" font-size="11" lengthAdjust="spacing" textLength="87.4521" x="231.5" y="291.1318">StreamCreateDTO</text></g><!--entity code_2--><g class="entity" data-qualified-name="code.code_2" data-source-line="29" id="ent0007"><rect fill="#FFFFFF" height="44.6309" rx="5" ry="5" style="stroke:#000000;stroke-width:1;" width="142.5449" x="378.5" y="259.2617"/><rect fill="#FFFFFF" height="10" style="stroke:#000000;stroke-width:1;" width="15" x="501.0449" y="264.2617"/><rect fill="#FFFFFF" height="2" style="stroke:#000000;stroke-width:1;" width="4" x="499.0449" y="266.2617"/><rect fill="#FFFFFF" height="2" style="stroke:#000000;stroke-width:1;" width="4" x="499.0449" y="270.2617"/><text fill="#000000" font-family="'Segoe UI'" font-size="11" lengthAdjust="spacing" textLength="102.5449" x="393.5" y="291.1318">StreamResponseDTO</text></g><!--entity code_3--><g class="entity" data-qualified-name="code.code_3" data-source-line="30" id="ent0008"><rect fill="#FFFFFF" height="44.6309" rx="5" ry="5" style="stroke:#000000;stroke-width:1;" width="95.1719" x="556.5" y="259.2617"/><rect fill="#FFFFFF" height="10" style="stroke:#000000;stroke-width:1;" width="15" x="631.6719" y="264.2617"/><rect fill="#FFFFFF" height="2" style="stroke:#000000;stroke-width:1;" width="4" x="629.6719" y="266.2617"/><rect fill="#FFFFFF" height="2" style="stroke:#000000;stroke-width:1;" width="4" x="629.6719" y="270.2617"/><text fill="#000000" font-family="'Segoe UI'" font-size="11" lengthAdjust="spacing" textLength="55.1719" x="571.5" y="291.1318">from_entity</text></g><!--entity code_4--><g class="entity" data-qualified-name="code.code_4" data-source-line="31" id="ent0009"><rect fill="#FFFFFF" height="44.6309" rx="5" ry="5" style="stroke:#000000;stroke-width:1;" width="131.5664" x="687" y="259.2617"/><rect fill="#FFFFFF" height="10" style="stroke:#000000;stroke-width:1;" width="15" x="798.5664" y="264.2617"/><rect fill="#FFFFFF" height="2" style="stroke:#000000;stroke-width:1;" width="4" x="796.5664" y="266.2617"/><rect fill="#FFFFFF" height="2" style="stroke:#000000;stroke-width:1;" width="4" x="796.5664" y="270.2617"/><text fill="#000000" font-family="'Segoe UI'" font-size="11" lengthAdjust="spacing" textLength="91.5664" x="702" y="291.1318">StreamUpdateDTO</text></g><!--entity code_5--><g class="entity" data-qualified-name="code.code_5" data-source-line="32" id="ent0010"><rect fill="#FFFFFF" height="44.6309" rx="5" ry="5" style="stroke:#000000;stroke-width:1;" width="158.7817" x="854.5" y="259.2617"/><rect fill="#FFFFFF" height="10" style="stroke:#000000;stroke-width:1;" width="15" x="993.2817" y="264.2617"/><rect fill="#FFFFFF" height="2" style="stroke:#000000;stroke-width:1;" width="4" x="991.2817" y="266.2617"/><rect fill="#FFFFFF" height="2" style="stroke:#000000;stroke-width:1;" width="4" x="991.2817" y="270.2617"/><text fill="#000000" font-family="'Segoe UI'" font-size="11" lengthAdjust="spacing" textLength="118.7817" x="869.5" y="291.1318">StreamListResponseDTO</text></g><!--entity code_6--><g class="entity" data-qualified-name="code.code_6" data-source-line="33" id="ent0011"><rect fill="#FFFFFF" height="44.6309" rx="5" ry="5" style="stroke:#000000;stroke-width:1;" width="146.4873" x="205" y="367.7617"/><rect fill="#FFFFFF" height="10" style="stroke:#000000;stroke-width:1;" width="15" x="331.4873" y="372.7617"/><rect fill="#FFFFFF" height="2" style="stroke:#000000;stroke-width:1;" width="4" x="329.4873" y="374.7617"/><rect fill="#FFFFFF" height="2" style="stroke:#000000;stroke-width:1;" width="4" x="329.4873" y="378.7617"/><text fill="#000000" font-family="'Segoe UI'" font-size="11" lengthAdjust="spacing" textLength="106.4873" x="220" y="399.6318">CreateStreamUseCase</text></g><!--entity code_7--><g class="entity" data-qualified-name="code.code_7" data-source-line="34" id="ent0012"><rect fill="#FFFFFF" height="51.9463" rx="5" ry="5" style="stroke:#000000;stroke-width:1;" width="63.2808" x="386.5" y="364.2617"/><rect fill="#FFFFFF" height="10" style="stroke:#000000;stroke-width:1;" width="15" x="429.7808" y="369.2617"/><rect fill="#FFFFFF" height="2" style="stroke:#000000;stroke-width:1;" width="4" x="427.7808" y="371.2617"/><rect fill="#FFFFFF" height="2" style="stroke:#000000;stroke-width:1;" width="4" x="427.7808" y="375.2617"/><line style="stroke:#000000;stroke-width:1;" x1="387.5" x2="410.5" y1="391.5771" y2="391.5771"/><text fill="#000000" font-family="'Segoe UI'" font-size="11" lengthAdjust="spacing" textLength="15.2808" x="410.5" y="395.6318">init</text><line style="stroke:#000000;stroke-width:1;" x1="425.7808" x2="448.7808" y1="391.5771" y2="391.5771"/></g><!--entity code_8--><g class="entity" data-qualified-name="code.code_8" data-source-line="35" id="ent0013"><rect fill="#FFFFFF" height="44.6309" rx="5" ry="5" style="stroke:#000000;stroke-width:1;" width="132.0498" x="485" y="367.7617"/><rect fill="#FFFFFF" height="10" style="stroke:#000000;stroke-width:1;" width="15" x="597.0498" y="372.7617"/><rect fill="#FFFFFF" height="2" style="stroke:#000000;stroke-width:1;" width="4" x="595.0498" y="374.7617"/><rect fill="#FFFFFF" height="2" style="stroke:#000000;stroke-width:1;" width="4" x="595.0498" y="378.7617"/><text fill="#000000" font-family="'Segoe UI'" font-size="11" lengthAdjust="spacing" textLength="92.0498" x="500" y="399.6318">GetStreamUseCase</text></g><!--entity code_9--><g class="entity" data-qualified-name="code.code_9" data-source-line="36" id="ent0014"><rect fill="#FFFFFF" height="44.6309" rx="5" ry="5" style="stroke:#000000;stroke-width:1;" width="149.1406" x="652.5" y="367.7617"/><rect fill="#FFFFFF" height="10" style="stroke:#000000;stroke-width:1;" width="15" x="781.6406" y="372.7617"/><rect fill="#FFFFFF" height="2" style="stroke:#000000;stroke-width:1;" width="4" x="779.6406" y="374.7617"/><rect fill="#FFFFFF" height="2" style="stroke:#000000;stroke-width:1;" width="4" x="779.6406" y="378.7617"/><text fill="#000000" font-family="'Segoe UI'" font-size="11" lengthAdjust="spacing" textLength="109.1406" x="667.5" y="399.6318">GetAllStreamsUseCase</text></g><!--entity code_10--><g class="entity" data-qualified-name="code.code_10" data-source-line="37" id="ent0015"><rect fill="#FFFFFF" height="44.6309" rx="5" ry="5" style="stroke:#000000;stroke-width:1;" width="180.3896" x="837" y="367.7617"/><rect fill="#FFFFFF" height="10" style="stroke:#000000;stroke-width:1;" width="15" x="997.3896" y="372.7617"/><rect fill="#FFFFFF" height="2" style="stroke:#000000;stroke-width:1;" width="4" x="995.3896" y="374.7617"/><rect fill="#FFFFFF" height="2" style="stroke:#000000;stroke-width:1;" width="4" x="995.3896" y="378.7617"/><text fill="#000000" font-family="'Segoe UI'" font-size="11" lengthAdjust="spacing" textLength="140.3896" x="852" y="399.6318">UpdateStreamStatusUseCase</text></g><!--entity code_11--><g class="entity" data-qualified-name="code.code_11" data-source-line="38" id="ent0016"><rect fill="#FFFFFF" height="44.6309" rx="5" ry="5" style="stroke:#000000;stroke-width:1;" width="146.3853" x="205" y="476.2617"/><rect fill="#FFFFFF" height="10" style="stroke:#000000;stroke-width:1;" width="15" x="331.3853" y="481.2617"/><rect fill="#FFFFFF" height="2" style="stroke:#000000;stroke-width:1;" width="4" x="329.3853" y="483.2617"/><rect fill="#FFFFFF" height="2" style="stroke:#000000;stroke-width:1;" width="4" x="329.3853" y="487.2617"/><text fill="#000000" font-family="'Segoe UI'" font-size="11" lengthAdjust="spacing" textLength="106.3853" x="220" y="508.1318">DeleteStreamUseCase</text></g><!--entity code_12--><g class="entity" data-qualified-name="code.code_12" data-source-line="39" id="ent0017"><rect fill="#FFFFFF" height="44.6309" rx="5" ry="5" style="stroke:#000000;stroke-width:1;" width="104.0073" x="386" y="476.2617"/><rect fill="#FFFFFF" height="10" style="stroke:#000000;stroke-width:1;" width="15" x="470.0073" y="481.2617"/><rect fill="#FFFFFF" height="2" style="stroke:#000000;stroke-width:1;" width="4" x="468.0073" y="483.2617"/><rect fill="#FFFFFF" height="2" style="stroke:#000000;stroke-width:1;" width="4" x="468.0073" y="487.2617"/><text fill="#000000" font-family="'Segoe UI'" font-size="11" lengthAdjust="spacing" textLength="64.0073" x="401" y="508.1318">StreamStatus</text></g><!--entity code_13--><g class="entity" data-qualified-name="code.code_13" data-source-line="40" id="ent0018"><rect fill="#FFFFFF" height="44.6309" rx="5" ry="5" style="stroke:#000000;stroke-width:1;" width="74.2192" x="525" y="476.2617"/><rect fill="#FFFFFF" height="10" style="stroke:#000000;stroke-width:1;" width="15" x="579.2192" y="481.2617"/><rect fill="#FFFFFF" height="2" style="stroke:#000000;stroke-width:1;" width="4" x="577.2192" y="483.2617"/><rect fill="#FFFFFF" height="2" style="stroke:#000000;stroke-width:1;" width="4" x="577.2192" y="487.2617"/><text fill="#000000" font-family="'Segoe UI'" font-size="11" lengthAdjust="spacing" textLength="34.2192" x="540" y="508.1318">Stream</text></g><!--entity code_14--><g class="entity" data-qualified-name="code.code_14" data-source-line="41" id="ent0019"><rect fill="#FFFFFF" height="44.6309" rx="5" ry="5" style="stroke:#000000;stroke-width:1;" width="79.9878" x="634" y="476.2617"/><rect fill="#FFFFFF" height="10" style="stroke:#000000;stroke-width:1;" width="15" x="693.9878" y="481.2617"/><rect fill="#FFFFFF" height="2" style="stroke:#000000;stroke-width:1;" width="4" x="691.9878" y="483.2617"/><rect fill="#FFFFFF" height="2" style="stroke:#000000;stroke-width:1;" width="4" x="691.9878" y="487.2617"/><text fill="#000000" font-family="'Segoe UI'" font-size="11" lengthAdjust="spacing" textLength="39.9878" x="649" y="508.1318">is_active</text></g><!--entity code_15--><g class="entity" data-qualified-name="code.code_15" data-source-line="42" id="ent0020"><rect fill="#FFFFFF" height="44.6309" rx="5" ry="5" style="stroke:#000000;stroke-width:1;" width="101.2949" x="749.5" y="476.2617"/><rect fill="#FFFFFF" height="10" style="stroke:#000000;stroke-width:1;" width="15" x="830.7949" y="481.2617"/><rect fill="#FFFFFF" height="2" style="stroke:#000000;stroke-width:1;" width="4" x="828.7949" y="483.2617"/><rect fill="#FFFFFF" height="2" style="stroke:#000000;stroke-width:1;" width="4" x="828.7949" y="487.2617"/><text fill="#000000" font-family="'Segoe UI'" font-size="11" lengthAdjust="spacing" textLength="61.2949" x="764.5" y="508.1318">get_rtmp_url</text></g><!--entity code_16--><g class="entity" data-qualified-name="code.code_16" data-source-line="43" id="ent0021"><rect fill="#FFFFFF" height="44.6309" rx="5" ry="5" style="stroke:#000000;stroke-width:1;" width="91.3584" x="232.5" y="581.2617"/><rect fill="#FFFFFF" height="10" style="stroke:#000000;stroke-width:1;" width="15" x="303.8584" y="586.2617"/><rect fill="#FFFFFF" height="2" style="stroke:#000000;stroke-width:1;" width="4" x="301.8584" y="588.2617"/><rect fill="#FFFFFF" height="2" style="stroke:#000000;stroke-width:1;" width="4" x="301.8584" y="592.2617"/><text fill="#000000" font-family="'Segoe UI'" font-size="11" lengthAdjust="spacing" textLength="51.3584" x="247.5" y="613.1318">get_hls_url</text></g><!--entity code_17--><g class="entity" data-qualified-name="code.code_17" data-source-line="44" id="ent0022"><rect fill="#FFFFFF" height="44.6309" rx="5" ry="5" style="stroke:#000000;stroke-width:1;" width="100.7686" x="358.5" y="581.2617"/><rect fill="#FFFFFF" height="10" style="stroke:#000000;stroke-width:1;" width="15" x="439.2686" y="586.2617"/><rect fill="#FFFFFF" height="2" style="stroke:#000000;stroke-width:1;" width="4" x="437.2686" y="588.2617"/><rect fill="#FFFFFF" height="2" style="stroke:#000000;stroke-width:1;" width="4" x="437.2686" y="592.2617"/><text fill="#000000" font-family="'Segoe UI'" font-size="11" lengthAdjust="spacing" textLength="60.7686" x="373.5" y="613.1318">get_dash_url</text></g><!--entity code_18--><g class="entity" data-qualified-name="code.code_18" data-source-line="45" id="ent0023"><rect fill="#FFFFFF" height="44.6309" rx="5" ry="5" style="stroke:#000000;stroke-width:1;" width="126.1147" x="495" y="581.2617"/><rect fill="#FFFFFF" height="10" style="stroke:#000000;stroke-width:1;" width="15" x="601.1147" y="586.2617"/><rect fill="#FFFFFF" height="2" style="stroke:#000000;stroke-width:1;" width="4" x="599.1147" y="588.2617"/><rect fill="#FFFFFF" height="2" style="stroke:#000000;stroke-width:1;" width="4" x="599.1147" y="592.2617"/><text fill="#000000" font-family="'Segoe UI'" font-size="11" lengthAdjust="spacing" textLength="86.1147" x="510" y="613.1318">StreamRepository</text></g><!--entity code_19--><g class="entity" data-qualified-name="code.code_19" data-source-line="46" id="ent0024"><rect fill="#FFFFFF" height="44.6309" rx="5" ry="5" style="stroke:#000000;stroke-width:1;" width="108.4063" x="656" y="581.2617"/><rect fill="#FFFFFF" height="10" style="stroke:#000000;stroke-width:1;" width="15" x="744.4063" y="586.2617"/><rect fill="#FFFFFF" height="2" style="stroke:#000000;stroke-width:1;" width="4" x="742.4063" y="588.2617"/><rect fill="#FFFFFF" height="2" style="stroke:#000000;stroke-width:1;" width="4" x="742.4063" y="592.2617"/><text fill="#000000" font-family="'Segoe UI'" font-size="11" lengthAdjust="spacing" textLength="68.4063" x="671" y="613.1318">StreamService</text></g><!--entity code_20--><g class="entity" data-qualified-name="code.code_20" data-source-line="47" id="ent0025"><rect fill="#FFFFFF" height="44.6309" rx="5" ry="5" style="stroke:#000000;stroke-width:1;" width="146.3906" x="799" y="581.2617"/><rect fill="#FFFFFF" height="10" style="stroke:#000000;stroke-width:1;" width="15" x="925.3906" y="586.2617"/><rect fill="#FFFFFF" height="2" style="stroke:#000000;stroke-width:1;" width="4" x="923.3906" y="588.2617"/><rect fill="#FFFFFF" height="2" style="stroke:#000000;stroke-width:1;" width="4" x="923.3906" y="592.2617"/><text fill="#000000" font-family="'Segoe UI'" font-size="11" lengthAdjust="spacing" textLength="106.3906" x="814" y="613.1318">_generate_stream_key</text></g><g class="entity" data-qualified-name="secrets" data-source-line="51" id="ent0026"><path d="M160,107.2617 L160,173.7852 A5,5 0 0 0 165,178.7852 L307.189,178.7852 A5,5 0 0 0 312.189,173.7852 L312.189,112.2617 L302.189,102.2617 L165,102.2617 A5,5 0 0 0 160,107.2617" fill="#EEEEEE" style="stroke:#000000;stroke-width:1;"/><path d="M302.189,102.2617 L302.189,109.7617 A2.5,2.5 0 0 0 304.689,112.2617 L312.189,112.2617 L302.189,102.2617" fill="#EEEEEE" style="stroke:#000000;stroke-width:1;"/><text fill="#000000" font-family="'Segoe UI'" font-size="11" font-weight="bold" lengthAdjust="spacing" textLength="80.9209" x="166" y="119.1318">Dados Sigilosos</text><line style="stroke:#000000;stroke-width:1;" x1="161" x2="311.189" y1="121.8926" y2="121.8926"/><text fill="#000000" font-family="'Segoe UI'" font-size="11" lengthAdjust="spacing" textLength="131.189" x="166" y="137.7627">Credenciais, tokens, chaves</text><text fill="#000000" font-family="'Segoe UI'" font-size="11" lengthAdjust="spacing" textLength="106.7827" x="166" y="152.3936">Variaveis de ambiente</text><text fill="#000000" font-family="'Segoe UI'" font-size="11" lengthAdjust="spacing" textLength="82.0757" x="166" y="167.0244">Configs sensiveis</text></g><!--link src to web--><g class="link" data-entity-1="ent0003" data-entity-2="ent0004" data-link-type="dependency" data-source-line="60" id="lnk27"><path d="M63,163.4117 C63,189.7317 63,226.8717 63,253.1617" fill="none" id="src-to-web" style="stroke:#000000;stroke-width:1;"/><polygon fill="#000000" points="63,259.1617,67,250.1617,63,254.1617,59,250.1617,63,259.1617" style="stroke:#000000;stroke-width:1;"/></g><!--link main to code--><g class="link" data-entity-1="ent0002" data-entity-2="ent0005" data-link-type="dependency" data-source-line="61" id="lnk28"><path d="M133.0302,282.2617 C133.1072,282.2617 133.1846,282.2617 133.2623,282.2617 C138.2403,282.2617 144.9119,282.2617 151.6863,282.2617 C158.4606,282.2617 165.3378,282.2617 170.727,282.2617 C171.4007,282.2617 172.0511,282.2617 172.6751,282.2617 C172.7531,282.2617 166.8307,282.2617 166.9079,282.2617" fill="none" id="main-to-code" style="stroke:#000000;stroke-width:1;"/><polygon fill="#000000" points="172.9079,282.2617,163.9079,278.2617,167.9079,282.2617,163.9079,286.2617,172.9079,282.2617" style="stroke:#000000;stroke-width:1;"/></g><g class="legend" data-source-line="12"><rect fill="none" height="144.3477" rx="5" ry="5" style="stroke:#000000;stroke-width:1;" width="202.6777" x="825.3223" y="660.2617"/><text fill="#000000" font-family="'Segoe UI'" font-size="14" font-weight="bold" lengthAdjust="spacing" textLength="22.8662" x="834.1846" y="682.3691">Cor</text><text fill="#000000" font-family="'Segoe UI'" font-size="14" font-weight="bold" lengthAdjust="spacing" textLength="52.8281" x="864.7754" y="682.3691">Camada</text><rect fill="#1565C0" height="18.6211" style="stroke:none;stroke-width:1;" width="30.5908" x="830.3223" y="685.8828"/><text fill="#000000" font-family="'Segoe UI'" font-size="14" lengthAdjust="spacing" textLength="3.835" x="830.3223" y="700.9902">&#160;</text><text fill="#000000" font-family="'Segoe UI'" font-size="14" lengthAdjust="spacing" textLength="84.2939" x="864.748" y="700.9902">Apresentacao</text><rect fill="#0277BD" height="18.6211" style="stroke:none;stroke-width:1;" width="30.5908" x="830.3223" y="704.5039"/><text fill="#000000" font-family="'Segoe UI'" font-size="14" lengthAdjust="spacing" textLength="3.835" x="830.3223" y="719.6113">&#160;</text><text fill="#000000" font-family="'Segoe UI'" font-size="14" lengthAdjust="spacing" textLength="59.4248" x="864.748" y="719.6113">Aplicacao</text><rect fill="#00838F" height="18.6211" style="stroke:none;stroke-width:1;" width="30.5908" x="830.3223" y="723.125"/><text fill="#000000" font-family="'Segoe UI'" font-size="14" lengthAdjust="spacing" textLength="3.835" x="830.3223" y="738.2324">&#160;</text><text fill="#000000" font-family="'Segoe UI'" font-size="14" lengthAdjust="spacing" textLength="52.9854" x="864.748" y="738.2324">Dominio</text><rect fill="#00695C" height="18.6211" style="stroke:none;stroke-width:1;" width="30.5908" x="830.3223" y="741.7461"/><text fill="#000000" font-family="'Segoe UI'" font-size="14" lengthAdjust="spacing" textLength="3.835" x="830.3223" y="756.8535">&#160;</text><text fill="#000000" font-family="'Segoe UI'" font-size="14" lengthAdjust="spacing" textLength="83.4736" x="864.748" y="756.8535">Infraestrutura</text><rect fill="#AD1457" height="18.6211" style="stroke:none;stroke-width:1;" width="30.5908" x="830.3223" y="760.3672"/><text fill="#000000" font-family="'Segoe UI'" font-size="14" lengthAdjust="spacing" textLength="3.835" x="830.3223" y="775.4746">&#160;</text><text fill="#000000" font-family="'Segoe UI'" font-size="14" lengthAdjust="spacing" textLength="100.0781" x="864.748" y="775.4746">Observabilidade</text><rect fill="#9E9E9E" height="18.6211" style="stroke:none;stroke-width:1;" width="30.5908" x="830.3223" y="778.9883"/><text fill="#000000" font-family="'Segoe UI'" font-size="14" lengthAdjust="spacing" textLength="3.835" x="830.3223" y="794.0957">&#160;</text><text fill="#000000" font-family="'Segoe UI'" font-size="14" lengthAdjust="spacing" textLength="154.417" x="864.748" y="794.0957">Dados Sigilosos (Isolado)</text><line style="stroke:#000000;stroke-width:1;" x1="830.3223" x2="1023" y1="667.2617" y2="667.2617"/><line style="stroke:#000000;stroke-width:1;" x1="830.3223" x2="1023" y1="685.8828" y2="685.8828"/><line style="stroke:#000000;stroke-width:1;" x1="830.3223" x2="1023" y1="704.5039" y2="704.5039"/><line style="stroke:#000000;stroke-width:1;" x1="830.3223" x2="1023" y1="723.125" y2="723.125"/><line style="stroke:#000000;stroke-width:1;" x1="830.3223" x2="1023" y1="741.7461" y2="741.7461"/><line style="stroke:#000000;stroke-width:1;" x1="830.3223" x2="1023" y1="760.3672" y2="760.3672"/><line style="stroke:#000000;stroke-width:1;" x1="830.3223" x2="1023" y1="778.9883" y2="778.9883"/><line style="stroke:#000000;stroke-width:1;" x1="830.3223" x2="1023" y1="797.6094" y2="797.6094"/><line style="stroke:#000000;stroke-width:1;" x1="830.3223" x2="830.3223" y1="667.2617" y2="797.6094"/><line style="stroke:#000000;stroke-width:1;" x1="860.9131" x2="860.9131" y1="667.2617" y2="797.6094"/><line style="stroke:#000000;stroke-width:1;" x1="1023" x2="1023" y1="667.2617" y2="797.6094"/></g><g class="footer" data-source-line="62"><text fill="#000000" font-family="'Segoe UI'" font-size="10" lengthAdjust="spacing" textLength="9.4482" x="320.958" y="826.4004">\n</text><text fill="#000000" font-family="'Segoe UI'" font-size="10" lengthAdjust="spacing" textLength="386.6357" x="330.4063" y="826.4004">Sistema_deteccao_atividade_Raspberry - Diagrama para portifolio (sem dados sensiveis)</text></g><?plantuml-src ZPNjRzCy4C2_vwyujWzi5HDDHzSEbKgbBuycmOPMu0kWw9fSKskEdSTsXiRB_yuvxTOa3HA953k-d-_5Pv-VkGrb1Bb4eG9x9rIE1ZDOONoN6bsePAgbDd2ycFktGYIqnaAwXLRk6bd3qP9IJV3fwgWTMeeV165O4UPi0rDQkWT9O2Xsg5995S1kCD7VXKfXZT9M9JlFZ283ORSYa4AHUyW9j74R7GHEE5RUwIo5TPHXb92ZE4OTeHFt8i64ebkq-OgCUUXqldvL8yj-lWxFnnFpVo4SkS8W4BpNII6rXGz6g5ZaAEpefIV7-odX-9PiaMdmda3E3eYrbaBlm22Gb99Am8XqumA0Ns-08oWRp311-EK7ONGSzY_wq-wO-vFSa2Nba3r-4dTxWy7RsLOiHLoNTOVdmuMNpNGcbAXABYxxKo-vKck3P9qfojWUWSaiVDKVUE1cPSdSuqh8Se6UYCkvVqlbd1SBIv4ANXFkdLnPBNdib5aVuZRI8DXb68uEb-y8q4B6cmv6ezl7t8_7S3m_N_GMC_Z9HcETvLfn_F35clYRdy5jNV2TLgM0s-1tnU9KehLaENMBGiMQUoUOQOuQJqlJiUR8cgQ7Y_xyicbwwGnXDkMFezd7cs-FiwEmZUCzm0EsJlRgvDheBEAUS0zxvhnDswSyQLfzrSQzu-tTQhbVfxTHx7HRcgAbFNjHPwE8Dv2BeZqmg0F_aVkBfk41E95ooze3-B8ERqFUmak7hZYSmIU-DcL6aluQLTYQfgtc2jLheohoHdg4ZJ3c4b8rrCXCIYuoBikZmiWArJ-aDj8se8j3A46xQL23zWsOQokSDfMz5GvRru1FkOYh4JHI4V4f9iFPY6mv8RgZYj9UrnyufHsL1vDYGyxo8IeVLjJfDCf4fyEZPsTd_ELzc11N0Yu4By3fErBSnXky9ylIpsW4TuNb-mCmMmdsXlmihTOYzRQK5LvU5XllGH04p-5D-S3j_DraUdLpFNa_l_vuizmD1rmvsFYuB1HbtV4_Ff1WhLc3WNqbxux_vRg0CvW9JFdMmMR9XnDBVFcLuJyvU_fq4GJ17m00?></g></svg>